<?xml version="1.0" encoding="UTF-8"?>
<svg width="89px" height="31px" viewBox="0 0 89 31" version="1.1" xmlns="http://www.w3.org/2000/svg" xmlns:xlink="http://www.w3.org/1999/xlink">
    <!-- Generator: Sketch 58 (84663) - https://sketch.com -->
    <title>Brandmark</title>
    <desc>Created with Sketch.</desc>
    <g id="Symbols" stroke="none" stroke-width="1" fill="none" fill-rule="evenodd">
        <g id="Nav-/-Mobile-/-Scroll" transform="translate(-143.000000, -17.000000)" fill="#0B4A72">
            <g id="Brandmark" transform="translate(143.000000, 17.000000)">
                <g id="Alto_Wordmark_RGB_Navy">
                    <path d="M88.988764,19.0356425 C88.9678702,18.8861861 88.7604248,18.7544868 88.6813269,18.619828 C88.6305848,18.5325218 88.5932745,18.4363369 88.5216386,18.3608688 C88.3768745,18.2069731 88.248527,18.0752738 88.0948084,18.0101641 C87.8903478,17.9228578 87.5829106,18.0397594 87.3575562,18.0575166 C87.0784749,18.0797131 86.9829605,18.0530773 86.6620916,18.1344645 C86.3830103,18.2054933 86.1158683,18.264684 85.8532036,18.3179556 C85.3980175,18.4097011 84.9532783,18.4777704 84.475706,18.5428801 C84.0876785,18.5961518 83.6996511,18.6538627 83.3101312,18.7071343 C82.951952,18.7559666 82.6833176,18.753007 82.3251384,18.7929608 C82.038595,18.8240359 81.6610144,18.8876658 81.3744711,18.9157814 C80.8983912,18.9616542 80.3820162,18.9720125 79.937277,18.9794114 C79.5537268,18.9853304 79.1686841,18.9838507 78.7851339,18.9734923 C78.2493575,18.9601744 77.7120887,18.9483363 77.1778047,18.9202207 C76.7047096,18.8950647 75.7137472,18.8284752 75.6928534,18.8255156 C74.9660481,18.7248915 74.2362579,18.6272269 73.510945,18.5162443 C73.0527741,18.4466953 73.12441,17.737887 72.9826307,17.3561071 C72.7975715,16.8559459 72.5274446,16.3868598 72.193144,15.9710453 C71.5155884,15.1260984 70.5529818,14.4823998 69.4709821,14.2929896 C69.3366649,14.2693134 69.2008553,14.2559955 69.0695229,14.2249203 C68.9262512,14.1908857 68.7889492,14.1183771 68.6456775,14.1020997 C68.4068914,14.0769437 68.1651204,14.0858223 67.9263342,14.0725044 C67.8920087,14.0710246 67.8576832,14.0221923 67.8263426,13.9925969 C67.7024722,13.8786549 67.586064,13.757314 67.4547316,13.6507708 C67.3144448,13.5368287 67.1517717,13.4480427 67.0204393,13.3267018 C66.8219484,13.1432107 66.1578244,13.0351878 65.9608258,13.2098003 C65.7369638,13.4095688 65.5325032,13.6418922 65.3608757,13.8890133 C65.105673,14.2559955 64.8907655,14.6496134 64.6475021,15.026954 C64.4937835,15.2651965 64.3176787,15.4886413 64.1579905,15.7224444 C64.0177037,15.928132 63.8893561,16.1412185 63.7520541,16.3498656 C63.6043052,16.5733104 63.4222307,16.7804778 63.3073149,17.0202 C63.2192625,17.2022113 63.0998694,17.3235522 62.943166,17.4360145 C62.8864543,17.477448 62.8566061,17.5588352 62.823773,17.6254247 C62.7998943,17.674257 62.4432076,18.004245 62.3073979,18.1448229 C62.1208463,18.3371925 61.9954835,18.6005911 61.7865457,18.7574463 C61.5596988,18.9276195 61.4119499,19.140706 61.23883,19.3478733 C61.0478011,19.5772372 60.3791999,20.2505311 60.1792165,20.3896292 C60.0732551,20.5479643 59.4777822,21.1546687 59.4106236,21.2212582 C59.1151258,21.5172116 58.0495426,22.6610714 57.8212034,22.9318688 C57.4063125,23.4216716 56.0273225,24.7475427 55.8392784,24.9162362 C55.6885447,25.0523747 55.407971,25.3157732 55.2438055,25.4341546 C54.924429,25.666478 53.4275384,27.0604184 52.617158,26.9405573 C52.3112132,26.8946845 52.0679499,26.6460837 51.9396023,26.3678875 C51.8127472,26.0896913 51.7858837,25.7759807 51.7784217,25.469669 C51.7500658,24.0875667 52.6738697,22.0647254 53.2156157,20.7876865 C53.736468,19.5639193 54.4379023,18.3934237 55.1647076,17.2821188 C56.0094136,15.9902823 56.9033692,14.7310006 57.7958323,13.471719 C58.6181521,12.3115818 59.4762898,11.3216177 60.4015861,10.2399081 C60.7314094,9.85368894 61.091081,9.31505379 61.5328354,9.04573622 C62.0208546,8.74978284 62.7715385,8.85040699 63.3386556,8.85928559 C63.5117755,8.86224512 63.769963,8.86372489 63.943083,8.86964396 C64.6101918,8.88740116 65.2787929,8.89775953 65.9459017,8.91995603 C66.1876727,8.92735487 66.4309361,8.96582881 66.672707,8.96138951 C67.2398241,8.9525109 67.8069412,8.91551673 68.3740583,8.91107743 C69.0098263,8.90663813 69.6455944,8.92439533 70.2813625,8.93179417 C71.1066671,8.94067277 70.7828134,8.9169965 71.608118,8.91995603 C72.0588268,8.9214358 72.5095357,8.89332023 72.9602445,8.90663813 C73.951207,8.93771324 73.9989642,9.01466111 74.9809722,8.9480716 C76.0764036,8.87408326 76.0420781,9.06053389 77.1449716,8.86372489 C77.5180749,8.79713538 77.8732693,8.73498517 78.0001244,8.36652321 C78.1120554,8.04393403 77.9807231,7.57336816 77.7941714,7.30553035 C77.5300142,6.92818979 77.0703509,6.72250219 76.61218,6.66035199 C75.828663,6.55380877 76.0853581,6.63371618 75.2869169,6.57748504 C74.5317558,6.52421343 74.7183075,6.48869903 73.9616539,6.44874532 C73.9198663,6.44726555 72.9632293,6.43838695 72.7557839,6.43690718 C72.4558088,6.43394765 70.6753597,6.41767021 70.0858564,6.41471068 C69.5097848,6.41175115 68.4083838,6.50497646 67.8591756,6.51385506 C67.344293,6.52273366 66.8353801,6.47834066 66.3219899,6.43394765 C65.7533804,6.38511534 65.1773088,6.40583208 64.6042221,6.41175115 C64.3191712,6.41471068 64.0341202,6.45170485 63.6908651,6.47834066 C63.7460844,6.34812117 63.7774251,6.26377446 63.8177203,6.18386705 C63.8833864,6.05512733 63.9550223,5.92786737 64.0266581,5.80208719 C64.0400899,5.77841092 64.6415324,5.00893213 64.8489779,4.61383437 C64.968371,4.38595027 65.4877308,3.4906913 65.6354797,3.29684183 C65.8682962,2.99200985 65.4548977,2.62650743 65.3563984,2.58507396 C65.1967102,2.51848445 65.0459765,2.27432291 64.9310606,2.2077334 C64.4549808,1.92805746 64.4549808,1.92805746 64.1624677,1.7430866 C64.0057643,1.64394221 63.8162278,1.59215037 63.6371382,1.53591923 C63.5565479,1.51076319 63.4371549,1.48708692 63.3774583,1.52704063 C63.1401646,1.68685545 62.9073481,1.85702865 62.6984102,2.05087811 C62.5849868,2.15594156 62.5267827,2.31723615 62.4387303,2.45041517 C62.1492021,2.89286547 61.6850616,3.17994025 61.4134423,3.65346566 C61.1463003,4.12107199 60.7194701,4.48657442 60.4224799,4.94826169 C60.1329517,5.39663106 59.7926814,5.81540509 59.4568884,6.23417912 C59.3136167,6.41323091 59.1569133,6.58784341 58.87037,6.57452551 C58.5703949,6.55972784 58.2659426,6.58932317 57.9659675,6.61595898 C57.5197359,6.65591268 57.0749967,6.71806289 56.6287651,6.75505707 C55.9915046,6.80832867 55.372153,6.98738047 54.8065284,7.28037431 C54.5781891,7.39875567 54.3423878,7.53785375 54.2080706,7.75833902 C53.9886859,8.11940214 54.1021093,8.57960965 54.2215023,8.98358601 C54.8692097,9.17299617 55.545273,9.26178219 56.2198438,9.24698452 C56.8944147,9.23218685 57.3212449,9.18335454 56.8481499,9.90400102 C56.7959154,9.9853882 55.3423048,12.3766915 55.2244041,12.5675814 C55.0453145,12.8576157 53.6514004,14.7502376 53.3663495,15.1586533 C53.0932378,15.5493117 52.4410532,16.2492415 52.4276215,16.2640391 C52.2186836,16.4874839 52.0082533,16.7109287 51.7963306,16.9328938 C51.617241,17.1193444 51.4351666,17.3013557 51.256077,17.4863266 C51.2321984,17.5203612 49.024919,19.5920349 48.7130046,19.8865085 C48.5294378,20.0596412 48.2533413,20.3437565 48.0548503,20.5006117 C47.8787456,20.6397098 47.7533828,20.7758484 47.5772781,20.9119869 L47.4414684,21.0214897 C47.1205996,21.2952466 46.8818134,21.4846567 46.3952867,21.9315463 C46.3146964,22.0055347 45.7669806,22.4509445 45.4625283,22.6906668 C44.9237671,23.1138801 44.3715742,23.5193362 43.8193812,23.9247923 C43.5014972,24.1585955 43.168689,24.3731617 42.8463277,24.6025256 C42.789616,24.6424793 42.7045484,24.7194272 42.6478367,24.7534618 C42.341892,24.9354731 42.0255003,25.1041666 41.7180632,25.2832183 C41.1539309,25.6132064 40.5360718,25.8514488 39.8958265,25.9935065 C39.6525631,26.0467781 39.3988528,26.0748936 39.1511122,26.0719341 C37.4452837,26.0541769 38.1735815,22.8978341 38.6451841,21.3973505 L38.8332282,20.8453974 C39.413777,19.2916422 40.2987781,18.1581408 41.4747998,17.0157607 C41.6255336,16.8692638 42.5373981,15.9192534 42.8597594,15.6055429 C43.0164628,15.4531269 45.0521146,13.160968 45.3804456,12.8457776 C45.6640041,12.5735005 45.9117447,12.2627494 46.1714247,11.9667961 C46.320666,11.7951431 48.3175151,9.38016354 48.671217,8.99246461 C49.0771535,8.54853454 49.4890596,8.10904377 49.877087,7.64883627 C50.3561517,7.08208555 50.833724,6.51385506 51.2724935,5.917509 C51.7202175,5.31080458 52.2485319,4.7869671 52.6544683,4.12699106 C52.9171331,3.69933843 53.2902364,3.24800953 53.5872267,2.79372109 C54.1677755,1.90586095 53.8767549,1.19113354 53.7275135,0.975087578 C53.5648405,0.738324874 53.3917205,0.60218632 53.1857675,0.393539188 C53.0589123,0.264799468 52.8260958,0.173053921 52.6798393,0.133100215 C51.5008328,-0.188009201 50.7023916,0.155296718 50.3069021,0.292915039 C50.1606456,0.343227114 50.0278208,0.446810796 49.9009657,0.541515878 C49.7114292,0.683573499 49.0368583,1.15561914 48.9070184,1.26956119 C47.8638214,2.17961783 46.89823,3.02900403 45.9968123,4.07519922 C45.5043159,4.47177675 45.0983795,5.11695511 44.684981,5.59639959 C44.2178556,6.13799427 42.7314119,8.19930956 42.4045733,8.65211823 C41.3837626,10.0652956 40.5196553,11.5805769 39.7033052,13.1150952 C39.2854294,13.8993716 38.8809854,14.6895672 38.4735565,15.4797627 C38.1168698,16.1678543 37.760183,17.039437 37.2005279,17.5884305 C36.8677198,17.915459 36.4005944,18.4644525 35.9424235,18.9290993 C35.7051298,19.1703013 35.5484264,19.2975613 35.3842609,19.4544166 C35.3544126,19.4825321 35.0783161,19.7400116 34.8320679,19.972335 C34.6082059,20.1839416 34.3037536,20.4488199 34.0470585,20.6885421 C33.6500766,21.0599636 33.2948822,21.3855124 33.2411553,21.4210268 C32.9501347,21.6563097 32.7337348,21.8190841 32.3621238,22.1120779 C32.0785653,22.3355227 31.6845682,22.6240772 31.4069793,22.8149672 C31.0040277,23.0916836 30.6548029,23.2722151 30.3473658,23.3817179 C29.835468,23.5622495 29.413115,23.6184806 29.163882,23.5637292 C28.6534766,23.4601455 28.7355594,22.8179267 28.7654076,22.5634068 C28.802718,22.2393378 28.878831,21.8723557 28.965391,21.5423676 C29.0056862,21.3884719 29.0489662,21.241975 29.0907537,21.1132352 C29.1594048,20.9045881 29.2459647,20.6545075 29.3578957,20.371872 C29.413115,20.2342537 29.4668419,20.0936759 29.525046,19.9471789 C29.6504087,19.6319886 29.7936804,19.2916422 29.9996335,18.9143016 C30.1399203,18.6553424 30.3428885,18.0752738 30.4622816,17.8592278 C30.8876194,17.0986277 31.2756469,16.5363162 31.3054952,16.4830446 C31.4726455,16.1930103 32.6382203,14.6037407 32.6755306,14.5415905 C32.7979085,14.3344231 32.7188106,14.1020997 32.5591224,14.0103541 C32.5009183,13.9763195 32.2203446,13.776551 32.1934811,13.7513949 C32.1457239,13.7055222 32.074088,13.6566899 32.0188688,13.6152564 C31.9770812,13.5827015 31.7412799,13.4657999 31.662182,13.4258462 C31.5666675,13.3770139 31.1696856,13.2186789 31.1249132,13.1994419 C30.8413546,13.078101 30.3279644,13.4850369 30.2026017,13.4051295 C30.1309659,13.3592567 29.7653246,12.9464018 29.3728199,12.7007604 C29.2280558,12.6104947 29.0041938,12.4861942 28.8116724,12.3781713 C28.5042353,12.2065183 28.1729195,12.0970156 28.0326327,12.0467035 C27.8132479,11.9682758 27.6281886,11.9016863 27.4655156,11.8484147 C26.950633,11.6797213 26.4566442,11.7063571 25.899974,11.8632124 C25.4895603,11.9786342 25.1955549,12.2153969 24.8224515,12.4092464 C24.3030917,12.6770842 23.650907,13.1328524 23.2434782,13.4347248 C22.9942452,13.6182159 21.369007,14.8286652 21.2615532,14.9292894 C20.9257602,15.243 20.0676226,15.8275079 19.5452779,16.3010333 C19.4990131,16.3439465 19.4527482,16.3942586 19.4064834,16.4504898 C19.0811373,16.6961311 18.7557912,16.9417724 18.4334299,17.191853 C18.2140452,17.3620262 18.0200314,17.5632745 17.8021391,17.7334477 C17.5902164,17.8991815 17.4006799,18.1107882 17.1842799,18.270603 C16.6738746,18.6494234 16.2843547,19.057839 15.7515631,19.4854917 C15.71873,19.5121275 15.67545,19.5298847 15.6381397,19.5550407 C15.4963604,19.6541851 14.4083911,20.562762 14.1725898,20.7181375 C13.8905236,20.9060679 12.162309,22.365118 11.8235311,22.6403547 C11.4832609,22.9170711 10.6534791,23.5711281 10.1535206,23.9336709 C9.90130273,24.117162 9.63266832,24.2769769 9.37597323,24.4545489 C8.95511266,24.7445832 8.54469898,25.0494152 8.11786876,25.3290911 C7.6417889,25.6413219 7.14929249,25.9298765 6.66724297,26.2332287 C6.54934232,26.307217 6.45084304,26.4108007 6.33144997,26.4803498 C6.08520176,26.6238872 5.82999908,26.7496673 5.58076605,26.8872857 C4.77337042,27.3326955 3.91523273,27.6538049 3.01978472,27.8742902 C2.92277785,27.8979665 2.82129374,27.9024058 2.72279446,27.9157237 C2.43326626,27.9527178 2.14373807,27.9941513 1.85271747,28.0222669 C1.69452165,28.0370645 1.53334101,28.0281859 1.37365278,28.0311455 C1.28261556,28.0326252 1.19008593,28.0311455 1.09904872,28.0370645 C0.858770168,28.0548217 0.597597829,27.920163 0.379705478,28.1199315 C0.166290368,28.3152607 0.0558517787,28.5712604 0.00809455114,28.8435375 C-0.0157840627,28.9841154 0.0155566179,29.1498492 0.0707759123,29.284508 C0.187184155,29.5686233 0.430447533,29.7195595 0.721468138,29.8024264 C0.827429487,29.8335015 0.945330143,29.8542183 1.0303977,29.9163685 C1.24381281,30.071744 1.45722793,30.2152814 1.72884716,30.2374779 C1.83182368,30.2463565 3.0287392,30.2064028 3.52123561,30.1649693 C3.80479414,30.1412931 4.0898451,30.1235359 4.36743398,30.0732238 C4.68382561,30.0140331 4.99275518,29.9252471 5.30317716,29.8409004 C5.39272196,29.8172241 5.4748047,29.7624727 5.56136467,29.7254786 C6.13295899,29.4783575 6.51501681,29.3170629 7.08511871,29.0655025 C7.16720145,29.0299881 7.42240413,28.8701733 7.50150204,28.8272601 C7.76267438,28.6866822 8.03130879,28.5623818 8.28800388,28.4144051 C8.75811409,28.1450875 9.22673189,27.8742902 9.68341038,27.5827761 C10.2072475,27.2498286 10.7221301,26.9020833 11.2280582,26.5439797 C11.5369878,26.3249742 13.4129514,24.7164676 13.6666616,24.5122598 C13.7800851,24.4205143 13.9248492,24.3642831 14.0323029,24.2666185 C14.3815276,23.9529079 14.7083662,23.6140413 15.0665454,23.3106891 C15.5411328,22.9096723 16.0395989,22.5382508 16.5216484,22.1461125 C16.812669,21.9093498 17.0857807,21.6518704 17.3768013,21.4151077 C17.5006716,21.3144835 17.6275267,21.2168189 17.7528894,21.1191543 C17.7290108,21.2242178 17.7170715,21.2834084 17.7155791,21.2848882 C17.6185722,21.4521019 17.596186,21.4994544 17.3782937,21.9137891 C17.1604013,22.3296036 17.0022055,22.7513372 16.8857973,23.0088166 C16.7290939,23.3521226 16.6171629,23.6525152 16.4962774,24.0387344 C16.4186719,24.2858555 16.3962857,24.6454388 16.3485285,24.8999587 C16.3171878,25.0642128 16.3276347,25.6797959 16.675367,26.218431 C16.8111766,26.4300377 17.0305614,26.8103378 17.2962109,26.9953086 C17.4394826,27.1358865 18.1618107,27.6168107 19.3333552,27.6760014 C19.6124365,27.6907991 19.8482378,27.68488 20.2720832,27.6108917 C20.7795037,27.5206259 21.0033657,27.3815278 21.2973712,27.2587072 C21.4063173,27.2128344 21.6839062,27.0574589 21.9808965,26.9050429 C22.3241516,26.7274708 22.5390591,26.5425 22.6509901,26.4655521 C22.7211335,26.4167198 22.95395,26.2051131 23.1733348,26.0142232 C23.4165981,25.8040963 24.4493482,24.8466871 24.4806889,24.8067334 C24.5105371,24.7682595 24.7552929,24.4915431 24.9925866,24.2621792 C25.3209176,23.9440293 25.8178912,23.3550821 25.9775795,23.215984 C26.0357836,23.1656719 26.3178497,22.8164469 26.3059104,22.8682388 C26.2880014,22.949626 26.279047,23.3506428 26.3208345,23.7028273 C26.347698,23.9233126 26.3700842,24.2163064 26.4581366,24.4767454 C26.5446965,24.7312653 26.6760289,25.2743397 27.2088205,25.6605589 C27.3267211,25.7449056 27.4326825,25.8499691 27.5640149,25.9343158 C27.7833996,26.0748936 28.0400947,26.193275 28.3400698,26.2805812 C28.3639484,26.2879801 28.6534766,26.3530898 29.1400034,26.3353326 C29.3713275,26.326454 29.6459315,26.2998182 29.9578459,26.2391478 C30.2309575,26.1858762 30.6667422,26.0674948 30.8562787,25.9920267 C30.9070208,25.97131 31.1010345,25.8810442 31.3069876,25.7937379 C31.6845682,25.6354029 32.0949818,25.4104783 32.539721,25.1618775 C33.7008186,24.5137396 35.7543794,22.6033605 35.8081063,22.5678461 C35.7722884,22.7661349 35.8260152,22.4183896 35.7603491,22.8208862 C35.7185615,23.0768859 35.6514029,23.6658331 35.6484181,23.7487001 C35.640956,23.9040756 35.6260319,24.1423181 35.6200622,24.2962138 C35.5857367,25.0227794 35.8021366,25.4741083 36.0289835,26.0497376 C36.1155434,26.2687431 36.3006027,26.5277023 36.4543213,26.7141529 C36.828917,27.1699211 37.2453003,27.5886952 37.7930161,27.8446948 C37.984045,27.9349606 39.0406736,28.3374572 39.3660197,28.3596537 C39.9376141,28.3996074 40.515178,28.4587981 41.0957268,28.294544 C41.4061488,28.205758 41.7270177,28.1584054 42.0210231,28.008949 C42.4627775,27.7840244 42.9209484,27.5886952 43.3477786,27.3415741 C43.8313205,27.0618982 44.2969535,26.7467078 44.7581092,26.4285579 C45.0953946,26.1947548 45.4192483,25.9402349 45.73564,25.6797959 C46.114713,25.3675651 46.4818466,25.0405366 46.8534576,24.7179474 C47.2325306,24.3894391 47.6175732,24.0683297 47.9876917,23.7294631 C48.2951289,23.4468276 48.5831647,23.1434754 48.8831397,22.8504816 C48.9219425,22.8134874 50.2979476,21.489096 50.5322565,21.2804489 C50.5218096,21.483177 49.4920444,24.244422 49.4771203,24.7534618 C49.472643,24.9413922 49.3965299,25.1263631 49.3965299,25.3128137 C49.3965299,25.5732527 49.4592113,26.7940603 49.6159147,27.1196091 C49.6591947,27.2098748 49.9397684,27.9601167 50.4382345,28.3182202 C50.6456799,28.4661969 50.8187999,28.6822429 51.0411695,28.7843468 C52.8037096,29.5937793 54.2811989,28.9130865 54.2797065,28.9264044 C54.4722278,28.796185 54.6543022,28.6630059 54.8468235,28.5446246 C55.278131,28.2782665 55.7497336,28.0607408 56.1407459,27.7440707 C56.5571293,27.4066838 57.0317167,27.1462449 57.3913883,26.7274708 C57.7510599,26.307217 58.1972915,25.9594718 58.6002431,25.5762122 C58.6957576,25.4859464 58.7688859,25.3734841 58.8599231,25.278779 C58.9673768,25.1677965 59.0837851,25.0642128 59.2270568,24.9265945 C59.2255643,24.923635 60.3389047,23.8892779 60.4329268,23.5607697 C60.4478509,23.5089778 60.5075474,23.4616253 60.5478426,23.4290704 C60.8448328,23.1834291 61.5985016,22.3488406 61.9223553,22.0750837 C61.9641429,22.2215806 61.8835525,23.4853016 62.2879966,24.3154508 C62.4223138,24.5906874 62.5252903,24.8969992 62.7088571,25.1603977 C62.8103412,25.3039351 62.8730226,25.4800273 62.9909233,25.6058075 C63.1834446,25.8129749 63.3849204,26.0245816 63.6207217,26.1769976 C64.0311354,26.4418758 64.4490111,26.7245113 64.9041972,26.8858059 C65.3534136,27.044141 65.8474024,27.1062912 66.3309444,27.132927 C66.5951015,27.1477246 67.0129773,27.0278635 67.2801193,26.9790312 C67.7964943,26.8843261 68.2516804,26.7067541 68.6844802,26.4448354 C68.9501298,26.282061 69.2515973,26.1222462 69.4530731,25.9062002 C69.8306537,25.4992643 70.3604604,25.2758195 70.6798369,24.8037739 C70.8335555,24.5758898 71.0962202,24.421994 71.290234,24.2177862 C71.6125953,23.8803993 71.9289869,23.5356136 72.2319468,23.1819494 C72.3498475,23.0428513 72.8930859,22.270413 72.9781535,22.015893 C73.0870997,21.6888646 73.3497644,21.4328649 73.3885672,21.0806804 C73.3930444,21.0466457 73.4542333,20.9948539 73.4930361,20.9918944 C73.5960126,20.981536 73.701974,20.981536 73.8049505,20.9948539 C74.5422027,21.0865994 75.2779625,21.1842641 76.0152147,21.2745298 C76.2480312,21.3026454 76.4823401,21.3130038 76.716649,21.3278014 C76.9240944,21.3396396 77.1315399,21.3440789 77.3389853,21.3544372 C77.9717686,21.3869921 78.6045519,21.4284256 79.2373351,21.4521019 C79.5641736,21.46394 79.8910122,21.4402637 80.2178507,21.4402637 C80.6596051,21.4402637 82.8967327,21.3204026 83.4205698,21.2641715 C83.753378,21.2286571 84.089171,21.2153392 84.4204867,21.1709462 C84.9129831,21.1043566 85.4039871,21.0185302 85.8949911,20.9401025 C86.1054214,20.9060679 86.3158517,20.873513 86.5247896,20.8394784 C87.5933575,20.6663456 88.403738,20.7462531 88.9007116,19.629029 C88.9932413,19.4248212 89.0171199,19.2265325 88.988764,19.0356425 Z M43.3821041,11.0493406 C43.4955275,10.8806472 43.591042,10.7001156 43.7074502,10.5329019 C44.0253343,10.0786135 44.349188,9.62728461 44.6700568,9.17595571 C44.952123,8.77937818 45.2237422,8.37392205 45.51924,7.98770289 C46.0147213,7.34252452 46.4967708,6.74321893 46.9564341,6.0788036 C47.414605,5.41734779 48.0026159,4.69670132 48.6294295,4.08703736 C48.8861246,3.83695675 49.5800968,3.02012543 49.9740939,3.10743167 C50.6546344,3.2583679 49.9233519,3.97753461 49.7173988,4.22465568 C49.4383175,4.55760323 49.1323728,4.86835428 48.8458294,5.19538276 C48.7921025,5.2560532 48.310053,5.84352066 48.3324392,5.83760159 C48.1578269,6.07140476 48.0220172,6.27117329 47.8668062,6.45466439 C47.6877166,6.66479129 47.4877333,6.85568122 47.302674,7.06136881 C47.0116534,7.38691753 46.72511,7.71690555 46.4400591,8.04837333 C46.0684481,8.4789855 45.699822,8.9125572 45.3326884,9.34760867 C44.9476457,9.80337687 44.5670803,10.2650641 44.1745756,10.7149133 C44.1745756,10.7149133 43.4985123,11.43408 43.479111,11.4607158 C43.3552407,11.6279294 43.2985289,11.6619641 43.1657042,11.8232587 C42.9716904,12.0585416 42.7657374,12.284946 42.5597843,12.5113503 C42.5105347,12.5646219 42.4463609,12.6045756 42.3881568,12.6519281 C42.3687554,12.6356507 42.349354,12.6178935 42.3299527,12.6016161 C42.6821622,12.0822179 43.0343718,11.567259 43.3821041,11.0493406 Z M27.9863679,15.8378663 C27.9445803,16.0376348 27.9714437,16.1604554 27.828172,16.429773 C27.7804148,16.518559 27.7998162,16.5082007 27.6356507,16.8159922 C27.4953639,17.0764312 27.3431377,17.3620262 27.2267294,17.5810317 C27.156586,17.7127309 27.0237612,17.9169388 26.9909281,17.9805687 C26.9625723,18.0338403 26.8237778,18.1522217 26.5476814,18.5384408 C26.3491904,18.816637 26.0939877,19.0874344 25.8596788,19.4115033 C25.7373009,19.5801967 25.5611961,19.8243583 25.4447879,19.9841731 C25.0716846,20.4946927 24.7358915,20.8453974 24.6553012,20.937143 C24.3941289,21.2360559 22.0331309,23.9987807 20.2019398,24.8940397 C19.5228917,25.2269872 19.3467869,25.3468483 19.3199235,25.1633572 C19.29306,24.3598438 19.7855564,23.4083537 19.8661467,23.235221 C19.9109191,23.1405159 20.5078845,21.616356 21.7794207,19.8317571 C22.1077516,19.3715496 22.4002646,18.8935849 22.8211252,18.4733311 C23.4509236,17.8429504 23.9672987,17.0468358 24.7149978,16.3794609 C24.8120046,16.2936345 25.0463135,16.099785 25.1403356,16.0183978 C25.3970307,15.7934733 26.1268208,15.1616128 26.3491904,15.0313933 C26.4775379,14.9559252 26.6014083,14.8967345 26.7193089,14.8538213 C27.1341998,14.6999255 27.2789639,14.7088041 27.4625308,14.741359 C27.5416287,14.7561567 27.8102631,14.8375438 27.9475651,15.1660521 C28.0162161,15.3303062 28.0460644,15.5493117 27.9863679,15.8378663 Z M70.936532,20.8690737 C70.849972,21.0096516 70.7857982,21.1635473 70.6887914,21.2952466 C70.5634287,21.4654198 70.427619,21.6311537 70.2768853,21.7761708 C69.8649792,22.1712686 69.4441186,22.5574877 69.0217657,22.9422271 C68.9172967,23.0369322 67.7457522,24.0934858 67.2278848,24.313971 C66.5518215,24.6010458 64.8459931,25.2166288 64.6116842,24.1497169 C64.347527,22.9481462 64.7027214,21.3781135 65.0400068,20.2238953 C65.2384978,19.5461621 65.4996701,18.8847063 65.820539,18.2543256 C65.9727652,17.9554127 66.0160451,17.7260488 66.3607926,17.8296325 C66.5846546,17.896222 66.8905994,18.2617244 67.0398407,18.4348572 C67.2980282,18.7352498 67.6368061,18.9128219 67.9502129,19.121469 C68.1845218,19.2783243 68.4665879,19.3671103 68.7292526,19.4825321 C69.0963863,19.6423469 69.4545655,19.8287976 69.8351309,19.9471789 C70.2410674,20.0729591 70.6067086,20.3186004 71.0454782,20.3422767 C71.0992051,20.3452362 71.1514395,20.3837102 71.2335223,20.4192246 C71.1186064,20.5908775 71.023092,20.7270161 70.936532,20.8690737 Z M71.8424269,18.0427189 C71.6812463,18.2188112 71.0768189,18.0101641 70.7649045,17.9006613 C70.4485128,17.7911586 70.1246591,17.7038523 69.8097599,17.5899103 C69.4784441,17.4700491 68.5874734,17.0364774 68.4770348,16.9550903 C67.7711233,16.423854 68.369581,16.2640391 68.9769933,16.2640391 C69.4545655,16.2655189 70.1186895,16.2817963 70.5559666,16.5022816 C71.0290616,16.7420038 71.496187,17.128223 71.7618366,17.59139 C71.8991386,17.832592 71.9095855,17.9702104 71.8424269,18.0427189 Z" id="Shape" fill-rule="nonzero"></path>
                </g>
            </g>
        </g>
    </g>
</svg>