<?xml version="1.0" encoding="UTF-8"?><svg width="1067" height="359" viewBox="0 0 1067 359" fill="none" xmlns="http://www.w3.org/2000/svg">
<g clip-path="url(#clip0_5456_183728)">
<path fill-rule="evenodd" clip-rule="evenodd" d="M740.374 291.845C680.914 335.726 594.716 359.057 520.489 359.057C416.458 359.057 322.776 320.603 251.889 256.594C246.321 251.565 251.286 244.704 257.976 248.597C334.461 293.101 429.048 319.903 526.734 319.903C592.636 319.903 665.071 306.227 731.73 277.955C741.781 273.69 750.207 284.578 740.374 291.845" fill="#0C8281"/>
<path fill-rule="evenodd" clip-rule="evenodd" d="M765.121 263.633C757.519 253.898 714.854 259.02 695.688 261.315C689.879 262.012 688.984 256.936 694.214 253.265C728.249 229.361 784.02 236.262 790.496 244.266C797.029 252.337 788.78 308.248 756.89 334.933C751.981 339.033 747.315 336.846 749.492 331.428C756.672 313.501 772.739 273.376 765.121 263.633" fill="#0C8281"/>
<path fill-rule="evenodd" clip-rule="evenodd" d="M58.5977 170.885C68.9398 170.885 76.6185 167.371 81.6304 160.342C86.6457 153.31 89.1517 142.599 89.1517 128.21C89.1517 113.988 86.6826 103.439 81.7544 96.5674C76.8229 89.6994 69.1844 86.2587 58.8389 86.2587C48.3293 86.2587 38.6338 89.3342 29.7423 95.4785V161.431C38.7946 167.736 48.4097 170.885 58.5977 170.885ZM6.49803 240.673C2.93675 240.673 1.16113 238.894 1.16113 235.339V72.6359C1.16113 69.0814 2.93675 67.299 6.49803 67.299H19.8352C23.3898 67.299 25.4904 68.9172 26.137 72.1502L27.591 79.668C33.2495 74.4953 39.5111 70.5354 46.3824 67.7815C53.2537 65.0377 60.4131 63.6641 67.8472 63.6641C83.1979 63.6641 95.4496 69.3996 104.579 80.8775C113.715 92.3587 118.285 107.793 118.285 127.191C118.285 140.612 116.057 152.331 111.614 162.351C107.165 172.379 100.981 180.054 93.0676 185.387C85.141 190.724 76.0854 193.388 65.9041 193.388C59.1165 193.388 52.5702 192.215 46.2651 189.877C39.96 187.535 34.4656 184.258 29.7753 180.054V235.339C29.7753 238.894 27.993 240.673 24.4384 240.673H6.49803V240.673Z" fill="#0C8281"/>
<path fill-rule="evenodd" clip-rule="evenodd" d="M148.092 190.719C144.537 190.719 142.762 188.94 142.762 185.382V16.6146C142.762 13.06 144.537 11.281 148.092 11.281H166.036C169.59 11.281 171.369 13.06 171.369 16.6146V79.4177C186.405 68.9114 201.598 63.6583 216.956 63.6583C228.758 63.6583 237.727 66.7706 243.871 72.9887C250.016 79.2201 253.088 88.2321 253.088 100.032V185.382C253.088 188.94 251.305 190.719 247.751 190.719H229.81C226.252 190.719 224.473 188.94 224.473 185.382V109C224.473 101.084 222.859 95.3011 219.626 91.6628C216.389 88.0278 211.217 86.2053 204.104 86.2053C193.44 86.2053 182.525 89.7632 171.369 96.8757V185.382C171.369 188.94 169.59 190.719 166.036 190.719H148.092" fill="#0C8281"/>
<path fill-rule="evenodd" clip-rule="evenodd" d="M321.912 174.01C326.599 174.01 331.53 173.005 336.703 170.981C341.879 168.961 346.894 166.096 351.742 162.371V139.097C343.172 137.318 335.574 136.427 328.951 136.427C312.133 136.427 303.73 142.973 303.73 156.066C303.73 161.728 305.345 166.13 308.581 169.286C311.808 172.435 316.253 174.01 321.912 174.01ZM313.942 194.359C302.628 194.359 293.459 190.966 286.427 184.175C279.395 177.387 275.877 168.576 275.877 157.745C275.877 145.785 280.199 136.247 288.849 129.134C297.496 122.018 309.094 118.464 323.648 118.464C332.214 118.464 341.591 119.676 351.776 122.102V107.793C351.776 99.5482 349.994 93.8127 346.443 90.5764C342.881 87.3467 336.657 85.7286 327.768 85.7286C322.432 85.7286 316.532 86.2546 310.069 87.3032C303.6 88.3552 297.456 89.8527 291.636 91.7891C290.022 92.2749 288.645 92.5195 287.516 92.5195C285.415 92.5195 284.363 90.9817 284.363 87.9096V78.9377C284.363 76.6797 284.688 75.0615 285.335 74.0899C285.978 73.1184 287.676 72.0698 290.427 70.9374C303.037 66.0863 317.014 63.6641 332.375 63.6641C348.218 63.6641 359.9 66.897 367.415 73.3596C374.929 79.8289 378.692 89.9331 378.692 103.672V185.388C378.692 188.945 376.909 190.724 373.358 190.724H360.507C356.942 190.724 354.929 189.11 354.44 185.877L353.23 178.841C347.568 183.692 341.307 187.495 334.439 190.239C327.564 192.986 320.736 194.359 313.942 194.359V194.359Z" fill="#0C8281"/>
<path fill-rule="evenodd" clip-rule="evenodd" d="M415.3 190.71C411.742 190.71 409.963 188.931 409.963 185.373V72.6212C409.963 69.0666 411.742 67.2843 415.3 67.2843H428.151C430.416 67.2843 431.991 67.6126 432.882 68.2559C433.766 68.9025 434.373 70.1152 434.698 71.8909L437.606 85.7138C444.068 78.6013 450.135 73.5861 455.797 70.6781C461.452 67.7667 467.593 66.3127 474.227 66.3127H475.192C477.292 66.3127 479.034 66.5205 480.411 66.9191C481.778 67.3245 482.75 68.0147 483.319 68.9795C483.882 69.9511 484.167 71.73 484.167 74.3164V87.4124C484.167 90.8062 482.71 92.5047 479.798 92.5047C478.83 92.5047 477.497 92.4243 475.801 92.2602C474.103 92.1027 472.287 92.019 470.344 92.019C458.38 92.019 447.794 95.0911 438.577 101.235V185.373C438.577 188.931 436.795 190.71 433.244 190.71H415.3" fill="#0C8281"/>
<path fill-rule="evenodd" clip-rule="evenodd" d="M508.429 190.714C504.868 190.714 503.089 188.935 503.089 185.377V72.6254C503.089 69.0709 504.868 67.2885 508.429 67.2885H521.281C523.378 67.2885 524.916 67.6537 525.884 68.3774C526.859 69.1077 527.502 70.4411 527.824 72.3775L529.525 79.6575C537.603 74.1598 545.245 70.1195 552.438 67.5298C559.627 64.9467 566.87 63.6536 574.14 63.6536C589.176 63.6536 599.515 69.2283 605.177 80.3812C621.341 69.2283 636.863 63.6536 651.738 63.6536C663.209 63.6536 672.107 66.7659 678.409 72.9839C684.711 79.2153 687.867 88.2274 687.867 100.027V185.377C687.867 188.935 686.088 190.714 682.533 190.714H664.589C661.028 190.714 659.253 188.935 659.253 185.377V107.056C659.253 99.6215 657.799 94.2879 654.891 91.055C651.979 87.822 647.209 86.2005 640.578 86.2005C635.567 86.2005 630.233 87.0515 624.578 88.7467C618.919 90.4452 613.988 92.5894 609.787 95.1724V185.377C609.787 188.935 608.004 190.714 604.453 190.714H586.509C582.948 190.714 581.172 188.935 581.172 185.377V107.056C581.172 99.6215 579.718 94.2879 576.807 91.055C573.896 87.822 569.128 86.2005 562.505 86.2005C557.808 86.2005 552.763 86.9711 547.345 88.5055C541.928 90.0466 536.718 92.2644 531.706 95.1724V185.377C531.706 188.935 529.924 190.714 526.373 190.714H508.429" fill="#0C8281"/>
<path fill-rule="evenodd" clip-rule="evenodd" d="M756.769 174.01C761.456 174.01 766.388 173.005 771.561 170.981C776.733 168.961 781.749 166.096 786.596 162.371V139.097C778.023 137.318 770.435 136.427 763.808 136.427C746.99 136.427 738.591 142.973 738.591 156.066C738.591 161.728 740.203 166.13 743.439 169.286C746.665 172.435 751.111 174.01 756.769 174.01ZM748.752 194.359C737.435 194.359 728.266 190.966 721.233 184.175C714.198 177.387 710.684 168.576 710.684 157.745C710.684 145.785 715.009 136.247 723.659 129.134C732.303 122.018 743.904 118.464 758.448 118.464C767.017 118.464 776.395 119.676 786.579 122.102V107.793C786.579 99.5482 784.8 93.8127 781.242 90.5764C777.688 87.3467 771.463 85.7286 762.578 85.7286C757.238 85.7286 751.335 86.2546 744.876 87.3032C738.41 88.3552 732.266 89.8527 726.443 91.7891C724.828 92.2749 723.451 92.5195 722.322 92.5195C720.218 92.5195 719.17 90.9817 719.17 87.9096V78.9377C719.17 76.6797 719.491 75.0615 720.141 74.0899C720.781 73.1184 722.483 72.0698 725.23 70.9374C737.844 66.0863 751.824 63.6641 767.182 63.6641C783.021 63.6641 794.707 66.897 802.222 73.3596C809.739 79.8289 813.498 89.9331 813.498 103.672V185.388C813.498 188.945 811.716 190.724 808.161 190.724H795.31C791.752 190.724 789.732 189.11 789.246 185.877L788.033 178.841C782.375 183.692 776.113 187.495 769.245 190.239C762.374 192.986 755.543 194.359 748.752 194.359V194.359Z" fill="#0C8281"/>
<path fill-rule="evenodd" clip-rule="evenodd" d="M895.934 193.406C877.018 193.406 862.472 187.915 852.287 176.923C842.103 165.931 837.007 150.329 837.007 130.121C837.007 109.43 842.263 93.3455 852.776 81.8676C863.279 70.3898 877.993 64.6509 896.902 64.6509C906.601 64.6509 915.331 66.1049 923.094 69.0129C925.516 69.9844 927.131 70.9962 927.942 72.0482C928.749 73.1001 929.154 74.9193 929.154 77.5023V86.2296C929.154 89.4693 927.942 91.0841 925.516 91.0841C924.705 91.0841 923.094 90.7591 920.668 90.1125C914.202 88.3336 907.814 87.4458 901.512 87.4458C889.384 87.4458 880.452 90.7189 874.717 97.2652C868.975 103.812 866.11 113.959 866.11 127.699V130.848C866.11 144.426 868.975 154.453 874.717 160.916C880.452 167.382 889.384 170.615 901.512 170.615C907.003 170.615 913.64 169.73 921.395 167.948C922.853 167.627 923.901 167.382 924.545 167.221C925.195 167.06 925.841 166.98 926.488 166.98C928.913 166.98 930.123 168.595 930.123 171.828V180.317C930.123 182.903 929.717 184.723 928.913 185.771C928.103 186.823 926.488 187.832 924.065 188.8C915.492 191.869 906.118 193.406 895.934 193.406" fill="#0C8281"/>
<path fill-rule="evenodd" clip-rule="evenodd" d="M971.792 243.568C965.812 243.568 960.72 242.921 956.519 241.628C954.411 240.981 953.038 240.134 952.391 239.082C951.741 238.03 951.426 236.294 951.426 233.866V225.624C951.426 222.388 952.716 220.776 955.302 220.776C956.106 220.776 957.078 220.853 958.214 221.014C959.343 221.175 961.205 221.259 963.792 221.259C970.737 221.259 975.913 220.002 979.307 217.486C982.704 214.97 986.017 209.329 989.25 200.561L992.399 192.038L946.575 74.5493C945.928 72.9345 945.604 71.6447 945.604 70.6731C945.604 68.4184 947.058 67.2827 949.965 67.2827H969.604C973.005 67.2827 975.102 68.8205 975.913 71.8826L1005.98 164.885L1036.54 71.8826C1037.34 68.8205 1039.45 67.2827 1042.84 67.2827H1061.27C1064.18 67.2827 1065.63 68.4184 1065.63 70.6731C1065.63 71.6447 1065.31 72.9345 1064.66 74.5493L1011.8 210.226C1007.27 222.069 1001.94 230.586 995.8 235.785C989.652 240.968 981.649 243.568 971.792 243.568" fill="#0C8281"/>
</g>
<defs>
<clipPath id="clip0_5456_183728">
<rect width="1065.29" height="358.751" fill="white" transform="translate(0.810547)"/>
</clipPath>
</defs>
</svg>
