<svg xmlns="http://www.w3.org/2000/svg" width="270" height="15.491" viewBox="0 0 270 15.491">
  <g id="Layer_2" data-name="Layer 2" transform="translate(0 0.011)">
    <g id="Layer_1" data-name="Layer 1" transform="translate(0 -0.011)">
      <path id="Path_121" data-name="Path 121" d="M13,16.733l-1.333-3.18H4.326l-1.331,3.18H0L6.6,1.69H9.584L16.1,16.733Zm-7.65-5.65h5.286L8.015,4.764Z" transform="translate(0 -1.453)" fill="#729099"/>
      <path id="Path_122" data-name="Path 122" d="M178.73,3a7.16,7.16,0,0,0-2.138-.387A3,3,0,0,0,174.958,3a1.214,1.214,0,0,0-.6,1.074,1.415,1.415,0,0,0,.419,1.042,3.307,3.307,0,0,0,1.056.688,16.829,16.829,0,0,0,1.73.59,19.025,19.025,0,0,1,2.5.9,4.465,4.465,0,0,1,1.665,1.333,3.656,3.656,0,0,1,.688,2.321,3.967,3.967,0,0,1-.741,2.4,4.647,4.647,0,0,1-2.042,1.559,7.76,7.76,0,0,1-2.976.537,9.369,9.369,0,0,1-3.438-.656,9.788,9.788,0,0,1-2.93-1.751l1.215-2.45a8.8,8.8,0,0,0,2.556,1.655,6.79,6.79,0,0,0,2.644.6,3.362,3.362,0,0,0,1.891-.462,1.52,1.52,0,0,0,.268-2.321,3.113,3.113,0,0,0-1.063-.677q-.645-.258-1.762-.58a21.043,21.043,0,0,1-2.492-.881,4.333,4.333,0,0,1-1.655-1.3,3.584,3.584,0,0,1-.688-2.289,3.832,3.832,0,0,1,.7-2.289A4.5,4.5,0,0,1,173.878.529a7.585,7.585,0,0,1,2.95-.537,10,10,0,0,1,2.89.43,9.792,9.792,0,0,1,2.547,1.161L181.1,4.094A10.973,10.973,0,0,0,178.73,3Z" transform="translate(-146.527 0.01)" fill="#729099"/>
      <path id="Path_123" data-name="Path 123" d="M327.834,3a7.16,7.16,0,0,0-2.138-.387A3,3,0,0,0,324.062,3a1.214,1.214,0,0,0-.6,1.074,1.415,1.415,0,0,0,.419,1.042,3.307,3.307,0,0,0,1.054.688,16.829,16.829,0,0,0,1.73.59,18.88,18.88,0,0,1,2.5.9,4.465,4.465,0,0,1,1.665,1.333,3.656,3.656,0,0,1,.688,2.321,3.967,3.967,0,0,1-.741,2.4,4.647,4.647,0,0,1-2.042,1.559,7.756,7.756,0,0,1-2.974.537,9.369,9.369,0,0,1-3.438-.656,9.767,9.767,0,0,1-2.925-1.751l1.2-2.45a8.791,8.791,0,0,0,2.558,1.655,6.784,6.784,0,0,0,2.643.6,3.353,3.353,0,0,0,1.891-.462,1.52,1.52,0,0,0,.268-2.321,3.113,3.113,0,0,0-1.063-.677q-.645-.258-1.762-.58a21.039,21.039,0,0,1-2.492-.881,4.344,4.344,0,0,1-1.655-1.3,3.574,3.574,0,0,1-.688-2.289,3.832,3.832,0,0,1,.7-2.289A4.5,4.5,0,0,1,322.972.528a7.586,7.586,0,0,1,2.96-.537,9.994,9.994,0,0,1,2.89.43,9.792,9.792,0,0,1,2.547,1.161l-1.16,2.512A10.974,10.974,0,0,0,327.834,3Z" transform="translate(-274.83 0.011)" fill="#729099"/>
      <path id="Path_124" data-name="Path 124" d="M480.053,13.338a3.648,3.648,0,0,0,2.707,1.01,3.559,3.559,0,0,0,2.676-1.01,3.844,3.844,0,0,0,.977-2.791V1.69h2.88v8.854a6.984,6.984,0,0,1-.8,3.406,5.388,5.388,0,0,1-2.268,2.224,7.36,7.36,0,0,1-3.465.769,7.545,7.545,0,0,1-3.514-.773,5.368,5.368,0,0,1-2.288-2.224,6.963,6.963,0,0,1-.794-3.406V1.69h2.879v8.854A3.782,3.782,0,0,0,480.053,13.338Z" transform="translate(-409.724 -1.453)" fill="#729099"/>
      <path id="Path_125" data-name="Path 125" d="M656.405,16.733l-2.6-4.447a4.93,4.93,0,0,1-.537.021h-3.4v4.426H647V1.69h6.279a6.761,6.761,0,0,1,4.513,1.355,4.746,4.746,0,0,1,1.589,3.825,5.66,5.66,0,0,1-.762,3.009,4.681,4.681,0,0,1-2.224,1.87l3.3,4.984Zm-6.532-6.962h3.4a3.829,3.829,0,0,0,2.492-.709,2.573,2.573,0,0,0,.86-2.107,2.483,2.483,0,0,0-.86-2.062,3.912,3.912,0,0,0-2.492-.688h-3.4Z" transform="translate(-556.716 -1.453)" fill="#729099"/>
      <path id="Path_126" data-name="Path 126" d="M810.65,1.69h11.024V4.2H813.53v3.72h7.306v2.512H813.53V14.22h8.4v2.512H810.65Z" transform="translate(-697.53 -1.453)" fill="#729099"/>
      <path id="Path_127" data-name="Path 127" d="M1050.32,1.49h2.886V7.916h7.5V1.5h2.879V16.54H1060.7V10.431h-7.493v6.1h-2.879Z" transform="translate(-903.755 -1.281)" fill="#729099"/>
      <path id="Path_128" data-name="Path 128" d="M1227.4,1.49h11.024V4h-8.145v3.72h7.307v2.512h-7.307V14.02h8.4v2.512H1227.4Z" transform="translate(-1056.125 -1.281)" fill="#729099"/>
      <path id="Path_129" data-name="Path 129" d="M1384.251,16.533l-1.333-3.18h-7.35l-1.331,3.18h-2.988l6.6-15.043h2.986l6.512,15.043Zm-7.65-5.651h5.286l-2.622-6.317Z" transform="translate(-1179.902 -1.281)" fill="#729099"/>
      <path id="Path_130" data-name="Path 130" d="M1555.13,1.49h2.879V13.933h6.49v2.6h-9.369Z" transform="translate(-1338.123 -1.281)" fill="#729099"/>
      <path id="Path_131" data-name="Path 131" d="M1681.86,1.49h12.271V4.048h-4.684V16.533h-2.9V4.048h-4.686Z" transform="translate(-1447.168 -1.281)" fill="#729099"/>
      <path id="Path_132" data-name="Path 132" d="M1839.87,1.49h2.879V7.916h7.5V1.5h2.88V16.54h-2.88V10.431h-7.5v6.1h-2.879Z" transform="translate(-1583.129 -1.281)" fill="#729099"/>
    </g>
  </g>
</svg>
