<svg id="Layer_1" data-name="Layer 1" xmlns="http://www.w3.org/2000/svg" viewBox="0 0 758.7336 137.9317">
  <g>
    <g id="type">
      <path id="type_CompoundPathItem_" data-name="type &lt;CompoundPathItem&gt;" d="M249.652,85.7279a20.3883,20.3883,0,0,1-6.8131,15.7886,24.13,24.13,0,0,1-16.7616,6.1641H193.9591V31.9816h29.8472a23.4644,23.4644,0,0,1,16.3291,6.056,19.6846,19.6846,0,0,1,6.7051,15.2479,18.4115,18.4115,0,0,1-7.1376,15.14C246.3,72.21,249.652,78.05,249.652,85.7279Zm-40.7693-39.796V62.5855h14.9236a8.0183,8.0183,0,0,0,8.1106-8.3268,7.9553,7.9553,0,0,0-8.1106-8.3268ZM226.0773,93.73a8.923,8.923,0,0,0,0-17.8431H208.8827V93.73Z" style="fill: #1e2948"/>
      <path id="type_CompoundPathItem_2" data-name="type &lt;CompoundPathItem&gt;" d="M283.2928,109.1946a28.0752,28.0752,0,0,1-28.5492-28.5494,27.4027,27.4027,0,0,1,8.2191-20.2224,28.6572,28.6572,0,0,1,48.9878,20.2224,28.2522,28.2522,0,0,1-28.6577,28.5494Zm0-13.6259a14.1811,14.1811,0,0,0,10.49-4.2175A14.5043,14.5043,0,0,0,298,80.6452a14.504,14.504,0,0,0-4.2175-10.7059,15.1534,15.1534,0,0,0-20.9792,0,14.8582,14.8582,0,0,0-4.109,10.7059,14.8584,14.8584,0,0,0,4.109,10.706A14.1827,14.1827,0,0,0,283.2928,95.5687Z" style="fill: #1e2948"/>
      <path id="type_CompoundPathItem_3" data-name="type &lt;CompoundPathItem&gt;" d="M319.628,107.6806V28.7373h13.95v78.9433Z" style="fill: #1e2948"/>
      <path id="type_CompoundPathItem_4" data-name="type &lt;CompoundPathItem&gt;" d="M386.34,31.9816h13.95v75.699H386.34V101.3c-4.11,5.2988-9.9491,7.8943-17.5191,7.8943a24.7863,24.7863,0,0,1-18.7086-8.2188,28.9932,28.9932,0,0,1-7.6785-20.3306,28.73,28.73,0,0,1,7.6785-20.2224,24.8944,24.8944,0,0,1,18.7086-8.3268c7.57,0,13.4091,2.5952,17.5191,7.8943ZM371.4163,95.8932a14.5074,14.5074,0,0,0,10.7066-4.2175A15.2662,15.2662,0,0,0,386.34,80.6452a14.8372,14.8372,0,0,0-4.2175-10.9221,14.1826,14.1826,0,0,0-10.7066-4.3258,14.59,14.59,0,0,0-10.814,4.3258,14.8333,14.8333,0,0,0-4.2176,10.9221,15.2621,15.2621,0,0,0,4.2176,11.0305A14.93,14.93,0,0,0,371.4163,95.8932Z" style="fill: #1e2948"/>
      <path id="type_CompoundPathItem_5" data-name="type &lt;CompoundPathItem&gt;" d="M484.7576,31.9816h14.8147v75.699H484.7576V76.32H456.6405v31.361H441.7174V31.9816h14.9231V62.045h28.1171Z" style="fill: #1e2948"/>
      <path id="type_CompoundPathItem_6" data-name="type &lt;CompoundPathItem&gt;" d="M522.6059,86.3767c1.8385,6.813,6.9211,10.1653,15.2476,10.1653,5.2986,0,9.4086-1.8385,12.1121-5.407l11.2461,6.4885c-5.2986,7.678-13.1931,11.5711-23.5742,11.5711-8.9755,0-16.1136-2.7035-21.5206-8.1106s-8.1105-12.22-8.1105-20.4388a27.973,27.973,0,0,1,8.003-20.33c5.2985-5.5153,12.22-8.2188,20.5461-8.2188,7.8946,0,14.4911,2.7035,19.5737,8.2188a28.4251,28.4251,0,0,1,7.786,20.33,36.5086,36.5086,0,0,1-.5405,5.7315Zm27.36-10.8141c-1.6225-7.3535-7.0295-10.9223-13.41-10.9223-7.4615,0-12.5441,4.0013-14.1665,10.9223Z" style="fill: #1e2948"/>
      <path id="type_CompoundPathItem_7" data-name="type &lt;CompoundPathItem&gt;" d="M614.1511,53.61h13.9506v54.0706H614.1511V101.3c-4.2175,5.2988-10.0566,7.8943-17.6266,7.8943a24.5579,24.5579,0,0,1-18.6-8.2188,28.9932,28.9932,0,0,1-7.6785-20.3306,28.73,28.73,0,0,1,7.6785-20.2224c5.19-5.5151,11.3546-8.3268,18.6-8.3268,7.57,0,13.4091,2.5952,17.6266,7.8943ZM599.12,95.8932a14.5074,14.5074,0,0,0,10.7065-4.2175,14.9135,14.9135,0,0,0,4.3251-11.0305,14.5008,14.5008,0,0,0-4.3251-10.9221,15.4113,15.4113,0,0,0-21.4121,0,14.8332,14.8332,0,0,0-4.2175,10.9221,15.262,15.262,0,0,0,4.2175,11.0305A14.5053,14.5053,0,0,0,599.12,95.8932Z" style="fill: #1e2948"/>
      <path id="type_CompoundPathItem_8" data-name="type &lt;CompoundPathItem&gt;" d="M640.7523,107.6806V28.7373h13.95v78.9433Z" style="fill: #1e2948"/>
      <path id="type_CompoundPathItem_9" data-name="type &lt;CompoundPathItem&gt;" d="M698.3912,67.0193h-12.22V89.513c0,5.84,4.2175,5.9475,12.22,5.515v12.6526c-19.1406,2.1627-26.17-3.3523-26.17-18.1676V67.0193h-9.4085V53.61h9.4085V42.6877L686.1716,38.47V53.61h12.22Z" style="fill: #1e2948"/>
      <path id="type_CompoundPathItem_10" data-name="type &lt;CompoundPathItem&gt;" d="M752.8936,58.0438c3.893,4.0012,5.84,9.4083,5.84,16.4373v33.2H744.783V76.2114c0-7.2453-4.2175-11.1386-10.7056-11.1386-7.2455,0-11.896,4.4338-11.896,13.41v29.1982h-13.95V31.9816h13.95V59.6658c3.3525-5.0826,8.76-7.57,16.1135-7.57C744.2425,52.096,749.109,54.0425,752.8936,58.0438Z" style="fill: #1e2948"/>
    </g>
    <g id="logoMark">
      <path id="logoMark_PathItem_" data-name="logoMark &lt;PathItem&gt;" d="M137.9318,91.9518a45.9814,45.9814,0,0,1-45.98,45.98H45.9829v-45.98a45.9745,45.9745,0,0,1,91.9489,0Z" style="fill: #26532b"/>
      <path id="logoMark_PathItem_2" data-name="logoMark &lt;PathItem&gt;" d="M90.4233,34.51A57.4514,57.4514,0,0,0,34.4892,91.9506v.007H0V0H45.9719A46.0651,46.0651,0,0,1,90.4233,34.51Z" style="fill: #cbe4c9"/>
      <circle id="logoMark_PathItem_3" data-name="logoMark &lt;PathItem&gt;" cx="17.2409" cy="120.6901" r="17.2405" style="fill: #5e7bfd"/>
    </g>
  </g>
</svg>
