<svg width="675" height="440" viewBox="0 0 675 440" fill="none" xmlns="http://www.w3.org/2000/svg">
<g clip-path="url(#clip0_393_822)">
<path d="M0.00799561 194.059H42.22C60.28 194.059 73.948 196.594 83.226 201.666C92.503 206.738 97.142 215.644 97.142 228.385C97.142 233.518 96.307 238.157 94.637 242.301C93.029 246.445 90.678 249.846 87.586 252.506C84.493 255.165 80.721 256.897 76.268 257.701V258.629C80.783 259.557 84.865 261.165 88.514 263.453C92.163 265.68 95.07 268.958 97.234 273.287C99.461 277.555 100.574 283.245 100.574 290.357C100.574 298.583 98.564 305.634 94.544 311.51C90.524 317.385 84.772 321.9 77.288 325.055C69.866 328.147 61.022 329.693 50.755 329.693H0.00799561V194.059ZM28.768 247.774H45.467C53.816 247.774 59.599 246.476 62.815 243.878C66.032 241.218 67.64 237.322 67.64 232.188C67.64 226.993 65.722 223.282 61.888 221.056C58.115 218.767 52.116 217.623 43.89 217.623H28.768V247.774ZM28.768 270.597V305.943H47.508C56.167 305.943 62.197 304.273 65.599 300.934C69 297.594 70.701 293.11 70.701 287.481C70.701 284.142 69.959 281.204 68.475 278.668C66.99 276.132 64.485 274.153 60.96 272.73C57.496 271.308 52.703 270.597 46.58 270.597H28.768Z" fill="#0D527D"/>
<path d="M167.186 194.059C179.493 194.059 189.637 195.543 197.615 198.512C205.656 201.48 211.624 205.965 215.521 211.964C219.417 217.963 221.365 225.54 221.365 234.693C221.365 240.878 220.19 246.29 217.84 250.929C215.49 255.567 212.397 259.495 208.562 262.711C204.728 265.927 200.584 268.556 196.131 270.597L236.023 329.693H204.109L171.731 277.647H156.424V329.693H127.664V194.059H167.186ZM165.145 217.623H156.424V254.269H165.701C175.226 254.269 182.029 252.691 186.111 249.537C190.255 246.321 192.327 241.62 192.327 235.436C192.327 229.003 190.101 224.426 185.647 221.705C181.256 218.984 174.422 217.623 165.145 217.623Z" fill="#0D527D"/>
<path d="M253.094 329.693V194.059H281.854V329.693H253.094Z" fill="#0D527D"/>
<path d="M428.528 260.577C428.528 275.854 425.59 288.626 419.715 298.893C413.901 309.098 405.459 316.798 394.388 321.993C383.317 327.127 369.988 329.693 354.402 329.693H315.994V194.059H358.577C372.802 194.059 385.141 196.594 395.594 201.666C406.046 206.676 414.148 214.129 419.9 224.024C425.652 233.858 428.528 246.043 428.528 260.577ZM398.655 261.319C398.655 251.3 397.171 243.074 394.202 236.642C391.295 230.147 386.966 225.354 381.214 222.262C375.524 219.169 368.473 217.623 360.062 217.623H344.754V305.943H357.093C371.132 305.943 381.554 302.201 388.357 294.718C395.223 287.234 398.655 276.101 398.655 261.319Z" fill="#0D527D"/>
<path d="M508.128 253.526H561.937V323.849C554.824 326.199 547.433 328.085 539.764 329.508C532.094 330.868 523.405 331.549 513.694 331.549C500.211 331.549 488.769 328.889 479.368 323.57C469.967 318.251 462.824 310.396 457.938 300.006C453.051 289.615 450.608 276.843 450.608 261.69C450.608 247.465 453.33 235.157 458.772 224.767C464.277 214.376 472.286 206.336 482.801 200.646C493.377 194.955 506.272 192.11 521.487 192.11C528.662 192.11 535.743 192.883 542.732 194.43C549.721 195.976 556.061 197.986 561.751 200.46L552.195 223.468C548.051 221.365 543.32 219.602 538.001 218.18C532.682 216.757 527.116 216.046 521.302 216.046C512.952 216.046 505.685 217.963 499.5 221.798C493.377 225.632 488.615 231.013 485.213 237.94C481.873 244.806 480.203 252.908 480.203 262.247C480.203 271.091 481.409 278.946 483.821 285.812C486.233 292.615 490.037 297.965 495.232 301.861C500.428 305.696 507.2 307.613 515.55 307.613C519.632 307.613 523.064 307.428 525.848 307.057C528.693 306.624 531.352 306.191 533.826 305.758V277.462H508.128V253.526Z" fill="#0D527D"/>
<path d="M672.43 329.693H594.314V194.059H672.43V217.623H623.074V247.403H668.997V270.968H623.074V305.943H672.43V329.693Z" fill="#0D527D"/>
<path d="M52.649 406.358C52.649 413.505 51.274 419.48 48.526 424.283C45.806 429.058 41.856 432.66 36.676 435.091C31.497 437.493 25.261 438.694 17.969 438.694H0V375.237H19.922C26.578 375.237 32.35 376.423 37.241 378.796C42.131 381.14 45.921 384.627 48.612 389.257C51.303 393.857 52.649 399.558 52.649 406.358ZM38.673 406.705C38.673 402.017 37.978 398.169 36.589 395.159C35.229 392.121 33.204 389.879 30.513 388.432C27.851 386.985 24.552 386.262 20.617 386.262H13.455V427.582H19.228C25.796 427.582 30.672 425.832 33.855 422.33C37.067 418.829 38.673 413.621 38.673 406.705Z" fill="#77808A"/>
<path d="M102.346 438.694H65.8V375.237H102.346V386.262H79.256V400.194H100.74V411.219H79.256V427.582H102.346V438.694Z" fill="#77808A"/>
<path d="M134.118 375.237C139.876 375.237 144.622 375.932 148.354 377.32C152.116 378.709 154.908 380.807 156.731 383.614C158.554 386.421 159.466 389.965 159.466 394.248C159.466 397.142 158.916 399.673 157.817 401.844C156.717 404.014 155.27 405.851 153.476 407.356C151.682 408.861 149.743 410.09 147.66 411.045L166.324 438.694H151.393L136.245 414.344H129.083V438.694H115.628V375.237H134.118ZM133.163 386.262H129.083V403.406H133.424C137.88 403.406 141.063 402.668 142.972 401.193C144.911 399.688 145.88 397.489 145.88 394.595C145.88 391.586 144.839 389.445 142.755 388.171C140.701 386.898 137.504 386.262 133.163 386.262Z" fill="#77808A"/>
<path d="M201.177 438.694L185.899 388.909H185.508C185.566 390.096 185.653 391.89 185.769 394.291C185.913 396.664 186.044 399.196 186.159 401.887C186.275 404.578 186.333 407.009 186.333 409.179V438.694H174.31V375.237H192.626L207.644 423.763H207.905L223.834 375.237H242.15V438.694H229.607V408.658C229.607 406.661 229.635 404.361 229.693 401.757C229.78 399.153 229.881 396.679 229.997 394.335C230.113 391.962 230.2 390.182 230.258 388.996H229.867L213.504 438.694H201.177Z" fill="#77808A"/>
<path d="M297.013 438.694L292.412 423.589H269.278L264.677 438.694H250.18L272.576 374.977H289.026L311.51 438.694H297.013ZM289.2 412.304L284.599 397.547C284.31 396.563 283.919 395.304 283.427 393.771C282.964 392.208 282.487 390.631 281.995 389.039C281.532 387.419 281.156 386.016 280.867 384.829C280.577 386.016 280.172 387.491 279.651 389.257C279.159 390.993 278.682 392.642 278.219 394.205C277.756 395.767 277.423 396.881 277.221 397.547L272.663 412.304H289.2Z" fill="#77808A"/>
<path d="M344.019 438.694H330.564V386.435H313.333V375.237H361.251V386.435H344.019V438.694Z" fill="#77808A"/>
<path d="M428.613 406.878C428.613 411.769 428.006 416.225 426.79 420.247C425.575 424.24 423.723 427.683 421.235 430.577C418.775 433.471 415.65 435.699 411.859 437.261C408.069 438.795 403.584 439.562 398.404 439.562C393.225 439.562 388.74 438.795 384.949 437.261C381.158 435.699 378.019 433.471 375.53 430.577C373.071 427.683 371.233 424.226 370.018 420.203C368.803 416.181 368.195 411.711 368.195 406.792C368.195 400.223 369.266 394.508 371.407 389.647C373.577 384.757 376.905 380.966 381.39 378.275C385.875 375.584 391.575 374.239 398.491 374.239C405.378 374.239 411.035 375.584 415.462 378.275C419.918 380.966 423.217 384.757 425.358 389.647C427.528 394.537 428.613 400.281 428.613 406.878ZM382.301 406.878C382.301 411.306 382.851 415.125 383.951 418.337C385.079 421.52 386.83 423.98 389.203 425.716C391.575 427.423 394.643 428.277 398.404 428.277C402.224 428.277 405.32 427.423 407.693 425.716C410.065 423.98 411.787 421.52 412.858 418.337C413.957 415.125 414.507 411.306 414.507 406.878C414.507 400.223 413.263 394.986 410.774 391.166C408.286 387.347 404.191 385.437 398.491 385.437C394.7 385.437 391.604 386.305 389.203 388.041C386.83 389.748 385.079 392.208 383.951 395.42C382.851 398.603 382.301 402.422 382.301 406.878Z" fill="#77808A"/>
<path d="M441.765 438.694V375.237H455.22V427.582H480.958V438.694H441.765Z" fill="#77808A"/>
<path d="M549.623 406.878C549.623 411.769 549.016 416.225 547.8 420.247C546.585 424.24 544.733 427.683 542.245 430.577C539.785 433.471 536.66 435.699 532.87 437.261C529.079 438.795 524.594 439.562 519.414 439.562C514.235 439.562 509.75 438.795 505.959 437.261C502.168 435.699 499.029 433.471 496.54 430.577C494.081 427.683 492.243 424.226 491.028 420.203C489.813 416.181 489.205 411.711 489.205 406.792C489.205 400.223 490.276 394.508 492.417 389.647C494.587 384.757 497.915 380.966 502.4 378.275C506.885 375.584 512.585 374.239 519.501 374.239C526.388 374.239 532.045 375.584 536.472 378.275C540.928 380.966 544.227 384.757 546.368 389.647C548.538 394.537 549.623 400.281 549.623 406.878ZM503.311 406.878C503.311 411.306 503.861 415.125 504.961 418.337C506.089 421.52 507.84 423.98 510.213 425.716C512.585 427.423 515.653 428.277 519.414 428.277C523.234 428.277 526.33 427.423 528.703 425.716C531.076 423.98 532.797 421.52 533.868 418.337C534.967 415.125 535.517 411.306 535.517 406.878C535.517 400.223 534.273 394.986 531.784 391.166C529.296 387.347 525.201 385.437 519.501 385.437C515.711 385.437 512.614 386.305 510.213 388.041C507.84 389.748 506.089 392.208 504.961 395.42C503.861 398.603 503.311 402.422 503.311 406.878Z" fill="#77808A"/>
<path d="M586.864 403.059H612.038V435.959C608.711 437.059 605.253 437.941 601.665 438.607C598.077 439.243 594.011 439.562 589.468 439.562C583.16 439.562 577.807 438.317 573.409 435.829C569.01 433.34 565.668 429.666 563.382 424.804C561.096 419.943 559.954 413.968 559.954 406.878C559.954 400.223 561.227 394.465 563.773 389.604C566.348 384.743 570.096 380.981 575.015 378.319C579.963 375.657 585.996 374.326 593.114 374.326C596.471 374.326 599.784 374.687 603.054 375.411C606.323 376.134 609.289 377.074 611.951 378.232L607.481 388.996C605.542 388.012 603.328 387.188 600.84 386.522C598.352 385.857 595.747 385.524 593.027 385.524C589.121 385.524 585.721 386.421 582.827 388.215C579.963 390.009 577.735 392.526 576.143 395.767C574.581 398.979 573.799 402.77 573.799 407.139C573.799 411.277 574.364 414.952 575.492 418.164C576.621 421.346 578.4 423.849 580.831 425.672C583.261 427.466 586.43 428.363 590.336 428.363C592.246 428.363 593.852 428.277 595.154 428.103C596.485 427.9 597.729 427.698 598.887 427.495V414.257H586.864V403.059Z" fill="#77808A"/>
<path d="M646.935 401.366L660.173 375.237H674.67L653.619 413.997V438.694H640.251V414.431L619.2 375.237H633.784L646.935 401.366Z" fill="#77808A"/>
<path fill-rule="evenodd" clip-rule="evenodd" d="M58.713 150H3.10699C83.487 58.068 201.634 0 333.343 0C460.642 0 575.272 54.245 655.378 140.881C578.009 69.53 474.969 26 361.843 26C243.974 26 137.055 73.257 58.713 150Z" fill="#77808A"/>
<path fill-rule="evenodd" clip-rule="evenodd" d="M121.162 150H207.78C243.909 122.182 285.154 100.786 329.841 87.5V150H353.841V81.226C375.845 76.25 398.573 73.211 421.841 72.295V150H445.841V72.106C469.088 72.654 491.815 75.32 513.841 79.921V150H537.841V85.77C583.967 98.646 626.552 120.125 663.795 148.389C592.643 82.335 497.661 42 393.341 42C288.176 42 192.501 82.992 121.162 150Z" fill="#0D527D"/>
</g>
<defs>
<clipPath id="clip0_393_822">
<rect width="675" height="440" fill="white"/>
</clipPath>
</defs>
</svg>
