<svg width="1000" height="1000" viewBox="0 0 1000 1000" fill="none" xmlns="http://www.w3.org/2000/svg">
<rect width="1000" height="1000" fill="white"/>
<path d="M163.008 474.059H205.22C223.28 474.059 236.948 476.594 246.226 481.666C255.503 486.738 260.142 495.644 260.142 508.385C260.142 513.518 259.307 518.157 257.637 522.301C256.029 526.445 253.678 529.846 250.586 532.506C247.493 535.165 243.721 536.897 239.268 537.701V538.629C243.783 539.557 247.865 541.165 251.514 543.453C255.163 545.68 258.07 548.958 260.234 553.287C262.461 557.555 263.574 563.245 263.574 570.357C263.574 578.583 261.564 585.634 257.544 591.51C253.524 597.385 247.772 601.9 240.288 605.055C232.866 608.147 224.022 609.693 213.755 609.693H163.008V474.059ZM191.768 527.774H208.467C216.816 527.774 222.599 526.476 225.815 523.878C229.032 521.218 230.64 517.322 230.64 512.188C230.64 506.993 228.722 503.282 224.888 501.056C221.115 498.767 215.116 497.623 206.89 497.623H191.768V527.774ZM191.768 550.597V585.943H210.508C219.167 585.943 225.197 584.273 228.599 580.934C232 577.594 233.701 573.11 233.701 567.481C233.701 564.142 232.959 561.204 231.475 558.668C229.99 556.132 227.485 554.153 223.96 552.73C220.496 551.308 215.703 550.597 209.58 550.597H191.768Z" fill="#0D527D"/>
<path d="M330.186 474.059C342.493 474.059 352.637 475.543 360.615 478.512C368.656 481.48 374.624 485.965 378.521 491.964C382.417 497.963 384.365 505.54 384.365 514.693C384.365 520.878 383.19 526.29 380.84 530.929C378.49 535.567 375.397 539.495 371.562 542.711C367.728 545.927 363.584 548.556 359.131 550.597L399.023 609.693H367.109L334.731 557.647H319.424V609.693H290.664V474.059H330.186ZM328.145 497.623H319.424V534.269H328.701C338.226 534.269 345.029 532.691 349.111 529.537C353.255 526.321 355.327 521.62 355.327 515.436C355.327 509.003 353.101 504.426 348.647 501.705C344.256 498.984 337.422 497.623 328.145 497.623Z" fill="#0D527D"/>
<path d="M416.094 609.693V474.059H444.854V609.693H416.094Z" fill="#0D527D"/>
<path d="M591.528 540.577C591.528 555.854 588.59 568.626 582.715 578.893C576.901 589.098 568.459 596.798 557.388 601.993C546.317 607.127 532.988 609.693 517.402 609.693H478.994V474.059H521.577C535.802 474.059 548.141 476.594 558.594 481.666C569.046 486.676 577.148 494.129 582.9 504.024C588.652 513.858 591.528 526.043 591.528 540.577ZM561.655 541.319C561.655 531.3 560.171 523.074 557.202 516.642C554.295 510.147 549.966 505.354 544.214 502.262C538.524 499.169 531.473 497.623 523.062 497.623H507.754V585.943H520.093C534.132 585.943 544.554 582.201 551.357 574.718C558.223 567.234 561.655 556.101 561.655 541.319Z" fill="#0D527D"/>
<path d="M671.128 533.526H724.937V603.849C717.824 606.199 710.433 608.085 702.764 609.508C695.094 610.868 686.405 611.549 676.694 611.549C663.211 611.549 651.769 608.889 642.368 603.57C632.967 598.251 625.824 590.396 620.938 580.006C616.051 569.615 613.608 556.843 613.608 541.69C613.608 527.465 616.33 515.157 621.772 504.767C627.277 494.376 635.286 486.336 645.801 480.646C656.377 474.955 669.272 472.11 684.487 472.11C691.662 472.11 698.743 472.883 705.732 474.43C712.721 475.976 719.061 477.986 724.751 480.46L715.195 503.468C711.051 501.365 706.32 499.602 701.001 498.18C695.682 496.757 690.116 496.046 684.302 496.046C675.952 496.046 668.685 497.963 662.5 501.798C656.377 505.632 651.615 511.013 648.213 517.94C644.873 524.806 643.203 532.908 643.203 542.247C643.203 551.091 644.409 558.946 646.821 565.812C649.233 572.615 653.037 577.965 658.232 581.861C663.428 585.696 670.2 587.613 678.55 587.613C682.632 587.613 686.064 587.428 688.848 587.057C691.693 586.624 694.352 586.191 696.826 585.758V557.462H671.128V533.526Z" fill="#0D527D"/>
<path d="M835.43 609.693H757.314V474.059H835.43V497.623H786.074V527.403H831.997V550.968H786.074V585.943H835.43V609.693Z" fill="#0D527D"/>
<path d="M215.649 686.358C215.649 693.505 214.274 699.48 211.526 704.283C208.806 709.058 204.856 712.66 199.676 715.091C194.497 717.493 188.261 718.694 180.969 718.694H163V655.237H182.922C189.578 655.237 195.35 656.423 200.241 658.796C205.131 661.14 208.921 664.627 211.612 669.257C214.303 673.857 215.649 679.558 215.649 686.358ZM201.673 686.705C201.673 682.017 200.978 678.169 199.589 675.159C198.229 672.121 196.204 669.879 193.513 668.432C190.851 666.985 187.552 666.262 183.617 666.262H176.455V707.582H182.228C188.796 707.582 193.672 705.832 196.855 702.33C200.067 698.829 201.673 693.621 201.673 686.705Z" fill="#77808A"/>
<path d="M265.346 718.694H228.8V655.237H265.346V666.262H242.256V680.194H263.74V691.219H242.256V707.582H265.346V718.694Z" fill="#77808A"/>
<path d="M297.118 655.237C302.876 655.237 307.622 655.932 311.354 657.32C315.116 658.709 317.908 660.807 319.731 663.614C321.554 666.421 322.466 669.965 322.466 674.248C322.466 677.142 321.916 679.673 320.817 681.844C319.717 684.014 318.27 685.851 316.476 687.356C314.682 688.861 312.743 690.09 310.66 691.045L329.324 718.694H314.393L299.245 694.344H292.083V718.694H278.628V655.237H297.118ZM296.163 666.262H292.083V683.406H296.424C300.88 683.406 304.063 682.668 305.972 681.193C307.911 679.688 308.88 677.489 308.88 674.595C308.88 671.586 307.839 669.445 305.755 668.171C303.701 666.898 300.504 666.262 296.163 666.262Z" fill="#77808A"/>
<path d="M364.177 718.694L348.899 668.909H348.508C348.566 670.096 348.653 671.89 348.769 674.291C348.913 676.664 349.044 679.196 349.159 681.887C349.275 684.578 349.333 687.009 349.333 689.179V718.694H337.31V655.237H355.626L370.644 703.763H370.905L386.834 655.237H405.15V718.694H392.607V688.658C392.607 686.661 392.635 684.361 392.693 681.757C392.78 679.153 392.881 676.679 392.997 674.335C393.113 671.962 393.2 670.182 393.258 668.996H392.867L376.504 718.694H364.177Z" fill="#77808A"/>
<path d="M460.013 718.694L455.412 703.589H432.278L427.677 718.694H413.18L435.576 654.977H452.026L474.51 718.694H460.013ZM452.2 692.304L447.599 677.547C447.31 676.563 446.919 675.304 446.427 673.771C445.964 672.208 445.487 670.631 444.995 669.039C444.532 667.419 444.156 666.016 443.867 664.829C443.577 666.016 443.172 667.491 442.651 669.257C442.159 670.993 441.682 672.642 441.219 674.205C440.756 675.767 440.423 676.881 440.221 677.547L435.663 692.304H452.2Z" fill="#77808A"/>
<path d="M507.019 718.694H493.564V666.435H476.333V655.237H524.251V666.435H507.019V718.694Z" fill="#77808A"/>
<path d="M591.613 686.878C591.613 691.769 591.006 696.225 589.79 700.247C588.575 704.24 586.723 707.683 584.235 710.577C581.775 713.471 578.65 715.699 574.859 717.261C571.069 718.795 566.584 719.562 561.404 719.562C556.225 719.562 551.74 718.795 547.949 717.261C544.158 715.699 541.019 713.471 538.53 710.577C536.071 707.683 534.233 704.226 533.018 700.203C531.803 696.181 531.195 691.711 531.195 686.792C531.195 680.223 532.266 674.508 534.407 669.647C536.577 664.757 539.905 660.966 544.39 658.275C548.875 655.584 554.575 654.239 561.491 654.239C568.378 654.239 574.035 655.584 578.462 658.275C582.918 660.966 586.217 664.757 588.358 669.647C590.528 674.537 591.613 680.281 591.613 686.878ZM545.301 686.878C545.301 691.306 545.851 695.125 546.951 698.337C548.079 701.52 549.83 703.98 552.203 705.716C554.575 707.423 557.643 708.277 561.404 708.277C565.224 708.277 568.32 707.423 570.693 705.716C573.065 703.98 574.787 701.52 575.858 698.337C576.957 695.125 577.507 691.306 577.507 686.878C577.507 680.223 576.263 674.986 573.774 671.166C571.286 667.347 567.191 665.437 561.491 665.437C557.7 665.437 554.604 666.305 552.203 668.041C549.83 669.748 548.079 672.208 546.951 675.42C545.851 678.603 545.301 682.422 545.301 686.878Z" fill="#77808A"/>
<path d="M604.765 718.694V655.237H618.22V707.582H643.958V718.694H604.765Z" fill="#77808A"/>
<path d="M712.623 686.878C712.623 691.769 712.016 696.225 710.8 700.247C709.585 704.24 707.733 707.683 705.245 710.577C702.785 713.471 699.66 715.699 695.87 717.261C692.079 718.795 687.594 719.562 682.414 719.562C677.235 719.562 672.75 718.795 668.959 717.261C665.168 715.699 662.029 713.471 659.54 710.577C657.081 707.683 655.243 704.226 654.028 700.203C652.813 696.181 652.205 691.711 652.205 686.792C652.205 680.223 653.276 674.508 655.417 669.647C657.587 664.757 660.915 660.966 665.4 658.275C669.885 655.584 675.585 654.239 682.501 654.239C689.388 654.239 695.045 655.584 699.472 658.275C703.928 660.966 707.227 664.757 709.368 669.647C711.538 674.537 712.623 680.281 712.623 686.878ZM666.311 686.878C666.311 691.306 666.861 695.125 667.961 698.337C669.089 701.52 670.84 703.98 673.213 705.716C675.585 707.423 678.653 708.277 682.414 708.277C686.234 708.277 689.33 707.423 691.703 705.716C694.076 703.98 695.797 701.52 696.868 698.337C697.967 695.125 698.517 691.306 698.517 686.878C698.517 680.223 697.273 674.986 694.784 671.166C692.296 667.347 688.201 665.437 682.501 665.437C678.711 665.437 675.614 666.305 673.213 668.041C670.84 669.748 669.089 672.208 667.961 675.42C666.861 678.603 666.311 682.422 666.311 686.878Z" fill="#77808A"/>
<path d="M749.864 683.059H775.038V715.959C771.711 717.059 768.253 717.941 764.665 718.607C761.077 719.243 757.011 719.562 752.468 719.562C746.16 719.562 740.807 718.317 736.409 715.829C732.01 713.34 728.668 709.666 726.382 704.804C724.096 699.943 722.954 693.968 722.954 686.878C722.954 680.223 724.227 674.465 726.773 669.604C729.348 664.743 733.096 660.981 738.015 658.319C742.963 655.657 748.996 654.326 756.114 654.326C759.471 654.326 762.784 654.687 766.054 655.411C769.323 656.134 772.289 657.074 774.951 658.232L770.481 668.996C768.542 668.012 766.328 667.188 763.84 666.522C761.352 665.857 758.747 665.524 756.027 665.524C752.121 665.524 748.721 666.421 745.827 668.215C742.963 670.009 740.735 672.526 739.143 675.767C737.581 678.979 736.799 682.77 736.799 687.139C736.799 691.277 737.364 694.952 738.492 698.164C739.621 701.346 741.4 703.849 743.831 705.672C746.261 707.466 749.43 708.363 753.336 708.363C755.246 708.363 756.852 708.277 758.154 708.103C759.485 707.9 760.729 707.698 761.887 707.495V694.257H749.864V683.059Z" fill="#77808A"/>
<path d="M809.935 681.366L823.173 655.237H837.67L816.619 693.997V718.694H803.251V694.431L782.2 655.237H796.784L809.935 681.366Z" fill="#77808A"/>
<path fill-rule="evenodd" clip-rule="evenodd" d="M221.713 430H166.107C246.487 338.068 364.634 280 496.343 280C623.642 280 738.272 334.245 818.378 420.881C741.009 349.53 637.969 306 524.843 306C406.974 306 300.055 353.257 221.713 430Z" fill="#77808A"/>
<path fill-rule="evenodd" clip-rule="evenodd" d="M284.162 430H370.78C406.909 402.182 448.154 380.786 492.841 367.5V430H516.841V361.226C538.845 356.25 561.573 353.211 584.841 352.295V430H608.841V352.106C632.088 352.654 654.815 355.32 676.841 359.921V430H700.841V365.77C746.967 378.646 789.552 400.125 826.795 428.389C755.643 362.335 660.661 322 556.341 322C451.176 322 355.501 362.992 284.162 430Z" fill="#0D527D"/>
</svg>
