<svg width="388" height="58" viewBox="0 0 388 58" fill="none" xmlns="http://www.w3.org/2000/svg">
<path fill-rule="evenodd" clip-rule="evenodd" d="M275.202 26.3138H259.408V12.6924H254.826V44.2766H259.408V30.6353H275.202V44.2766H279.809V12.6924H275.202V26.3138Z" fill="#2E4985"/>
<path fill-rule="evenodd" clip-rule="evenodd" d="M302.252 21.6185C300.555 20.4914 298.499 19.9307 296.087 19.9307C293.674 19.9307 291.751 20.4489 290.012 21.4882C288.271 22.5275 286.911 23.9973 285.931 25.8975C284.966 27.7977 284.484 30.0434 284.484 32.6317C284.484 35.0728 284.974 37.2223 285.954 39.08C286.948 40.9236 288.33 42.3622 290.1 43.4015C291.884 44.4238 293.951 44.9364 296.308 44.9364C298.664 44.9364 300.686 44.3587 302.558 43.2032C304.429 42.0337 305.826 40.3883 306.749 38.2672L302.252 36.84C301.666 38.0548 300.847 38.9894 299.794 39.6464C298.757 40.2892 297.52 40.612 296.087 40.612C293.909 40.612 292.241 39.9041 291.086 38.4853C290.131 37.3016 289.576 35.71 289.412 33.7249H307.055C307.23 30.8873 306.893 28.4377 306.046 26.3761C305.211 24.3144 303.948 22.7286 302.252 21.6156V21.6185ZM291.086 26.158C292.241 24.7109 293.966 23.9859 296.262 23.9859C298.338 23.9859 299.881 24.6429 300.892 25.9598C301.663 26.951 302.15 28.3471 302.357 30.1482H289.514C289.757 28.5057 290.276 27.169 291.086 26.1552V26.158Z" fill="#2E4985"/>
<path fill-rule="evenodd" clip-rule="evenodd" d="M329.996 24.4475C329.265 22.8815 328.11 21.7431 326.53 21.0266C324.964 20.296 323.123 19.9307 321.002 19.9307C318.266 19.9307 316.074 20.531 314.42 21.7289C312.783 22.9268 311.673 24.5438 311.087 26.5771L315.363 27.894C315.774 26.563 316.499 25.6115 317.535 25.0422C318.575 24.456 319.716 24.1644 320.959 24.1644C322.933 24.1644 324.321 24.6175 325.125 25.5237C325.839 26.3024 326.232 27.4494 326.3 28.9616C325.402 29.089 324.499 29.2136 323.59 29.3411C322.129 29.545 320.733 29.7659 319.402 29.9981C318.071 30.2331 316.878 30.5022 315.825 30.8108C314.61 31.2045 313.588 31.7255 312.755 32.3684C311.92 32.9971 311.291 33.7645 310.869 34.6707C310.444 35.5769 310.232 36.6304 310.232 37.8283C310.232 39.114 310.532 40.3005 311.13 41.3823C311.744 42.45 312.645 43.3137 313.828 43.9707C315.012 44.6135 316.482 44.9364 318.238 44.9364C320.447 44.9364 322.304 44.4974 323.808 43.6195C324.949 42.9512 325.935 42.0252 326.77 40.8414V44.2765H330.828V29.6894C330.828 28.6954 330.786 27.7665 330.698 26.9028C330.61 26.0391 330.375 25.2207 329.996 24.4447V24.4475ZM325.785 36.4888C325.609 37.2647 325.235 38.0095 324.666 38.726C324.094 39.4425 323.341 40.0343 322.406 40.5016C321.469 40.9547 320.35 41.1813 319.05 41.1813C318.071 41.1813 317.266 41.0283 316.638 40.7197C316.009 40.411 315.539 40.0032 315.233 39.4906C314.924 38.9639 314.771 38.3947 314.771 37.7801C314.771 37.1656 314.91 36.6162 315.188 36.1773C315.482 35.7383 315.87 35.3645 316.352 35.0587C316.85 34.7528 317.411 34.4895 318.04 34.2686C318.787 34.0335 319.634 33.8381 320.585 33.6767C321.551 33.5011 322.624 33.3256 323.808 33.15C324.567 33.0367 325.388 32.9149 326.255 32.7847C326.243 33.1726 326.227 33.6144 326.201 34.1157C326.17 34.9936 326.031 35.7837 325.785 36.486V36.4888Z" fill="#2E4985"/>
<path d="M341.547 12.0322H336.962V44.2763H341.547V12.0322Z" fill="#2E4985"/>
<path fill-rule="evenodd" clip-rule="evenodd" d="M354.65 14.0063H350.043V20.5877H345.503V24.272H350.043V34.9539C350.043 36.2396 350.057 37.395 350.088 38.4202C350.131 39.4283 350.408 40.4223 350.921 41.4022C351.49 42.4981 352.34 43.3024 353.464 43.815C354.591 44.3275 355.871 44.6051 357.304 44.6475C358.737 44.6928 360.198 44.5682 361.691 44.2737V40.3912C360.141 40.6092 358.788 40.663 357.632 40.5441C356.491 40.411 355.659 39.8928 355.132 38.9866C354.854 38.5051 354.701 37.9104 354.67 37.211C354.656 36.5086 354.65 35.6817 354.65 34.733V24.272H361.691V20.5877H354.65V14.0063Z" fill="#2E4985"/>
<path fill-rule="evenodd" clip-rule="evenodd" d="M387.764 28.5737C387.634 27.608 387.385 26.6225 387.019 25.6115C386.654 24.6005 386.122 23.6745 385.419 22.8249C384.731 21.9612 383.831 21.2674 382.72 20.7407C381.61 20.2139 380.234 19.9505 378.597 19.9505C376.462 19.9505 374.641 20.4121 373.134 21.3325C372.214 21.8961 371.427 22.5984 370.767 23.4338V12.6924H366.664V44.2794H371.314V31.9522C371.314 30.5475 371.466 29.3553 371.775 28.3755C372.095 27.3956 372.528 26.6055 373.069 26.0052C373.624 25.4048 374.267 24.9743 374.998 24.711C375.731 24.4335 376.504 24.2947 377.326 24.2947C378.583 24.2947 379.597 24.5496 380.373 25.0621C381.163 25.5747 381.769 26.2459 382.194 27.0813C382.633 27.9139 382.924 28.8201 383.072 29.7999C383.233 30.7656 383.312 31.7086 383.312 32.629V44.2766H387.962V31.1167C387.962 30.3861 387.897 29.5365 387.764 28.5737Z" fill="#2E4985"/>
<path fill-rule="evenodd" clip-rule="evenodd" d="M53.3022 27.6276C54.0016 27.2029 54.5935 26.6393 55.0721 25.9285C55.8764 24.7589 56.2785 23.2892 56.2785 21.5192C56.2785 20.1288 55.9557 18.7553 55.3128 17.396C54.67 16.0367 53.6533 14.9096 52.2629 14.0175C50.8752 13.1113 49.0543 12.6582 46.8001 12.6582H34.167V44.2452H48.1623C50.3117 44.2452 52.0958 43.8431 53.5146 43.0389C54.9333 42.2204 55.9868 41.0933 56.6721 39.6604C57.3744 38.2275 57.7256 36.568 57.7256 34.6819C57.7256 32.9261 57.2272 31.3403 56.2332 29.9215C55.5195 28.8878 54.5397 28.1261 53.2993 27.6305L53.3022 27.6276ZM40.2244 18.2286H46.718C47.8592 18.2286 48.7286 18.5571 49.329 19.2169C49.9294 19.8739 50.2295 20.6866 50.2295 21.6523C50.2295 22.4283 50.0766 23.0626 49.7679 23.561C49.4621 24.0425 49.043 24.4021 48.5191 24.6372C47.9923 24.8722 47.392 24.9883 46.7208 24.9883H40.2273V18.2314L40.2244 18.2286ZM51.1697 36.6756C50.8186 37.2901 50.3287 37.7715 49.7 38.1227C49.0713 38.4597 48.3548 38.6268 47.5506 38.6268H40.2244V30.5558H47.5506C48.4709 30.5558 49.2384 30.7314 49.8529 31.0826C50.4816 31.4196 50.9488 31.8783 51.2575 32.4645C51.5662 33.0507 51.7191 33.7162 51.7191 34.461C51.7191 35.3078 51.5351 36.0469 51.1697 36.6756Z" fill="#2E4985"/>
<path fill-rule="evenodd" clip-rule="evenodd" d="M72.848 20.5112C72.1315 20.5537 71.4377 20.6783 70.7637 20.885C70.0897 21.0748 69.4695 21.3466 68.9003 21.6978C68.1555 22.1367 67.5269 22.6918 67.0143 23.3658C66.7707 23.6858 66.5527 24.0228 66.3573 24.3739V20.5565H61.0928V44.2454H67.1021V32.1362C67.1021 31.23 67.2267 30.4172 67.4759 29.7007C67.7251 28.9701 68.0904 28.3414 68.5718 27.8147C69.0533 27.2738 69.6451 26.8434 70.3474 26.5205C71.0497 26.1835 71.8314 25.9881 72.6951 25.9286C73.573 25.855 74.3404 25.9202 74.9974 26.1269V20.5565C74.2809 20.4687 73.5645 20.4546 72.848 20.5141V20.5112Z" fill="#2E4985"/>
<path d="M84.5635 20.5532H78.5967V44.2421H84.5635V20.5532Z" fill="#2E4985"/>
<path fill-rule="evenodd" clip-rule="evenodd" d="M138.095 26.2145C137.818 25.1611 137.35 24.1529 136.691 23.1872C136.048 22.2215 135.142 21.4258 133.969 20.7971C132.8 20.1684 131.287 19.8541 129.43 19.8541C127.105 19.8541 125.173 20.3581 123.638 21.3663C122.925 21.8392 122.299 22.3858 121.752 22.9975V12.6582H116.445V44.2452H122.5V32.2238C122.5 30.7456 122.661 29.5618 122.981 28.6698C123.318 27.7777 123.743 27.1037 124.253 26.6506C124.765 26.1834 125.312 25.869 125.898 25.7076C126.484 25.5462 127.031 25.4669 127.544 25.4669C128.815 25.4669 129.795 25.7529 130.483 26.3221C131.185 26.8913 131.689 27.6022 131.995 28.4489C132.304 29.2956 132.485 30.1452 132.545 30.9948C132.604 31.8274 132.632 32.5155 132.632 33.0564V44.2424H138.687V30.9495C138.687 30.5558 138.659 29.9271 138.599 29.0634C138.54 28.1997 138.373 27.251 138.095 26.2117V26.2145Z" fill="#2E4985"/>
<path fill-rule="evenodd" clip-rule="evenodd" d="M150.737 13.9751H144.77V20.5564H140.734V25.1639H144.77V34.2005C144.77 35.6193 144.784 36.8909 144.815 38.018C144.843 39.1281 145.152 40.2268 145.736 41.3086C146.378 42.464 147.316 43.3051 148.542 43.8318C149.785 44.3444 151.19 44.6135 152.753 44.6446C154.333 44.6899 155.942 44.5568 157.579 44.251V39.2923C156.174 39.482 154.894 39.5415 153.738 39.4679C152.583 39.3943 151.742 38.9412 151.215 38.1086C150.938 37.6696 150.785 37.0863 150.754 36.3528C150.739 35.608 150.731 34.7726 150.731 33.8522V25.1668H157.576V20.5593H150.731V13.9751H150.737Z" fill="#2E4985"/>
<path fill-rule="evenodd" clip-rule="evenodd" d="M177.883 31.7197C176.802 31.091 175.36 30.5416 173.562 30.0743C171.718 29.6071 170.345 29.2248 169.439 28.9331C168.547 28.6414 167.955 28.3554 167.663 28.0779C167.385 27.8003 167.247 27.4577 167.247 27.047C167.247 26.3589 167.575 25.8322 168.235 25.4668C168.909 25.1015 169.793 24.9543 170.888 25.0279C172.016 25.1157 172.908 25.4159 173.565 25.9284C174.222 26.441 174.604 27.1348 174.706 28.0127L180.803 26.9168C180.599 25.4838 180.05 24.2406 179.158 23.1872C178.28 22.1337 177.124 21.3238 175.691 20.7517C174.258 20.1825 172.613 19.8965 170.755 19.8965C168.898 19.8965 167.173 20.2023 165.754 20.8169C164.35 21.4172 163.262 22.2781 162.486 23.4052C161.71 24.5153 161.322 25.8322 161.322 27.3529C161.322 28.5678 161.577 29.6042 162.09 30.468C162.602 31.3147 163.435 32.0482 164.59 32.6627C165.746 33.2772 167.289 33.8323 169.218 34.3307C170.928 34.7838 172.186 35.1491 172.99 35.4266C173.808 35.7042 174.335 35.9902 174.57 36.2819C174.805 36.5594 174.921 36.9332 174.921 37.4005C174.921 38.1453 174.629 38.7315 174.043 39.1563C173.457 39.5669 172.624 39.7708 171.543 39.7708C170.226 39.7708 169.138 39.4564 168.275 38.8278C167.428 38.1991 166.879 37.3297 166.629 36.2167L160.532 37.1371C160.929 39.6094 162.039 41.5237 163.865 42.883C165.709 44.2282 168.122 44.9022 171.104 44.9022C174.086 44.9022 176.632 44.2084 178.387 42.8179C180.143 41.4274 181.018 39.5216 181.018 37.0918C181.018 35.8628 180.769 34.8178 180.273 33.9541C179.775 33.0762 178.979 32.3314 177.883 31.7168V31.7197Z" fill="#2E4985"/>
<path d="M191.232 20.5537H185.266V44.2426H191.232V20.5537Z" fill="#2E4985"/>
<path fill-rule="evenodd" clip-rule="evenodd" d="M212.064 21.3267C210.589 20.378 208.808 19.8965 206.712 19.8965C204.446 19.8965 202.47 20.4374 200.79 21.5192C199.108 22.601 197.8 24.0849 196.865 25.971C195.945 27.8429 195.483 29.9838 195.483 32.3966C195.483 34.8093 195.937 36.8936 196.843 38.7797C197.763 40.6657 199.043 42.1581 200.683 43.2541C202.32 44.35 204.228 44.8994 206.409 44.8994C208.762 44.8994 210.73 44.35 212.311 43.2541C212.483 43.1323 212.65 43.0077 212.815 42.8774V44.2424H218.079V12.6582H212.07V21.3267H212.064ZM212.285 36.1715C211.934 37.2533 211.356 38.0944 210.552 38.6947C209.762 39.2951 208.703 39.5953 207.372 39.5953C206.041 39.5953 205.033 39.2724 204.214 38.6296C203.396 37.9867 202.79 37.123 202.393 36.0412C202 34.9453 201.801 33.7304 201.801 32.3994C201.801 31.0684 202.005 29.8847 202.416 28.8029C202.827 27.7069 203.455 26.8347 204.302 26.1919C205.166 25.5349 206.262 25.2035 207.593 25.2035C208.836 25.2035 209.838 25.5037 210.597 26.1041C211.373 26.7044 211.937 27.5455 212.288 28.6273C212.639 29.7091 212.815 30.9665 212.815 32.3994C212.815 33.8323 212.639 35.0897 212.288 36.1715H212.285Z" fill="#2E4985"/>
<path fill-rule="evenodd" clip-rule="evenodd" d="M240.202 21.6523C238.46 20.4827 236.347 19.8965 233.861 19.8965C231.522 19.8965 229.452 20.4289 227.653 21.4965C225.855 22.55 224.445 24.0339 223.42 25.9483C222.397 27.8626 221.885 30.1168 221.885 32.7052C221.885 35.0755 222.403 37.1796 223.442 39.0232C224.496 40.8526 225.943 42.2912 227.786 43.3446C229.644 44.3839 231.785 44.9022 234.215 44.9022C236.495 44.9022 238.593 44.3018 240.51 43.1039C242.442 41.906 243.852 40.2239 244.744 38.0603L238.777 36.3498C238.338 37.3155 237.701 38.0546 236.868 38.5644C236.036 39.077 235.033 39.3318 233.864 39.3318C232.006 39.3318 230.596 38.7315 229.63 37.5336C228.933 36.6444 228.497 35.4889 228.31 34.0673H244.942C245.191 31.2014 244.9 28.7065 244.064 26.5883C243.232 24.4672 241.943 22.8218 240.204 21.6523H240.202ZM234.124 25.0732C235.866 25.0732 237.115 25.6056 237.874 26.6732C238.383 27.3642 238.72 28.3554 238.896 29.6354H228.466C228.698 28.5451 229.081 27.6417 229.624 26.9366C230.59 25.6934 232.088 25.0732 234.121 25.0732H234.124Z" fill="#2E4985"/>
<path d="M188.236 18.0926C190.097 18.0926 191.606 16.5812 191.606 14.7169C191.606 12.8526 190.097 11.3413 188.236 11.3413C186.375 11.3413 184.866 12.8526 184.866 14.7169C184.866 16.5812 186.375 18.0926 188.236 18.0926Z" fill="#2E4985"/>
<path fill-rule="evenodd" clip-rule="evenodd" d="M81.5846 11.3413C79.7212 11.3413 78.209 12.8564 78.209 14.7198C78.209 16.5832 79.7212 18.0982 81.5846 18.0982C83.448 18.0982 84.9602 16.5832 84.9602 14.7198C84.9602 12.8564 83.4508 11.3413 81.5846 11.3413Z" fill="#2E4985"/>
<path fill-rule="evenodd" clip-rule="evenodd" d="M106.168 18.339C106.168 19.8257 105.893 20.579 105.599 20.8905L105.593 20.8849C105.256 21.2417 104.902 21.4229 104.52 21.4739C103.146 20.9755 101.671 20.7291 100.107 20.7291C98.6377 20.7291 97.2642 20.933 95.9984 21.3578C94.7325 21.7798 93.6196 22.3999 92.6794 23.2269C91.7335 24.0254 90.9887 25.0223 90.4393 26.189L90.4308 26.2088C89.9069 27.3982 89.6549 28.7179 89.6549 30.1509C89.6549 32.3767 90.2581 34.2968 91.507 35.86C90.9321 36.398 90.4761 37.0126 90.159 37.7007C89.7314 38.6154 89.5161 39.5783 89.5161 40.5921C89.5161 42.093 89.9098 43.4042 90.7282 44.4633C90.0032 44.9645 89.3802 45.5592 88.8761 46.2587C88.1512 47.2584 87.7773 48.3657 87.7773 49.5551C87.7773 52.0981 88.8648 54.0918 91.0425 55.3973C93.1495 56.6631 96.2051 57.2323 100.062 57.2323C103.919 57.2323 106.966 56.581 109.099 55.1594C111.262 53.7151 112.35 51.6648 112.35 49.1076C112.35 47.8474 112.109 46.7232 111.591 45.7688C111.087 44.8484 110.399 44.0895 109.521 43.5004C108.668 42.9284 107.697 42.5291 106.624 42.2969C105.579 42.042 104.486 41.9146 103.353 41.9146H97.1453C96.1343 41.9146 95.5764 41.6994 95.2819 41.4417C94.9336 41.1075 94.758 40.7082 94.758 40.1871C94.758 39.8246 94.826 39.4763 94.9675 39.1365C95.0497 38.9609 95.1431 38.7967 95.2507 38.6522C96.6922 39.2413 98.3149 39.5301 100.105 39.5301C101.546 39.5301 102.9 39.3262 104.166 38.9014C105.454 38.4823 106.581 37.8791 107.53 37.0834C108.507 36.2564 109.254 35.2624 109.781 34.107C110.339 32.912 110.611 31.5923 110.611 30.1509C110.611 28.8737 110.396 27.6956 109.94 26.6308C109.671 25.937 109.331 25.297 108.915 24.7193C109.58 24.3426 110.484 23.8499 110.934 23.2353C111.679 22.2272 112.35 20.8509 112.35 19.2225V16.7305H106.168V18.3305V18.339ZM94.8713 46.8534C95.7038 47.0262 96.5931 47.1083 97.5191 47.1083H103.163C103.585 47.1083 104.007 47.1366 104.429 47.1876C104.837 47.2612 105.165 47.3773 105.434 47.5274L105.448 47.5359L105.463 47.5444C105.743 47.6888 105.958 47.8729 106.125 48.1108L106.134 48.1249C106.281 48.3288 106.397 48.646 106.397 49.1529C106.397 49.7335 106.275 50.1809 106.069 50.5236C105.868 50.8634 105.553 51.1522 105.092 51.3788L105.077 51.3873C104.086 51.9084 102.455 52.2142 100.056 52.2142C97.6579 52.2142 96.0663 51.9027 95.0553 51.3816C94.5654 51.1268 94.2426 50.8322 94.0359 50.5179C93.8291 50.2036 93.7187 49.8156 93.7187 49.3285C93.7187 48.7989 93.8518 48.3062 94.1123 47.8446C94.353 47.4821 94.6079 47.1508 94.8713 46.8506V46.8534ZM104.072 32.3201C103.803 32.9091 103.46 33.3707 103.061 33.7247C102.65 34.0929 102.195 34.3562 101.688 34.5233C101.152 34.6989 100.623 34.7895 100.105 34.7895C99.5864 34.7895 99.0596 34.7046 98.5216 34.5233C98.0203 34.3562 97.5701 34.0957 97.1594 33.7389C96.7856 33.3849 96.4571 32.9205 96.1881 32.3258C95.9332 31.7396 95.7916 31.0231 95.7916 30.165C95.7916 29.3069 95.9332 28.5565 96.1881 28.0071V27.9929C96.4685 27.3643 96.797 26.8913 97.1651 26.5373C97.5757 26.1749 98.0288 25.9143 98.5273 25.7529C99.0625 25.5773 99.592 25.4867 100.11 25.4867C100.629 25.4867 101.155 25.5717 101.693 25.7529C102.197 25.92 102.653 26.1862 103.067 26.5515L103.061 26.543C103.455 26.8913 103.797 27.3671 104.066 27.9901V28.0043C104.321 28.5537 104.469 29.2588 104.469 30.1622C104.469 31.0656 104.327 31.7396 104.072 32.3229V32.3201Z" fill="#2E4985"/>
<path fill-rule="evenodd" clip-rule="evenodd" d="M21.4658 38.0207C23.1112 38.0207 24.445 39.3545 24.445 40.9998V46.9553C24.445 48.6007 23.1112 49.9345 21.4658 49.9345C19.8205 49.9345 18.4867 48.6007 18.4867 46.9553V40.9998C18.4867 39.3545 19.8205 38.0207 21.4658 38.0207ZM12.3414 33.3792C13.5053 32.2153 15.3886 32.2153 16.5525 33.3792C17.7164 34.5431 17.7164 36.4263 16.5525 37.5902L10.4101 43.7326C9.24616 44.8965 7.36295 44.8965 6.19904 43.7326C5.03512 42.5687 5.03512 40.6855 6.19904 39.5216L12.3414 33.3792ZM16.5525 19.3414C17.7164 20.5053 17.7164 22.3886 16.5525 23.5525C15.3886 24.7164 13.5053 24.7164 12.3414 23.5525L6.19904 17.4101C5.03512 16.2462 5.03512 14.3629 6.19904 13.199C7.36295 12.0351 9.24616 12.0351 10.4101 13.199L16.5525 19.3414ZM21.4658 18.911C23.1112 18.911 24.445 17.5772 24.445 15.9318V9.97916C24.445 8.33383 23.1112 7 21.4658 7C19.8205 7 18.4867 8.33383 18.4867 9.97916V15.9347C18.4867 17.58 19.8205 18.9138 21.4658 18.9138V18.911ZM8.93465 25.4867C10.58 25.4867 11.9138 26.8205 11.9138 28.4658C11.9138 30.1112 10.58 31.445 8.93465 31.445H2.97916C1.33383 31.445 0 30.1112 0 28.4658C0 26.8205 1.33383 25.4867 2.97916 25.4867H8.93465Z" fill="url(#paint0_linear_4968_28301)"/>
<defs>
<linearGradient id="paint0_linear_4968_28301" x1="12.2168" y1="7.00283" x2="12.231" y2="49.9316" gradientUnits="userSpaceOnUse">
<stop stop-color="#3FBFF5"/>
<stop offset="0.52" stop-color="#47AAF2"/>
<stop offset="1" stop-color="#367DDD"/>
</linearGradient>
</defs>
</svg>
