<?xml version="1.0" encoding="UTF-8"?>
<svg width="170px" height="24px" viewBox="0 0 170 24" version="1.1" xmlns="http://www.w3.org/2000/svg" xmlns:xlink="http://www.w3.org/1999/xlink">
    <!-- Generator: sketchtool 54.1 (76490) - https://sketchapp.com -->
    <title>816C8A1D-4006-47E9-AEA5-6394A79B4CCC</title>
    <desc>Created with sketchtool.</desc>
    <g id="About" stroke="none" stroke-width="1" fill="none" fill-rule="evenodd">
        <g id="About---2560" transform="translate(-363.000000, -28.000000)">
            <g id="NavBar/Default/White" transform="translate(320.000000, 0.000000)">
                <g id="Group-2">
                    <g id="Logo/Black-Copy-2" transform="translate(40.000000, 26.000000)">
                        <g id="Group">
                            <g id="Logo/O/Black">
                                <g id="Group-2-Copy">
                                    <rect id="Rectangle-Copy-2" x="0" y="0" width="28.0419292" height="28"></rect>
                                    <ellipse id="Oval-Copy-78" fill="#35A678" cx="22.1383652" cy="18.2368421" rx="2.58280927" ry="2.57894737"></ellipse>
                                    <ellipse id="Oval-Copy-79" fill="#46B1CD" cx="5.90356405" cy="9.76315789" rx="2.58280927" ry="2.57894737"></ellipse>
                                    <ellipse id="Oval-Copy-66" fill="#97E2C3" cx="22.1383652" cy="9.76315789" rx="1.84486377" ry="1.84210526"></ellipse>
                                    <ellipse id="Oval-Copy-68" fill="#FAC933" cx="5.90356405" cy="18.2368421" rx="1.84486377" ry="1.84210526"></ellipse>
                                    <ellipse id="Oval-Copy-80" fill="#9D88C4" cx="14.0209646" cy="4.97368421" rx="2.58280927" ry="2.57894737"></ellipse>
                                    <ellipse id="Oval-Copy-81" fill="#E15439" cx="14.0209646" cy="23.0263158" rx="2.58280927" ry="2.57894737"></ellipse>
                                </g>
                            </g>
                            <g id="Logo/Carbon/Black" transform="translate(28.041929, 0.000000)">
                                <rect id="Rectangle-Copy" x="0" y="0" width="147.958069" height="28"></rect>
                                <path d="M17.1390616,8.49182787 L15.3123757,10.3157825 C14.3378926,9.29441529 12.9624688,8.65789474 11.4381549,8.65789474 C8.48337369,8.65789474 6.08805021,11.0496367 6.08805021,14 C6.08805021,16.9503633 8.48337369,19.3421053 11.4381549,19.3421053 C12.9624688,19.3421053 14.3378926,18.7055847 15.3123757,17.6842175 L17.1390616,19.5081721 C15.6968602,20.9960716 13.6756898,21.9210526 11.4381549,21.9210526 C7.05692757,21.9210526 3.50524103,18.3746766 3.50524103,14 C3.50524103,9.62532343 7.05692757,6.07894737 11.4381549,6.07894737 C13.6756898,6.07894737 15.6968602,7.00392837 17.1390616,8.49182787 Z M67.5220115,15.6578947 L67.5220115,21.5526316 L65.1236887,21.5526316 L65.1236887,11.2368421 L67.2479174,11.2368421 L67.5220115,12.3421053 C68.0522796,11.6497705 69.4719662,11.0526316 70.3815502,11.0526316 C73.2352802,11.0526316 74.6669521,13.1885871 74.7161271,15.8421053 L74.7169799,21.5526316 L72.3186571,21.5526316 L72.3186571,15.8421053 C72.3186571,14.4686603 71.5725655,13.3552632 70.0125775,13.3552632 C68.6370758,13.3552632 67.5220115,14.1002392 67.5220115,15.6578947 Z M57.836477,11.0526316 C61.0148082,11.0526316 63.278825,13.3187194 63.278825,16.4868421 C63.278825,19.6549648 61.0148082,21.9210526 57.836477,21.9210526 C54.6581459,21.9210526 52.3941291,19.6549648 52.3941291,16.4868421 C52.3941291,13.3187194 54.6581459,11.0526316 57.836477,11.0526316 Z M57.836477,13.1867142 C55.9063164,13.1867142 54.5314074,14.5628809 54.5314074,16.4868421 C54.5314074,18.4108033 55.9063164,19.78697 57.836477,19.78697 C59.7666377,19.78697 61.1415467,18.4108033 61.1415467,16.4868421 C61.1415467,14.5628809 59.7666377,13.1867142 57.836477,13.1867142 Z M38.0108343,13.5409848 C36.2737661,13.1890095 34.1769092,14.3081759 34.1769092,15.4291218 L34.1769092,21.7368421 L31.916142,21.7368421 L31.916142,11.4463466 L33.9017979,11.4463466 L34.1769092,12.5488997 C34.7071773,11.8582625 36.0963212,11.0851794 38.1886786,11.2625877 L38.0108343,13.5409848 Z M27.0932483,11.3166418 L29.3333329,11.3166418 L29.3333329,21.6570424 L27.0932483,21.6570424 L27.0932483,20.8430109 C26.2233126,21.5250373 25.1141446,21.9210526 23.809241,21.9210526 C20.9384531,21.9210526 18.6331234,19.5009589 18.6331234,16.4868421 C18.6331234,13.4727253 20.9384531,11.0526316 23.809241,11.0526316 C25.1141446,11.0526316 26.2233126,11.4486469 27.0932483,12.1306733 L27.0932483,11.3166418 Z M24.0488481,19.78697 C25.8505439,19.78697 27.1266206,18.3094524 27.1266206,16.4868421 C27.1266206,14.6642318 25.8505439,13.1867142 24.0488481,13.1867142 C22.2471523,13.1867142 20.7865892,14.6642318 20.7865892,16.4868421 C20.7865892,18.3094524 22.2471523,19.78697 24.0488481,19.78697 Z M42.4581132,6.26315789 L42.4581132,12.2368787 C43.3280489,11.5622508 44.437217,11.1705314 45.7421206,11.1705314 C48.6129085,11.1705314 50.9182382,13.5643722 50.9182382,16.545792 C50.9182382,19.5272119 48.6129085,21.9210526 45.7421206,21.9210526 C44.437217,21.9210526 43.3280489,21.5293332 42.4581132,20.8547054 L42.1862583,21.6599064 L40.2180287,21.6599064 L40.2180287,6.26315789 L42.4581132,6.26315789 Z M45.5025135,19.8101203 C47.3042093,19.8101203 48.7647723,18.3486307 48.7647723,16.5457919 C48.7647723,14.7429531 47.3042093,13.2814634 45.5025135,13.2814634 C43.885304,13.2814634 42.424741,14.5587425 42.424741,16.5457919 C42.424741,18.5328412 43.885304,19.8101203 45.5025135,19.8101203 Z" id="Combined-Shape" fill="#19191B"></path>
                                <path d="M91.1888809,6.81578947 L93.5345897,6.81578947 L93.5345897,21.5526316 L91.1888809,21.5526316 L91.1888809,15.3978328 L83.9106069,15.3978328 L83.9106069,21.5526316 L81.5429756,21.5526316 L81.5429756,6.81578947 L83.9106069,6.81578947 L83.9106069,13.2306502 L91.1888809,13.2306502 L91.1888809,6.81578947 Z M137.257859,15.7719298 L137.257859,21.7368421 L134.859537,21.7368421 L134.859537,6.07894737 L137.257859,6.07894737 L137.257859,12.4166667 C137.788127,11.7160898 139.207814,11.1118421 140.117398,11.1118421 C142.971128,11.1118421 144.4028,13.2732256 144.451975,15.9583333 L144.452828,21.7368421 L142.054505,21.7368421 L142.054505,15.9583333 C142.054505,14.5685378 141.308413,13.441886 139.748425,13.441886 C138.372924,13.441886 137.257859,14.1957308 137.257859,15.7719298 Z M123.084642,21.739466 L120.838572,21.7368415 L120.838572,6.07894737 L123.084642,6.07894737 L123.084642,21.739466 Z M100.707755,11.0526316 C104.142528,11.0526316 106.278252,13.670733 105.837897,17.1688685 L97.757521,17.1688685 C97.9001416,18.7675442 98.7913565,19.9189751 100.839862,19.9189751 C102.066296,19.9189751 102.901999,19.6900852 103.755257,18.7039381 C103.755257,18.7039381 105.243488,19.8787746 105.243488,19.8787746 C104.471265,21.0739089 102.827643,21.9210526 100.839862,21.9210526 C97.5812309,21.9210526 95.3794534,19.5669614 95.3794534,16.4868421 C95.3794534,13.4287236 97.5592132,11.0526316 100.707755,11.0526316 Z M100.729773,13.0000585 C99.0123863,13.0000585 97.9791058,14.1842105 97.8146044,15.5848072 L103.570066,15.5848072 C103.437959,13.8907415 102.33707,13.0000585 100.729773,13.0000585 Z M115.978779,11.3166418 L118.218864,11.3166418 L118.218864,21.6570424 L115.978779,21.6570424 L115.978779,20.8430109 C115.108843,21.5250373 113.999675,21.9210526 112.694772,21.9210526 C109.823984,21.9210526 107.518654,19.5009589 107.518654,16.4868421 C107.518654,13.4727253 109.823984,11.0526316 112.694772,11.0526316 C113.999675,11.0526316 115.108843,11.4486469 115.978779,12.1306733 L115.978779,11.3166418 Z M112.934379,19.78697 C114.736075,19.78697 116.012151,18.3094524 116.012151,16.4868421 C116.012151,14.6642318 114.736075,13.1867142 112.934379,13.1867142 C111.132683,13.1867142 109.67212,14.6642318 109.67212,16.4868421 C109.67212,18.3094524 111.132683,19.78697 112.934379,19.78697 Z M132.687855,19.4202893 L133.014673,21.5042587 C132.12137,21.8333065 131.380583,21.9210526 130.683371,21.9210526 C128.068828,21.9210526 126.674404,20.3416231 126.674404,17.6873041 L126.674404,13.4403375 L124.5283,13.4403375 L124.5283,11.5318602 L126.674404,11.5318602 L126.674404,8.10526316 L128.940342,8.10526316 L128.940342,11.5318602 L131.914386,11.5318602 L131.914386,13.4403375 L128.940342,13.4403375 L128.940342,17.6873041 C128.940342,19.1789875 129.68113,19.8151466 130.944826,19.8151466 C131.554886,19.8151466 132.164946,19.6396545 132.687855,19.4202893 Z" id="Combined-Shape" fill="#6E7071"></path>
                            </g>
                        </g>
                    </g>
                </g>
            </g>
        </g>
    </g>
</svg>