<svg width="159" height="29" viewBox="0 0 159 29" fill="none" xmlns="http://www.w3.org/2000/svg">
<path fill-rule="evenodd" clip-rule="evenodd" d="M41.3541 9.47282C40.3016 9.47282 39.4864 9.87146 38.9092 10.6683C38.3319 11.4648 38.043 12.5753 38.043 13.9991C38.043 16.962 39.1466 18.4436 41.3541 18.4436C42.2805 18.4436 43.4021 18.2105 44.7194 17.7439V20.107C43.6367 20.5615 42.4275 20.7885 41.0926 20.7885C39.1739 20.7885 37.706 20.2025 36.6896 19.03C35.6732 17.8576 35.165 16.1748 35.165 13.9809C35.165 12.5996 35.4145 11.3891 35.9139 10.3498C36.4132 9.31093 37.1303 8.51406 38.0655 7.95961C39.0008 7.40516 40.0971 7.12793 41.3541 7.12793C42.6352 7.12793 43.9223 7.44037 45.2155 8.06402L44.3132 10.3547C43.8203 10.1183 43.3238 9.91233 42.8248 9.73628C42.3255 9.56064 41.8354 9.47282 41.3541 9.47282V9.47282Z" fill="#177EFB"/>
<path fill-rule="evenodd" clip-rule="evenodd" d="M47.0589 20.6065H49.8107V10.445H47.0589V20.6065ZM46.9419 7.81843C46.9419 6.91552 47.4412 6.46387 48.4395 6.46387C49.4378 6.46387 49.9372 6.91552 49.9372 7.81843C49.9372 8.24864 49.8123 8.58333 49.5628 8.82251C49.3133 9.0621 48.9389 9.18149 48.4395 9.18149C47.4412 9.18149 46.9419 8.727 46.9419 7.81843V7.81843Z" fill="#177EFB"/>
<path fill-rule="evenodd" clip-rule="evenodd" d="M57.999 10.2539C58.3718 10.2539 58.6815 10.281 58.9282 10.3357L58.7209 12.9351C58.4983 12.8748 58.2276 12.844 57.9086 12.844C57.0304 12.844 56.3463 13.0715 55.8566 13.526C55.366 13.9805 55.121 14.6167 55.121 15.4346V20.6064H52.3691V10.4449H54.4533L54.8595 12.1536H54.9944C55.3074 11.5842 55.73 11.1248 56.2623 10.7768C56.7946 10.4283 57.3735 10.2539 57.999 10.2539" fill="#177EFB"/>
<path fill-rule="evenodd" clip-rule="evenodd" d="M64.584 20.7881C61.4445 20.7881 59.8745 19.0519 59.8745 15.5799C59.8745 13.853 60.3015 12.5336 61.1556 11.6218C62.0097 10.71 63.2338 10.2539 64.8274 10.2539C65.9945 10.2539 67.041 10.4846 67.9673 10.9447L67.1555 13.0897C66.7224 12.9141 66.3191 12.77 65.9462 12.6579C65.5734 12.5458 65.2006 12.4899 64.8274 12.4899C63.3961 12.4899 62.6806 13.5138 62.6806 15.5617C62.6806 17.5496 63.3961 18.5432 64.8274 18.5432C65.3569 18.5432 65.847 18.4719 66.2982 18.3295C66.7493 18.187 67.2004 17.9644 67.6516 17.6613V20.0337C67.2065 20.3186 66.7569 20.5153 66.3026 20.6246C65.8486 20.7335 65.2758 20.7881 64.584 20.7881" fill="#177EFB"/>
<path fill-rule="evenodd" clip-rule="evenodd" d="M69.7349 20.6064H72.4867V6.46387H69.7349V20.6064Z" fill="#177EFB"/>
<path fill-rule="evenodd" clip-rule="evenodd" d="M79.313 12.2274C78.7297 12.2274 78.2726 12.4136 77.9415 12.7863C77.6109 13.1591 77.4217 13.6876 77.3735 14.3724H81.2349C81.2225 13.6876 81.0453 13.1591 80.7022 12.7863C80.3595 12.4136 79.8963 12.2274 79.313 12.2274M79.7012 20.7891C78.077 20.7891 76.8079 20.3378 75.894 19.4349C74.9792 18.532 74.5225 17.2535 74.5225 15.5995C74.5225 13.8969 74.9447 12.5803 75.7899 11.6503C76.6348 10.7199 77.8034 10.2549 79.295 10.2549C80.7203 10.2549 81.8303 10.664 82.6241 11.482C83.418 12.3003 83.8153 13.4302 83.8153 14.8722V16.2175H77.3105C77.3402 17.005 77.572 17.6202 78.0051 18.0625C78.4381 18.5049 79.0455 18.7259 79.8273 18.7259C80.4347 18.7259 81.0092 18.6623 81.5507 18.5348C82.0919 18.4078 82.6571 18.205 83.2468 17.9261V20.0711C82.7656 20.3135 82.2509 20.4936 81.7042 20.6118C81.1566 20.73 80.489 20.7891 79.7012 20.7891" fill="#177EFB"/>
<path fill-rule="evenodd" clip-rule="evenodd" d="M96.6528 20.6072L93.4771 10.1823H93.396C93.5101 12.3029 93.5671 13.7178 93.5671 14.4268V20.6072H91.0684V7.31934H94.8756L97.997 17.4804H98.0512L101.362 7.31934H105.169V20.6072H102.562V14.3176C102.562 14.0209 102.567 13.6785 102.576 13.2904C102.585 12.9027 102.625 11.8727 102.698 10.2005H102.616L99.215 20.6072H96.6528Z" fill="#177EFB"/>
<path fill-rule="evenodd" clip-rule="evenodd" d="M112.221 12.2274C111.638 12.2274 111.181 12.4136 110.85 12.7863C110.519 13.1591 110.33 13.6876 110.282 14.3724H114.143C114.131 13.6876 113.953 13.1591 113.61 12.7863C113.268 12.4136 112.805 12.2274 112.221 12.2274M112.609 20.7891C110.985 20.7891 109.716 20.3378 108.802 19.4349C107.887 18.532 107.431 17.2535 107.431 15.5995C107.431 13.8969 107.853 12.5803 108.698 11.6503C109.543 10.7199 110.712 10.2549 112.203 10.2549C113.629 10.2549 114.739 10.664 115.532 11.482C116.326 12.3003 116.723 13.4302 116.723 14.8722V16.2175H110.219C110.248 17.005 110.48 17.6202 110.913 18.0625C111.346 18.5049 111.954 18.7259 112.736 18.7259C113.343 18.7259 113.917 18.6623 114.459 18.5348C115 18.4078 115.565 18.205 116.155 17.9261V20.0711C115.674 20.3135 115.159 20.4936 114.612 20.6118C114.065 20.73 113.397 20.7891 112.609 20.7891" fill="#177EFB"/>
<path fill-rule="evenodd" clip-rule="evenodd" d="M123.056 18.5798C123.76 18.5798 124.275 18.3738 124.603 17.9618C124.931 17.5498 125.11 16.85 125.14 15.8621V15.5622C125.14 14.4716 124.973 13.6901 124.639 13.2174C124.305 12.7447 123.762 12.5083 123.011 12.5083C122.397 12.5083 121.92 12.7706 121.581 13.2947C121.241 13.8188 121.071 14.5808 121.071 15.5805C121.071 16.5805 121.242 17.33 121.585 17.8298C121.928 18.3301 122.418 18.5798 123.056 18.5798M122.09 20.7886C120.905 20.7886 119.975 20.3248 119.298 19.3976C118.621 18.4704 118.283 17.1862 118.283 15.5439C118.283 13.8777 118.627 12.5794 119.316 11.6494C120.005 10.7194 120.954 10.2544 122.163 10.2544C123.432 10.2544 124.4 10.751 125.068 11.7449H125.158C125.019 10.9873 124.95 10.3118 124.95 9.71814V6.46387H127.711V20.6064H125.6L125.068 19.2887H124.95C124.325 20.2883 123.372 20.7886 122.09 20.7886" fill="#177EFB"/>
<path fill-rule="evenodd" clip-rule="evenodd" d="M130.256 20.6065H133.008V10.445H130.256V20.6065ZM130.139 7.81843C130.139 6.91552 130.638 6.46387 131.636 6.46387C132.635 6.46387 133.134 6.91552 133.134 7.81843C133.134 8.24864 133.009 8.58333 132.76 8.82251C132.51 9.0621 132.136 9.18149 131.636 9.18149C130.638 9.18149 130.139 8.727 130.139 7.81843V7.81843Z" fill="#177EFB"/>
<path fill-rule="evenodd" clip-rule="evenodd" d="M139.723 20.7881C136.584 20.7881 135.014 19.0519 135.014 15.5799C135.014 13.853 135.441 12.5336 136.295 11.6218C137.149 10.71 138.373 10.2539 139.967 10.2539C141.134 10.2539 142.18 10.4846 143.107 10.9447L142.295 13.0897C141.862 12.9141 141.458 12.77 141.085 12.6579C140.713 12.5458 140.34 12.4899 139.967 12.4899C138.535 12.4899 137.82 13.5138 137.82 15.5617C137.82 17.5496 138.535 18.5432 139.967 18.5432C140.496 18.5432 140.986 18.4719 141.437 18.3295C141.888 18.187 142.34 17.9644 142.791 17.6613V20.0337C142.346 20.3186 141.896 20.5153 141.442 20.6246C140.988 20.7335 140.415 20.7881 139.723 20.7881" fill="#177EFB"/>
<path fill-rule="evenodd" clip-rule="evenodd" d="M150.507 15.8985L149.442 15.9349C148.643 15.9592 148.047 16.1045 147.656 16.3712C147.265 16.6379 147.07 17.0438 147.07 17.589C147.07 18.3705 147.514 18.7614 148.405 18.7614C149.042 18.7614 149.552 18.5769 149.934 18.2074C150.316 17.8379 150.507 17.3469 150.507 16.7346V15.8985ZM151.319 20.6066L150.787 19.2253H150.715C150.251 19.813 149.775 20.2205 149.284 20.4476C148.794 20.675 148.155 20.7887 147.367 20.7887C146.399 20.7887 145.636 20.5099 145.08 19.9522C144.524 19.3949 144.246 18.6013 144.246 17.5709C144.246 16.4927 144.62 15.6971 145.369 15.1851C146.118 14.6732 147.247 14.3899 148.757 14.3352L150.507 14.2806V13.8354C150.507 12.8054 149.984 12.2902 148.937 12.2902C148.131 12.2902 147.184 12.5355 146.095 13.0264L145.184 11.1542C146.345 10.5423 147.632 10.2363 149.045 10.2363C150.398 10.2363 151.436 10.5334 152.158 11.1267C152.88 11.7208 153.241 12.6237 153.241 13.8354V20.6066H151.319Z" fill="#177EFB"/>
<path fill-rule="evenodd" clip-rule="evenodd" d="M155.742 20.6064H158.494V6.46387H155.742V20.6064Z" fill="#177EFB"/>
<path fill-rule="evenodd" clip-rule="evenodd" d="M13.901 1.62953C12.0558 1.62953 10.6751 3.49443 9.33934 5.29862C8.75242 6.09105 8.14581 6.91058 7.50264 7.55852C6.85947 8.20646 6.04597 8.81717 5.25938 9.40845C3.46887 10.7537 1.6173 12.1455 1.6173 14.0043C1.6173 15.8632 3.46887 17.255 5.25938 18.6002C6.04597 19.1915 6.85947 19.8026 7.50264 20.4501C8.14581 21.0981 8.75282 21.9176 9.33975 22.7108C10.6755 24.5142 12.0562 26.3791 13.901 26.3791C15.7461 26.3791 17.1269 24.5142 18.4626 22.7108C19.0495 21.9176 19.6562 21.0981 20.2997 20.4501C20.9429 19.8026 21.7564 19.1915 22.543 18.6002C24.3339 17.2541 26.1851 15.8632 26.1851 14.0043C26.1851 12.1455 24.3339 10.7545 22.543 9.40845C21.7564 8.81717 20.9429 8.20646 20.2997 7.55852C19.6566 6.91058 19.0499 6.09105 18.4634 5.29862C17.1273 3.49443 15.7461 1.62953 13.901 1.62953M13.901 28.0083C11.2452 28.0083 9.54429 25.7112 8.04343 23.6852C7.46534 22.9041 6.91939 22.1672 6.35897 21.603C5.79856 21.038 5.06701 20.4884 4.29208 19.906C2.28062 18.394 0 16.6805 0 14.0042C0 11.3278 2.28062 9.61428 4.29208 8.10228C5.06701 7.51991 5.79856 6.97072 6.35897 6.40534C6.91939 5.84117 7.46494 5.1042 8.04262 4.32392C9.54388 2.29713 11.2448 0 13.901 0C16.5577 0 18.2586 2.29713 19.7595 4.32392C20.3375 5.1042 20.8831 5.84117 21.4435 6.40534C22.0039 6.97072 22.7355 7.51991 23.5104 8.10228C25.5223 9.61428 27.8025 11.3278 27.8025 14.0042C27.8025 16.6805 25.5223 18.394 23.5104 19.906C22.7355 20.4884 22.0039 21.038 21.4435 21.603C20.8827 22.1672 20.3371 22.9041 19.7591 23.6852C18.2582 25.7112 16.5573 28.0083 13.901 28.0083" fill="#177EFB"/>
<path fill-rule="evenodd" clip-rule="evenodd" d="M8.09149 4.30531C6.95259 4.30531 5.93461 4.52871 5.21471 5.25354C3.91029 6.56764 4.24332 8.87043 4.56471 11.098C4.70612 12.0757 4.85235 13.0871 4.85235 14.0038C4.85235 14.9204 4.70612 15.9318 4.56471 16.91C4.24332 19.1371 3.91029 21.4399 5.21471 22.754C6.51912 24.0689 8.80617 23.733 11.0157 23.4088C11.9871 23.2668 12.9914 23.1198 13.9009 23.1198C14.8104 23.1198 15.8151 23.2668 16.7865 23.4088C18.9956 23.7342 21.2831 24.0689 22.5871 22.754C23.8915 21.4399 23.5589 19.1371 23.2375 16.91C23.0961 15.9318 22.9499 14.9196 22.9499 14.0038C22.9499 13.0879 23.0961 12.0757 23.2375 11.098C23.5589 8.87043 23.8915 6.56764 22.5871 5.25354C21.2835 3.93986 18.9976 4.27496 16.7865 4.59791C15.8151 4.74078 14.8108 4.88809 13.9009 4.88809C12.9914 4.88809 11.9871 4.74078 11.0157 4.59791C10.0246 4.45303 9.01788 4.30531 8.09149 4.30531M8.07952 25.3318C6.59192 25.3318 5.171 25.0141 4.07147 23.9069C2.19298 22.014 2.60275 19.1778 2.9643 16.6759C3.1037 15.7119 3.23467 14.8021 3.23467 14.0036C3.23467 13.2051 3.1037 12.2957 2.9643 11.3317C2.60275 8.82941 2.19298 5.99321 4.07147 4.10079C5.94955 2.20958 8.76407 2.62198 11.2492 2.98541C12.2053 3.12625 13.1084 3.25859 13.901 3.25859C14.6936 3.25859 15.5971 3.12625 16.5532 2.98541C19.0367 2.62198 21.8532 2.20958 23.7309 4.10079C25.609 5.99321 25.1992 8.82941 24.8381 11.3325C24.6987 12.2957 24.5677 13.2051 24.5677 14.0036C24.5677 14.8021 24.6987 15.7119 24.8381 16.6751C25.1992 19.1778 25.609 22.014 23.7309 23.9069C21.8528 25.7985 19.0379 25.3861 16.5532 25.0214C15.5971 24.8814 14.6936 24.7491 13.901 24.7491C13.1084 24.7491 12.2053 24.8814 11.2492 25.0214C10.2195 25.1728 9.13286 25.3318 8.07952 25.3318" fill="#177EFB"/>
</svg>
