<svg width="180" height="40" viewBox="0 0 180 40" fill="none" xmlns="http://www.w3.org/2000/svg">
<g clip-path="url(#clip0_255_2146)">
<mask id="mask0_255_2146" style="mask-type:luminance" maskUnits="userSpaceOnUse" x="0" y="0" width="180" height="40">
<path d="M0 0H180V40H0V0Z" fill="white"/>
</mask>
<g mask="url(#mask0_255_2146)">
<path d="M179.999 6.63305V33.3671H176.631V6.63305H179.999ZM174.188 24.5541H158.865C158.976 28.8311 162.085 30.8961 165.009 30.8961C167.97 30.8961 169.599 29.5681 170.45 27.6141H173.929C173.041 31.0071 169.858 33.8461 165.009 33.8461C158.717 33.8461 155.238 29.3471 155.238 23.4841C155.238 17.1791 159.458 13.1961 164.898 13.1961C171.005 13.1961 174.595 18.2481 174.188 24.5541ZM164.898 16.0731C161.937 16.0731 159.198 17.6951 158.902 21.6771H170.635C170.524 18.8751 168.488 16.0731 164.898 16.0731ZM153.558 19.3181H150.042C149.487 16.9581 147.71 16.0361 145.342 16.0361C143.38 16.0361 141.159 16.7361 141.159 18.5431C141.159 20.1291 142.27 20.8291 144.194 21.2351L147.007 21.7881C150.634 22.4521 153.817 23.8901 153.817 27.6881C153.817 31.6331 150.264 33.8461 145.712 33.8461C140.493 33.8461 137.569 30.4161 137.162 26.9511H140.715C141.27 29.4951 142.825 31.0071 145.786 31.0071C148.339 31.0071 150.412 29.9371 150.412 28.0571C150.412 26.0291 148.524 25.2541 146.378 24.7751L143.417 24.1851C140.715 23.5951 137.754 22.4151 137.754 18.6911C137.754 15.1881 141.307 13.1601 145.712 13.1601C150.042 13.1601 152.929 15.5201 153.558 19.3181ZM122.093 13.5281V16.5151C123.24 14.6351 125.165 13.1961 128.533 13.1961C133.344 13.1961 135.083 16.2941 135.083 20.8291V33.3671H131.715V21.8251C131.715 18.7651 131.197 16.1101 127.348 16.1101C124.091 16.1101 122.093 18.3221 122.093 22.6001V33.3671H118.725V13.5281H122.093ZM111.496 33.3671V30.5271C110.348 32.4071 108.535 33.8461 105.241 33.8461C100.652 33.8461 98.8751 30.7491 98.8751 26.2131V13.5301H102.243V25.2191C102.243 28.2791 102.724 30.9341 106.425 30.9341C109.645 30.9341 111.496 28.7221 111.496 24.4441V13.5301H114.864V33.3681L111.496 33.3671ZM81.1171 23.5211C81.1171 28.8311 84.0041 30.8961 87.0771 30.8961C90.1481 30.8961 93.0351 28.6101 93.0351 23.5211C93.0351 18.2111 90.1481 16.1461 87.0761 16.1461C84.0041 16.1461 81.1171 18.1011 81.1171 23.5211ZM87.0771 13.1961C91.7031 13.1961 96.6251 16.3311 96.6251 23.5211C96.6251 30.7111 91.7031 33.8461 87.0761 33.8461C82.4501 33.8461 77.5271 30.7121 77.5271 23.5211C77.5271 16.3311 82.4501 13.1961 87.0771 13.1961ZM72.4431 24.8491H76.1071C74.9221 30.7491 70.2961 33.8461 64.4851 33.8461C56.7871 33.8461 52.3091 28.0561 52.3091 19.9451C52.3091 11.6851 57.2311 6.15405 64.7811 6.15405C70.3331 6.15405 74.7741 9.43605 75.9591 15.1511H72.2941C71.5171 11.7961 68.8531 9.32505 64.5961 9.32505C59.8591 9.32505 56.1581 13.0121 56.1581 19.9451C56.1581 26.7291 59.7111 30.6751 64.7081 30.6751C69.0011 30.6751 71.5911 28.2781 72.4431 24.8491Z" fill="#274651"/>
<path fill-rule="evenodd" clip-rule="evenodd" d="M8.88404 4.348C8.88404 3.19484 9.34213 2.08891 10.1575 1.2735C10.9729 0.458093 12.0789 1.7407e-06 13.232 1.7407e-06H13.425C14.763 1.7407e-06 15.96 0.605002 16.758 1.555C17.58 2.535 18.721 3.458 20 3.458C21.275 3.458 22.412 2.539 23.23 1.561C23.6377 1.07192 24.1479 0.678532 24.7246 0.408758C25.3014 0.138984 25.9304 -0.000568522 26.567 1.7407e-06H26.76C27.3943 -9.2949e-05 28.0209 0.138585 28.5959 0.40631C29.171 0.674034 29.6804 1.06432 30.0886 1.54979C30.4968 2.03527 30.7939 2.60417 30.9589 3.2166C31.124 3.82903 31.153 4.47015 31.044 5.095C30.847 6.233 30.959 7.551 31.77 8.375C32.547 9.163 33.786 9.313 34.884 9.168C35.072 9.143 35.264 9.13 35.459 9.13H35.652C36.5735 9.12979 37.4711 9.4223 38.2155 9.96533C38.9599 10.5084 39.5126 11.2738 39.7937 12.1513C40.0749 13.0288 40.07 13.9729 39.7798 14.8475C39.4896 15.722 38.929 16.4817 38.179 17.017C37.266 17.67 36.455 18.659 36.455 19.782C36.455 21.129 37.446 22.338 38.472 23.212C39.1493 23.7889 39.6333 24.5596 39.8587 25.4201C40.0842 26.2807 40.0402 27.1897 39.7328 28.0245C39.4254 28.8593 38.8693 29.5797 38.1396 30.0885C37.4099 30.5974 36.5416 30.8701 35.652 30.87H35.459C35.1453 30.8703 34.8325 30.8368 34.526 30.77C33.506 30.546 32.327 30.645 31.584 31.376C30.778 32.169 30.698 33.486 30.976 34.582C31.139 35.2239 31.1532 35.8945 31.0175 36.5427C30.8819 37.1909 30.5999 37.7996 30.1932 38.3222C29.7865 38.8449 29.2658 39.2677 28.6708 39.5585C28.0758 39.8492 27.4223 40.0003 26.76 40H26.566C25.8477 40.0004 25.1405 39.8227 24.5077 39.4827C23.8749 39.1428 23.3363 38.6512 22.94 38.052C22.27 37.042 21.21 36.106 19.999 36.106C18.784 36.106 17.719 37.046 17.046 38.058C16.6496 38.6554 16.1115 39.1453 15.4797 39.4842C14.8479 39.823 14.142 40.0002 13.425 40H13.232C12.5692 40.0002 11.9151 39.8489 11.3197 39.5576C10.7243 39.2663 10.2034 38.8427 9.79677 38.3193C9.39016 37.7958 9.1086 37.1863 8.97364 36.5373C8.83867 35.8884 8.85386 35.2172 9.01804 34.575C9.29704 33.482 9.21804 32.165 8.41404 31.374C7.67204 30.644 6.49404 30.545 5.47804 30.769C5.17023 30.836 4.85607 30.8696 4.54104 30.869H4.34804C3.45867 30.8689 2.59072 30.596 1.86126 30.0873C1.13179 29.5785 0.575889 28.8582 0.268525 28.0237C-0.0388399 27.1891 -0.0828835 26.2803 0.142334 25.42C0.367551 24.5596 0.851195 23.7889 1.52804 23.212C2.55404 22.338 3.54504 21.129 3.54504 19.782C3.54504 18.659 2.73504 17.67 1.82104 17.017C1.07106 16.4817 0.510529 15.722 0.220317 14.8475C-0.0698953 13.9729 -0.0747809 13.0288 0.206365 12.1513C0.487511 11.2738 1.04015 10.5084 1.78455 9.96533C2.52895 9.4223 3.42662 9.12979 4.34804 9.13H4.54104C4.73704 9.13 4.93104 9.143 5.12104 9.169C6.21504 9.314 7.45204 9.164 8.22804 8.377C9.03804 7.555 9.14804 6.239 8.94804 5.102C8.90497 4.85299 8.88356 4.60071 8.88404 4.348ZM12.07 8.538C11.004 8.244 9.76404 8.128 8.98004 8.909C8.15704 9.729 8.32704 11.042 8.68204 12.149C9.00033 13.1406 8.95211 14.2135 8.54616 15.1726C8.14022 16.1317 7.40351 16.9132 6.47004 17.375C5.46404 17.875 4.45404 18.659 4.45404 19.782C4.45404 21.172 5.74104 22.116 6.90704 22.874C7.65652 23.3591 8.23833 24.0634 8.57329 24.8909C8.90825 25.7185 8.98009 26.6292 8.77904 27.499C8.50404 28.696 8.36904 30.083 9.26104 30.928C10.066 31.69 11.294 31.603 12.381 31.388C12.661 31.3323 12.9456 31.3042 13.231 31.304H13.425C14.0832 31.3035 14.7328 31.4527 15.3248 31.7403C15.9168 32.0279 16.4356 32.4463 16.842 32.964C17.678 34.024 18.649 35.197 20 35.197C21.346 35.197 22.314 34.03 23.144 32.971C23.5504 32.4512 24.0698 32.031 24.663 31.7421C25.2561 31.4532 25.9073 31.3034 26.567 31.304H26.76C27.052 31.304 27.337 31.334 27.612 31.388C28.702 31.604 29.932 31.693 30.738 30.928C31.63 30.083 31.495 28.695 31.221 27.498C31.0202 26.6283 31.0922 25.7179 31.4271 24.8905C31.7621 24.0631 32.3438 23.3591 33.093 22.874C34.259 22.116 35.546 21.173 35.546 19.782C35.546 18.659 34.536 17.875 33.53 17.376C32.5966 16.9144 31.8598 16.1331 31.4537 15.1743C31.0476 14.2154 30.9991 13.1426 31.317 12.151C31.672 11.043 31.843 9.729 31.018 8.908C30.234 8.126 28.991 8.243 27.924 8.538C27.554 8.641 27.164 8.696 26.76 8.696H26.567C25.8255 8.69643 25.0962 8.50708 24.4486 8.14597C23.8009 7.78486 23.2565 7.26402 22.867 6.633C22.187 5.535 21.292 4.367 20 4.367C18.703 4.367 17.804 5.54 17.12 6.641C16.7301 7.26981 16.186 7.78861 15.5394 8.14825C14.8927 8.50788 14.165 8.69642 13.425 8.696H13.232C12.829 8.696 12.44 8.64 12.07 8.538Z" fill="#274651"/>
</g>
</g>
<defs>
<clipPath id="clip0_255_2146">
<rect width="180" height="40" fill="white"/>
</clipPath>
</defs>
</svg>
