<?xml version="1.0" encoding="UTF-8"?>
<svg width="100%" height="100%" viewBox="0 0 179 38" fill="none" xmlns="http://www.w3.org/2000/svg">
<g clip-path="url(#clip0_2017_768)">
<path d="M107.05 9.82191C106.464 9.98978 105.92 10.2049 105.417 10.4619C104.867 10.74 104.224 10.74 103.679 10.4514C103.166 10.1786 102.622 9.95831 102.041 9.79043C101.13 9.52288 100.178 9.38648 99.1939 9.38648C96.938 9.38123 95.0224 9.99503 93.447 11.2331C91.7093 12.6076 90.8405 14.4595 90.8353 16.7993L90.8039 26.3787C90.8039 27.4017 91.6308 28.2358 92.6567 28.2411L94.7921 28.2516C95.8127 28.2516 96.6449 27.4384 96.6606 26.4207L96.7706 17.8432C96.7706 17.156 97.0113 16.6261 97.4876 16.2537C97.9639 15.8812 98.5344 15.6976 99.1939 15.7028C99.7225 15.7028 100.199 15.8182 100.628 16.0491H100.638C101.23 16.3796 101.586 17.0091 101.586 17.6806L101.56 26.4259C101.56 27.4489 102.387 28.2831 103.412 28.2883L105.595 28.2988C106.621 28.2988 107.458 27.4752 107.464 26.4469L107.49 17.8747C107.49 17.1875 107.73 16.6576 108.201 16.2851C108.678 15.9127 109.243 15.7291 109.908 15.7343C110.583 15.7343 111.169 15.9284 111.672 16.3166C112.169 16.7048 112.42 17.2295 112.42 17.8905L112.394 26.4574C112.394 27.4804 113.216 28.3093 114.241 28.3198L116.346 28.3355C117.377 28.3408 118.214 27.5119 118.219 26.4836L118.251 16.8885C118.256 14.5487 117.387 12.6915 115.649 11.3066C114.079 10.058 112.169 9.43369 109.908 9.4232C108.96 9.4232 108.008 9.55435 107.061 9.82715L107.05 9.82191ZM0.439685 12.0882C0.612406 12.6758 0.821764 13.2162 1.07823 13.7145C1.36086 14.2601 1.35563 14.9054 1.06776 15.4458C0.795594 15.9599 0.570534 16.5055 0.403048 17.0826C0.136116 17.9954 3.32654e-05 18.9397 3.32654e-05 19.926C-0.00520069 22.1818 0.607172 24.0914 1.85285 25.66C3.22938 27.3912 5.08743 28.2621 7.42701 28.2673L17.0261 28.2988C18.0519 28.2988 18.8841 27.4752 18.8894 26.4522L18.8998 24.3222C18.8998 23.3045 18.0833 22.4703 17.0679 22.4599L8.4738 22.3497C7.78292 22.3497 7.25429 22.1084 6.88268 21.6362C6.51107 21.1641 6.32788 20.5922 6.33311 19.9312C6.33311 19.4014 6.44826 18.9292 6.68379 18.5043V18.4938C7.01353 17.9062 7.6416 17.5495 8.31678 17.5495L17.0784 17.5757C18.1043 17.5757 18.9365 16.7521 18.9417 15.7291L18.9522 13.5519C18.9522 12.5289 18.1252 11.6948 17.0994 11.6895L8.51044 11.6633C7.81956 11.6633 7.29093 11.422 6.91932 10.9498C6.54771 10.4777 6.36452 9.90584 6.36975 9.24483C6.36975 8.56808 6.56864 7.98576 6.95072 7.48213C7.33803 6.98375 7.86143 6.73718 8.52614 6.73718L17.1098 6.76341C18.1304 6.76341 18.9679 5.94501 18.9731 4.92202L18.9888 2.82356C18.994 1.79532 18.1671 0.955936 17.136 0.955936L7.51075 0.919213C5.17118 0.913967 3.30789 1.77958 1.92089 3.51605C0.669979 5.0794 0.0419049 6.98899 0.0366709 9.25008C0.0366709 10.1944 0.16752 11.1439 0.444919 12.0882H0.439685ZM89.0348 9.50714H85.8892L80.3098 25.3137L74.924 9.50714H71.7418L79.0118 28.9598L77.9911 31.9029C77.2846 33.7443 77.1642 34.3738 75.4003 34.3738H75.1229V37.0808H75.4003C78.703 37.0808 79.0536 36.2152 80.6291 31.9029L89.04 9.50714H89.0348ZM70.3705 9.19762H70.292C67.0679 9.19762 64.99 10.2941 63.8071 13.1165V9.50714H61.0541V29.1172H63.8071V21.7831C63.8071 14.6064 65.8117 11.8994 70.3705 11.8994V9.19237V9.19762ZM42.9812 18.137H56.265C55.794 14.0975 52.8054 11.784 49.5865 11.742C46.3624 11.7 43.4575 14.0555 42.9865 18.137H42.9812ZM58.8977 20.608H42.9812C43.4157 24.6108 45.8913 26.9243 49.4661 26.8823C52.8054 26.8404 55.0874 24.9203 56.0661 22.1766L58.4999 23.1576C56.9664 27.1604 53.4282 29.3165 49.4609 29.3533C44.3159 29.3952 40.1863 26.0954 40.1863 19.3122C40.1863 12.5289 44.8236 9.23434 49.576 9.27106C54.3284 9.30779 59.0076 12.5289 59.0076 19.3122C59.0076 19.863 58.9657 20.0991 58.8924 20.608H58.8977ZM38.5428 9.50714H35.4391L30.0167 25.5865L24.5525 9.50714H21.4488L28.7972 29.1172H31.1944L38.5428 9.50714ZM171.025 29.3585C173.579 29.3585 179.001 28.5349 179.001 22.8481C179.001 14.5329 166.073 20.4558 166.073 15.1992C166.073 12.4922 167.958 11.5531 171.025 11.5531C174.092 11.5531 175.777 12.6915 176.253 14.727L178.808 14.0241C177.824 9.86912 172.993 9.23958 171.03 9.23958C168.947 9.23958 163.482 9.90584 163.482 15.1992C163.482 23.2415 176.29 17.476 176.29 22.8481C176.29 25.2036 174.207 26.8876 171.025 26.8876C167.842 26.8876 166.152 25.277 165.796 23.1209L163.127 23.9865C164.147 28.5768 168.669 29.3585 171.025 29.3585ZM158.374 19.3122C158.374 14.0555 155.94 11.5059 152.402 11.5479C148.513 11.5899 146.195 14.3336 146.195 19.3122C146.195 24.2908 148.513 27.0764 152.402 27.0764C155.94 27.0764 158.374 24.5636 158.374 19.3122ZM161.085 29.1224H158.374V25.7859C156.998 28.2568 154.6 29.3533 151.539 29.3533C146.943 29.3533 143.525 25.3137 143.525 19.3122C143.525 13.3106 146.943 9.30779 151.539 9.27106C154.606 9.22909 157.003 10.3308 158.374 12.8017V1.66416H161.085V29.1224ZM125.761 18.137H139.045C138.574 14.0975 135.586 11.784 132.367 11.742C129.148 11.7 126.238 14.0555 125.767 18.137H125.761ZM141.673 20.608H125.756C126.191 24.6108 128.666 26.9243 132.241 26.8823C135.58 26.8404 137.862 24.9203 138.841 22.1766L141.275 23.1576C139.741 27.1604 136.203 29.3165 132.236 29.3533C127.091 29.3952 122.961 26.0954 122.961 19.3122C122.961 12.5289 127.599 9.23434 132.351 9.27106C137.103 9.30779 141.783 12.5289 141.783 19.3122C141.783 19.863 141.741 20.0991 141.667 20.608H141.673Z" fill="#03254C"></path>
</g>
<defs>
<clipPath id="clip0_2017_768">
<rect width="179" height="36.1616" fill="white" transform="translate(0 0.919189)"></rect>
</clipPath>
</defs>
</svg>