<?xml version="1.0" encoding="UTF-8"?> <svg xmlns="http://www.w3.org/2000/svg" width="152" height="24" viewBox="0 0 152 24" fill="none"><path d="M151.897 4.68958H147.247L144.301 13.2059L141.382 4.68958H136.628L141.485 17.2982H142.596L142.354 17.9405L142.322 18.0151C142.054 18.6452 141.866 18.8589 141.613 19.1128C141.344 19.3554 140.871 19.5024 140.261 19.5024H137.348V23.4889H140.951C142.346 23.4889 143.424 23.2874 144.282 22.6518C145.136 22.0183 145.771 20.9418 146.26 19.587L151.897 4.69069V4.68958Z" fill="#353535"></path><path d="M68.6084 4.70679H64.6305V0H64.6294H60.3675V4.70679H54.7053L52.5605 12.9916L50.2881 4.80921H46.6974L44.3995 12.9916L42.2558 4.70791H42.2547H37.7598L41.8674 18.0067H46.5698H46.571L48.4561 11.2059L50.419 18.0067H55.1469L57.9974 8.47512H60.3675V13.6662C60.3675 16.6842 61.6857 17.9889 64.7337 17.9889H68.6095V14.1783H64.6316V8.47512H68.6095V4.70679H68.6084Z" fill="#353535"></path><path d="M77.969 4.17689C76.3158 4.17689 75.0497 4.817 74.2242 6.0438V0H69.9102V17.9878H74.2242V10.8274C74.2242 9.11413 75.0253 8.09105 76.4456 8.09105C77.8659 8.09105 78.434 8.85808 78.434 10.6482V17.9878H82.748V9.90564C82.748 6.14622 81.0171 4.17689 77.969 4.17689Z" fill="#353535"></path><path d="M130.382 4.17798C130.076 4.17798 129.775 4.19468 129.48 4.22807C129.448 4.23141 129.415 4.23698 129.382 4.24143C129.318 4.24923 129.253 4.25702 129.19 4.26704C128.032 4.44182 126.975 4.86819 126.064 5.4827L122.837 4.69007H122.834V23.4883H122.837H127.1V17.6315C127.835 17.9766 128.645 18.2204 129.504 18.3217C129.79 18.3551 130.083 18.3729 130.381 18.3729C134.616 18.3729 137.614 15.3806 137.614 11.2627C137.614 7.14477 134.617 4.17798 130.381 4.17798H130.382ZM126.997 11.2627C126.997 9.52934 128.233 8.25134 129.952 8.17118C130.008 8.16896 130.063 8.16784 130.12 8.16784C131.929 8.16784 133.247 9.47257 133.247 11.2627C133.247 13.0528 131.929 14.3831 130.12 14.3831C130.065 14.3831 130.009 14.382 129.955 14.3797C128.234 14.2996 126.997 12.9971 126.997 11.2627Z" fill="#353535"></path><path d="M90.8907 4.17798C89.4604 4.17798 88.1744 4.53199 87.1025 5.16543C85.0554 6.37218 83.7871 8.59644 83.7871 11.315C83.7871 14.2929 85.2018 16.6363 87.6862 17.7195C88.6582 18.1436 89.7944 18.3741 91.0737 18.3741C93.76 18.3741 96.1112 17.1974 97.4549 15.3048L94.0186 12.9514C93.476 14.2038 92.6749 14.9197 91.1514 14.9197C90.8662 14.9197 90.5944 14.8952 90.3414 14.8451C89.2418 14.6247 88.4684 13.9044 88.2587 12.4906H97.6092C97.6613 12.0052 97.6868 11.5443 97.6868 11.109C97.6868 6.93994 94.9994 4.17798 90.8929 4.17798H90.8907ZM88.2809 9.85775C88.5139 8.76454 89.1242 8.01644 89.9697 7.7103C90.2515 7.60899 90.56 7.55556 90.8895 7.55556C92.2854 7.55556 93.1109 8.47621 93.2141 9.85775H88.2809Z" fill="#353535"></path><path d="M14.3646 4.67968L11.0592 5.47231C10.1349 4.8077 9.02423 4.36241 7.80923 4.2188C7.5274 4.1854 7.24113 4.1687 6.94931 4.1687C2.97035 4.1687 0 7.00747 0 10.8949C0 14.7824 2.94483 17.5966 6.81949 17.5966C6.9715 17.5966 7.12573 17.5922 7.27996 17.5833C8.35848 17.5243 9.47472 17.2593 10.3125 16.8341C10.3624 17.0578 10.3879 17.295 10.3879 17.541C10.3879 19.1351 9.29053 20.2239 7.73933 20.3553C7.63614 20.3642 7.53073 20.3686 7.4231 20.3686C6.36234 20.3686 5.50685 19.8955 4.96871 19.134C4.96649 19.1307 4.96316 19.1262 4.96094 19.1229C4.94319 19.0984 4.92654 19.0717 4.9099 19.0461C4.6902 18.6887 4.58701 18.2523 4.58701 18.2523H4.58368L0.481558 19.2943C0.55701 19.6183 0.673516 19.9445 0.74342 20.1282C0.805556 20.2974 0.87435 20.4566 0.984199 20.6492C2.08934 22.8411 4.59145 24 7.42199 24C8.05001 24 8.65141 23.9399 9.21951 23.8219C12.2853 23.1896 14.3691 20.8996 14.3691 17.541V4.68079H14.3669L14.3646 4.67968ZM7.26332 13.8406C5.559 13.8406 4.31738 12.6127 4.31738 10.9261C4.31738 9.23953 5.55678 8.01162 7.26332 8.01162C7.36873 8.01162 7.47303 8.01607 7.57511 8.02498C9.11632 8.16302 10.2048 9.31968 10.2048 10.9261C10.2048 12.5325 9.04198 13.7649 7.41977 13.8372C7.36762 13.8394 7.31547 13.8406 7.26332 13.8406Z" fill="#353535"></path><path d="M121.429 4.69007L117.842 5.58401C116.705 4.69007 115.285 4.17798 113.657 4.17798C113.014 4.17798 112.401 4.25034 111.822 4.38838C108.692 5.13314 106.578 7.79157 106.578 11.2872C106.578 15.0421 108.954 17.8096 112.304 18.295C112.65 18.3451 113.008 18.3707 113.374 18.3707C114.472 18.3707 116.219 18.1837 117.528 17.105L117.539 17.0949C118.192 17.7918 119.095 18.2638 120.125 18.3663C120.574 18.4108 121.012 18.3807 121.43 18.2872V4.69007H121.427H121.429ZM110.97 11.2872C110.97 9.66516 112.073 8.44281 113.627 8.22684C113.787 8.20458 113.952 8.19345 114.122 8.19345C115.93 8.19345 117.247 9.49817 117.247 11.2872C117.247 13.0761 115.93 14.382 114.122 14.382C114.01 14.382 113.899 14.3764 113.79 14.3675C112.152 14.2172 110.972 12.9659 110.972 11.2872H110.97Z" fill="#353535"></path><path d="M32.9074 4.41739C32.3027 4.276 31.6647 4.20142 31.0022 4.20142C26.7659 4.20142 23.5625 7.21942 23.5625 11.3117C23.5625 15.404 26.7659 18.3964 31.0022 18.3964C31.2674 18.3964 31.5293 18.3841 31.7856 18.3608C35.6314 18.0145 38.4697 15.1234 38.4697 11.3117C38.4697 7.88069 36.1707 5.17773 32.9074 4.41627V4.41739ZM27.9043 11.3128C27.9043 9.54832 29.2225 8.2436 31.0045 8.2436C31.1709 8.2436 31.334 8.25474 31.4927 8.277C33.0261 8.49186 34.129 9.71308 34.129 11.3128C34.129 13.0773 32.812 14.3809 31.0045 14.382C29.2225 14.382 27.9054 13.0773 27.9054 11.3128H27.9043Z" fill="#353535"></path><path d="M21.1704 8.23817C23.1366 8.23817 24.7322 6.65959 24.7322 4.71252H24.7299H15.7778V18.0124H20.0397H20.042L20.0464 8.05893C20.3105 8.14577 20.589 8.20254 20.8764 8.22592C20.9729 8.23371 21.0705 8.23817 21.1693 8.23817H21.1704Z" fill="#353535"></path><path d="M104.943 8.16581C106.566 7.8374 107.788 6.4169 107.788 4.71252H107.786H98.8354V18.0113H103.097L103.102 8.05782C103.455 8.1736 103.832 8.23705 104.225 8.23705C104.471 8.23705 104.711 8.21256 104.943 8.16581Z" fill="#353535"></path></svg> 