<svg width="551" height="74" viewBox="0 0 551 74" fill="none" xmlns="http://www.w3.org/2000/svg">
<path d="M149.52 1.31006V72.0001H137.91V41.4001H107.61V72.0001H96V1.31006H107.61V30.3101H137.91V1.31006H149.52Z" fill="#141533"/>
<path d="M179.42 63.32C185.47 63.32 190.02 60.59 192.42 57.06L201.42 62.31C196.77 69.17 189.2 73.3099 179.31 73.3099C162.64 73.3099 151.84 61.9 151.84 46.75C151.84 31.81 162.64 20.2 178.5 20.2C193.5 20.2 203.84 32.31 203.84 46.86C203.81 48.3806 203.677 49.8975 203.44 51.4H163.26C165 59.28 171.34 63.32 179.42 63.32ZM192.85 42.5099C191.33 33.8299 184.97 30.09 178.41 30.09C170.23 30.09 164.67 34.9399 163.16 42.5099H192.85Z" fill="#141533"/>
<path d="M259.63 21.51V72H248.73V64.73C244.89 70.08 238.93 73.3099 231.06 73.3099C217.32 73.3099 205.91 61.7 205.91 46.75C205.91 31.8 217.32 20.2 231.06 20.2C238.93 20.2 244.89 23.43 248.73 28.68V21.51H259.63ZM248.73 46.75C248.73 37.36 241.86 30.6 232.73 30.6C223.6 30.6 216.73 37.36 216.73 46.75C216.73 56.14 223.59 62.91 232.73 62.91C241.87 62.91 248.73 56.15 248.73 46.75Z" fill="#141533"/>
<path d="M290.49 20.6V32.42C283.32 31.91 274.94 35.24 274.94 46.55V72H264V21.51H274.91V30C278 23.13 284.12 20.6 290.49 20.6Z" fill="#141533"/>
<path d="M314.31 32V56.25C314.31 62.71 318.55 62.61 326.83 62.25V72C310.06 74 303.4 69.37 303.4 56.25V32H294.11V21.51H303.4V10.6L314.31 7.37V21.51H326.83V32H314.31Z" fill="#141533"/>
<path d="M383.65 46.7501C383.65 61.7501 372.24 73.3101 358.51 73.3101C350.63 73.3101 344.67 70.0801 340.84 64.7301V72.0001H329.93V1.31006H340.84V28.6801C344.67 23.4301 350.63 20.2001 358.51 20.2001C372.24 20.2001 383.65 31.7101 383.65 46.7501ZM372.75 46.7501C372.75 37.3601 365.88 30.6001 356.75 30.6001C347.62 30.6001 340.75 37.3601 340.75 46.7501C340.75 56.1401 347.61 62.9101 356.75 62.9101C365.89 62.9101 372.75 56.1501 372.75 46.7501Z" fill="#141533"/>
<path d="M413.28 63.32C419.34 63.32 423.88 60.59 426.28 57.06L435.28 62.31C430.64 69.17 423.06 73.3099 413.17 73.3099C396.5 73.3099 385.7 61.9 385.7 46.75C385.7 31.81 396.5 20.2 412.36 20.2C427.36 20.2 437.7 32.31 437.7 46.86C437.67 48.3806 437.537 49.8975 437.3 51.4H397.12C398.84 59.28 405.2 63.32 413.28 63.32ZM426.71 42.5099C425.19 33.8299 418.83 30.09 412.27 30.09C404.09 30.09 398.53 34.9399 397.02 42.5099H426.71Z" fill="#141533"/>
<path d="M493.49 21.51V72H482.59V64.73C478.75 70.08 472.79 73.3099 464.91 73.3099C451.18 73.3099 439.77 61.7 439.77 46.75C439.77 31.8 451.18 20.2 464.91 20.2C472.79 20.2 478.75 23.43 482.59 28.68V21.51H493.49ZM482.59 46.75C482.59 37.36 475.72 30.6 466.59 30.6C457.46 30.6 450.59 37.36 450.59 46.75C450.59 56.14 457.46 62.91 466.59 62.91C475.72 62.91 482.59 56.15 482.59 46.75Z" fill="#141533"/>
<path d="M516.79 32V56.25C516.79 62.71 521.03 62.61 529.31 62.25V72C512.55 74 505.88 69.37 505.88 56.25V32H496.59V21.51H505.88V10.6L516.79 7.37V21.51H529.31V32H516.79Z" fill="#141533"/>
<path d="M57.6 0L38.4 14.4L19.2 0L0 14.4L19.2 28.8L38.4 43.2L57.6 28.8L76.8 14.4L57.6 0Z" fill="#EA088B"/>
<path d="M76.8 43.2L38.4 72V43.2L76.8 14.4V43.2Z" fill="#4E52D2"/>
<path d="M0 43.2L38.4 72V43.2L0 14.4V43.2Z" fill="#29AAE1"/>
<path d="M538.938 16.9559V8.71325H543.115C543.45 8.71325 543.815 8.81005 544.209 9.00364C544.604 9.18979 544.939 9.48018 545.215 9.87481C545.498 10.262 545.639 10.7534 545.639 11.3491C545.639 11.9522 545.494 12.466 545.203 12.8904C544.913 13.3074 544.559 13.6238 544.142 13.8397C543.733 14.0557 543.346 14.1636 542.981 14.1636H539.965V12.8234H542.422C542.668 12.8234 542.932 12.7005 543.215 12.4548C543.506 12.2091 543.651 11.8405 543.651 11.3491C543.651 10.8428 543.506 10.5003 543.215 10.3216C542.932 10.1429 542.683 10.0535 542.467 10.0535H540.747V16.9559H538.938ZM543.919 13.0691L545.974 16.9559H543.986L541.976 13.0691H543.919ZM542.065 21.8701C540.829 21.8701 539.671 21.6393 538.591 21.1777C537.512 20.716 536.562 20.0757 535.743 19.2566C534.924 18.4376 534.284 17.4882 533.822 16.4086C533.361 15.3289 533.13 14.1711 533.13 12.9351C533.13 11.6991 533.361 10.5412 533.822 9.46156C534.284 8.38191 534.924 7.43256 535.743 6.61351C536.562 5.79446 537.512 5.15411 538.591 4.69247C539.671 4.23082 540.829 4 542.065 4C543.301 4 544.459 4.23082 545.538 4.69247C546.618 5.15411 547.567 5.79446 548.387 6.61351C549.206 7.43256 549.846 8.38191 550.308 9.46156C550.769 10.5412 551 11.6991 551 12.9351C551 14.1711 550.769 15.3289 550.308 16.4086C549.846 17.4882 549.206 18.4376 548.387 19.2566C547.567 20.0757 546.618 20.716 545.538 21.1777C544.459 21.6393 543.301 21.8701 542.065 21.8701ZM542.065 19.7257C543.316 19.7257 544.455 19.4204 545.483 18.8099C546.51 18.1993 547.329 17.3803 547.94 16.3527C548.55 15.3252 548.856 14.186 548.856 12.9351C548.856 11.6842 548.55 10.5449 547.94 9.5174C547.329 8.48987 546.51 7.67082 545.483 7.06026C544.455 6.4497 543.316 6.14442 542.065 6.14442C540.814 6.14442 539.675 6.4497 538.647 7.06026C537.62 7.67082 536.801 8.48987 536.19 9.5174C535.58 10.5449 535.274 11.6842 535.274 12.9351C535.274 14.186 535.58 15.3252 536.19 16.3527C536.801 17.3803 537.62 18.1993 538.647 18.8099C539.675 19.4204 540.814 19.7257 542.065 19.7257Z" fill="#141533"/>
</svg>
