<svg width="108" height="44" viewBox="0 0 108 44" fill="none" xmlns="http://www.w3.org/2000/svg">
<g clip-path="url(#clip0_1125_82)">
<path d="M30.4664 20.6516C28.0758 17.7733 24.8963 15.2924 21.9578 14.0164C21.643 13.8808 21.2875 13.876 20.9692 14.0032C20.6509 14.1304 20.3957 14.3791 20.2595 14.6949C20.126 15.0104 20.1218 15.3661 20.2479 15.6847C20.374 16.0033 20.6201 16.259 20.9329 16.3963C23.4789 17.4971 26.3715 19.7679 28.4822 22.312C30.2881 24.4867 32.4247 27.9164 32.352 31.8966C32.2634 36.5123 28.8597 40.6155 24.5905 41.247C24.0602 41.326 23.5249 41.3665 22.9888 41.3681C22.6454 41.3681 22.316 41.5052 22.0731 41.7492C21.8303 41.9932 21.6939 42.3241 21.6939 42.6691C21.6939 43.0142 21.8303 43.3451 22.0731 43.5891C22.316 43.8331 22.6454 43.9702 22.9888 43.9702C23.6503 43.9677 24.3108 43.9169 24.965 43.8181C30.4435 43.0174 34.8263 37.8003 34.9349 31.9516C35.0235 27.1678 32.5542 23.1666 30.4664 20.6516Z" fill="#2A769E"/>
<path d="M21.8045 35.0779C22.1591 33.4136 22.5297 30.2321 21.0316 27.615C20.272 26.2821 19.0747 25.256 17.6449 24.7127C16.2194 24.162 14.6354 24.198 13.2362 24.8128C11.2201 25.7135 10.3714 27.1907 9.96404 28.4156C8.45297 28.0644 6.74368 28.1454 4.88399 29.5826C4.74703 29.6888 4.63264 29.8215 4.54757 29.9728C4.46251 30.1242 4.40849 30.2911 4.38871 30.4638C4.36893 30.6365 4.3838 30.8114 4.43242 30.9782C4.48105 31.145 4.56245 31.3004 4.67182 31.435C5.11906 31.9825 5.92988 32.0425 6.49267 31.6152C7.85333 30.5804 8.92711 30.6985 10.4252 31.2789L11.1026 31.5411C11.1964 31.5773 11.297 31.5924 11.3972 31.5853C11.4975 31.5782 11.595 31.5491 11.6828 31.5001C11.7707 31.451 11.8467 31.3832 11.9057 31.3015C11.9646 31.2197 12.005 31.1259 12.0239 31.0267L12.1594 30.3101C12.4582 28.7359 12.8686 27.8212 14.2861 27.1877C15.8579 26.4871 17.8361 27.2467 18.7924 28.916C19.5723 30.2781 19.7486 32.3287 19.2785 34.5395C18.8541 36.5261 17.9337 38.973 16.6239 39.8798C16.592 39.9018 16.5691 39.9178 16.5542 39.9298L16.5392 39.9418C15.117 40.9117 13.4349 41.4241 11.7162 41.411C11.3974 41.411 11.0787 41.396 10.7639 41.3659C6.16695 40.9506 2.64976 36.9214 2.58501 31.9925C2.52326 27.5289 5.25652 23.7179 6.89011 21.8444C11.0926 17.0316 14.5371 15.8096 16.6866 15.6315C16.6943 15.631 16.7019 15.631 16.7095 15.6315H16.7344C16.7696 15.6275 16.8028 15.6225 16.8341 15.6165L16.8669 15.6084C16.8978 15.6014 16.9277 15.5934 16.9576 15.5844C16.9705 15.5844 16.9815 15.5764 16.9944 15.5724C17.0074 15.5684 17.0492 15.5534 17.0761 15.5414C17.103 15.5294 17.103 15.5294 17.1159 15.5234C17.1289 15.5174 17.1648 15.5014 17.1887 15.4883C17.2126 15.4753 17.2185 15.4703 17.2335 15.4613C17.2484 15.4523 17.2743 15.4383 17.2943 15.4243L17.347 15.3863C17.362 15.3743 17.3779 15.3643 17.3919 15.3522C17.4058 15.3402 17.4347 15.3152 17.4556 15.2962L17.4825 15.2712C17.5074 15.2462 17.5313 15.2211 17.5542 15.1941L17.5652 15.1821C17.7636 14.9482 17.8724 14.6508 17.872 14.3434C17.8712 14.0492 17.7712 13.764 17.5883 13.5343C17.4054 13.3045 17.1504 13.1438 16.8649 13.0784H16.859C16.8221 13.0704 16.7852 13.0644 16.7474 13.0594H16.7315C16.6946 13.0594 16.6577 13.0524 16.6209 13.0514H16.5801C15.2032 13.0501 13.8831 12.5 12.9094 11.5219C11.9358 10.5439 11.388 9.21762 11.3865 7.83426C11.388 6.45072 11.9357 5.12428 12.9093 4.14587C13.8829 3.16747 15.203 2.61696 16.5801 2.61511C17.9571 2.61696 19.2772 3.16747 20.2508 4.14587C21.2244 5.12428 21.7721 6.45072 21.7737 7.83426C21.7737 8.17932 21.9101 8.51024 22.1529 8.75423C22.3958 8.99822 22.7251 9.1353 23.0686 9.1353C23.412 9.1353 23.7414 8.99822 23.9842 8.75423C24.2271 8.51024 24.3635 8.17932 24.3635 7.83426C24.3614 5.76236 23.5413 3.77591 22.0833 2.31076C20.6252 0.845612 18.6482 0.0214273 16.586 0.019043C14.5239 0.0214273 12.5469 0.845612 11.0888 2.31076C9.63073 3.77591 8.81068 5.76236 8.80858 7.83426C8.80872 9.10527 9.11776 10.357 9.70884 11.4808C10.2999 12.6045 11.1552 13.5662 12.2003 14.2824C9.26777 15.7005 6.75663 18.0784 4.95172 20.1461C3.0731 22.2998 -0.0675676 26.7103 0.00514688 32.0405C0.0848339 38.2845 4.61205 43.4106 10.5318 43.945C10.9203 43.982 11.3207 44 11.7201 44C14.0083 44.0171 16.2449 43.3175 18.119 41.9984C18.1568 41.9723 18.1931 41.9439 18.2276 41.9134C19.2247 41.1688 20.8911 39.3353 21.8045 35.0779Z" fill="#2A769E"/>
</g>
<path d="M52.0347 20V14.5779H47.9368V20H45.3063V7.61684H47.9368V12.5021H52.0347V7.61684H54.6653V20H52.0347ZM65.2401 15.0432C65.2401 15.1625 65.2222 15.4905 65.1864 16.0274H59.2632C59.3467 16.8863 59.5794 17.4947 59.9611 17.8526C60.3429 18.2105 60.8618 18.3895 61.518 18.3895C61.9236 18.3895 62.3053 18.3239 62.6632 18.1926C63.0211 18.0614 63.4088 17.8526 63.8264 17.5663L64.8822 18.9979C63.8204 19.8568 62.6215 20.2863 61.2853 20.2863C59.7941 20.2863 58.6488 19.8389 57.8495 18.9442C57.0502 18.0495 56.6506 16.8386 56.6506 15.3116C56.6506 14.3453 56.8176 13.4804 57.1517 12.7168C57.4976 11.9414 57.9927 11.333 58.6369 10.8916C59.2931 10.4502 60.0685 10.2295 60.9632 10.2295C62.3113 10.2295 63.3611 10.653 64.1127 11.5C64.8643 12.347 65.2401 13.5281 65.2401 15.0432ZM62.7169 14.3274C62.7169 12.7526 62.1502 11.9653 61.0169 11.9653C60.492 11.9653 60.0804 12.1621 59.7822 12.5558C59.4959 12.9375 59.3229 13.5639 59.2632 14.4347H62.7169V14.3274ZM71.9825 10.2474C72.2688 10.2474 72.5849 10.2951 72.9309 10.3905L72.5014 12.8421C72.1674 12.7586 71.887 12.7168 71.6604 12.7168C71.0997 12.7168 70.6642 12.9137 70.3541 13.3074C70.0439 13.7011 69.7993 14.2975 69.6204 15.0968V20H67.0793V10.5158H69.2804L69.513 12.3589C69.7397 11.6909 70.0677 11.1719 70.4972 10.8021C70.9386 10.4323 71.4337 10.2474 71.9825 10.2474ZM80.81 17.3695C80.81 17.7393 80.8637 18.0137 80.9711 18.1926C81.0785 18.3596 81.2574 18.4849 81.5079 18.5684L80.9711 20.2505C80.4104 20.2028 79.9511 20.0716 79.5932 19.8568C79.2472 19.6421 78.9788 19.3081 78.7879 18.8547C78.1676 19.8091 77.2192 20.2863 75.9427 20.2863C75.0002 20.2863 74.2486 20.0179 73.6879 19.4811C73.1392 18.9323 72.8648 18.2225 72.8648 17.3516C72.8648 16.3137 73.2406 15.5204 73.9921 14.9716C74.7437 14.4228 75.8234 14.1484 77.2311 14.1484H78.3227V13.6832C78.3227 13.0986 78.1914 12.693 77.929 12.4663C77.6665 12.2396 77.2311 12.1263 76.6227 12.1263C75.9546 12.1263 75.1195 12.2933 74.1174 12.6274L73.5448 10.9274C74.7258 10.4621 75.8949 10.2295 77.0521 10.2295C78.3406 10.2295 79.289 10.5098 79.8974 11.0705C80.5058 11.6193 80.81 12.4425 80.81 13.54V17.3695ZM76.6406 18.4611C77.3563 18.4611 77.9171 18.1091 78.3227 17.4053V15.5979H77.4816C76.1097 15.5979 75.4237 16.1109 75.4237 17.1368C75.4237 17.5544 75.5251 17.8825 75.7279 18.1211C75.9427 18.3477 76.2469 18.4611 76.6406 18.4611ZM45.3063 38V25.6168H52.5L52.2137 27.5316H47.9368V31.0389H51.6589V32.9537H47.9368V38H45.3063ZM61.378 33.0432C61.378 33.1625 61.3601 33.4905 61.3243 34.0274H55.4012C55.4847 34.8863 55.7173 35.4947 56.0991 35.8526C56.4808 36.2105 56.9998 36.3895 57.6559 36.3895C58.0615 36.3895 58.4433 36.3239 58.8012 36.1926C59.1591 36.0614 59.5468 35.8526 59.9643 35.5663L61.0201 36.9979C59.9584 37.8568 58.7594 38.2863 57.4233 38.2863C55.9321 38.2863 54.7868 37.8389 53.9875 36.9442C53.1882 36.0495 52.7886 34.8386 52.7886 33.3116C52.7886 32.3453 52.9556 31.4804 53.2896 30.7168C53.6356 29.9414 54.1307 29.333 54.7749 28.8916C55.431 28.4502 56.2064 28.2295 57.1012 28.2295C58.4493 28.2295 59.4991 28.653 60.2507 29.5C61.0022 30.347 61.378 31.5281 61.378 33.0432ZM58.8549 32.3274C58.8549 30.7526 58.2882 29.9653 57.1549 29.9653C56.63 29.9653 56.2184 30.1621 55.9201 30.5558C55.6338 30.9375 55.4608 31.5639 55.4012 32.4347H58.8549V32.3274ZM68.1204 28.2474C68.4067 28.2474 68.7229 28.2951 69.0688 28.3905L68.6394 30.8421C68.3053 30.7586 68.025 30.7168 67.7983 30.7168C67.2376 30.7168 66.8022 30.9137 66.492 31.3074C66.1818 31.7011 65.9373 32.2975 65.7583 33.0968V38H63.2173V28.5158H65.4183L65.651 30.3589C65.8776 29.6909 66.2057 29.1719 66.6352 28.8021C67.0766 28.4323 67.5717 28.2474 68.1204 28.2474ZM76.0024 37.5526C75.6564 37.7912 75.2627 37.9702 74.8213 38.0895C74.3918 38.2207 73.9624 38.2863 73.5329 38.2863C72.5546 38.2744 71.815 37.994 71.3139 37.4453C70.8129 36.8965 70.5624 36.0912 70.5624 35.0295V30.3053H69.1487V28.5158H70.5624V26.44L73.1034 26.1358V28.5158H75.2866L75.036 30.3053H73.1034V34.9758C73.1034 35.4291 73.181 35.7572 73.336 35.96C73.4911 36.1628 73.7297 36.2642 74.0518 36.2642C74.3739 36.2642 74.7318 36.1568 75.1255 35.9421L76.0024 37.5526ZM79.6687 28.5158V38H77.1276V28.5158H79.6687ZM78.3803 23.6305C78.8336 23.6305 79.2034 23.7737 79.4897 24.06C79.788 24.3344 79.9371 24.6863 79.9371 25.1158C79.9371 25.5453 79.788 25.9032 79.4897 26.1895C79.2034 26.4639 78.8336 26.6011 78.3803 26.6011C77.9269 26.6011 77.5571 26.4639 77.2708 26.1895C76.9845 25.9032 76.8413 25.5453 76.8413 25.1158C76.8413 24.6863 76.9845 24.3344 77.2708 24.06C77.5571 23.7737 77.9269 23.6305 78.3803 23.6305ZM84.5401 38.2863C83.7647 38.2863 83.1622 38.0656 82.7327 37.6242C82.3033 37.1709 82.0885 36.5326 82.0885 35.7095V24.74L84.6296 24.4537V35.6379C84.6296 36.0554 84.8026 36.2642 85.1485 36.2642C85.3394 36.2642 85.5064 36.2284 85.6496 36.1568L86.1685 37.9642C85.6794 38.1789 85.1366 38.2863 84.5401 38.2863ZM90.0141 28.5158V38H87.473V28.5158H90.0141ZM88.7257 23.6305C89.179 23.6305 89.5488 23.7737 89.8351 24.06C90.1334 24.3344 90.2825 24.6863 90.2825 25.1158C90.2825 25.5453 90.1334 25.9032 89.8351 26.1895C89.5488 26.4639 89.179 26.6011 88.7257 26.6011C88.2723 26.6011 87.9025 26.4639 87.6162 26.1895C87.3299 25.9032 87.1867 25.5453 87.1867 25.1158C87.1867 24.6863 87.3299 24.3344 87.6162 24.06C87.9025 23.7737 88.2723 23.6305 88.7257 23.6305ZM98.196 37.5526C97.8501 37.7912 97.4564 37.9702 97.015 38.0895C96.5855 38.2207 96.156 38.2863 95.7266 38.2863C94.7483 38.2744 94.0087 37.994 93.5076 37.4453C93.0066 36.8965 92.756 36.0912 92.756 35.0295V30.3053H91.3423V28.5158H92.756V26.44L95.2971 26.1358V28.5158H97.4802L97.2297 30.3053H95.2971V34.9758C95.2971 35.4291 95.3746 35.7572 95.5297 35.96C95.6848 36.1628 95.9234 36.2642 96.2455 36.2642C96.5676 36.2642 96.9255 36.1568 97.3192 35.9421L98.196 37.5526ZM104.119 38.0179C103.737 39.2228 103.135 40.1533 102.312 40.8095C101.501 41.4656 100.397 41.8414 99.0013 41.9368L98.7329 40.1116C99.6395 39.9923 100.302 39.7775 100.719 39.4674C101.149 39.1572 101.501 38.6681 101.775 38H100.898L97.9455 28.5158H100.648L102.544 36.3537L104.549 28.5158H107.179L104.119 38.0179Z" fill="black"/>
<defs>
<clipPath id="clip0_1125_82">
<rect width="35" height="44" fill="white"/>
</clipPath>
</defs>
</svg>
