<svg width="147" height="24" viewBox="0 0 147 24" fill="none" xmlns="http://www.w3.org/2000/svg">
<path d="M39.1283 19.9853C37.6901 19.9797 36.2806 19.5819 35.0516 18.8348C33.8226 18.0877 32.8207 17.0195 32.1536 15.7453C31.8003 16.87 31.2925 17.9402 30.6449 18.9253C31.6617 20.1986 32.9516 21.2271 34.4194 21.9347C35.8872 22.6423 37.4953 23.0109 39.1248 23.0133C39.5155 22.9944 39.884 22.826 40.1539 22.5428C40.4237 22.2596 40.5743 21.8834 40.5743 21.4922C40.5743 21.101 40.4237 20.7248 40.1539 20.4416C39.884 20.1585 39.5155 19.99 39.1248 19.9711L39.1283 19.9853ZM31.666 9.34306C31.7994 8.96225 31.9625 8.59248 32.1536 8.23715C32.8204 6.9627 33.8222 5.89434 35.0513 5.1472C36.2803 4.40005 37.69 4.00245 39.1283 3.99722C39.519 3.97839 39.8875 3.80991 40.1574 3.52671C40.4273 3.24352 40.5778 2.86734 40.5778 2.47615C40.5778 2.08496 40.4273 1.70878 40.1574 1.42559C39.8875 1.14239 39.519 0.973915 39.1283 0.955078C37.4985 0.957367 35.89 1.3263 34.4221 2.03456C32.9542 2.74282 31.6645 3.77225 30.6484 5.0466C30.4788 5.25507 30.3198 5.47413 30.1644 5.69319C30.0089 5.91226 29.8535 6.16312 29.7121 6.39985C28.7229 8.10002 28.2046 10.0331 28.2105 12.0001C28.2089 13.3118 27.8875 14.6034 27.2742 15.763C26.6072 17.0362 25.6045 18.1027 24.3748 18.8468C23.145 19.5908 21.7351 19.9842 20.2977 19.9842C18.8604 19.9842 17.4504 19.5908 16.2207 18.8468C14.9909 18.1027 13.9883 17.0362 13.3213 15.763C12.9694 16.8883 12.4616 17.9587 11.8126 18.943C12.829 20.2161 14.1191 21.2441 15.5871 21.9506C17.0551 22.657 18.6633 23.0239 20.2924 23.0239C21.9216 23.0239 23.5298 22.657 24.9978 21.9506C26.4658 21.2441 27.7559 20.2161 28.7723 18.943C28.9419 18.7345 29.1009 18.5154 29.2528 18.2928C29.4047 18.0702 29.5637 17.8264 29.7051 17.5862C30.6952 15.8938 31.216 13.9679 31.2138 12.0071C31.213 11.1025 31.3647 10.2043 31.6625 9.35013L31.666 9.34306ZM1.45304 4.01136C2.88915 4.01664 4.29673 4.41275 5.52482 5.1572C6.75292 5.90165 7.7552 6.96636 8.42418 8.23715C8.77534 7.11161 9.28323 6.04112 9.93289 5.0572C8.91648 3.7835 7.62658 2.75474 6.15871 2.0471C4.69083 1.33947 3.08258 0.971077 1.45304 0.969211C1.06231 0.988049 0.693809 1.15653 0.423941 1.43972C0.154072 1.72291 0.00353327 2.0991 0.00353327 2.49028C0.00353327 2.88147 0.154072 3.25765 0.423941 3.54085C0.693809 3.82404 1.06231 3.99252 1.45304 4.01136ZM12.8302 9.34306C12.9639 8.96293 13.1257 8.59327 13.3142 8.23715C13.9803 6.9629 14.9827 5.89542 16.2126 5.15055C17.4424 4.40569 18.8528 4.01189 20.2907 4.01189C21.7285 4.01189 23.1389 4.40569 24.3688 5.15055C25.5986 5.89542 26.601 6.9629 27.2671 8.23715C27.6168 7.11102 28.1247 6.04033 28.7758 5.0572C27.7602 3.78285 26.4703 2.7538 25.0023 2.04654C23.5342 1.33928 21.9255 0.971998 20.296 0.971998C18.6664 0.971998 17.0578 1.33928 15.5897 2.04654C14.1216 2.7538 12.8318 3.78285 11.8161 5.0572C11.6465 5.26567 11.4875 5.48473 11.3321 5.70379C11.1766 5.92285 11.0247 6.17372 10.8833 6.41045C9.89325 8.10416 9.37248 10.0311 9.37463 11.993C9.37567 12.8968 9.22272 13.7941 8.92237 14.6465C8.78665 15.0315 8.62004 15.4049 8.42418 15.763C7.75651 17.0367 6.75442 18.1044 5.52558 18.8514C4.29674 19.5985 2.88758 19.9965 1.44951 20.0029C1.05877 20.0218 0.690276 20.1903 0.420408 20.4734C0.150539 20.7566 0 21.1328 0 21.524C0 21.9152 0.150539 22.2914 0.420408 22.5746C0.690276 22.8578 1.05877 23.0262 1.44951 23.0451C3.07896 23.0427 4.68704 22.6741 6.15484 21.9665C7.62263 21.2589 8.9126 20.2304 9.92935 18.9571C10.099 18.7486 10.2579 18.5296 10.4134 18.307C10.5689 18.0844 10.7208 17.8406 10.8657 17.6003C11.8531 15.907 12.3726 13.9815 12.3708 12.0213C12.3695 11.1163 12.5224 10.2178 12.8231 9.36426" fill="#0B8470"/>
<path d="M131.029 20.5227C131.033 20.6512 131.087 20.7732 131.178 20.8637C131.269 20.9543 131.392 21.0067 131.52 21.0103H133.856C133.92 21.0107 133.984 20.9985 134.043 20.9742C134.103 20.9499 134.157 20.914 134.203 20.8687C134.248 20.8234 134.284 20.7695 134.309 20.7101C134.334 20.6507 134.347 20.587 134.347 20.5227V9.4494H134.371L145.137 21.2682H145.756C145.878 21.2647 145.994 21.2149 146.08 21.1289C146.167 21.043 146.218 20.9273 146.222 20.8053V3.47817C146.218 3.34964 146.166 3.22728 146.075 3.13603C145.985 3.04477 145.863 2.9915 145.734 2.98705H143.367C143.237 2.98705 143.112 3.03879 143.02 3.1309C142.928 3.223 142.876 3.34792 142.876 3.47817V14.1133H142.851L132.145 2.73619H131.502C131.38 2.73871 131.263 2.78749 131.175 2.87272C131.087 2.95794 131.035 3.07328 131.029 3.19551V20.5227ZM114.087 20.5227C114.087 20.652 114.138 20.776 114.23 20.8674C114.321 20.9589 114.445 21.0103 114.574 21.0103H125.022C125.152 21.0103 125.276 20.9589 125.367 20.8674C125.459 20.776 125.51 20.652 125.51 20.5227V18.4027C125.506 18.2759 125.453 18.1554 125.362 18.067C125.271 17.9786 125.149 17.9292 125.022 17.9292H117.412V13.4137H123.772C123.901 13.4137 124.025 13.3624 124.116 13.2709C124.208 13.1795 124.259 13.0555 124.259 12.9261V10.7885C124.254 10.6609 124.201 10.5398 124.111 10.4495C124.02 10.3592 123.899 10.3061 123.772 10.3009H117.412V6.06099H125.022C125.152 6.06099 125.276 6.00962 125.367 5.91818C125.459 5.82674 125.51 5.70272 125.51 5.5734V3.45344C125.504 3.32783 125.451 3.20919 125.36 3.12229C125.269 3.03538 125.148 2.98693 125.022 2.98705H114.557C114.427 2.98705 114.303 3.03842 114.212 3.12986C114.121 3.2213 114.069 3.34532 114.069 3.47464L114.087 20.5227ZM101.339 20.9855C101.374 21.0712 101.434 21.1442 101.512 21.1947C101.59 21.2452 101.681 21.2708 101.773 21.2682H102.031C102.124 21.271 102.216 21.2455 102.294 21.195C102.373 21.1446 102.434 21.0715 102.47 20.9855L110.455 3.6725C110.494 3.60029 110.513 3.51885 110.509 3.43679C110.506 3.35474 110.48 3.27511 110.436 3.20634C110.391 3.13756 110.328 3.08219 110.254 3.04608C110.181 3.00997 110.098 2.99446 110.017 3.00118H107.356C107.263 3.001 107.172 3.02799 107.094 3.07883C107.016 3.12968 106.955 3.20217 106.918 3.28738L101.971 14.3571H101.791L96.8445 3.28738C96.8073 3.20217 96.7461 3.12968 96.6682 3.07883C96.5904 3.02799 96.4994 3.001 96.4064 3.00118H93.7777C93.6958 2.99446 93.6137 3.00997 93.5399 3.04608C93.4661 3.08219 93.4035 3.13756 93.3586 3.20634C93.3137 3.27511 93.2883 3.35474 93.2849 3.43679C93.2816 3.51885 93.3004 3.60029 93.3395 3.6725L101.339 20.9855ZM82.7539 14.8588L85.2766 9.2056H85.3543L87.9301 14.8588H82.7539ZM77.242 21.0103H79.482C79.6443 21.0139 79.8037 20.9663 79.9375 20.8744C80.0713 20.7824 80.1728 20.6507 80.2276 20.4979L81.4889 17.7137H89.1915L90.4529 20.4979C90.5027 20.6539 90.603 20.7889 90.738 20.8816C90.8729 20.9743 91.0349 21.0196 91.1984 21.0103H93.4385C93.5202 21.0178 93.6024 21.003 93.6764 20.9673C93.7503 20.9317 93.8131 20.8766 93.8582 20.808C93.9032 20.7394 93.9287 20.6598 93.9319 20.5778C93.9352 20.4958 93.916 20.4144 93.8766 20.3425L85.9444 3.02945C85.9113 2.94162 85.8508 2.86674 85.772 2.81585C85.6931 2.76496 85.5999 2.74075 85.5063 2.74679H85.2519C85.1587 2.74344 85.0667 2.76874 84.9884 2.81928C84.9101 2.86983 84.8491 2.94318 84.8137 3.02945L76.8038 20.3425C76.7644 20.4144 76.7452 20.4958 76.7485 20.5778C76.7517 20.6598 76.7772 20.7394 76.8222 20.808C76.8673 20.8766 76.9301 20.9317 77.0041 20.9673C77.078 21.003 77.1602 21.0178 77.242 21.0103ZM52.6469 20.4202C52.6274 20.4929 52.6257 20.5691 52.6418 20.6426C52.6579 20.7161 52.6915 20.7846 52.7396 20.8424C52.7877 20.9003 52.849 20.9457 52.9184 20.9749C52.9877 21.0041 53.063 21.0162 53.138 21.0103H55.4558C55.5644 21.0054 55.6684 20.9651 55.752 20.8955C55.8356 20.826 55.8941 20.731 55.9187 20.6251L57.4132 10.8627H57.491L62.0489 20.982C62.0843 21.0683 62.1452 21.1416 62.2235 21.1922C62.3019 21.2427 62.3938 21.268 62.487 21.2647H62.9499C63.0435 21.2701 63.1363 21.2457 63.2151 21.1949C63.2939 21.1441 63.3544 21.0695 63.388 20.982L67.8929 10.8627H67.9707L69.49 20.6216C69.5239 20.7269 69.5884 20.8197 69.6752 20.8883C69.762 20.9568 69.8673 20.9981 69.9776 21.0067H72.3236C72.398 21.0139 72.473 21.0022 72.5416 20.9728C72.6103 20.9433 72.6704 20.8971 72.7165 20.8383C72.7626 20.7796 72.7932 20.7101 72.8054 20.6365C72.8177 20.5628 72.8112 20.4872 72.7865 20.4167L69.7479 3.10365C69.7313 2.99532 69.6744 2.89727 69.5885 2.82913C69.5027 2.76099 69.3943 2.72779 69.285 2.73619H68.8716C68.7814 2.72902 68.6911 2.74954 68.6129 2.79499C68.5346 2.84044 68.472 2.90867 68.4335 2.99058L62.7803 15.145H62.7025L57.0493 2.99058C57.0069 2.90636 56.94 2.83697 56.8574 2.79155C56.7747 2.74614 56.6803 2.72683 56.5865 2.73619H56.1766C56.0646 2.72819 55.9539 2.76382 55.8677 2.8356C55.7814 2.90739 55.7262 3.00977 55.7137 3.12131L52.6469 20.4202Z" fill="#0B8470"/>
</svg>
