<svg width="178" height="28" viewBox="0 0 178 28" fill="none" xmlns="http://www.w3.org/2000/svg">
<path fill-rule="evenodd" clip-rule="evenodd" d="M170.359 1.20986C167.89 2.20217 167.515 2.4563 167.515 3.13635C167.515 3.6152 167.705 3.91995 168.002 3.91995C168.271 3.91995 168.783 4.21392 169.14 4.57322C169.666 5.10172 169.79 4.61312 169.79 6.45894V8.74015L168.428 8.02678C164.07 5.74426 158.211 7.88535 155.916 12.5987C155.148 14.1747 155.009 14.8688 155.015 17.0782C155.02 18.5163 155.205 20.3115 155.427 21.0674C156.32 24.1155 159.428 26.7619 162.635 27.2048C164.542 27.4684 167.067 26.8867 168.379 25.8816L169.42 25.0837L169.524 25.818C169.625 26.5307 169.738 26.5522 173.366 26.5522H177.105L177.191 25.5723C177.264 24.7463 177.111 24.5157 176.216 24.1025L175.154 23.6125V0L174.179 0.0333166C173.642 0.0516081 171.924 0.581084 170.359 1.20986ZM41.626 7.42284C36.1156 9.11317 33.2644 14.664 34.96 20.4004C35.7109 22.9413 37.3659 24.8639 39.868 26.1015C45.0576 28.6685 51.2207 26.6679 53.3347 21.7301C54.375 19.3003 53.7674 19.0615 51.6027 21.0494C49.6974 22.7989 48.1042 23.4492 45.7227 23.4492C42.9855 23.4492 40.985 22.2583 39.962 20.0195C38.7949 17.4662 38.4627 17.593 46.5835 17.4943L53.8165 17.4064L53.7073 15.7733C53.4544 11.9938 50.9285 8.5703 47.6764 7.59987C45.9707 7.09097 42.992 7.00376 41.626 7.42284ZM62.5185 7.54859C57.6739 9.36991 55.2436 13.8327 56.106 19.3241C56.4971 21.8144 57.2916 23.3323 59.0623 24.9723C60.7536 26.5388 62.3755 27.1604 64.8324 27.1843C67.1782 27.2071 68.0393 26.9393 69.5734 25.7108L70.8464 24.6914L70.9471 25.8666C71.0362 26.9024 71.1529 27.0422 71.9299 27.0422C72.4149 27.0422 73.9788 26.5499 75.405 25.9486C77.5388 25.0484 78.0134 24.7159 78.0839 24.0705C78.1506 23.4626 77.9305 23.1755 77.1087 22.7959L76.0476 22.306L75.8727 7.7707H74.7525C74.0286 7.7707 73.5153 7.97289 73.3014 8.34231C72.291 10.0869 72.1226 10.1551 71.124 9.22358C70.6136 8.74767 69.7574 8.12869 69.221 7.84844C67.9051 7.16055 64.0135 6.98645 62.5185 7.54859ZM84.4261 7.49208C81.5482 8.56051 80.2232 10.5122 80.4296 13.3794C80.5473 15.0148 80.7264 15.4558 81.6711 16.435C82.278 17.0641 83.9779 18.1561 85.4479 18.8616C86.9179 19.5668 88.277 20.437 88.4679 20.795C89.422 22.5869 88.2039 25.0824 86.3753 25.0824C84.4635 25.0824 83.1626 23.7383 82.8973 21.4894C82.7952 20.6254 81.5557 20.16 80.9575 20.761C80.3753 21.346 79.6706 25.1281 80.0568 25.5955C81.3473 27.1581 87.9113 27.7118 90.3179 26.4611C92.897 25.1206 93.9805 23.0187 93.5921 20.1087C93.3265 18.1192 92.4956 17.2657 88.9893 15.3803C87.2436 14.4416 85.6169 13.411 85.3747 13.0903C84.2155 11.5548 85.336 9.40388 87.2953 9.40388C88.6083 9.40388 89.7665 10.5151 90.0819 12.0774C90.2685 13.0018 90.4534 13.1752 91.3455 13.2624L92.3906 13.365V10.9028C92.3906 8.45631 92.3837 8.43736 91.3341 7.88731C90.0542 7.21673 85.8201 6.97469 84.4261 7.49208ZM128.4 7.65997C127.814 7.95002 126.95 8.6451 126.48 9.20398L125.627 10.2205L125.854 8.99558C126.079 7.78344 126.07 7.7707 125.019 7.7707C124.434 7.7707 122.746 8.24824 121.267 8.83227C118.806 9.80335 118.577 9.97026 118.576 10.7921C118.575 11.4643 118.734 11.6903 119.207 11.6903C120.557 11.6903 120.85 12.8143 120.85 17.9905C120.85 20.6571 120.708 23.1062 120.534 23.4332C120.36 23.7598 119.848 24.1204 119.396 24.2344C118.713 24.4066 118.575 24.6342 118.575 25.5873V26.7329L128.165 26.5522L128.251 25.5723C128.324 24.7463 128.171 24.5157 127.276 24.1025L126.214 23.6125L126.124 19.1092C126.027 14.2933 126.296 12.6229 127.397 11.2174L128.089 10.3328L128.553 11.2948C129.059 12.3452 130.171 12.9969 131.456 12.9969C132.647 12.9969 134.179 11.3431 134.179 10.0571C134.179 8.4599 132.663 7.11547 130.872 7.12494C130.098 7.12886 128.986 7.36959 128.4 7.65997ZM140.702 7.57113C135.094 9.41172 132.42 15.8383 134.926 21.4502C136.623 25.2473 139.667 27.1559 144.046 27.1666C146.264 27.1719 146.96 27.0321 148.513 26.2687C150.501 25.2911 152.237 23.4332 153.086 21.3731C153.96 19.2532 153.031 18.8263 151.563 20.6734C149.813 22.8789 145.812 24.0401 143.084 23.1356C140.831 22.3886 138.981 20.1779 138.981 18.2335C138.981 17.5861 139.16 17.5698 146.178 17.5698H153.375L153.202 15.6547C152.886 12.1538 151.034 9.28825 148.215 7.93827C146.581 7.1563 142.565 6.95999 140.702 7.57113ZM97.7621 8.46937C95.0614 9.40845 94.9177 9.50644 94.9177 10.4109C94.9177 11.1252 95.0705 11.3637 95.5282 11.3637C95.8636 11.3637 96.2853 11.5476 96.4647 11.772C96.6442 11.9967 96.8555 14.5419 96.9348 17.4283C97.0664 22.2227 97.1471 22.8005 97.8684 24.1146C99.314 26.7476 102.699 27.896 106.094 26.9043C107.075 26.6179 108.316 26.0123 108.853 25.5586L109.828 24.7338L109.931 25.8065C110.02 26.7371 110.163 26.8887 111.009 26.953C111.545 26.9938 113.155 26.5454 114.585 25.9564C116.801 25.0438 117.2 24.761 117.285 24.044C116.314 23.3767 117.214 23.1595 116.563 22.9952C115.078 22.6208 114.962 21.913 115.159 14.3985L115.341 7.44407L114.313 7.46856C113.747 7.48228 112.041 7.96472 110.521 8.54091C108.088 9.46333 107.758 9.68381 107.758 10.39C107.758 10.9332 107.968 11.2304 108.408 11.3127C109.765 11.5659 109.871 11.9297 109.871 16.3138C109.871 21.1487 109.514 22.4167 107.859 23.46C106.348 24.4124 104.168 24.1776 103.116 22.9491C102.361 22.0665 102.354 21.9901 102.422 14.8329L102.492 7.60738L101.549 7.54402C101.031 7.50907 99.3267 7.92553 97.7621 8.46937ZM47.3162 10.7114C48.389 11.7243 48.9286 13.4097 48.4612 14.2874C48.1286 14.9116 47.8071 14.9567 43.687 14.9567H39.2692L39.475 13.9226C39.7503 12.5402 41.1492 10.7506 42.3994 10.1816C43.8629 9.51559 46.3309 9.78147 47.3162 10.7114ZM68.276 10.537C69.8058 11.5443 70.4904 13.5022 70.5067 16.9165C70.5304 21.9646 69.116 24.4467 66.1916 24.4872C64.3276 24.513 63.0607 23.6971 62.1863 21.9065C61.5501 20.6039 61.4236 19.8337 61.4217 17.2431C61.4194 14.5833 61.5351 13.9069 62.2318 12.5069C63.5334 9.89089 66.0492 9.07104 68.276 10.537ZM146.356 10.3675C147.686 11.1821 148.146 12.0712 148.021 13.5822L147.921 14.7934L138.981 14.975V14.1976C138.981 13.1586 140.205 11.3882 141.557 10.4733C142.93 9.54335 144.939 9.49926 146.356 10.3675ZM167.417 10.5598C168.852 11.5045 169.609 13.7602 169.605 17.0798C169.599 22.0754 168.017 24.531 164.831 24.4869C161.931 24.4467 160.553 22.1214 160.536 17.2431C160.527 14.5739 160.639 13.9118 161.338 12.5069C162.649 9.87391 165.155 9.07071 167.417 10.5598Z" fill="#110F0D"/>
<path d="M8.26396 8.92797C8.9411 8.40895 10.02 7.79585 10.6621 7.56525C13.3102 6.61409 16.6555 7.23306 18.1577 8.95182L19.0914 10.0202L20.209 8.96096C22.6806 6.61899 27.3386 6.47135 29.6307 8.66242C31.2568 10.2169 31.3251 10.5308 31.4964 17.2431L31.6499 25.4721C31.655 25.7459 31.4485 25.9775 31.176 26.0039L26.8036 26.4261C26.4955 26.4559 26.2288 26.2137 26.2288 25.9041V18.713C26.3383 13.1327 26.1914 11.9128 25.3017 11.0188C24.3612 10.0738 22.3698 10.1718 21.1247 11.2245C19.7032 12.4262 19.4184 13.8239 19.5318 19.0396L19.6248 26.2337C19.6283 26.5062 19.4226 26.7359 19.1514 26.7624L14.8426 27.1837C14.5343 27.2138 14.2672 26.9715 14.2672 26.6618V18.1084C14.2672 11.3856 13.8729 10.3838 11.2251 10.3838C9.76257 10.3838 8.21845 11.6655 7.75359 13.266C7.55366 13.9529 7.44704 16.4236 7.50392 19.0396V27.0556C7.50392 27.3251 7.29967 27.5507 7.03151 27.5774L2.81564 27.9974C2.50701 28.0281 2.23927 27.7857 2.23927 27.4756V17.8618C2.23927 13.6893 2.15248 12.7885 1.70127 12.2877C1.40544 11.9591 0.883693 11.6903 0.542036 11.6903C0.0570179 11.6903 -0.0567598 11.495 0.0235347 10.8006C0.111956 10.0343 0.464342 9.76579 2.56435 8.86395C3.9053 8.28809 5.56255 7.80663 6.24717 7.79389C7.48312 7.77103 7.4906 7.77854 7.26272 8.82083L7.03288 9.87129L8.26396 8.92797Z" fill="#110F0D"/>
</svg>
