<svg width="112" height="43" viewBox="0 0 112 43" fill="none" xmlns="http://www.w3.org/2000/svg">
<path d="M53.5098 0H58.0064V6.34732H53.5098V0ZM53.5925 8.99568H57.9213V33.8767H53.5925V8.99568Z" fill="#12110C"/>
<path d="M62.3769 40.1401V35.517C65.3196 37.7447 69.0185 39.0044 72.3381 39.0044C77.3819 39.0044 81.7107 36.1882 81.7107 29.8847V26.9834C80.1567 30.5972 76.5405 32.6984 72.2967 32.6984C64.731 32.6984 61.4941 27.1099 61.4941 20.9717C61.4941 14.7946 64.8988 8.57373 72.253 8.57373C76.7496 8.57373 80.1129 10.8014 81.2462 14.2888V8.99688H85.3221V31.1468C85.3221 39.1746 79.2691 43 72.5035 43C69.1012 42.9976 65.4874 42.0297 62.3769 40.1401ZM73.8945 29.6731C79.4417 29.6731 82.2166 25.2592 82.2166 20.7212C82.2166 16.1394 79.4004 11.9371 73.8945 11.9371C68.3473 11.9371 65.9519 16.3072 65.9519 20.8476C65.9494 25.765 68.7242 29.6731 73.8945 29.6731Z" fill="#12110C"/>
<path d="M88.2676 28.2869C88.2676 23.2017 92.7642 22.1925 97.5551 21.4775L102.387 20.7625C105.875 20.2591 108.608 19.2085 108.608 16.0543C108.608 12.9852 105.751 11.4312 102.682 11.4312C99.1091 11.4312 95.3688 13.5324 95.1572 17.8199H90.5803C90.7895 12.1876 96.254 8.57373 102.013 8.57373C107.139 8.57373 111.427 11.2221 111.427 17.1049V33.8755H107.351V26.604C106.132 30.5972 101.215 34.3375 95.4563 34.3375C90.9573 34.34 88.2676 32.0272 88.2676 28.2869ZM97.2195 31.1031C101.381 31.1031 106.969 27.9513 107.139 21.7304C105.88 22.319 104.45 22.6959 102.725 22.9902L98.523 23.7052C95.0356 24.2937 92.6377 24.7971 92.6377 27.6546C92.6377 29.9698 94.6562 31.1031 97.2195 31.1031Z" fill="#12110C"/>
<path d="M10.3509 31.4063C10.1053 31.1193 10.526 31.613 10.5309 31.6179C10.4822 31.5571 10.4287 31.4987 10.3777 31.4379C10.2755 31.3187 10.1758 31.1996 10.0761 31.078C9.87669 30.8397 9.6797 30.5989 9.48515 30.3581C9.1009 29.8815 8.72639 29.4 8.35917 28.9111C8.1792 28.6704 8.00167 28.4296 7.82414 28.1864C7.79253 28.1402 7.75848 28.0964 7.72687 28.0502C7.56879 27.8314 8.0187 28.4637 7.86548 28.2424C7.77064 28.1062 7.6758 27.97 7.58095 27.8338C7.25264 27.3547 6.93406 26.8708 6.6252 26.3771C6.48415 26.1509 6.34553 25.9223 6.20935 25.6937C6.13882 25.5721 6.06586 25.4505 5.99534 25.3289C5.96129 25.2681 5.92724 25.2073 5.89076 25.1465C5.77646 24.9495 6.13396 25.5916 5.95399 25.2584C5.69378 24.7793 5.43843 24.2953 5.20253 23.8017C4.97393 23.325 4.75749 22.8411 4.5605 22.3498C4.51916 22.2452 4.47782 22.1382 4.43647 22.0337C4.36108 21.844 4.54591 22.3279 4.47538 22.1382C4.4535 22.0774 4.43161 22.0191 4.40972 21.9583C4.31731 21.7053 4.23219 21.45 4.14951 21.1922C3.81876 20.1465 3.578 19.074 3.45398 17.9845C3.4637 18.0842 3.47586 18.1815 3.48559 18.2812C3.21322 15.7253 3.59746 13.072 4.63346 10.7155C4.60428 10.7812 4.57509 10.8468 4.54591 10.9125C5.58191 8.59485 7.27939 6.60797 9.47785 5.32148C10.1053 4.95426 10.7668 4.64784 11.4501 4.39978C11.382 4.4241 11.314 4.44842 11.2459 4.47274C13.2303 3.76262 15.4677 3.48295 17.5543 3.85747C17.457 3.84044 17.3573 3.82099 17.26 3.80396C18.0285 3.94745 18.7556 4.18821 19.4731 4.49706C19.6433 4.57002 19.0767 4.30737 19.3028 4.41924C19.3393 4.43626 19.3758 4.45572 19.4123 4.47274C19.4949 4.51409 19.5752 4.55543 19.6579 4.59677C19.8281 4.68675 19.9984 4.7816 20.1637 4.88131C20.2415 4.92751 20.3194 4.97858 20.3972 5.02479C20.6939 5.20961 19.94 4.71837 20.2659 4.93724C20.4361 5.05154 20.6015 5.1707 20.7644 5.29473C20.8301 5.34337 20.8957 5.39444 20.959 5.44551C21.0003 5.47713 21.0392 5.51117 21.0806 5.54279C21.2702 5.69357 20.5699 5.1172 20.8057 5.31662C20.9468 5.43822 21.0879 5.55981 21.2265 5.68627C21.3043 5.7568 21.3797 5.82732 21.4551 5.90028C21.7712 6.20184 21.0003 5.44551 21.2289 5.67654C21.3773 5.82489 21.5232 5.97567 21.6642 6.13131C21.8393 6.321 22.3452 6.93142 21.6739 6.12645C21.8028 6.28209 21.9317 6.43774 22.0582 6.59581C22.1774 6.74659 22.2941 6.8998 22.4084 7.05544C22.4668 7.13327 22.5227 7.21109 22.5786 7.28891C22.0728 6.59338 22.3549 6.97276 22.4716 7.14056C22.7051 7.4786 22.9288 7.82636 23.1404 8.17899C23.2425 8.3468 23.3422 8.5146 23.4395 8.68483C23.6341 9.0253 23.2255 8.29816 23.3593 8.53892C23.4176 8.64349 23.4736 8.74806 23.5319 8.85507C23.9162 9.57249 24.2664 10.3094 24.5874 11.0584C24.7382 11.4135 24.8817 11.7709 25.0227 12.1309C25.1175 12.3716 24.8938 11.788 24.9595 11.9655C24.9789 12.0141 24.996 12.0652 25.0154 12.1138C25.0446 12.1917 25.0738 12.2719 25.103 12.3522C25.1735 12.5492 25.244 12.7461 25.3097 12.9431C25.5504 13.6484 25.7669 14.3609 25.9614 15.0784C26.3311 16.4475 26.6229 17.8459 26.781 19.2564C26.7713 19.1567 26.7591 19.0594 26.7494 18.9597C26.8856 20.2219 26.9074 21.523 26.4016 22.7146C26.4308 22.6489 26.46 22.5833 26.4892 22.5176C26.0563 23.4928 25.2951 24.2491 24.298 24.6407C24.3661 24.6164 24.4342 24.592 24.5023 24.5677C23.8748 24.7939 23.2206 24.8571 22.5592 24.7574C22.6564 24.7744 22.7562 24.7939 22.8534 24.8109C22.5786 24.7598 22.3208 24.6796 22.0582 24.5847C21.905 24.5191 21.9317 24.5312 22.1384 24.6237C22.0776 24.592 22.0144 24.558 21.956 24.5239C21.6131 24.3245 22.1093 24.5847 22.1384 24.648C22.119 24.6066 21.9925 24.541 21.9512 24.5118C21.6983 24.3294 22.474 24.969 22.1628 24.682C21.832 24.378 22.62 25.1635 22.3889 24.9082C22.0922 24.5799 22.7513 25.3605 22.6078 25.1684C22.4911 25.0103 22.3403 24.7331 22.7562 25.3921C22.7051 25.3143 22.6564 25.2341 22.6054 25.1562C22.9702 25.7059 22.7513 25.4238 22.6735 25.2633C22.6346 25.183 22.6029 25.0979 22.564 25.0152C22.5203 24.9033 22.5421 24.9666 22.6346 25.2025C22.6151 25.1514 22.5981 25.0979 22.5835 25.0468C22.5494 24.9374 22.5178 24.8279 22.4911 24.7185C22.4327 24.4777 22.3914 24.2346 22.3622 23.9889C22.3719 24.0886 22.3841 24.1859 22.3938 24.2856C22.243 22.8873 22.4181 21.4184 22.6054 20.0322C22.834 18.325 23.1915 16.6324 23.69 14.9859C23.9964 13.9718 24.3588 12.9747 24.7868 12.0068C24.7576 12.0725 24.7284 12.1382 24.6993 12.2038C25.8739 9.56033 27.5811 7.06517 30.0325 5.4601C30.7426 4.99561 31.5062 4.61623 32.3063 4.3244C32.2382 4.34871 32.1701 4.37303 32.102 4.39735C34.1935 3.64832 36.4819 3.54132 38.6609 3.9207C38.5637 3.90367 38.4639 3.88422 38.3667 3.86719C39.4027 4.05445 40.3852 4.37303 41.3506 4.78646C41.533 4.86428 40.9713 4.60407 41.2266 4.73053C41.2825 4.75728 41.3385 4.78403 41.3944 4.81321C41.4941 4.86428 41.5938 4.91535 41.6935 4.96642C41.9343 5.09531 42.1702 5.2315 42.4012 5.37742C42.7636 5.60602 42.0219 5.11477 42.3283 5.32878C42.4183 5.39201 42.5107 5.45524 42.6006 5.51847C42.7004 5.58899 42.7976 5.66438 42.8973 5.73734C42.9557 5.78112 43.0141 5.82732 43.07 5.87353C43.3229 6.07295 42.5982 5.47713 42.856 5.696C43.0335 5.84678 43.2086 5.99999 43.3764 6.1605C43.4202 6.20184 43.464 6.24562 43.5078 6.28696C42.89 5.69843 43.087 5.86867 43.2135 5.99999C43.3156 6.107 43.4178 6.21157 43.5175 6.321C43.5588 6.36721 43.6002 6.41342 43.6415 6.45719C43.7704 6.60067 43.9504 6.83657 43.4007 6.17266C43.4786 6.2675 43.5588 6.36235 43.6366 6.45719C43.7047 6.54474 43.7728 6.63229 43.8409 6.71984C43.8774 6.76848 43.9139 6.81955 43.9504 6.86819C44.1571 7.14543 43.5977 6.35748 43.7923 6.64445C43.9333 6.85116 44.0695 7.05788 44.2009 7.27189C44.2641 7.37646 44.32 7.49562 44.3905 7.59533C44.4003 7.60992 44.1303 7.12111 44.2592 7.36187C44.2957 7.42753 44.3322 7.49562 44.3662 7.56128C44.6045 8.01605 44.8015 8.48298 44.9961 8.95721C44.7894 8.45137 44.9937 8.96207 45.0399 9.09583C45.0909 9.24417 45.1371 9.39496 45.1833 9.54574C45.2685 9.82541 45.3439 10.1075 45.4095 10.3896C45.553 11 45.6576 11.6177 45.7257 12.2403C45.7159 12.1406 45.7038 12.0433 45.6941 11.9436C46.1026 15.7812 45.2466 19.7039 43.6974 23.2083C43.7266 23.1426 43.7558 23.077 43.785 23.0113C42.6104 25.6426 41.0345 28.0746 39.2324 30.3168C39.0403 30.5576 39.2154 30.9588 39.32 31.185C39.5462 31.6762 39.9328 32.1748 40.3025 32.5615C40.6867 32.9627 41.1099 33.3834 41.606 33.6388C41.7957 33.7361 42.2772 34.0206 42.4669 33.7847C46.5866 28.6582 49.6994 22.1626 49.145 15.4334C49.0282 14.018 48.7704 12.6197 48.284 11.2821C47.7052 9.69165 46.9076 8.23493 45.9154 6.86575C44.0209 4.25387 41.3531 2.06271 38.3107 0.939159C35.891 0.0466434 33.1161 -0.18439 30.5942 0.391976C28.532 0.861337 26.6351 1.88031 25.1078 3.33947C22.1895 6.12645 20.6088 10.1489 19.7333 14.0156C19.3733 15.6037 19.1253 17.2233 19.0086 18.8478C18.9575 19.5628 18.9137 20.2924 18.9745 21.0074C19.0523 21.9121 19.2469 22.7754 19.6554 23.5925C20.2148 24.7136 21.0149 25.6913 21.9293 26.5424C23.3277 27.846 25.3072 28.8601 27.2382 28.2156C28.549 27.7779 29.4245 26.8537 29.906 25.5672C30.548 23.8503 30.2051 21.8075 29.8817 20.0492C29.5315 18.1499 29.0038 16.2822 28.3253 14.4728C27.4765 12.2087 26.4357 10.0078 25.0616 8.01119C23.3836 5.57197 21.3408 3.37351 18.8164 1.80249C16.8077 0.552482 14.5046 -0.0263152 12.1457 0.109872C9.54838 0.25822 6.95838 1.15074 4.90583 2.76796C2.88977 4.36331 1.48169 6.59095 0.703471 9.02287C-0.184181 11.8001 -0.2085 14.8181 0.499189 17.6367C1.37955 21.1339 3.19619 24.3951 5.2536 27.328C6.49874 29.1008 7.83873 30.7837 9.25411 32.4253C9.59458 32.8217 10.0931 33.2497 10.5576 33.5026C10.7303 33.5975 11.2045 33.8504 11.4185 33.6485C11.6398 33.4418 11.4258 32.97 11.331 32.7803C11.0829 32.2696 10.7206 31.8367 10.3509 31.4063Z" fill="#12110C"/>
</svg>
