<svg width="108" height="40" viewBox="0 0 108 40" fill="none" xmlns="http://www.w3.org/2000/svg">
<path d="M0.748297 36.6825C0.631268 34.7388 1.95585 33.0576 3.70726 32.9277C3.77059 32.9228 3.84874 32.9166 3.93972 32.909C5.68993 32.7653 7.21371 34.2236 7.34317 36.1669C7.47262 38.1097 6.15846 39.8016 4.40824 39.9453C4.32808 39.952 4.2355 39.9595 4.13089 39.9675C4.05875 39.9729 3.98702 39.9756 3.91568 39.9756C2.25724 39.9751 0.860516 38.5466 0.748297 36.6825Z" fill="#0ACF83"/>
<path d="M1.00518 36.6963C0.871314 34.7539 2.18107 33.0585 3.93129 32.9094C6.37686 32.7026 8.52505 31.468 10.0067 29.6582C11.187 28.2164 13.197 28.11 14.4959 29.4207C15.7944 30.7313 15.8906 32.9619 14.7099 34.4038C12.1457 37.5354 8.4962 39.5965 4.41624 39.9439C4.33367 39.9511 4.25151 39.9542 4.17015 39.9542C2.52574 39.9546 1.13303 38.547 1.00518 36.6963Z" fill="#81A2FF"/>
<path d="M10.2215 34.6423C8.92259 33.3321 8.82641 31.101 10.0063 29.6591C10.6816 28.8343 11.2159 27.8929 11.581 26.8764C11.9461 25.8589 12.1445 24.7681 12.1449 23.6132C12.1445 22.4974 11.9597 21.4421 11.6191 20.4554C11.2784 19.4695 10.779 18.5526 10.1462 17.7402C8.88052 16.1151 7.08381 14.9223 5.01658 14.4757C3.29402 14.1024 2.16982 12.2499 2.50607 10.3378C2.84233 8.42567 4.51119 7.17778 6.23375 7.55104C11.4327 8.68149 15.7074 12.6098 17.5526 17.9271C18.1654 19.6977 18.5009 21.6214 18.5005 23.6127C18.5009 25.6761 18.1402 27.6669 17.4841 29.4901C16.8284 31.3141 15.8806 32.9726 14.7099 34.4029C14.0827 35.169 13.2214 35.5583 12.3569 35.5583C11.595 35.5587 10.8303 35.2562 10.2215 34.6423Z" fill="#652D92"/>
<path d="M5.0178 14.4761C4.42785 14.3484 3.81104 14.2804 3.1778 14.2808C1.42278 14.2808 0 12.7015 0 10.7533C0 8.80517 1.42278 7.22583 3.1778 7.22583C4.22064 7.22583 5.24383 7.33749 6.23336 7.55148C7.95592 7.92429 9.08052 9.77636 8.74467 11.6885C8.44889 13.3728 7.1191 14.5419 5.62899 14.5419C5.4274 14.5419 5.223 14.5206 5.0178 14.4761Z" fill="#CE93D8" fill-opacity="0.5"/>
<path d="M17.9558 14.86C17.0048 13.2224 17.4296 11.0393 18.9049 9.98363C21.346 8.23524 24.2858 7.22447 27.4175 7.22491C29.1725 7.22491 30.5953 8.80426 30.5953 10.7524C30.5953 12.7006 29.1725 14.2799 27.4175 14.2799C25.5174 14.2808 23.7844 14.8872 22.3488 15.9131C21.8162 16.2943 21.2198 16.4763 20.6298 16.4763C19.5858 16.4767 18.5634 15.9064 17.9558 14.86Z" fill="#A259FF"/>
<path d="M16.6357 35.258C15.2454 33.7854 14.1107 32.0223 13.322 30.0479C12.5329 28.0753 12.094 25.8891 12.0944 23.6118C12.094 20.7654 12.7818 18.0645 13.9773 15.7369C15.1732 13.4066 16.8705 11.4397 18.9045 9.98362C20.3794 8.92791 22.3464 9.3995 23.2975 11.0371C24.2485 12.6743 23.8237 14.8578 22.3484 15.9135C21.1529 16.7686 20.1738 17.9141 19.5001 19.2283C18.8263 20.5452 18.4516 22.0209 18.4496 23.6131C18.4504 24.8877 18.6909 26.084 19.1313 27.1882C19.5718 28.2911 20.2155 29.2987 21.0226 30.1534C22.2923 31.4982 22.34 33.7311 21.128 35.141C20.5036 35.8675 19.6668 36.2336 18.8284 36.2336C18.0404 36.2331 17.2509 35.9097 16.6357 35.258Z" fill="#81A2FF"/>
<path d="M23.1243 39.3483C20.6487 38.5759 18.4287 37.155 16.6368 35.2593C15.3664 33.9153 15.3183 31.682 16.529 30.2722C17.7398 28.8619 19.7513 28.8081 21.0218 30.1525C22.063 31.2549 23.3728 32.098 24.8432 32.5562C26.5329 33.083 27.5181 35.0306 27.0431 36.9067C26.6492 38.4634 25.3739 39.4813 23.9852 39.4813C23.701 39.4808 23.4117 39.4377 23.1243 39.3483Z" fill="#9C27B0" fill-opacity="0.5"/>
<path d="M23.1304 39.35C21.4399 38.8268 20.4515 36.8813 20.9228 35.0044C21.3942 33.1278 23.1468 32.0308 24.8377 32.5539C25.6549 32.8066 26.5182 32.9441 27.4179 32.9441C27.6007 32.9441 27.7862 32.9379 27.9738 32.9259C29.726 32.8124 31.229 34.2975 31.3312 36.2425C31.4334 38.1875 30.0955 39.8558 28.3433 39.9693C28.0415 39.9889 27.7325 40 27.4179 40C25.9334 39.9995 24.4926 39.7718 23.1304 39.35Z" fill="#652D92"/>
<path d="M18.0132 3.95013C18.0132 6.13185 16.418 7.90291 14.4534 7.90291C12.488 7.90291 10.8941 6.13185 10.8941 3.95013C10.8941 1.76842 12.488 0 14.4534 0C16.4184 0 18.0132 1.76842 18.0132 3.95013Z" fill="#0288D1" fill-opacity="0.5"/>
<path d="M19.1995 3.95013C19.1995 6.13185 17.6056 7.90291 15.6398 7.90291C13.6751 7.90291 12.0812 6.13185 12.0812 3.95013C12.0812 1.76842 13.6751 0 15.6398 0C17.6056 0 19.1995 1.76842 19.1995 3.95013Z" fill="#652D92"/>
<path d="M57.5864 16.3012C56.6613 15.0953 55.2055 14.4945 53.2146 14.4945C52.1139 14.4945 51.1141 14.7138 50.2152 15.1566C49.3207 15.6039 48.5752 16.2486 47.9834 17.1036C47.4835 16.2968 46.7773 15.6565 45.8653 15.1918C44.9576 14.7271 43.9359 14.4945 42.8046 14.4945C41.8574 14.4945 40.9892 14.6612 40.2087 15.0032C39.4326 15.3453 38.7616 15.8319 38.2091 16.4679V15.683C38.2091 15.1874 37.8057 14.7884 37.3145 14.7884H37.2312C36.74 14.7884 36.3366 15.1874 36.3366 15.683V28.6889C36.3366 29.1799 36.74 29.5835 37.2312 29.5835H37.3145C37.8057 29.5835 38.2091 29.1799 38.2091 28.6889V22.3876C38.2091 21.1597 38.253 20.2609 38.3406 19.6951C38.4502 19.1691 38.6169 18.7086 38.8405 18.314C39.2044 17.665 39.7219 17.1695 40.3798 16.8274C41.0375 16.4809 41.7917 16.3101 42.6468 16.3101C44.0719 16.3101 45.1287 16.7133 45.8171 17.5246C46.51 18.336 46.8564 19.5944 46.8564 21.2957V28.6889C46.8564 28.9345 46.9573 29.1581 47.1194 29.3203C47.2772 29.4826 47.5009 29.5835 47.7465 29.5835C48.242 29.5835 48.6411 29.1799 48.6411 28.6889V22.3876C48.6411 21.743 48.6542 21.1905 48.685 20.7388C48.7111 20.2872 48.7463 19.9407 48.7902 19.6951C48.8998 19.1778 49.0576 18.7173 49.2769 18.314C49.6583 17.6561 50.1758 17.1606 50.8205 16.8187C51.4649 16.4766 52.2017 16.3101 53.0261 16.3101C54.4863 16.3101 55.5431 16.7265 56.1877 17.5596C56.8322 18.3928 57.1569 19.7829 57.1569 21.7299V28.6889C57.1569 29.1799 57.5558 29.5835 58.0513 29.5835H58.0776C58.5687 29.5835 58.9721 29.1799 58.9721 28.6889V22.1201C58.9721 19.4453 58.5073 17.507 57.5864 16.3012Z" fill="#662D91"/>
<path d="M63.6555 10.2762C63.4844 10.1052 63.2475 9.99999 62.9845 9.99999C62.4627 9.99999 62.0375 10.4253 62.0375 10.9515V12.1048C62.0375 12.631 62.4627 13.0519 62.9845 13.0519C63.5107 13.0519 63.9317 12.631 63.9317 12.1048V10.9515C63.9317 10.6884 63.8265 10.4516 63.6555 10.2762ZM63.6555 15.0647C63.4844 14.8937 63.2475 14.7885 62.9845 14.7885C62.4627 14.7885 62.0375 15.2138 62.0375 15.7355V28.632C62.0375 28.895 62.1427 29.1317 62.3136 29.3073C62.4846 29.4783 62.7215 29.5836 62.9845 29.5836C63.5107 29.5836 63.9317 29.158 63.9317 28.632V15.7355C63.9317 15.4768 63.8265 15.2401 63.6555 15.0647Z" fill="#662D91"/>
<path d="M74.7802 23.0586C74.3373 22.3965 73.662 21.8703 72.7543 21.4845C72.5307 21.3878 72.0748 21.2343 71.3819 21.0283C70.6934 20.8222 70.1585 20.6029 69.777 20.3706C69.3954 20.1382 69.1235 19.8663 68.9569 19.5638C68.7903 19.2568 68.707 18.8884 68.707 18.4587C68.707 17.8404 68.9132 17.3231 69.3252 16.9064C69.7375 16.4898 70.2548 16.2794 70.8733 16.2794C71.2327 16.2794 71.5443 16.332 71.8073 16.4285C72.0703 16.5293 72.3115 16.6784 72.5221 16.8712C72.7324 17.0686 72.8903 17.3011 73.0043 17.5641C73.0307 17.63 73.057 17.7002 73.079 17.7704C73.1973 18.1868 73.5524 18.485 73.9821 18.485H74.1664C74.7802 18.485 75.2145 17.9062 75.0652 17.3142C75.0171 17.1301 74.96 16.9547 74.8854 16.788C74.675 16.2881 74.3812 15.854 74.0086 15.49C73.2629 14.7709 72.2588 14.4112 70.9959 14.4112C69.742 14.4112 68.6896 14.8498 67.8387 15.7268C67.0627 16.5206 66.668 17.5948 66.6941 18.7043C66.7119 19.6646 66.966 20.4364 67.4484 21.0239C67.9571 21.6379 69.0271 22.2298 70.6584 22.8043C71.6888 23.1814 72.3948 23.5849 72.7806 24.0145C73.1666 24.4442 73.3596 25.0143 73.3596 25.7204C73.3596 26.4307 73.114 27.0183 72.6228 27.483C72.1273 27.9522 71.5091 28.1848 70.7636 28.1848C69.9876 28.1848 69.3297 27.8822 68.8035 27.2771C68.5096 26.9394 68.2947 26.251 68.1632 25.7072C68.0536 25.2512 67.6546 24.931 67.1853 24.931H67.1547C66.5321 24.931 66.0497 25.4922 66.1592 26.1019C66.2164 26.413 66.2953 26.7068 66.4005 26.9876C66.6285 27.5971 66.9575 28.1365 67.3916 28.6145C68.2334 29.5178 69.3471 29.9736 70.7373 29.9736C72.1011 29.9736 73.2279 29.5484 74.1136 28.7066C74.9995 27.8645 75.4468 26.8166 75.4468 25.5624C75.4468 24.5583 75.2232 23.7252 74.7802 23.0586Z" fill="#662D91"/>
<path d="M88.637 16.2793C87.6767 15.091 86.1683 14.4946 84.1072 14.4946C83.1645 14.4946 82.3049 14.6657 81.5244 15.0121C80.7439 15.3542 80.0905 15.8583 79.5598 16.5249V10.934C79.5598 10.421 79.1433 9.99999 78.6258 9.99999C78.1085 9.99999 77.6918 10.421 77.6918 10.934V28.6494C77.6918 28.9039 77.7972 29.1406 77.9637 29.3073C78.1348 29.4783 78.3672 29.5836 78.6258 29.5836C79.1433 29.5836 79.5598 29.1626 79.5598 28.6494V22.3875C79.5598 21.1597 79.6039 20.2609 79.6958 19.6952C79.8012 19.1692 79.9677 18.7086 80.1914 18.3141C80.5598 17.6649 81.0729 17.1695 81.7305 16.8274C82.3927 16.481 83.1469 16.3101 83.9976 16.3101C85.506 16.3101 86.5848 16.7309 87.2338 17.5773C87.8828 18.428 88.2073 19.9145 88.2073 22.0369V28.6494C88.2073 28.9039 88.3125 29.1406 88.4835 29.3073C88.65 29.4783 88.8826 29.5836 89.1412 29.5836C89.6587 29.5836 90.0752 29.1626 90.0752 28.6494V22.0632C90.0752 19.4015 89.5973 17.4721 88.637 16.2793Z" fill="#662D91"/>
<path d="M94.298 21.1775C94.5259 19.6338 95.1355 18.4193 96.1308 17.5335C96.6309 17.073 97.1877 16.7353 97.7972 16.5118C98.4067 16.2881 99.0644 16.174 99.7747 16.174C101.305 16.174 102.559 16.5994 103.524 17.4458C104.493 18.2921 105.151 19.5373 105.502 21.1775H94.298ZM107.563 21.7037C107.405 19.6908 106.712 18.0157 105.484 16.6872C104.072 15.1525 102.261 14.385 100.055 14.385C97.7796 14.385 95.9117 15.1216 94.4602 16.5994C93.0087 18.0728 92.2808 19.932 92.2808 22.1727C92.2808 24.2556 92.9868 26.0535 94.3989 27.5665C95.8371 29.1056 97.8718 30 99.9766 30C101.599 30 103.028 29.5572 104.265 28.6759C105.107 28.0751 105.817 27.2989 106.396 26.3561C106.493 26.1983 106.537 26.0318 106.537 25.8694C106.537 25.3652 106.124 24.9004 105.563 24.9004C105.221 24.9004 104.901 25.0844 104.73 25.3782C104.269 26.1938 103.664 26.8384 102.915 27.3209C102.02 27.8953 101.024 28.1847 99.9196 28.1847C98.3541 28.1847 97.043 27.6848 95.9949 26.6893C95.4294 26.1633 95.004 25.5886 94.719 24.9705C94.4032 24.2952 94.2454 23.5672 94.2454 22.778H106.69C107.186 22.7252 107.567 22.3088 107.567 21.8043C107.567 21.7693 107.567 21.7387 107.563 21.7037Z" fill="#662D91"/>
</svg>
