<svg width="816" height="173" viewBox="0 0 816 173" fill="none" xmlns="http://www.w3.org/2000/svg">
<path d="M308.589 147.051L242.932 55.3571V147.051H220.857V21.2077H243.498L307.835 110.449V21.2077H329.909V147.051H308.589Z" fill="#506EF5"/>
<path d="M348.923 101.393C348.923 74.9789 368.167 53.6591 395.147 53.6591C422.504 53.6591 440.051 74.6015 440.051 103.28V107.996H369.676C371.186 121.769 381.563 133.09 398.732 133.09C407.599 133.09 418.165 129.505 424.58 123.09L433.636 136.108C424.58 144.787 411.184 149.315 396.656 149.315C369.299 149.315 348.923 130.259 348.923 101.393ZM395.147 69.8848C378.167 69.8848 370.431 82.9031 369.488 94.0346H420.806C420.429 83.2804 413.071 69.8848 395.147 69.8848Z" fill="#506EF5"/>
<path d="M535.535 147.051L514.404 80.2617L493.273 147.051H472.519L444.218 55.9231H464.783L484.028 122.147L505.725 55.9231H523.083L544.78 122.147L564.024 55.9231H584.589L556.289 147.051H535.535Z" fill="#506EF5"/>
<path d="M662.342 149.315C626.117 149.315 597.251 122.901 597.251 84.2238C597.251 45.5462 626.117 19.1323 662.342 19.1323C688.756 19.1323 704.416 32.3393 713.849 47.433L694.982 57.0552C688.945 46.6783 676.87 38.7541 662.342 38.7541C638.381 38.7541 619.891 57.8098 619.891 84.2238C619.891 110.638 638.381 129.693 662.342 129.693C676.87 129.693 688.945 121.958 694.982 111.392L713.849 121.015C704.227 136.108 688.756 149.315 662.342 149.315Z" fill="#506EF5"/>
<path d="M768.792 149.315C739.925 149.315 722.001 127.618 722.001 101.393C722.001 75.3562 739.925 53.6591 768.792 53.6591C798.036 53.6591 815.771 75.3562 815.771 101.393C815.771 127.618 798.036 149.315 768.792 149.315ZM768.792 131.769C785.772 131.769 795.206 117.618 795.206 101.393C795.206 85.3558 785.772 71.2055 768.792 71.2055C752 71.2055 742.566 85.3558 742.566 101.393C742.566 117.618 752 131.769 768.792 131.769Z" fill="#506EF5"/>
<path d="M171.69 86.5632C171.69 133.974 133.256 172.408 85.8452 172.408C38.4342 172.408 0 133.974 0 86.5632C0 39.1522 38.4342 0.718018 85.8452 0.718018C133.256 0.718018 171.69 39.1522 171.69 86.5632Z" fill="#506EF5"/>
<path d="M59.916 45.8594L123.908 109.851L108.723 125.036L44.7314 61.0439L59.916 45.8594Z" fill="white"/>
<path d="M70.2739 119.486C70.2739 127.972 63.3948 134.851 54.909 134.851V134.851C46.4232 134.851 39.5441 127.972 39.5441 119.486L39.5441 54.5344C39.5441 46.0485 46.4232 39.1694 54.909 39.1694V39.1694C63.3948 39.1694 70.2739 46.0485 70.2739 54.5344L70.2739 119.486Z" fill="#A3F5CB"/>
<path d="M39.5439 86.6608L70.2738 86.6608L70.2738 119.486C70.2738 127.972 63.3947 134.851 54.9089 134.851V134.851C46.4231 134.851 39.5439 127.972 39.5439 119.486L39.5439 86.6608Z" fill="#62C1F7"/>
<path d="M101.417 54.5343C101.417 46.0484 108.296 39.1693 116.781 39.1693V39.1693C125.267 39.1693 132.146 46.0484 132.146 54.5342L132.146 119.486C132.146 127.972 125.267 134.851 116.781 134.851V134.851C108.296 134.851 101.417 127.972 101.417 119.486L101.417 54.5343Z" fill="#E876B4"/>
<path d="M132.146 87.3596L101.417 87.3596L101.417 54.5345C101.417 46.0487 108.296 39.1696 116.782 39.1696V39.1696C125.267 39.1696 132.146 46.0487 132.146 54.5345L132.146 87.3596Z" fill="#F6CF79"/>
</svg>
