<?xml version="1.0" encoding="UTF-8" standalone="no"?>
<svg
   xmlns:dc="http://purl.org/dc/elements/1.1/"
   xmlns:cc="http://creativecommons.org/ns#"
   xmlns:rdf="http://www.w3.org/1999/02/22-rdf-syntax-ns#"
   xmlns:svg="http://www.w3.org/2000/svg"
   xmlns="http://www.w3.org/2000/svg"
   viewBox="0 0 793.70135 1122.52"
   height="1122.52"
   width="793.70135"
   xml:space="preserve"
   id="svg2"
   version="1.1"><metadata
     id="metadata8"><rdf:RDF><cc:Work
         rdf:about=""><dc:format>image/svg+xml</dc:format><dc:type
           rdf:resource="http://purl.org/dc/dcmitype/StillImage" /></cc:Work></rdf:RDF></metadata><defs
     id="defs6"><clipPath
       id="clipPath18"
       clipPathUnits="userSpaceOnUse"><path
         id="path16"
         d="M 0,841.89 H 595.276 V 0 H 0 Z" /></clipPath></defs><g
     transform="matrix(1.3333333,0,0,-1.3333333,0,1122.52)"
     id="g10"><g
       id="g12"><g
         clip-path="url(#clipPath18)"
         id="g14"><g
           transform="translate(316.7402,432.4562)"
           id="g20"><path
             id="path22"
             style="fill:#00285c;fill-opacity:1;fill-rule:nonzero;stroke:none"
             d="m 0,0 c 6.032,29.315 31.985,51.359 63.086,51.359 35.572,0 64.409,-28.837 64.409,-64.41 0,-33.912 -26.208,-61.703 -59.475,-64.222 l 9.447,-16.441 c 38.387,6.798 67.541,40.326 67.541,80.663 0,45.244 -36.678,81.922 -81.922,81.922 -33.565,0 -62.415,-20.186 -75.073,-49.081 z" /></g><g
           transform="translate(282.7231,456.1057)"
           id="g24"><path
             id="path26"
             style="fill:#7dc5e4;fill-opacity:1;fill-rule:nonzero;stroke:none"
             d="m 0,0 c -13.46,26.817 -41.211,45.221 -73.261,45.221 -45.244,0 -81.921,-36.677 -81.921,-81.921 0,-45.243 36.677,-81.921 81.921,-81.921 41.435,0 75.685,30.762 81.158,70.694 L 26.9,-78.943 c 13.444,-22.296 37.21,-37.666 64.681,-39.495 l -12.118,19.774 c -14.371,4.084 -26.816,12.947 -35.2,24.867 L 9.79,-17.046 Z m -8.852,-36.7 c 0,-35.572 -28.837,-64.409 -64.409,-64.409 -35.572,0 -64.409,28.837 -64.409,64.409 0,35.573 28.837,64.409 64.409,64.409 35.572,0 64.409,-28.836 64.409,-64.409" /></g><g
           transform="translate(145.6421,296.0764)"
           id="g28"><path
             id="path30"
             style="fill:#7dc5e4;fill-opacity:1;fill-rule:nonzero;stroke:none"
             d="M 0,0 -5.253,13.406 -10.561,0 Z m 2.681,-6.73 h -15.869 l -3.447,-8.81 h -7.332 l 15.048,38.304 h 7.332 L 13.461,-15.54 H 6.128 Z" /></g><g
           transform="translate(191.2222,318.84)"
           id="g32"><path
             id="path34"
             style="fill:#7dc5e4;fill-opacity:1;fill-rule:nonzero;stroke:none"
             d="M 0,0 14.336,-28.946 27.906,0 h 6.676 v -38.304 h -6.949 v 21.997 L 17.182,-38.304 H 11.491 L 0.383,-16.197 v -22.107 h -7.004 l 0,38.304 z" /></g><path
           id="path36"
           style="fill:#7dc5e4;fill-opacity:1;fill-rule:nonzero;stroke:none"
           d="m 262.412,280.536 h -7.113 v 38.304 h 7.113 z" /><g
           transform="translate(301.5889,312.1642)"
           id="g38"><path
             id="path40"
             style="fill:#7dc5e4;fill-opacity:1;fill-rule:nonzero;stroke:none"
             d="M 0,0 H -11.983 V 6.676 H 19.098 V 0 H 7.113 V -31.628 H 0 Z" /></g><g
           transform="translate(391.5547,299.6877)"
           id="g42"><path
             id="path44"
             style="fill:#00285c;fill-opacity:1;fill-rule:nonzero;stroke:none"
             d="m 0,0 c 0,3.94 -1.094,7.095 -3.283,9.467 -2.116,2.334 -5.034,3.502 -8.755,3.502 -3.685,0 -6.621,-1.168 -8.81,-3.502 C -23.001,7.095 -24.076,3.94 -24.076,0 c 0,-3.866 1.112,-6.985 3.338,-9.356 2.224,-2.409 5.125,-3.612 8.7,-3.612 3.575,0 6.475,1.203 8.7,3.612 C -1.113,-6.985 0,-3.866 0,0 m -12.038,-19.808 c -5.655,0 -10.324,1.842 -14.008,5.527 -3.611,3.684 -5.417,8.444 -5.417,14.281 0,5.837 1.806,10.597 5.417,14.282 3.684,3.684 8.353,5.527 14.008,5.527 5.726,0 10.396,-1.843 14.008,-5.527 C 5.582,10.597 7.388,5.837 7.388,0 c 0,-5.837 -1.806,-10.597 -5.418,-14.281 -3.612,-3.685 -8.282,-5.527 -14.008,-5.527" /></g><g
           transform="translate(433.0312,318.84)"
           id="g46"><path
             id="path48"
             style="fill:#00285c;fill-opacity:1;fill-rule:nonzero;stroke:none"
             d="M 0,0 14.337,-28.946 27.907,0 h 6.676 v -38.304 h -6.949 v 21.997 L 17.183,-38.304 H 11.491 L 0.384,-16.197 V -38.304 H -6.62 L -6.62,0 Z" /></g><g
           transform="translate(292.8667,265.3683)"
           id="g50"><path
             id="path52"
             style="fill:#00285c;fill-opacity:1;fill-rule:nonzero;stroke:none"
             d="m 0,0 h 15.663 c 3.135,0 5.715,-1.045 7.742,-3.136 2.005,-2.068 3.008,-4.756 3.008,-8.061 0,-3.327 -1.003,-6.027 -3.008,-8.095 -2.005,-2.069 -4.585,-3.104 -7.742,-3.104 H 6.225 l -10e-4,3.904 h 9.439 c 1.706,0 3.2,0.65 4.479,1.951 1.301,1.301 1.951,3.082 1.951,5.344 0,2.218 -0.639,3.988 -1.919,5.31 -1.28,1.323 -2.784,1.984 -4.511,1.984 L 0,-3.903 Z" /></g><g
           transform="translate(288.6147,262.1721)"
           id="g54"><path
             id="path56"
             style="fill:#7dc5e4;fill-opacity:1;fill-rule:nonzero;stroke:none"
             d="m 0,0 -6.352,-13.729 -8.382,16.925 h -3.871 v -22.395 h 4.095 v 12.926 l 6.494,-12.926 h 3.328 L 0,-9.091 Z" /></g><g
           transform="translate(290.1973,265.3683)"
           id="g58"><path
             id="path60"
             style="fill:#00285c;fill-opacity:1;fill-rule:nonzero;stroke:none"
             d="M 0,0 -0.014,-0.03 V -22.396 H 3.903 V 0 Z" /></g></g></g></g></svg>