<svg width="294" height="50" viewBox="0 0 294 50" fill="none" xmlns="http://www.w3.org/2000/svg">
<path d="M76.7528 13.2604C83.1318 13.2604 88.235 18.3781 88.235 24.7355C88.235 31.0929 83.1318 36.147 76.7528 36.147C70.3738 36.147 65.3025 31.0929 65.3025 24.7355C65.3025 18.3781 70.3738 13.2604 76.7528 13.2604ZM76.7528 32.0147C80.7716 32.0147 84.0886 28.7406 84.0886 24.7355C84.0886 20.7303 80.7716 17.3927 76.7528 17.3927C72.734 17.3927 69.4488 20.7303 69.4488 24.7355C69.4488 28.7406 72.734 32.0147 76.7528 32.0147Z" fill="#3B5B80"/>
<path d="M93.6889 32.7137L94.8371 30.743C95.0923 30.2979 95.6345 30.2979 95.9215 30.5204C96.081 30.6158 98.6645 32.4912 100.738 32.4912C102.396 32.4912 103.64 31.4105 103.64 30.0436C103.64 28.4225 102.269 27.31 99.5894 26.2292C96.5913 25.0213 93.5932 23.1141 93.5932 19.3632C93.5932 16.5342 95.6982 13.2601 100.77 13.2601C104.023 13.2601 106.511 14.9131 107.149 15.3899C107.467 15.5806 107.563 16.121 107.34 16.4388L106.128 18.2507C105.873 18.6321 105.394 18.8864 105.012 18.6321C104.756 18.4732 102.332 16.8838 100.578 16.8838C98.7602 16.8838 97.7714 18.0917 97.7714 19.1089C97.7714 20.6029 98.9515 21.6201 101.535 22.6691C104.629 23.9088 108.201 25.7524 108.201 29.8529C108.201 33.127 105.362 36.1467 100.865 36.1467C96.8465 36.1467 94.4862 34.2713 93.8483 33.6674C93.5613 33.3813 93.4018 33.2223 93.6889 32.7137Z" fill="#3B5B80"/>
<path d="M115.059 14.1809C115.059 13.863 115.346 13.5769 115.665 13.5769H118.631C118.982 13.5769 119.237 13.863 119.237 14.1809V22.6044H129.635V14.1809C129.635 13.863 129.89 13.5769 130.241 13.5769H133.175C133.494 13.5769 133.781 13.863 133.781 14.1809V35.2238C133.781 35.5417 133.494 35.8278 133.175 35.8278H130.241C129.89 35.8278 129.635 35.5417 129.635 35.2238V26.4506H119.237V35.2238C119.237 35.5417 118.982 35.8278 118.631 35.8278H115.665C115.346 35.8278 115.059 35.5417 115.059 35.2238V14.1809Z" fill="#3B5B80"/>
<path d="M142.169 14.1809C142.169 13.863 142.456 13.5769 142.775 13.5769H145.741C146.06 13.5769 146.347 13.863 146.347 14.1809V35.2238C146.347 35.5417 146.06 35.8278 145.741 35.8278H142.775C142.456 35.8278 142.169 35.5417 142.169 35.2238V14.1809Z" fill="#3B5B80"/>
<path d="M166.155 14.1633C166.155 13.8454 166.442 13.5593 166.761 13.5593H169.727C170.078 13.5593 170.333 13.8454 170.333 14.1633V22.5868H180.731V14.1633C180.731 13.8454 180.986 13.5593 181.337 13.5593H184.271C184.59 13.5593 184.877 13.8454 184.877 14.1633V35.2063C184.877 35.5241 184.59 35.8102 184.271 35.8102H181.337C180.986 35.8102 180.731 35.5241 180.731 35.2063V26.4331H170.333V35.2063C170.333 35.5241 170.078 35.8102 169.727 35.8102H166.761C166.442 35.8102 166.155 35.5241 166.155 35.2063V14.1633Z" fill="#3B5B80"/>
<path d="M193.297 14.1809C193.297 13.863 193.552 13.5769 193.903 13.5769H206.884C207.235 13.5769 207.49 13.863 207.49 14.1809V16.7874C207.49 17.1053 207.235 17.3913 206.884 17.3913H197.443V22.6044H205.321C205.64 22.6044 205.927 22.8905 205.927 23.2084V25.8467C205.927 26.1963 205.64 26.4506 205.321 26.4506H197.443V32.0134H206.884C207.235 32.0134 207.49 32.2994 207.49 32.6173V35.2238C207.49 35.5417 207.235 35.8278 206.884 35.8278H193.903C193.552 35.8278 193.297 35.5417 193.297 35.2238V14.1809Z" fill="#3B5B80"/>
<path d="M212.594 35.0024L222.513 13.6098C222.609 13.4191 222.768 13.2601 223.055 13.2601H223.374C223.693 13.2601 223.821 13.4191 223.916 13.6098L233.74 35.0024C233.931 35.4156 233.676 35.8289 233.198 35.8289H230.423C229.944 35.8289 229.721 35.6381 229.498 35.1931L227.935 31.7601H218.398L216.836 35.1931C216.708 35.511 216.421 35.8289 215.911 35.8289H213.136C212.657 35.8289 212.402 35.4156 212.594 35.0024ZM226.372 28.2318L223.183 21.2387H223.087L219.961 28.2318H226.372Z" fill="#3B5B80"/>
<path d="M239.417 14.1809C239.417 13.863 239.672 13.5769 240.023 13.5769H242.957C243.276 13.5769 243.563 13.863 243.563 14.1809V32.0134H251.697C252.047 32.0134 252.303 32.2994 252.303 32.6173V35.2238C252.303 35.5417 252.047 35.8278 251.697 35.8278H240.023C239.672 35.8278 239.417 35.5417 239.417 35.2238V14.1809Z" fill="#3B5B80"/>
<path d="M259.383 17.3913H254.503C254.153 17.3913 253.897 17.1053 253.897 16.7874V14.1809C253.897 13.863 254.153 13.5769 254.503 13.5769H268.442C268.792 13.5769 269.048 13.863 269.048 14.1809V16.7874C269.048 17.1053 268.792 17.3913 268.442 17.3913H263.562V35.2238C263.562 35.5417 263.275 35.8278 262.956 35.8278H259.989C259.67 35.8278 259.383 35.5417 259.383 35.2238V17.3913Z" fill="#3B5B80"/>
<path d="M274.853 14.1809C274.853 13.863 275.14 13.5769 275.459 13.5769H278.425C278.776 13.5769 279.031 13.863 279.031 14.1809V22.6044H289.429V14.1809C289.429 13.863 289.684 13.5769 290.035 13.5769H292.969C293.288 13.5769 293.575 13.863 293.575 14.1809V35.2238C293.575 35.5417 293.288 35.8278 292.969 35.8278H290.035C289.684 35.8278 289.429 35.5417 289.429 35.2238V26.4506H279.031V35.2238C279.031 35.5417 278.776 35.8278 278.425 35.8278H275.459C275.14 35.8278 274.853 35.5417 274.853 35.2238V14.1809Z" fill="#3B5B80"/>
<path d="M4.52421 30.7576C4.52421 16.7247 16.1232 10.2641 23.9059 10.204C27.1512 10.174 30.0359 10.6247 32.6201 11.7365C32.7403 11.7966 32.7704 11.6764 32.6802 11.5562C28.894 7.92027 24.6271 5.72668 18.9177 5.72668C9.09167 5.72668 -0.764441 13.7798 0.0468857 26.5507C0.527672 33.7325 4.7045 40.4935 9.06162 43.6787C9.24192 43.7989 9.33207 43.7388 9.18182 43.5585C6.17691 39.8024 4.52421 35.7458 4.52421 30.7576Z" fill="#FFB59D"/>
<path d="M30.7573 44.911C16.7243 44.911 10.2638 33.312 10.2037 25.5293C10.1736 22.284 10.6243 19.3993 11.7362 16.815C11.7963 16.6948 11.6761 16.6648 11.5559 16.7549C7.91992 20.5411 5.69629 24.8081 5.69629 30.4874C5.69629 40.3134 13.7495 50.1696 26.5203 49.3582C33.7021 48.8774 40.4631 44.7006 43.6483 40.3435C43.7685 40.1632 43.7084 40.073 43.5281 40.2233C39.772 43.2583 35.7154 44.911 30.7573 44.911Z" fill="#3B5B80"/>
<path d="M44.91 18.6475C44.91 32.6804 33.311 39.141 25.5283 39.2011C22.283 39.2311 19.3983 38.7804 16.8141 37.6685C16.6939 37.6084 16.6638 37.7286 16.754 37.8488C20.5401 41.4848 24.8071 43.7084 30.4864 43.7084C40.3125 43.7084 50.1686 35.6553 49.3572 22.8844C48.8765 15.7026 44.6996 8.94159 40.3425 5.75638C40.1622 5.63618 40.0721 5.69628 40.2223 5.87658C43.2272 9.60267 44.91 13.6593 44.91 18.6475Z" fill="#6AD3D1"/>
<path d="M18.6771 4.49415C32.7101 4.49415 39.1706 16.0931 39.2307 23.8758C39.2608 27.1211 38.81 30.0059 37.6982 32.5901C37.6381 32.7103 37.7583 32.7403 37.8785 32.6502C41.5144 28.864 43.7381 24.597 43.7381 18.9177C43.7381 9.09167 35.6849 -0.76444 22.914 0.0468857C15.7323 0.527672 8.97125 4.7045 5.78604 9.06162C5.66585 9.24192 5.72595 9.33206 5.90624 9.18182C9.63233 6.14686 13.689 4.49415 18.6771 4.49415Z" fill="#3B5B80"/>
</svg>
