<svg width="2929" height="680" viewBox="0 0 2929 680" fill="none" xmlns="http://www.w3.org/2000/svg">
<path d="M862 214.32H970.089C990.993 214.32 1008.33 218.374 1022.1 226.482C1036.12 234.345 1046.7 244.788 1053.83 257.81C1060.96 270.833 1064.53 284.838 1064.53 299.827C1064.53 315.061 1060.96 329.189 1053.83 342.211C1046.7 355.234 1036.12 365.799 1022.1 373.908C1008.33 381.771 990.993 385.702 970.089 385.702H906.268V472.314H862V214.32ZM906.268 349.951H966.4C983.369 349.951 996.527 345.406 1005.87 336.314C1015.46 327.223 1020.26 315.061 1020.26 299.827C1020.26 284.838 1015.46 272.921 1005.87 264.076C996.527 254.985 983.369 250.439 966.4 250.439H906.268V349.951Z" fill="#1D1D1B"/>
<path d="M1109.66 256.705C1101.79 256.705 1095.4 254.248 1090.48 249.333C1085.56 244.419 1083.1 238.031 1083.1 230.168C1083.1 222.305 1085.56 216.04 1090.48 211.371C1095.4 206.457 1101.79 204 1109.66 204C1117.53 204 1123.92 206.457 1128.84 211.371C1133.76 216.04 1136.22 222.305 1136.22 230.168C1136.22 238.031 1133.76 244.419 1128.84 249.333C1123.92 254.248 1117.53 256.705 1109.66 256.705ZM1129.95 472.314H1088.63V285.084H1129.95V472.314Z" fill="#1D1D1B"/>
<path d="M1274.91 281.398C1297.54 281.398 1314.88 288.033 1326.93 301.301C1338.98 314.569 1345 332.752 1345 355.848V472.314H1303.69V359.902C1303.69 345.651 1299.63 334.594 1291.51 326.732C1283.4 318.623 1272.82 314.569 1259.79 314.569C1246.51 314.569 1235.19 318.992 1225.85 327.837C1216.5 336.683 1211.83 350.566 1211.83 369.485V472.314H1170.51V285.084H1211.83V320.466C1217.98 306.706 1226.59 296.755 1237.65 290.612C1248.72 284.47 1261.14 281.398 1274.91 281.398Z" fill="#1D1D1B"/>
<path d="M1463.58 281.398C1484.97 281.398 1502.31 285.821 1515.59 294.667C1529.12 303.512 1538.83 316.043 1544.74 332.26C1550.64 348.477 1553.1 367.642 1552.11 389.756H1414.88C1417.34 426.367 1434.56 444.672 1466.53 444.672C1478.82 444.672 1488.79 441.846 1496.41 436.195C1504.28 430.544 1509.2 422.067 1511.17 410.764H1551.38C1547.44 431.404 1537.85 447.498 1522.6 459.046C1507.6 470.349 1488.79 476 1466.16 476C1437.14 476 1414.14 467.4 1397.17 450.201C1380.45 432.755 1372.09 409.044 1372.09 379.068C1372.09 359.411 1375.9 342.334 1383.52 327.837C1391.15 313.095 1401.85 301.669 1415.62 293.561C1429.39 285.453 1445.38 281.398 1463.58 281.398ZM1464.68 312.358C1450.91 312.358 1439.72 316.535 1431.11 324.889C1422.75 333.243 1417.59 345.774 1415.62 362.482H1511.17C1509.69 345.283 1505.02 332.629 1497.15 324.52C1489.28 316.412 1478.46 312.358 1464.68 312.358Z" fill="#1D1D1B"/>
<path d="M1801.19 412.976L1873.86 214.32H1948.75V472.314H1904.48V247.491L1823.32 472.314H1779.05L1697.9 247.491V472.314H1653.63V214.32H1728.52L1801.19 412.976Z" fill="#1D1D1B"/>
<path d="M2069.47 281.398C2090.87 281.398 2108.21 285.821 2121.49 294.667C2135.01 303.512 2144.73 316.043 2150.63 332.26C2156.53 348.477 2158.99 367.642 2158.01 389.756H2020.78C2023.24 426.367 2040.45 444.672 2072.42 444.672C2084.72 444.672 2094.68 441.846 2102.3 436.195C2110.17 430.544 2115.09 422.067 2117.06 410.764H2157.27C2153.33 431.404 2143.74 447.498 2128.5 459.046C2113.49 470.349 2094.68 476 2072.05 476C2043.03 476 2020.04 467.4 2003.07 450.201C1986.34 432.755 1977.98 409.044 1977.98 379.068C1977.98 359.411 1981.8 342.334 1989.42 327.837C1997.04 313.095 2007.74 301.669 2021.51 293.561C2035.29 285.453 2051.27 281.398 2069.47 281.398ZM2070.58 312.358C2056.81 312.358 2045.62 316.535 2037.01 324.889C2028.65 333.243 2023.48 345.774 2021.51 362.482H2117.06C2115.58 345.283 2110.91 332.629 2103.04 324.52C2095.17 316.412 2084.35 312.358 2070.58 312.358Z" fill="#1D1D1B"/>
<path d="M2324.88 317.886V214.32H2366.2V472.314H2324.88V439.881C2318.24 451.183 2309.39 460.029 2298.32 466.417C2287.5 472.806 2274.71 476 2259.96 476C2243.48 476 2228.97 472.069 2216.43 464.206C2203.88 456.098 2194.17 444.795 2187.28 430.298C2180.4 415.801 2176.95 398.724 2176.95 379.068C2176.95 359.165 2180.4 341.966 2187.28 327.469C2194.17 312.726 2203.88 301.424 2216.43 293.561C2228.97 285.453 2243.48 281.398 2259.96 281.398C2274.71 281.398 2287.5 284.593 2298.32 290.981C2309.39 297.369 2318.24 306.338 2324.88 317.886ZM2271.76 441.355C2288.49 441.355 2301.77 435.704 2311.6 424.401C2321.44 413.098 2326.36 397.987 2326.36 379.068C2326.36 359.902 2321.44 344.546 2311.6 332.997C2301.77 321.449 2288.49 315.675 2271.76 315.675C2255.04 315.675 2242 321.449 2232.66 332.997C2223.56 344.546 2219.01 359.902 2219.01 379.068C2219.01 397.987 2223.56 413.098 2232.66 424.401C2242 435.704 2255.04 441.355 2271.76 441.355Z" fill="#1D1D1B"/>
<path d="M2427.83 256.705C2419.96 256.705 2413.56 254.248 2408.64 249.333C2403.72 244.419 2401.26 238.031 2401.26 230.168C2401.26 222.305 2403.72 216.04 2408.64 211.371C2413.56 206.457 2419.96 204 2427.83 204C2435.7 204 2442.09 206.457 2447.01 211.371C2451.93 216.04 2454.39 222.305 2454.39 230.168C2454.39 238.031 2451.93 244.419 2447.01 249.333C2442.09 254.248 2435.7 256.705 2427.83 256.705ZM2448.12 472.314H2406.8V285.084H2448.12V472.314Z" fill="#1D1D1B"/>
<path d="M2624.06 396.759H2665.38C2663.41 421.575 2654.19 440.986 2637.71 454.992C2621.24 468.997 2599.72 476 2573.16 476C2554.46 476 2537.86 472.069 2523.35 464.206C2508.84 456.098 2497.41 444.795 2489.05 430.298C2480.93 415.556 2476.87 398.479 2476.87 379.068C2476.87 359.165 2480.93 341.966 2489.05 327.469C2497.41 312.726 2508.84 301.424 2523.35 293.561C2537.86 285.453 2554.46 281.398 2573.16 281.398C2599.47 281.398 2620.74 288.155 2636.98 301.669C2653.45 315.183 2662.68 333.98 2664.64 358.06H2623.33C2621.6 344.791 2616.32 334.472 2607.46 327.1C2598.86 319.483 2587.79 315.675 2574.26 315.675C2557.29 315.675 2543.89 321.326 2534.05 332.629C2524.21 343.931 2519.3 359.411 2519.3 379.068C2519.3 398.233 2524.21 413.467 2534.05 424.77C2543.89 435.827 2557.29 441.355 2574.26 441.355C2588.28 441.355 2599.59 437.424 2608.2 429.561C2617.06 421.698 2622.34 410.764 2624.06 396.759Z" fill="#1D1D1B"/>
<path d="M2770.53 281.398C2795.12 281.398 2814.31 287.541 2828.08 299.827C2842.1 312.112 2849.11 329.189 2849.11 351.057V472.314H2808.9V442.092C2802.75 453.395 2794.02 461.872 2782.7 467.523C2771.64 473.174 2758.73 476 2743.97 476C2725.03 476 2709.78 471.332 2698.23 461.995C2686.91 452.658 2681.26 440.618 2681.26 425.875C2681.26 406.956 2689.37 392.336 2705.6 382.016C2722.08 371.451 2747.04 366.168 2780.49 366.168H2808.9V349.214C2808.9 337.666 2805.33 328.943 2798.2 323.046C2791.31 317.149 2781.97 314.201 2770.16 314.201C2757.62 314.201 2747.66 317.149 2740.28 323.046C2733.15 328.697 2729.21 336.929 2728.48 347.74H2687.16C2687.9 325.872 2695.89 309.409 2711.14 298.352C2726.39 287.05 2746.18 281.398 2770.53 281.398ZM2756.51 446.146C2766.84 446.146 2775.94 444.058 2783.81 439.881C2791.68 435.704 2797.83 430.298 2802.26 423.664C2806.68 416.784 2808.9 409.29 2808.9 401.182V390.862H2776.06C2758.85 390.862 2745.69 393.319 2736.59 398.233C2727.49 403.147 2722.94 410.396 2722.94 419.978C2722.94 427.841 2726.02 434.229 2732.16 439.144C2738.56 443.812 2746.67 446.146 2756.51 446.146Z" fill="#1D1D1B"/>
<path d="M2929 472.314H2887.68V214.32H2929V472.314Z" fill="#1D1D1B"/>
<path d="M679.98 353.856H569.738C562.065 353.856 555.84 347.632 555.84 339.959C555.84 332.287 562.065 326.063 569.738 326.063H679.98C678.714 294.74 673.225 264.499 664.062 235.91H592.105L643.042 184.978C629.002 157.573 611.329 132.331 590.676 109.844L512.556 187.957C507.128 193.385 498.332 193.385 492.924 187.957C487.496 182.529 487.496 173.734 492.924 168.306L571.065 90.1728C548.677 69.4611 523.515 51.7081 496.169 37.5669L444.966 88.7649V16.2429C416.375 6.97875 386.152 1.40799 354.806 0.0612171V111.15C354.806 118.822 348.581 125.046 340.908 125.046C333.235 125.046 327.011 118.822 327.011 111.15V0C295.685 1.18353 265.461 6.57064 236.85 15.6512V88.8057L185.015 36.9752C157.608 51.0143 132.363 68.6856 109.874 89.3362L188.892 168.347C194.321 173.775 194.321 182.57 188.892 187.998C183.464 193.426 174.668 193.426 169.24 187.998L90.181 108.946C69.4673 131.331 51.7127 156.491 37.5703 183.835L89.6912 235.951H15.9179C6.75491 264.54 1.26527 294.781 0 326.104H112.037C119.711 326.104 125.935 332.327 125.935 340C125.935 347.673 119.711 353.896 112.037 353.896H0C1.26527 385.219 6.75491 415.46 15.9179 444.049H89.6912L37.5703 496.165C51.7127 523.509 69.4673 548.669 90.181 571.054L169.24 492.002C174.668 486.574 183.464 486.574 188.892 492.002C194.321 497.43 194.321 506.225 188.892 511.653L109.874 590.664C132.343 611.314 157.587 628.965 185.015 643.025L236.85 591.194V664.349C265.441 673.429 295.685 678.837 327.011 680V568.83C327.011 561.157 333.235 554.933 340.908 554.933C348.581 554.933 354.806 561.157 354.806 568.83V679.939C386.152 678.592 416.375 673.021 444.966 663.757V591.174L496.189 642.392C523.535 628.251 548.698 610.498 571.085 589.786L492.924 511.632C487.496 506.205 487.496 497.41 492.924 491.982C498.352 486.554 507.148 486.554 512.556 491.982L590.676 570.095C611.329 547.628 628.981 522.386 643.042 494.961L592.105 444.028H664.082C673.245 415.44 678.735 385.199 680 353.876L679.98 353.856ZM484.353 399.381C464.129 402.992 444.783 412.583 429.15 428.194C413.518 443.824 403.927 463.169 400.335 483.391C383.478 471.637 363.009 464.74 340.929 464.74C318.848 464.74 298.358 471.658 281.522 483.391C277.91 463.169 268.318 443.824 252.707 428.194C237.075 412.563 217.728 402.972 197.504 399.381C209.259 382.526 216.157 362.059 216.157 339.98C216.157 317.901 209.239 297.413 197.504 280.579C217.728 276.967 237.075 267.376 252.707 251.766C268.339 236.135 277.93 216.79 281.522 196.568C298.379 208.322 318.848 215.219 340.929 215.219C363.009 215.219 383.499 208.302 400.335 196.568C403.947 216.79 413.539 236.135 429.15 251.766C444.783 267.396 464.129 276.987 484.353 280.579C472.598 297.434 465.7 317.901 465.7 339.98C465.7 362.059 472.618 382.546 484.353 399.381Z" fill="#1D1D1B"/>
</svg>
