<?xml version="1.0" encoding="UTF-8"?>
<svg xmlns="http://www.w3.org/2000/svg" width="172" height="40" fill="none">
  <path fill="#7045F2" d="M.445 20.217V.852S10.885.84 15.793.864c3.291.016 6.167 1.168 8.622 3.332 2.29 2.016 3.712 4.542 4.229 7.533.448 2.594.178 5.128-.885 7.56a12.884 12.884 0 0 1-2.754 4.04c-1.959 1.935-4.305 3.168-7.036 3.674-1.155.213-2.318.205-3.485.2h-.307c-.505.009-.509.009-.509.519v11.95H.445V20.216ZM14.948 9.874c-2.237-.076-4.216 1.92-4.184 4.156a4.186 4.186 0 0 0 4.193 4.152c2.395.008 4.184-2.02 4.18-4.164 0-2.269-1.971-4.224-4.189-4.144Z"></path>
  <path fill="#0FE5BD" d="M68.96.823v38.88c-3.501.004-8.49.14-11.987.14 0 0-.012-6.179-.012-8.853v-.61c-.234.152-.279.325-.36.461a48.305 48.305 0 0 1-6.251 8.549c-.218.237-.122.321-.44.321-3.587-.008-7.488-.004-11.075-.008-.1 0-.206 0-.307-.004-.141-.004-.226-.072-.23-.217-.004-.136-.004-.273-.004-.41V30.453c-.198-.04-.21.084-.255.164a45.961 45.961 0 0 1-5.549 7.919c-.27.309-.57.59-.84.899-.186.217-.404.277-.682.273-.618-.012-1.236-.004-1.854-.004H16.735c-.032 0-.032 0 0 0 2.024-2.16 4.176-4.778 6.07-7.047 2.557-3.063 4.895-6.28 6.777-9.81 2.072-3.886 3.482-8.005 4.423-12.294.67-3.055 1.11-6.143 1.425-9.247l.049-.482h11.975c.02.02.016.004.016.506v11.307c0 3.907.053 12.323.053 12.323.222-.1.302-.277.407-.422 2.977-4.08 5.206-8.532 6.798-13.31A49.735 49.735 0 0 0 56.925 1.3c.056-.474.036-.478.06-.478H68.96c0 .077-.008.004 0 .482.004.237 0 .478 0 .715"></path>
  <path fill="#000" d="M86.162 11.604v3.991c0 .357.045.643.13.86.084.216.234.385.444.51.21.124.497.22.864.288.364.069.836.129 1.414.173v.743h-7.565v-.695c.436-.06.784-.12 1.038-.172.259-.053.457-.137.594-.245a.717.717 0 0 0 .266-.454c.04-.193.057-.454.057-.779V4.22c0-.325-.02-.582-.057-.779a.754.754 0 0 0-.266-.454c-.142-.108-.34-.188-.594-.245a17.107 17.107 0 0 0-1.038-.172v-.695h6.608c1.058 0 1.979.128 2.766.381.784.257 1.438.599 1.959 1.032.52.434.909.944 1.167 1.53.259.586.384 1.209.384 1.855 0 1.486-.525 2.678-1.575 3.574-1.05.9-2.61 1.345-4.681 1.345h-1.915v.012Zm0-8.89v8.007h1.309c1.385 0 2.39-.35 3.021-1.044.63-.695.945-1.67.945-2.923 0-.575-.08-1.105-.246-1.59a3.654 3.654 0 0 0-.735-1.277 3.39 3.39 0 0 0-1.236-.86c-.497-.208-1.083-.313-1.749-.313h-1.309ZM100.633 5.778c.731 0 1.381.12 1.951.362.569.24 1.042.57 1.425.987.384.418.675.912.877 1.486.202.574.303 1.2.303 1.88v.485h-7.682c-.032.883.048 1.666.246 2.357.194.687.473 1.269.828 1.739.36.473.792.835 1.297 1.092a3.578 3.578 0 0 0 1.648.381c.807 0 1.486-.164 2.031-.498.545-.333 1.034-.823 1.47-1.473l.303.16c-.279 1.084-.828 1.964-1.648 2.646-.816.683-1.858 1.02-3.118 1.02-.823 0-1.57-.152-2.241-.453a4.913 4.913 0 0 1-1.704-1.253 5.73 5.73 0 0 1-1.087-1.903 7.107 7.107 0 0 1-.384-2.377c0-.96.142-1.848.42-2.659a6.466 6.466 0 0 1 1.168-2.1 5.521 5.521 0 0 1 1.74-1.38 4.704 4.704 0 0 1 2.157-.499Zm-.21.787c-.404 0-.775.093-1.11.277a2.7 2.7 0 0 0-.865.767 4.07 4.07 0 0 0-.585 1.16c-.15.45-.247.936-.291 1.462h5.181c0-1.084-.181-1.963-.549-2.646-.359-.678-.957-1.02-1.781-1.02ZM114.711 2.273l-1.47-.787v-.35L116.953 0h.371v15.828c0 .217.008.39.024.522a.52.52 0 0 0 .117.301.6.6 0 0 0 .303.16c.142.041.336.073.586.105l.606.049v.602l-3.877.835h-.469l.093-2.16c-.481.666-1.022 1.192-1.624 1.578-.597.385-1.312.582-2.136.582-.715 0-1.361-.14-1.939-.418a4.263 4.263 0 0 1-1.482-1.184 5.392 5.392 0 0 1-.945-1.823 7.768 7.768 0 0 1-.327-2.309c0-1.068.149-2.024.444-2.867.295-.843.703-1.562 1.224-2.16a5.308 5.308 0 0 1 1.846-1.37 5.547 5.547 0 0 1 2.298-.473c.545 0 1.054.076 1.53.233.473.157.844.365 1.111.626V2.273h.004Zm-2.476 4.316c-.529 0-1.009.12-1.433.361-.429.241-.792.583-1.087 1.02-.295.442-.525.976-.691 1.602a8.344 8.344 0 0 0-.246 2.076c0 .711.077 1.373.234 1.984.154.61.384 1.14.691 1.59.303.45.678.799 1.119 1.056.444.257.945.381 1.506.381.497 0 .941-.08 1.329-.245.388-.16.739-.397 1.05-.706V9.765c0-.992-.226-1.767-.679-2.333-.448-.558-1.046-.843-1.793-.843ZM123.859 5.778v10.628c0 .418.109.695.327.836.218.14.622.224 1.216.257v.674h-5.695V17.5c.59-.032.998-.117 1.216-.257.218-.14.327-.418.327-.836V8.123l-1.47-.811v-.325l3.711-1.209h.368Zm-1.377-1.65c-.469 0-.861-.157-1.18-.474a1.556 1.556 0 0 1-.476-1.148c0-.45.157-.836.476-1.16a1.584 1.584 0 0 1 1.18-.487c.48 0 .884.161 1.203.486.319.325.477.71.477 1.16 0 .45-.162.832-.489 1.149a1.644 1.644 0 0 1-1.191.474ZM135.696 15.596c0 .477.061.835.186 1.068.125.233.343.349.654.349.186 0 .364-.028.525-.08.162-.052.323-.113.477-.173l.141.418c-.638.819-1.446 1.228-2.427 1.228-.594 0-1.07-.18-1.438-.546-.367-.365-.593-.871-.69-1.522-.42.51-.941.98-1.563 1.406-.622.425-1.329.638-2.125.638-.933 0-1.676-.265-2.229-.799-.553-.534-.828-1.249-.828-2.148 0-.478.077-.895.234-1.253.154-.357.376-.67.667-.94a4.312 4.312 0 0 1 1.037-.706c.404-.2.849-.386 1.329-.558l3.433-1.253V8.962c0-.742-.149-1.349-.444-1.823-.295-.47-.792-.706-1.494-.706-.606 0-1.05.189-1.329.57-.279.377-.42.863-.42 1.45 0 .216.012.421.036.614.024.193.073.421.154.686l-1.543.21a1.363 1.363 0 0 1-.723-.479c-.17-.224-.259-.514-.259-.87 0-.45.113-.852.34-1.21.226-.357.533-.654.92-.895.388-.24.849-.422 1.378-.546a7.549 7.549 0 0 1 1.728-.185c1.418 0 2.484.293 3.199.884.715.59 1.074 1.517 1.074 2.786v6.148Zm-4.854 1.228c.404 0 .775-.088 1.11-.265.336-.176.711-.43 1.131-.755V11.44l-2.451 1c-.546.216-.97.49-1.273.823-.302.333-.456.815-.456 1.45 0 .634.162 1.144.481 1.53.315.389.803.581 1.458.581ZM141.693 3.063v2.948h3.199v.951h-3.199v7.681c0 .791.146 1.358.432 1.707.287.35.744.522 1.366.522.359 0 .67-.052.933-.16.266-.11.553-.27.864-.486l.258.349c-.343.51-.791.943-1.353 1.3-.561.358-1.211.535-1.958.535-.905 0-1.648-.27-2.242-.811-.59-.542-.889-1.43-.889-2.67V6.966h-1.518V6.55a6.986 6.986 0 0 0 1.983-1.438c.606-.618 1.127-1.3 1.563-2.043h.561v-.005ZM150.191 16.314c0 .233.036.422.105.57a.694.694 0 0 0 .339.338c.154.076.364.136.618.172.259.04.582.073.97.105v.674h-6.188V17.5c.59-.032.998-.117 1.216-.257.218-.14.327-.418.327-.835V8.123l-1.47-.81v-.326l3.78-1.209h.396l-.093 3.341c.327-.634.61-1.164.852-1.59.243-.426.473-.767.699-1.02.226-.253.464-.438.711-.546.25-.108.553-.169.908-.185a1.354 1.354 0 0 1 .958.374V8.24h-.396c-.388 0-.743.012-1.062.036a3.55 3.55 0 0 0-.909.185c-.287.1-.578.252-.864.453-.287.201-.59.474-.901.811v6.59h.004ZM159.179 5.778v10.628c0 .418.109.695.327.836.218.14.622.224 1.216.257v.674h-5.695V17.5c.59-.032.998-.117 1.216-.257.218-.14.327-.418.327-.836V8.123l-1.47-.811v-.325l3.712-1.209h.367Zm-1.377-1.65c-.469 0-.86-.157-1.179-.474a1.557 1.557 0 0 1-.477-1.148c0-.45.158-.836.477-1.16.319-.326.71-.487 1.179-.487.481 0 .884.161 1.204.486.319.325.476.71.476 1.16 0 .45-.161.832-.489 1.149a1.644 1.644 0 0 1-1.191.474ZM163.919 11.347c0 .775.089 1.473.271 2.1a5.08 5.08 0 0 0 .759 1.614c.327.45.727.795 1.204 1.044.476.249 1.009.37 1.599.37.78 0 1.43-.161 1.951-.479.521-.317.985-.77 1.389-1.357l.351.16c-.371 1.177-.949 2.069-1.728 2.683-.78.61-1.729.916-2.847.916-.78 0-1.487-.141-2.125-.418a4.746 4.746 0 0 1-1.656-1.197c-.468-.518-.828-1.14-1.086-1.867-.259-.726-.384-1.53-.384-2.413 0-.96.142-1.847.42-2.67.279-.82.675-1.53 1.18-2.136a5.358 5.358 0 0 1 1.833-1.418c.715-.34 1.519-.51 2.403-.51 1.119 0 2.011.225 2.674.675.662.45.993 1.076.993 1.88 0 .324-.076.622-.234.895-.157.269-.351.47-.586.59h-1.538a5.702 5.702 0 0 0 .093-1.044c0-.602-.13-1.12-.384-1.554-.259-.434-.735-.65-1.434-.65-.484 0-.913.12-1.296.36-.38.242-.707.58-.982 1.009-.27.433-.476.94-.618 1.522a7.484 7.484 0 0 0-.222 1.895ZM89.476 23.24c1.026 0 1.963.12 2.803.362a8.85 8.85 0 0 1 2.286 1.007l.024 3.55h-.747c-.561-2.706-2.007-4.063-4.342-4.063-.824 0-1.55.188-2.18.57a4.877 4.877 0 0 0-1.576 1.541c-.42.647-.735 1.418-.945 2.297-.21.884-.315 1.827-.315 2.831 0 1.1.117 2.12.352 3.064.234.943.573 1.762 1.013 2.461.444.695.99 1.245 1.636 1.646.646.402 1.39.602 2.23.602 1.166 0 2.128-.365 2.883-1.092.755-.726 1.32-1.919 1.692-3.573h.816l-.327 4.224a8.515 8.515 0 0 1-2.322.988c-.849.224-1.81.337-2.884.337-1.228 0-2.343-.193-3.34-.582-.998-.386-1.846-.932-2.544-1.639a7.157 7.157 0 0 1-1.612-2.53c-.372-.983-.561-2.067-.561-3.26 0-1.329.202-2.533.605-3.61.404-1.075.962-1.995 1.668-2.762a7.16 7.16 0 0 1 2.52-1.763 8.249 8.249 0 0 1 3.167-.606ZM105.696 37.19c0 .481.061.834.186 1.067.125.233.343.35.654.35.186 0 .364-.029.525-.08.162-.053.323-.113.477-.173l.141.417c-.638.82-1.446 1.229-2.427 1.229-.594 0-1.07-.18-1.438-.546-.367-.365-.593-.871-.69-1.522-.42.51-.941.98-1.563 1.405-.622.426-1.329.639-2.125.639-.933 0-1.676-.27-2.23-.8-.553-.533-.827-1.248-.827-2.147 0-.478.077-.896.234-1.253.154-.358.376-.67.666-.94a4.316 4.316 0 0 1 1.038-.706c.404-.201.849-.386 1.33-.559l3.432-1.252v-1.763c0-.743-.149-1.35-.444-1.823-.295-.47-.792-.707-1.494-.707-.606 0-1.05.19-1.33.57-.278.378-.42.864-.42 1.45a4.166 4.166 0 0 0 .19 1.301l-1.542.209c-.311-.093-.553-.25-.723-.474-.17-.225-.259-.514-.259-.871 0-.45.114-.851.34-1.209a2.84 2.84 0 0 1 .92-.895c.388-.241.849-.422 1.378-.546a7.552 7.552 0 0 1 1.728-.185c1.418 0 2.484.293 3.199.883.715.587 1.074 1.518 1.074 2.787v6.143Zm-4.854 1.228c.404 0 .775-.088 1.11-.27.336-.176.711-.429 1.131-.754V33.03l-2.451 1c-.546.216-.97.49-1.273.822-.302.334-.456.816-.456 1.45s.162 1.144.48 1.53c.32.393.804.586 1.459.586ZM112.211 37.908c0 .233.036.422.105.57.068.149.181.261.339.337.153.077.363.137.618.173.258.04.581.072.969.105v.674h-6.187v-.675c.589-.032.997-.116 1.215-.256.218-.141.327-.418.327-.836v-8.283l-1.47-.811v-.325l3.781-1.205h.395l-.092 3.34c.327-.634.609-1.164.852-1.59.242-.425.472-.766.698-1.02.227-.252.465-.437.711-.545.251-.109.554-.169.909-.185.218 0 .408.04.573.116.166.077.291.161.384.257v2.088h-.396c-.387 0-.743.012-1.062.037a3.545 3.545 0 0 0-.909.184c-.286.1-.577.253-.864.454-.287.2-.59.474-.9.811v6.585h.004ZM122.598 27.372c.731 0 1.381.12 1.951.361.569.241 1.042.57 1.425.988.38.418.675.912.877 1.486.202.574.303 1.2.303 1.879v.486h-7.682c-.032.883.048 1.666.246 2.357.194.69.473 1.269.828 1.738.36.474.792.836 1.297 1.093a3.573 3.573 0 0 0 1.647.381c.808 0 1.487-.165 2.032-.498.545-.333 1.034-.823 1.47-1.474l.303.161c-.279 1.084-.828 1.964-1.648 2.646-.816.683-1.858 1.02-3.118 1.02-.824 0-1.571-.153-2.241-.454a4.913 4.913 0 0 1-1.705-1.252 5.728 5.728 0 0 1-1.086-1.904 7.094 7.094 0 0 1-.384-2.377c0-.96.142-1.843.42-2.658a6.47 6.47 0 0 1 1.168-2.1 5.515 5.515 0 0 1 1.74-1.381 4.706 4.706 0 0 1 2.157-.498Zm-.21.787c-.404 0-.776.092-1.111.277a2.698 2.698 0 0 0-.864.767c-.242.325-.436.71-.586 1.16-.149.45-.246.936-.29 1.462h5.181c0-1.084-.182-1.963-.549-2.646-.359-.679-.957-1.02-1.781-1.02Z"></path>
</svg>
