<svg width="118" height="24" viewBox="0 0 118 24" fill="none" xmlns="http://www.w3.org/2000/svg">
<path d="M18.5313 20.7985C18.7942 21.1927 18.9256 21.5761 18.9256 21.9485C18.9256 22.4523 18.7175 22.8685 18.3013 23.197C17.907 23.5256 17.4361 23.6899 16.8885 23.6899C16.538 23.6899 16.1985 23.6132 15.8699 23.4599C15.5633 23.2846 15.3004 23.0327 15.0813 22.7042L10.7114 16.0671C10.2733 15.3661 9.80233 14.8733 9.29852 14.5885C8.81662 14.3037 8.18139 14.1614 7.39282 14.1614H4.17284V21.5213C4.17284 22.1785 3.98665 22.7042 3.61427 23.0984C3.24189 23.4708 2.73808 23.657 2.10285 23.657C1.46761 23.657 0.952852 23.4708 0.558568 23.0984C0.186189 22.7042 0 22.1785 0 21.5213V2.29999C0 1.66475 0.175237 1.1719 0.525712 0.821425C0.898091 0.47095 1.4019 0.295713 2.03713 0.295713H10.2514C12.8799 0.295713 14.8733 0.887138 16.2313 2.06999C17.6113 3.23094 18.3013 4.91759 18.3013 7.12996C18.3013 8.92614 17.7866 10.4047 16.7571 11.5657C15.7494 12.7047 14.3147 13.4385 12.4528 13.7671C13.088 13.9204 13.6466 14.1942 14.1285 14.5885C14.6104 14.9828 15.0813 15.5304 15.5413 16.2313L18.5313 20.7985ZM9.65995 10.9085C11.259 10.9085 12.4309 10.6128 13.1756 10.0214C13.9204 9.40805 14.2928 8.4771 14.2928 7.22853C14.2928 5.95806 13.9204 5.03807 13.1756 4.46855C12.4309 3.87712 11.259 3.58141 9.65995 3.58141H4.13998V10.9085H9.65995Z" fill="#3B4E51"/>
<path d="M42.2705 20.9299C42.4019 21.2147 42.4676 21.4994 42.4676 21.7842C42.4676 22.288 42.2595 22.7151 41.8434 23.0656C41.4491 23.4161 40.9891 23.5913 40.4634 23.5913C40.1129 23.5913 39.7843 23.5037 39.4776 23.3284C39.171 23.1313 38.93 22.8356 38.7548 22.4413L36.7834 18.0385H25.2177L23.2463 22.4413C23.0711 22.8356 22.8301 23.1313 22.5235 23.3284C22.2168 23.5037 21.8773 23.5913 21.5049 23.5913C21.0011 23.5913 20.5411 23.4161 20.1249 23.0656C19.7087 22.7151 19.5006 22.288 19.5006 21.7842C19.5006 21.4994 19.5663 21.2147 19.6978 20.9299L28.7663 1.44571C28.9634 1.00761 29.2591 0.679044 29.6534 0.459998C30.0696 0.219047 30.5077 0.0985716 30.9677 0.0985716C31.4277 0.0985716 31.8548 0.219047 32.2491 0.459998C32.6653 0.679044 32.972 1.00761 33.1691 1.44571L42.2705 20.9299ZM26.6634 14.7528H35.3377L31.0006 4.99426L26.6634 14.7528Z" fill="#3B4E51"/>
<path d="M46.3838 23.4599C45.7485 23.4599 45.2447 23.2846 44.8724 22.9342C44.5219 22.5837 44.3466 22.0908 44.3466 21.4556V2.29999C44.3466 1.66475 44.5219 1.1719 44.8724 0.821425C45.2447 0.47095 45.7485 0.295713 46.3838 0.295713H52.8895C56.679 0.295713 59.6142 1.31428 61.6951 3.35141C63.798 5.36664 64.8494 8.20329 64.8494 11.8614C64.8494 15.5413 63.798 18.3999 61.6951 20.437C59.6142 22.4523 56.679 23.4599 52.8895 23.4599H46.3838ZM52.6266 20.0099C57.9494 20.0099 60.6108 17.2937 60.6108 11.8614C60.6108 6.45092 57.9494 3.7457 52.6266 3.7457H48.5852V20.0099H52.6266Z" fill="#3B4E51"/>
<path d="M69.9063 23.657C69.271 23.657 68.7563 23.4599 68.362 23.0656C67.9896 22.6713 67.8034 22.1566 67.8034 21.5213V2.23427C67.8034 1.59904 67.9896 1.09523 68.362 0.722854C68.7563 0.32857 69.271 0.131428 69.9063 0.131428C70.5634 0.131428 71.0782 0.32857 71.4506 0.722854C71.8448 1.09523 72.042 1.59904 72.042 2.23427V21.5213C72.042 22.1566 71.8448 22.6713 71.4506 23.0656C71.0782 23.4599 70.5634 23.657 69.9063 23.657Z" fill="#3B4E51"/>
<path d="M83.7473 23.7556C82.0606 23.7556 80.4616 23.5365 78.9502 23.0984C77.4606 22.6385 76.2449 22.0251 75.303 21.2585C74.7992 20.8861 74.5473 20.3604 74.5473 19.6813C74.5473 19.2213 74.6788 18.827 74.9416 18.4985C75.2264 18.148 75.5549 17.9728 75.9273 17.9728C76.3216 17.9728 76.7707 18.1261 77.2745 18.4328C78.2164 19.1118 79.2021 19.6047 80.2316 19.9113C81.2611 20.218 82.4001 20.3713 83.6487 20.3713C85.2477 20.3713 86.4744 20.0975 87.3287 19.5499C88.183 18.9804 88.6101 18.159 88.6101 17.0856C88.6101 16.2533 88.2049 15.618 87.3944 15.1799C86.6058 14.7199 85.2806 14.2818 83.4187 13.8656C81.4911 13.4495 79.9249 12.9676 78.7202 12.4199C77.5154 11.8723 76.6064 11.1714 75.993 10.3171C75.3797 9.46281 75.073 8.37853 75.073 7.06425C75.073 5.70616 75.4564 4.49045 76.223 3.41713C76.9897 2.3438 78.0521 1.51142 79.4102 0.919995C80.7902 0.306665 82.3344 0 84.043 0C87.1754 0 89.7273 0.832377 91.6987 2.49713C91.9834 2.73808 92.1806 2.97903 92.2901 3.21998C92.4215 3.43903 92.4872 3.72379 92.4872 4.07426C92.4872 4.53426 92.3449 4.9395 92.0601 5.28997C91.7972 5.61854 91.4796 5.78283 91.1072 5.78283C90.8882 5.78283 90.6801 5.74997 90.483 5.68426C90.3077 5.61854 90.0668 5.49807 89.7601 5.32283C88.862 4.66569 87.9858 4.18379 87.1315 3.87712C86.2992 3.54855 85.2697 3.38427 84.043 3.38427C82.5535 3.38427 81.3706 3.69093 80.4944 4.30426C79.6402 4.89569 79.213 5.72807 79.213 6.80139C79.213 7.69948 79.5964 8.38948 80.363 8.87138C81.1297 9.35328 82.433 9.80233 84.273 10.2185C86.2225 10.6566 87.7996 11.1495 89.0044 11.6971C90.2311 12.2228 91.162 12.9018 91.7972 13.7342C92.4544 14.5666 92.783 15.6071 92.783 16.8556C92.783 18.2137 92.3996 19.4185 91.633 20.4699C90.8882 21.4994 89.8258 22.3099 88.4458 22.9013C87.0877 23.4708 85.5216 23.7556 83.7473 23.7556Z" fill="#3B4E51"/>
<path d="M115.93 0.131348C116.566 0.131348 117.069 0.32849 117.442 0.722773C117.814 1.09515 118 1.59896 118 2.23419V21.5212C118 22.1565 117.803 22.6712 117.409 23.0655C117.037 23.4598 116.544 23.6569 115.93 23.6569C115.295 23.6569 114.791 23.4598 114.419 23.0655C114.047 22.6712 113.86 22.1565 113.86 21.5212V13.4056H101.999V21.5212C101.999 22.1565 101.802 22.6712 101.408 23.0655C101.035 23.4598 100.531 23.6569 99.8962 23.6569C99.2828 23.6569 98.779 23.4598 98.3847 23.0655C98.0124 22.6712 97.8262 22.1565 97.8262 21.5212V2.23419C97.8262 1.59896 98.0124 1.09515 98.3847 0.722773C98.7571 0.32849 99.2609 0.131348 99.8962 0.131348C100.531 0.131348 101.035 0.32849 101.408 0.722773C101.802 1.09515 101.999 1.59896 101.999 2.23419V9.98844H113.86V2.23419C113.86 1.59896 114.047 1.09515 114.419 0.722773C114.791 0.32849 115.295 0.131348 115.93 0.131348Z" fill="url(#paint0_linear_1854_94359)"/>
<path d="M80.9678 9.94214H97.9437V13.4002H80.9678V9.94214Z" fill="url(#paint1_linear_1854_94359)"/>
<circle cx="100.695" cy="3.06166" r="0.392962" fill="#728B74"/>
<circle cx="100.695" cy="4.63344" r="0.392962" fill="#728B74"/>
<circle cx="100.695" cy="6.20546" r="0.392962" fill="#728B74"/>
<circle cx="100.695" cy="7.77724" r="0.392962" fill="#728B74"/>
<circle cx="92.0494" cy="10.7638" r="0.392962" transform="rotate(90 92.0494 10.7638)" fill="#728B74"/>
<circle cx="92.0494" cy="12.3353" r="0.392962" transform="rotate(90 92.0494 12.3353)" fill="#728B74"/>
<circle cx="93.6207" cy="10.7638" r="0.392962" transform="rotate(90 93.6207 10.7638)" fill="#728B74"/>
<circle cx="93.6207" cy="12.3353" r="0.392962" transform="rotate(90 93.6207 12.3353)" fill="#728B74"/>
<circle cx="95.193" cy="10.7638" r="0.392962" transform="rotate(90 95.193 10.7638)" fill="#728B74"/>
<circle cx="95.193" cy="12.3353" r="0.392962" transform="rotate(90 95.193 12.3353)" fill="#728B74"/>
<circle cx="96.7643" cy="10.7638" r="0.392962" transform="rotate(90 96.7643 10.7638)" fill="#728B74"/>
<circle cx="96.7643" cy="12.3353" r="0.392962" transform="rotate(90 96.7643 12.3353)" fill="#728B74"/>
<circle cx="99.1225" cy="3.06166" r="0.392962" fill="#728B74"/>
<circle cx="99.1225" cy="4.63344" r="0.392962" fill="#728B74"/>
<circle cx="99.1225" cy="6.20546" r="0.392962" fill="#728B74"/>
<circle cx="99.1225" cy="7.77724" r="0.392962" fill="#728B74"/>
<circle cx="100.695" cy="14.5363" r="0.392962" fill="#728B74"/>
<circle cx="100.695" cy="16.108" r="0.392962" fill="#728B74"/>
<circle cx="100.695" cy="17.6798" r="0.392962" fill="#728B74"/>
<circle cx="100.695" cy="19.2516" r="0.392962" fill="#728B74"/>
<circle cx="99.1225" cy="14.5363" r="0.392962" fill="#728B74"/>
<circle cx="99.1225" cy="16.108" r="0.392962" fill="#728B74"/>
<circle cx="99.1225" cy="17.6798" r="0.392962" fill="#728B74"/>
<circle cx="99.1225" cy="19.2516" r="0.392962" fill="#728B74"/>
<defs>
<linearGradient id="paint0_linear_1854_94359" x1="116.413" y1="10.6492" x2="101.717" y2="10.6492" gradientUnits="userSpaceOnUse">
<stop stop-color="#3B4E51"/>
<stop offset="1" stop-color="#8AA88E"/>
</linearGradient>
<linearGradient id="paint1_linear_1854_94359" x1="97.9437" y1="11.8284" x2="88.5063" y2="11.8284" gradientUnits="userSpaceOnUse">
<stop stop-color="#8AA88E"/>
<stop offset="1" stop-color="#527459" stop-opacity="0.1"/>
</linearGradient>
</defs>
</svg>
