<svg width="444" height="184" viewBox="0 0 444 184" fill="none" xmlns="http://www.w3.org/2000/svg">
<path d="M304.391 84.2532H368V97.2107H304.391V84.2532Z" fill="url(#paint0_linear_1_2)"/>
<path d="M70.438 124.933C71.423 126.41 71.915 127.846 71.915 129.242C71.915 131.129 71.135 132.689 69.576 133.92C68.098 135.151 66.334 135.767 64.282 135.767C62.969 135.767 61.696 135.48 60.465 134.905C59.316 134.248 58.331 133.305 57.51 132.073L41.136 107.204C39.494 104.577 37.73 102.731 35.842 101.664C34.036 100.597 31.656 100.063 28.701 100.063H16.6358V127.641C16.6358 130.104 15.9381 132.073 14.5428 133.551C13.1475 134.946 11.2597 135.644 8.8794 135.644C6.4992 135.644 4.5704 134.946 3.093 133.551C1.6977 132.073 1 130.104 1 127.641V55.6181C1 53.2379 1.6566 51.3912 2.9699 50.0779C4.3652 48.7647 6.253 48.108 8.6332 48.108H39.412C49.262 48.108 56.731 50.3241 61.819 54.7563C66.99 59.1064 69.576 65.4264 69.576 73.7162C69.576 80.4466 67.647 85.9868 63.789 90.3369C60.014 94.605 54.638 97.3546 47.661 98.5857C50.041 99.1603 52.134 100.186 53.94 101.664C55.746 103.141 57.51 105.193 59.234 107.819L70.438 124.933ZM37.196 87.8746C43.188 87.8746 47.579 86.7666 50.37 84.5505C53.16 82.2523 54.556 78.764 54.556 74.0856C54.556 69.3251 53.16 65.8778 50.37 63.7438C47.579 61.5277 43.188 60.4197 37.196 60.4197H16.5127V87.8746H37.196Z" fill="#293334"/>
<path d="M159.389 125.425C159.882 126.492 160.128 127.559 160.128 128.626C160.128 130.514 159.348 132.114 157.789 133.428C156.311 134.741 154.588 135.398 152.618 135.398C151.305 135.398 150.073 135.069 148.924 134.413C147.775 133.674 146.872 132.566 146.216 131.088L138.829 114.591H95.492L88.105 131.088C87.448 132.566 86.545 133.674 85.396 134.413C84.247 135.069 82.975 135.398 81.58 135.398C79.692 135.398 77.968 134.741 76.409 133.428C74.849 132.114 74.07 130.514 74.07 128.626C74.07 127.559 74.316 126.492 74.808 125.425L108.788 52.4171C109.527 50.7756 110.635 49.5444 112.112 48.7236C113.672 47.8208 115.314 47.3694 117.037 47.3694C118.761 47.3694 120.361 47.8208 121.839 48.7236C123.398 49.5444 124.547 50.7756 125.286 52.4171L159.389 125.425ZM100.909 102.279H133.412L117.16 65.7137L100.909 102.279Z" fill="#293334"/>
<path d="M174.802 134.905C172.422 134.905 170.534 134.248 169.138 132.935C167.825 131.622 167.169 129.775 167.169 127.395V55.6181C167.169 53.2379 167.825 51.3912 169.138 50.0779C170.534 48.7647 172.422 48.108 174.802 48.108H199.179C213.378 48.108 224.377 51.9247 232.174 59.5579C240.053 67.109 243.993 77.738 243.993 91.445C243.993 105.234 240.053 115.945 232.174 123.578C224.377 131.129 213.378 134.905 199.179 134.905H174.802ZM198.194 121.978C218.139 121.978 228.111 111.8 228.111 91.445C228.111 71.1718 218.139 61.0353 198.194 61.0353H183.051V121.978H198.194Z" fill="#293334"/>
<path d="M262.942 135.644C260.561 135.644 258.632 134.905 257.155 133.428C255.76 131.95 255.062 130.021 255.062 127.641V55.3719C255.062 52.9917 255.76 51.1039 257.155 49.7086C258.632 48.2312 260.561 47.4925 262.942 47.4925C265.404 47.4925 267.333 48.2312 268.728 49.7086C270.205 51.1039 270.944 52.9917 270.944 55.3719V127.641C270.944 130.021 270.205 131.95 268.728 133.428C267.333 134.905 265.404 135.644 262.942 135.644Z" fill="#293334"/>
<path d="M314.804 136.013C308.484 136.013 302.493 135.192 296.829 133.551C291.248 131.827 286.693 129.529 283.163 126.656C281.276 125.261 280.332 123.291 280.332 120.747C280.332 119.023 280.824 117.546 281.809 116.314C282.876 115.001 284.107 114.345 285.503 114.345C286.98 114.345 288.663 114.919 290.55 116.068C294.08 118.613 297.773 120.459 301.631 121.608C305.488 122.758 309.757 123.332 314.435 123.332C320.427 123.332 325.023 122.306 328.224 120.254C331.425 118.12 333.025 115.042 333.025 111.02C333.025 107.902 331.507 105.521 328.47 103.88C325.515 102.156 320.55 100.515 313.573 98.9551C306.35 97.3956 300.482 95.5899 295.967 93.538C291.453 91.486 288.047 88.8595 285.749 85.6585C283.451 82.4575 282.302 78.3947 282.302 73.47C282.302 68.3812 283.738 63.8259 286.611 59.8041C289.483 55.7823 293.464 52.6634 298.553 50.4473C303.724 48.1491 309.51 47 315.912 47C327.649 47 337.211 50.1189 344.598 56.3568C345.665 57.2597 346.404 58.1625 346.815 59.0654C347.307 59.8862 347.553 60.9532 347.553 62.2664C347.553 63.9901 347.02 65.5085 345.953 66.8217C344.968 68.0529 343.778 68.6685 342.382 68.6685C341.562 68.6685 340.782 68.5454 340.043 68.2991C339.386 68.0529 338.484 67.6015 337.335 66.9448C333.969 64.4825 330.686 62.6768 327.485 61.5277C324.366 60.2966 320.509 59.681 315.912 59.681C310.331 59.681 305.899 60.8301 302.616 63.1282C299.415 65.3443 297.814 68.4633 297.814 72.4851C297.814 75.8503 299.251 78.4357 302.123 80.2414C304.996 82.0471 309.88 83.7297 316.774 85.2892C324.079 86.9307 329.989 88.7775 334.503 90.8294C339.099 92.7993 342.588 95.3437 344.968 98.4626C347.43 101.582 348.661 105.48 348.661 110.159C348.661 115.247 347.225 119.762 344.352 123.701C341.562 127.559 337.581 130.596 332.41 132.812C327.321 134.946 321.453 136.013 314.804 136.013Z" fill="#293334"/>
<path d="M435.394 47.4924C437.774 47.4924 439.662 48.2311 441.057 49.7085C442.452 51.1038 443.15 52.9916 443.15 55.3719V127.641C443.15 130.021 442.411 131.95 440.934 133.428C439.539 134.905 437.692 135.644 435.394 135.644C433.013 135.644 431.126 134.905 429.73 133.428C428.335 131.95 427.637 130.021 427.637 127.641V97.2314H383.192V127.641C383.192 130.021 382.454 131.95 380.976 133.428C379.581 134.905 377.693 135.644 375.313 135.644C373.015 135.644 371.127 134.905 369.65 133.428C368.254 131.95 367.557 130.021 367.557 127.641V55.3719C367.557 52.9916 368.254 51.1038 369.65 49.7085C371.045 48.2311 372.933 47.4924 375.313 47.4924C377.693 47.4924 379.581 48.2311 380.976 49.7085C382.454 51.1038 383.192 52.9916 383.192 55.3719V84.4273H427.637V55.3719C427.637 52.9916 428.335 51.1038 429.73 49.7085C431.126 48.2311 433.013 47.4924 435.394 47.4924Z" fill="url(#paint1_linear_1_2)"/>
<path d="M378.306 60.1049C379.119 60.1049 379.778 59.4457 379.778 58.6325C379.778 57.8193 379.119 57.1601 378.306 57.1601C377.493 57.1601 376.834 57.8193 376.834 58.6325C376.834 59.4457 377.493 60.1049 378.306 60.1049Z" fill="#883654"/>
<path d="M378.306 65.9948C379.119 65.9948 379.778 65.3356 379.778 64.5224C379.778 63.7092 379.119 63.05 378.306 63.05C377.493 63.05 376.834 63.7092 376.834 64.5224C376.834 65.3356 377.493 65.9948 378.306 65.9948Z" fill="#883654"/>
<path d="M378.306 71.8845C379.119 71.8845 379.778 71.2253 379.778 70.4121C379.778 69.5989 379.119 68.9397 378.306 68.9397C377.493 68.9397 376.834 69.5989 376.834 70.4121C376.834 71.2253 377.493 71.8845 378.306 71.8845Z" fill="#883654"/>
<path d="M378.306 77.7744C379.119 77.7744 379.778 77.1152 379.778 76.302C379.778 75.4888 379.119 74.8296 378.306 74.8296C377.493 74.8296 376.834 75.4888 376.834 76.302C376.834 77.1152 377.493 77.7744 378.306 77.7744Z" fill="#883654"/>
<path d="M344.441 87.4923C344.441 88.3055 345.1 88.9647 345.913 88.9647C346.726 88.9647 347.385 88.3055 347.385 87.4923C347.385 86.6791 346.726 86.0199 345.913 86.0199C345.1 86.0199 344.441 86.6791 344.441 87.4923Z" fill="#883654"/>
<path d="M344.441 93.3821C344.441 94.1953 345.1 94.8545 345.913 94.8545C346.726 94.8545 347.385 94.1953 347.385 93.3821C347.385 92.5689 346.726 91.9097 345.913 91.9097C345.1 91.9097 344.441 92.5689 344.441 93.3821Z" fill="#883654"/>
<path d="M350.331 87.4923C350.331 88.3055 350.99 88.9648 351.803 88.9648C352.616 88.9648 353.275 88.3055 353.275 87.4923C353.275 86.6791 352.616 86.0199 351.803 86.0199C350.99 86.0199 350.331 86.6791 350.331 87.4923Z" fill="#883654"/>
<path d="M350.331 93.3821C350.331 94.1953 350.99 94.8546 351.803 94.8546C352.616 94.8546 353.275 94.1953 353.275 93.3821C353.275 92.5689 352.616 91.9097 351.803 91.9097C350.99 91.9097 350.331 92.5689 350.331 93.3821Z" fill="#883654"/>
<path d="M356.221 87.4923C356.221 88.3055 356.88 88.9647 357.693 88.9647C358.506 88.9647 359.165 88.3055 359.165 87.4923C359.165 86.6791 358.506 86.0199 357.693 86.0199C356.88 86.0199 356.221 86.6791 356.221 87.4923Z" fill="#883654"/>
<path d="M356.221 93.3821C356.221 94.1953 356.88 94.8545 357.693 94.8545C358.506 94.8545 359.165 94.1953 359.165 93.3821C359.165 92.5689 358.506 91.9097 357.693 91.9097C356.88 91.9097 356.221 92.5689 356.221 93.3821Z" fill="#883654"/>
<path d="M362.11 87.4923C362.11 88.3055 362.769 88.9647 363.582 88.9647C364.395 88.9647 365.054 88.3055 365.054 87.4923C365.054 86.6791 364.395 86.0199 363.582 86.0199C362.769 86.0199 362.11 86.6791 362.11 87.4923Z" fill="#883654"/>
<path d="M362.11 93.3821C362.11 94.1953 362.769 94.8545 363.582 94.8545C364.395 94.8545 365.054 94.1953 365.054 93.3821C365.054 92.5689 364.395 91.9097 363.582 91.9097C362.769 91.9097 362.11 92.5689 362.11 93.3821Z" fill="#883654"/>
<path d="M372.417 60.1049C373.23 60.1049 373.889 59.4457 373.889 58.6325C373.889 57.8193 373.23 57.1601 372.417 57.1601C371.604 57.1601 370.945 57.8193 370.945 58.6325C370.945 59.4457 371.604 60.1049 372.417 60.1049Z" fill="#883654"/>
<path d="M372.417 65.9948C373.23 65.9948 373.889 65.3356 373.889 64.5224C373.889 63.7092 373.23 63.05 372.417 63.05C371.604 63.05 370.945 63.7092 370.945 64.5224C370.945 65.3356 371.604 65.9948 372.417 65.9948Z" fill="#883654"/>
<path d="M372.417 71.8845C373.23 71.8845 373.889 71.2253 373.889 70.4121C373.889 69.5989 373.23 68.9397 372.417 68.9397C371.604 68.9397 370.945 69.5989 370.945 70.4121C370.945 71.2253 371.604 71.8845 372.417 71.8845Z" fill="#883654"/>
<path d="M372.417 77.7744C373.23 77.7744 373.889 77.1152 373.889 76.302C373.889 75.4888 373.23 74.8296 372.417 74.8296C371.604 74.8296 370.945 75.4888 370.945 76.302C370.945 77.1152 371.604 77.7744 372.417 77.7744Z" fill="#883654"/>
<path d="M378.306 103.1C379.119 103.1 379.778 102.441 379.778 101.628C379.778 100.815 379.119 100.156 378.306 100.156C377.493 100.156 376.834 100.815 376.834 101.628C376.834 102.441 377.493 103.1 378.306 103.1Z" fill="#883654"/>
<path d="M378.306 108.99C379.119 108.99 379.778 108.331 379.778 107.518C379.778 106.705 379.119 106.046 378.306 106.046C377.493 106.046 376.834 106.705 376.834 107.518C376.834 108.331 377.493 108.99 378.306 108.99Z" fill="#883654"/>
<path d="M378.306 114.879C379.119 114.879 379.778 114.22 379.778 113.407C379.778 112.594 379.119 111.935 378.306 111.935C377.493 111.935 376.834 112.594 376.834 113.407C376.834 114.22 377.493 114.879 378.306 114.879Z" fill="#883654"/>
<path d="M378.306 120.769C379.119 120.769 379.778 120.11 379.778 119.297C379.778 118.484 379.119 117.825 378.306 117.825C377.493 117.825 376.834 118.484 376.834 119.297C376.834 120.11 377.493 120.769 378.306 120.769Z" fill="#883654"/>
<path d="M372.417 103.1C373.23 103.1 373.889 102.441 373.889 101.628C373.889 100.815 373.23 100.156 372.417 100.156C371.604 100.156 370.945 100.815 370.945 101.628C370.945 102.441 371.604 103.1 372.417 103.1Z" fill="#883654"/>
<path d="M372.417 108.99C373.23 108.99 373.889 108.331 373.889 107.518C373.889 106.705 373.23 106.046 372.417 106.046C371.604 106.046 370.945 106.705 370.945 107.518C370.945 108.331 371.604 108.99 372.417 108.99Z" fill="#883654"/>
<path d="M372.417 114.879C373.23 114.879 373.889 114.22 373.889 113.407C373.889 112.594 373.23 111.935 372.417 111.935C371.604 111.935 370.945 112.594 370.945 113.407C370.945 114.22 371.604 114.879 372.417 114.879Z" fill="#883654"/>
<path d="M372.417 120.769C373.23 120.769 373.889 120.11 373.889 119.297C373.889 118.484 373.23 117.825 372.417 117.825C371.604 117.825 370.945 118.484 370.945 119.297C370.945 120.11 371.604 120.769 372.417 120.769Z" fill="#883654"/>
<defs>
<linearGradient id="paint0_linear_1_2" x1="368" y1="91.3209" x2="332.638" y2="91.3209" gradientUnits="userSpaceOnUse">
<stop stop-color="#BA4A72"/>
<stop offset="1" stop-color="#BA4A72" stop-opacity="0.1"/>
</linearGradient>
<linearGradient id="paint1_linear_1_2" x1="437.204" y1="86.9034" x2="382.134" y2="86.9034" gradientUnits="userSpaceOnUse">
<stop stop-color="#293334"/>
<stop offset="1" stop-color="#BA4A72"/>
</linearGradient>
</defs>
</svg>
