<svg width="464" height="128" viewBox="0 0 464 128" fill="none" xmlns="http://www.w3.org/2000/svg">
<path d="M74.7643 63.3155C90.7731 58.6952 99.9696 46.8877 99.9696 31.6578C99.9696 11.4652 86.5155 0 61.1399 0C52.7949 0 42.2359 0.855614 29.6332 0.855614H10.7293C3.57643 0.855614 0 2.73796 0 7.01604C0 12.6631 7.66377 11.9786 10.0481 15.4011C11.4105 17.2834 12.6026 33.0267 12.6026 62.4599C12.6026 93.6043 12.0917 109.861 9.19652 112.086C5.96071 114.652 0 114.31 0 119.615C0 125.262 7.15285 126.46 23.1616 126.46C39.1704 126.46 46.4935 125.433 46.4935 119.615C46.4935 114.139 40.5328 114.824 37.297 112.257C34.5721 110.203 34.4018 99.2513 34.4018 78.8877V75.4652C34.4018 69.8182 34.5721 68.2781 37.8079 68.2781H45.642C65.7381 68.2781 69.8255 78.3743 76.2971 100.449C81.5766 118.588 83.9609 127.487 101.332 127.487C112.913 127.487 119.385 123.38 119.385 118.246C119.385 115.85 117.171 113.797 115.127 113.797C112.743 113.797 110.869 114.139 109.507 114.139C102.865 114.139 102.865 106.096 98.7775 91.893C94.0089 75.8075 88.8997 67.2513 74.7643 64.6845V63.3155ZM34.7424 56.4706V40.2139C34.7424 27.0374 34.9127 18.6524 35.9346 15.0588C37.1267 11.4652 40.3625 10.7808 48.5372 10.7808C66.7599 10.7808 76.1268 18.6524 76.1268 33.8824C76.1268 50.139 66.9303 56.984 47.6857 56.984C43.5983 56.984 39.3407 56.8128 34.7424 56.4706Z" fill="#21201C"/>
<path d="M139.568 71.5294C135.481 71.5294 134.289 71.016 134.289 68.2781C134.289 57.4973 141.953 48.4278 153.363 48.4278C165.114 48.4278 173.119 57.4973 173.119 68.2781C173.119 71.016 171.756 71.5294 167.669 71.5294H139.568ZM141.271 81.4545H182.826C190.49 81.4545 192.534 80.77 192.534 72.7273C192.534 50.9947 178.568 37.3048 156.258 37.3048C129.861 37.3048 111.127 56.8128 111.127 84.0214C111.127 108.834 129.52 128 154.215 128C165.966 128 174.651 124.064 184.018 116.364C189.298 112.086 192.023 107.807 192.023 105.241C192.023 102.845 190.149 100.963 187.595 100.963C184.189 100.963 181.634 104.214 177.717 106.952C172.097 110.888 166.306 112.77 160.005 112.77C144.678 112.77 133.437 100.107 133.437 86.246C133.437 81.6257 134.119 81.4545 140.079 81.4545H141.271Z" fill="#21201C"/>
<path d="M229.168 47.9144V43.2941C228.998 39.3583 227.635 37.6471 224.399 37.6471C221.675 37.6471 213.84 39.016 203.111 43.2941C198.513 45.1765 196.129 46.8877 196.129 49.6257C196.129 53.9037 201.067 53.5615 205.325 55.7861C208.391 57.4973 208.561 66.0535 208.561 82.6524V87.7861C208.561 92.9198 208.731 97.0267 208.731 100.62C208.731 108.15 208.05 112.428 204.644 114.31C201.749 115.85 198.172 115.85 198.172 119.786C198.172 125.604 204.644 126.46 219.801 126.46C233.426 126.46 239.727 125.262 239.727 120.299C239.727 115.679 235.98 116.193 232.063 113.968C228.998 112.257 228.657 107.465 228.657 98.9091C228.657 82.3102 228.998 70.8449 232.234 64.3422C235.299 58.0107 241.26 54.0749 247.391 54.0749C263.229 54.0749 263.57 68.2781 263.57 95.8289C263.57 106.438 263.229 112.257 260.164 113.968C256.247 116.193 252.5 115.679 252.5 120.299C252.5 125.433 258.972 126.289 272.937 126.289C287.753 126.289 294.225 125.604 294.225 119.786C294.225 115.85 290.648 115.85 287.753 114.31C283.836 112.257 283.666 107.123 283.666 97.7112V92.9198C283.666 67.0802 287.924 54.0749 302.4 54.0749C317.897 54.0749 318.579 67.5936 318.579 93.7754C318.579 105.583 317.897 112.086 314.662 113.797C310.574 116.021 306.998 115.85 306.998 120.299C306.998 125.433 313.64 126.289 327.775 126.289C342.762 126.289 349.404 125.604 349.404 119.786C349.404 115.85 345.657 115.85 342.762 114.31C339.356 112.428 338.845 109.348 338.845 103.701C338.845 101.305 339.015 98.3957 339.015 94.9733C338.845 75.9786 339.697 62.2888 335.098 52.7059C330.67 43.4652 320.622 37.3048 306.487 37.3048C298.312 37.3048 293.203 40.7273 287.583 45.5187C283.836 48.5989 282.303 52.1925 280.26 52.1925C278.386 52.1925 276.002 46.3743 269.701 42.0963C265.443 39.1872 260.504 37.3048 254.714 37.3048C243.474 37.3048 238.535 42.4385 232.744 47.7433L230.701 49.6257C230.53 49.7968 230.19 49.9679 229.849 49.9679C229.168 49.9679 229.168 49.6257 229.168 48.9412V47.9144Z" fill="#21201C"/>
<path d="M392.426 128C417.632 128 437.046 107.807 437.046 80.7701C437.046 55.4439 419.505 37.3048 394.47 37.3048C368.583 37.3048 349.169 56.8128 349.169 82.9947C349.169 109.005 367.562 128 392.426 128ZM371.138 75.2941C371.138 59.0374 379.313 49.4545 390.212 49.4545C403.326 49.4545 415.247 65.8823 415.247 89.6684C415.247 105.925 407.073 115.85 396.173 115.85C382.889 115.85 371.138 99.4225 371.138 75.2941Z" fill="#21201C"/>
<path d="M437.092 114.481C437.092 122.011 443.052 128 450.546 128C458.039 128 464 122.011 464 114.481C464 106.781 458.039 100.963 450.546 100.963C443.052 100.963 437.092 106.781 437.092 114.481Z" fill="#21201C"/>
</svg>
