<svg width="85" height="30" viewBox="0 0 85 30" fill="none" xmlns="http://www.w3.org/2000/svg">
<path d="M11.8282 10.2627V14.8875H10.4273C8.81944 14.8875 7.55352 15.3161 6.63558 16.1704C5.71464 17.0246 5.25567 18.2685 5.25567 19.902V29.5024H0V10.2597H4.82369V12.5526C6.17061 10.8681 7.9375 10.0259 10.1154 10.0259C10.7633 10.0289 11.3333 10.1068 11.8282 10.2627Z" fill="#303030"/>
<path d="M15.3291 3.26707C15.3291 2.3349 15.6531 1.5556 16.301 0.935161C16.949 0.31172 17.7409 0 18.6739 0C19.6068 0 20.4048 0.31172 21.0677 0.932163C21.7277 1.5556 22.0607 2.33191 22.0607 3.26407C22.0607 4.17226 21.7307 4.93657 21.0677 5.55701C20.4078 6.17746 19.6098 6.48918 18.6739 6.48918C17.7409 6.48918 16.949 6.17746 16.301 5.55701C15.6531 4.93657 15.3291 4.17226 15.3291 3.26707ZM16.0671 29.5055V10.2628H21.3197V29.5055H16.0671Z" fill="#303030"/>
<path d="M40.6172 10.2627H46.1819L36.6515 29.97H34.8996L25.3662 10.2627H30.8919L35.7545 21.1459L40.6172 10.2627Z" fill="#303030"/>
<path d="M67.1476 21.6527H53.6485C53.9604 22.8727 54.5874 23.8108 55.5353 24.4702C56.4833 25.1326 57.6562 25.4623 59.0571 25.4623C60.95 25.4623 62.7379 24.8149 64.4268 23.5201L66.6046 27.0959C64.2948 29.0141 61.7269 29.9733 58.9011 29.9733C55.9433 30.0242 53.4355 29.0591 51.3716 27.0779C49.3107 25.0967 48.3028 22.7048 48.3568 19.9053C48.3058 17.1328 49.2777 14.7499 51.2756 12.7537C53.2735 10.7575 55.6583 9.7864 58.4331 9.83735C61.079 9.83735 63.2508 10.6916 64.9487 12.4031C66.6466 14.1145 67.4986 16.2396 67.4986 18.7783C67.4986 19.7105 67.3816 20.6666 67.1476 21.6527ZM53.6485 17.9601H62.4019C62.3779 16.7941 61.9669 15.856 61.178 15.1426C60.389 14.4292 59.4081 14.0726 58.2412 14.0726C57.1252 14.0726 56.1533 14.4232 55.3223 15.1216C54.4914 15.823 53.9334 16.7671 53.6485 17.9601Z" fill="#303030"/>
<path d="M84.3815 10.2627V14.8875H82.9806C81.3727 14.8875 80.1067 15.3161 79.1858 16.1704C78.2649 17.0246 77.8059 18.2685 77.8059 19.902V29.5024H72.5532V10.2597H77.3769V12.5526C78.7238 10.8681 80.4877 10.0259 82.6686 10.0259C83.3195 10.0289 83.8895 10.1068 84.3815 10.2627Z" fill="#303030"/>
</svg>
