<?xml version="1.0" encoding="UTF-8"?>
<svg width="121px" height="24px" viewBox="0 0 121 24" version="1.1" xmlns="http://www.w3.org/2000/svg" xmlns:xlink="http://www.w3.org/1999/xlink">
    <!-- Generator: Sketch 60.1 (88133) - https://sketch.com -->
    <title>primary_logo</title>
    <desc>Created with Sketch.</desc>
    <g id="Withdrawal-Notification" stroke="none" stroke-width="1" fill="none" fill-rule="evenodd">
        <g id="Proposed" transform="translate(-686.000000, -246.000000)">
            <g id="Header" transform="translate(686.000000, 246.000000)">
                <g id="primary_logo">
                    <path d="M10.1473171,0.0854634146 C13.217561,0.0854634146 16.2878049,1.07590244 18.6152195,2.70995122 L15.6439024,7.16663415 C13.8611707,5.77990244 11.5835122,5.08682927 10.0483902,5.08682927 C8.41434146,5.08682927 7.62204878,5.68126829 7.62204878,6.81980488 C7.62204878,8.15678049 9.20692683,8.75092683 11.831122,9.49404878 C15.9409756,10.5834146 19.1596098,12.4650732 19.1596098,16.5749268 C19.1596098,20.784 15.9907317,23.8044878 9.99892683,23.8044878 C6.43346341,23.8044878 3.21482927,22.764878 0.0954146341,20.4869268 L3.11590244,15.9807805 C5.19570732,17.7137561 7.77073171,18.7536585 9.99892683,18.7536585 C11.7813659,18.7536585 12.8710244,17.9613659 12.8710244,16.7727805 C12.8710244,15.3371707 11.3853659,14.8914146 8.90956098,14.1980488 C5.09678049,13.1581463 1.33346341,11.7222439 1.33346341,6.9684878 C1.33346341,2.95756098 4.99756098,0.0854634146 10.1473171,0.0854634146" id="Fill-1" fill="#000000"></path>
                    <path d="M40.0562927,11.9698537 C40.0562927,8.50360976 37.6794146,5.92858537 34.4113171,5.92858537 C31.1429268,5.92858537 28.7660488,8.50360976 28.7660488,11.9698537 C28.7660488,15.3863415 31.1429268,17.9613659 34.4113171,17.9613659 C37.6794146,17.9613659 40.0562927,15.3863415 40.0562927,11.9698537 Z M39.8086829,20.2393171 C38.2240976,22.4180488 35.8472195,23.8044878 32.9754146,23.8044878 C26.8349268,23.8044878 22.3290732,18.6547317 22.3290732,11.9698537 C22.3290732,5.2355122 26.8349268,0.0854634146 32.9754146,0.0854634146 C35.8966829,0.0854634146 38.2240976,1.47219512 39.8086829,3.65092683 L40.5515122,0.58097561 L46.344878,0.58097561 L46.344878,23.3092683 L40.5515122,23.3092683 L39.8086829,20.2393171 L39.8086829,20.2393171 Z" id="Fill-2" fill="#000000"></path>
                    <path d="M76.6934634,9.24614634 L76.6934634,23.3092683 L70.1075122,23.3092683 L70.1075122,0.58097561 L75.9011707,0.58097561 L76.6934634,3.84878049 C78.4759024,1.47219512 81.0509268,0.0854634146 83.6754146,0.0854634146 C89.1222439,0.0854634146 92.3903415,3.89853659 92.3903415,10.038439 L92.3903415,23.3092683 L85.8049756,23.3092683 L85.8049756,10.9794146 C85.8049756,7.90917073 84.3190244,6.07726829 81.6453659,6.07726829 C79.7634146,6.07726829 78.030439,7.11687805 76.6934634,9.24614634" id="Fill-3" fill="#000000"></path>
                    <path d="M114.673171,11.9698537 C114.673171,8.50360976 112.296293,5.92858537 109.028195,5.92858537 C105.760098,5.92858537 103.38322,8.50360976 103.38322,11.9698537 C103.38322,15.3863415 105.760098,17.9613659 109.028195,17.9613659 C112.296293,17.9613659 114.673171,15.3863415 114.673171,11.9698537 Z M114.425854,20.2393171 C112.841268,22.4180488 110.464098,23.8044878 107.592293,23.8044878 C101.451805,23.8044878 96.9459512,18.6547317 96.9459512,11.9698537 C96.9459512,5.2355122 101.451805,0.0854634146 107.592293,0.0854634146 C110.513854,0.0854634146 112.841268,1.47219512 114.425854,3.65092683 L115.16839,0.58097561 L120.962049,0.58097561 L120.962049,23.3092683 L115.16839,23.3092683 L114.425854,20.2393171 L114.425854,20.2393171 Z" id="Fill-4" fill="#000000"></path>
                    <path d="M64.0100488,11.9452683 C64.0100488,15.1393171 61.4206829,17.7289756 58.2260488,17.7289756 C55.032,17.7289756 52.4423415,15.1393171 52.4423415,11.9452683 C52.4423415,8.75092683 55.032,6.16126829 58.2260488,6.16126829 C61.4206829,6.16126829 64.0100488,8.75092683 64.0100488,11.9452683" id="Fill-5" fill="#FBCC45"></path>
                </g>
            </g>
        </g>
    </g>
</svg>