<svg width="208" height="20" viewBox="0 0 208 20" fill="none" xmlns="http://www.w3.org/2000/svg">
<g clip-path="url(#clip0_581_5903)">
<path d="M22.3219 15.7274L31.5114 6.5379L28.7798 3.8063L19.5903 12.9958V0H15.7274V12.9958L7.8706 5.13899L6.53791 3.8063L3.80631 6.5379L12.9958 15.7274H0V19.5903H12.1405C13.5173 19.5903 14.821 19.2757 15.9812 18.7128C16.58 18.4245 17.1401 18.0699 17.6533 17.6588C17.6533 17.6588 17.6533 17.6574 17.6561 17.6561L17.6354 17.6354C17.6437 17.6423 17.6506 17.6492 17.6588 17.6547C17.6671 17.6492 17.674 17.6423 17.6823 17.6354L17.6616 17.6561C17.6616 17.6561 17.663 17.6588 17.6644 17.6588C18.1776 18.0699 18.7377 18.4245 19.3364 18.7128C20.4967 19.2757 21.8004 19.5903 23.1772 19.5903H35.3177V15.7274H22.3219Z" fill="#FFC220"/>
<path d="M43.311 15.0404H46.7545C47.0015 16.6587 48.1465 17.3691 49.8158 17.3691C51.4851 17.3691 52.3846 16.74 52.3846 15.7509C52.3846 14.4085 50.6091 14.2706 48.6956 13.8884C46.1834 13.3945 43.7235 12.7089 43.7235 9.64203C43.7235 6.57518 46.2358 5.14868 49.4351 5.14868C53.1241 5.14868 55.1756 6.98492 55.4473 9.80482H52.0853C51.9197 8.29692 50.965 7.74922 49.3799 7.74922C47.9313 7.74922 46.9766 8.29692 46.9766 9.31092C46.9766 10.5153 48.8336 10.6257 50.8285 11.0382C53.1793 11.5321 55.7757 12.1901 55.7757 15.475C55.7757 18.2976 53.3724 19.9973 49.8738 19.9973C45.804 19.9973 43.5345 18.0258 43.3166 15.0376L43.3138 15.0404H43.311Z" fill="#2B2F21"/>
<path d="M65.3625 19.5901V17.947H65.2811C64.3264 19.2328 63.231 19.9751 61.2637 19.9751C58.1486 19.9751 56.4006 17.976 56.4006 14.9064V5.53345H60.0897V14.2732C60.0897 15.9163 60.8264 16.8199 62.4115 16.8199C64.1595 16.8199 65.2273 15.5052 65.2273 13.6413V5.53345H68.9453V19.5874H65.3652L65.3625 19.5901Z" fill="#2B2F21"/>
<path d="M70.4188 5.53359H73.9989V7.42364H74.0803C74.8446 6.13785 76.2118 5.14868 78.1501 5.14868C79.9256 5.14868 81.3466 6.13509 82.0295 7.61402H82.0819C83.0394 6.07991 84.5142 5.14868 86.2897 5.14868C89.242 5.14868 90.9086 7.06632 90.9086 10.1332V19.5834H87.1906V10.7623C87.1906 9.17296 86.3973 8.3521 85.0301 8.3521C83.4726 8.3521 82.5179 9.55649 82.5179 11.4217V19.5862H78.7999V10.765C78.7999 9.17572 78.0066 8.35486 76.6394 8.35486C75.1357 8.35486 74.1272 9.55925 74.1272 11.4245V19.5889H70.4092V5.53359H70.4147H70.4188Z" fill="#2B2F21"/>
<path d="M92.2812 5.53359H95.8613V7.42364H95.9427C96.707 6.13785 98.0742 5.14868 100.013 5.14868C101.788 5.14868 103.209 6.13509 103.892 7.61402H103.946C104.903 6.07991 106.378 5.14868 108.154 5.14868C111.106 5.14868 112.772 7.06632 112.772 10.1332V19.5834H109.056V10.7623C109.056 9.17296 108.262 8.3521 106.895 8.3521C105.338 8.3521 104.383 9.55649 104.383 11.4217V19.5862H100.666V10.765C100.666 9.17572 99.8732 8.35486 98.506 8.35486C97.0022 8.35486 95.9937 9.55925 95.9937 11.4245V19.5889H92.2771V5.53359H92.2826H92.2812Z" fill="#2B2F21"/>
<path d="M113.461 12.5488C113.461 8.38376 116.276 5.15137 120.374 5.15137C124.884 5.15137 127.288 8.60312 127.288 13.6166H117.122C117.397 15.7825 118.598 17.1249 120.702 17.1249C122.151 17.1249 122.996 16.4682 123.409 15.3976H127.07C126.553 17.8919 124.339 20.0013 120.731 20.0013C116.086 20.0013 113.462 16.7414 113.462 12.5501L113.461 12.5488ZM117.179 11.0409H123.409C123.3 9.25981 122.126 8.02783 120.432 8.02783C118.466 8.02783 117.507 9.20462 117.179 11.0409Z" fill="#2B2F21"/>
<path d="M131.662 7.781H131.743C132.589 6.19171 133.548 5.37085 135.187 5.37085C135.595 5.37085 135.842 5.39844 136.06 5.47984V8.73982H135.979C133.546 8.49287 131.796 9.78142 131.796 12.7393V19.589H128.078V5.53364H131.658V7.781H131.66H131.662Z" fill="#2B2F21"/>
<path d="M144.122 7.3698H144.204C145.215 5.88949 146.364 5.15141 148.276 5.15141C151.174 5.15141 153.115 7.34221 153.115 10.4118V19.5903H149.397V10.9595C149.397 9.45161 148.523 8.3838 146.964 8.3838C145.325 8.3838 144.121 9.69856 144.121 11.6162V19.5889H140.403V0H144.121V7.3698H144.122Z" fill="#2B2F21"/>
<path d="M153.797 12.5488C153.797 8.38376 156.613 5.15137 160.712 5.15137C165.222 5.15137 167.625 8.60312 167.625 13.6166H157.459C157.733 15.7825 158.935 17.1249 161.039 17.1249C162.487 17.1249 163.333 16.4682 163.744 15.3976H167.406C166.887 17.8919 164.674 20.0013 161.066 20.0013C156.423 20.0013 153.797 16.7414 153.797 12.5501V12.5488ZM157.515 11.0409H163.746C163.637 9.25981 162.463 8.02783 160.768 8.02783C158.803 8.02783 157.844 9.20462 157.515 11.0409Z" fill="#2B2F21"/>
<path d="M176.808 18.0287H176.751C176.039 19.0965 175.028 19.9187 172.625 19.9187C169.757 19.9187 167.734 18.4108 167.734 15.6157C167.734 12.5213 170.248 11.5321 173.362 11.0934C175.683 10.7651 176.751 10.5733 176.751 9.50414C176.751 8.49013 175.958 7.83345 174.4 7.83345C172.652 7.83345 171.804 8.46254 171.695 9.80489H168.389C168.498 7.33955 170.331 5.17358 174.429 5.17358C178.528 5.17358 180.331 7.06363 180.331 10.3526V17.503C180.331 18.5708 180.497 19.2027 180.824 19.4496V19.5876H177.244C177.024 19.3117 176.888 18.655 176.806 18.0259V18.0287H176.808ZM176.835 14.6307V12.5213C176.18 12.9062 175.169 13.1256 174.239 13.3436C172.298 13.7823 171.342 14.2196 171.342 15.5344C171.342 16.8491 172.215 17.3154 173.527 17.3154C175.659 17.3154 176.833 16.0007 176.833 14.6307H176.835Z" fill="#2B2F21"/>
<path d="M181.809 0H185.525V19.5903H181.809V0Z" fill="#2B2F21"/>
<path d="M186.233 5.53346H188.174V1.82373H191.808V5.53622H194.211V8.00156H191.808V15.5991C191.808 16.6407 192.382 16.9952 193.203 16.9952C193.668 16.9952 194.296 16.9676 194.296 16.9676V19.5598C194.296 19.5598 193.45 19.6164 191.974 19.6164C190.169 19.6164 188.176 18.9031 188.176 16.246V7.9988H186.235V5.53346H186.233Z" fill="#2B2F21"/>
<path d="M198.913 7.3698H198.994C200.006 5.88949 201.155 5.15141 203.068 5.15141C205.965 5.15141 207.907 7.34221 207.907 10.4118V19.5903H204.189V10.9595C204.189 9.45161 203.315 8.3838 201.756 8.3838C200.117 8.3838 198.913 9.69856 198.913 11.6162V19.5889H195.196V0H198.913V7.3698Z" fill="#2B2F21"/>
</g>
<defs>
<clipPath id="clip0_581_5903">
<rect width="207.905" height="20" fill="white"/>
</clipPath>
</defs>
</svg>
