<svg width="264" height="66" viewBox="0 0 264 66" fill="none" xmlns="http://www.w3.org/2000/svg">
<path d="M79.456 39.56C79.736 43.984 81.416 47.512 84.44 50.088C87.464 52.72 91.552 54.008 96.76 54.008C106.672 54.008 112.328 48.744 112.328 41.352C112.328 35.136 107.96 31.44 101.408 30.152L94.8 28.864C90.32 27.968 88.192 26.848 88.192 23.992C88.192 20.856 91.272 19.008 95.696 19.008C101.24 19.008 104.096 21.808 104.264 25.672H111.88C111.656 21.752 110.2 18.616 107.456 16.264C104.712 13.968 100.96 12.792 96.144 12.792C93.232 12.792 90.6 13.296 88.304 14.304C83.6 16.32 80.856 20.072 80.856 24.608C80.856 30.6 85.28 34.408 91.832 35.696L98.496 36.984C102.808 37.824 104.936 39.504 104.936 42.416C104.936 46 101.8 47.792 97.096 47.792C94.352 47.792 92.056 47.064 90.208 45.608C88.304 44.208 87.24 42.192 87.072 39.56H79.456ZM116.767 25.672V43.032C116.767 46.504 117.663 49.192 119.511 51.096C121.359 53.056 123.711 54.008 126.567 54.008C130.431 54.008 133.231 52.44 134.911 49.248C134.743 50.2 134.631 51.04 134.631 51.88V53H141.407V25.672H134.575V41.912C134.575 45.888 132.167 48.52 128.639 48.52C125.447 48.52 123.655 45.944 123.655 41.968V25.672H116.767ZM147.209 25.672V53H154.041V36.984C154.041 35.08 154.601 33.456 155.721 32.168C156.785 30.88 158.185 30.208 159.865 30.208C163.057 30.208 165.017 32.728 165.017 36.76V53H171.849V35.752C171.849 28.976 168.265 24.776 162.217 24.776C158.353 24.776 155.553 26.4 153.817 29.592C153.985 28.64 154.041 27.744 154.041 26.904V25.672H147.209ZM177.424 53H184.257V39.448C184.257 33.792 187.057 31.328 191.536 31.328C192.265 31.328 192.881 31.384 193.496 31.552V24.944C193.049 24.832 192.545 24.776 192.041 24.776C188.513 24.776 185.881 26.736 184.032 30.6C184.201 29.704 184.257 28.752 184.257 27.744V25.672H177.424V53ZM203.594 21.528V14.36H196.426V21.528H203.594ZM196.594 53H203.426V25.672H196.594V53ZM207.239 43.592C207.687 50.032 212.503 54.008 220.175 54.008C227.175 54.008 231.767 50.2 231.767 44.992C231.767 40.568 228.799 37.824 222.863 36.648L219.559 35.976C216.143 35.304 215.023 34.464 215.023 32.84C215.023 30.992 216.871 29.872 219.503 29.872C222.583 29.872 224.543 31.608 224.767 34.296H231.599C231.543 31.44 230.423 29.088 228.239 27.352C226.055 25.616 223.143 24.776 219.503 24.776C212.839 24.776 208.303 28.416 208.303 33.12C208.303 37.544 211.271 40.288 217.263 41.464L220.567 42.136C223.647 42.752 225.047 43.592 225.047 45.384C225.047 47.456 223.087 48.912 220.007 48.912C216.423 48.912 214.351 46.896 214.183 43.592H207.239ZM234.567 39.28C234.567 48.576 240.279 54.008 248.511 54.008C255.735 54.008 260.719 49.752 261.279 44.096H254.335C253.887 46.952 251.591 48.632 248.511 48.632C244.423 48.632 241.623 45.44 241.567 41.016H261.447V39.504C261.447 34.968 260.271 31.384 257.975 28.752C255.679 26.12 252.431 24.776 248.287 24.776C240.391 24.776 234.567 30.712 234.567 39.28ZM243.639 31.608C244.871 30.432 246.383 29.872 248.231 29.872C251.871 29.872 254.279 32.336 254.447 36.088H241.511C241.679 34.24 242.407 32.784 243.639 31.608Z" fill="#111111"/>
<path d="M30 10.5C17.5781 10.5 7.5 20.5781 7.5 33C7.5 33.7969 8.10938 34.4062 8.90625 34.4062H51.0938C51.8906 34.4062 52.5 33.7969 52.5 33C52.5 20.5781 42.4219 10.5 30 10.5ZM8.90625 38.625C8.10938 38.625 7.5 39.2344 7.5 40.0312C7.5 40.8281 8.10938 41.4375 8.90625 41.4375H51.0938C51.8906 41.4375 52.5 40.8281 52.5 40.0312C52.5 39.2344 51.8906 38.625 51.0938 38.625H8.90625ZM18.2812 45.6562C17.4844 45.6562 16.875 46.2656 16.875 47.0625C16.875 47.8594 17.4844 48.4688 18.2812 48.4688H41.7188C42.5156 48.4688 43.125 47.8594 43.125 47.0625C43.125 46.2656 42.5156 45.6562 41.7188 45.6562H18.2812ZM27.6562 52.6875C26.8594 52.6875 26.25 53.2969 26.25 54.0938C26.25 54.8906 26.8594 55.5 27.6562 55.5H32.3438C33.1406 55.5 33.75 54.8906 33.75 54.0938C33.75 53.2969 33.1406 52.6875 32.3438 52.6875H27.6562Z" fill="black"/>
</svg>
