<svg width="1340" height="180" viewBox="0 0 1340 180" fill="none" xmlns="http://www.w3.org/2000/svg">
<g clip-path="url(#clip0_111_39227)">
<path d="M6.25752 41.6811C6.25752 -5.73782 103.239 -15.5826 109.321 41.1889C109.485 44.9627 107.842 46.7676 105.047 46.7676H80.884C78.0896 46.7676 76.7746 45.4549 76.1171 42.5015C72.3365 20.1867 38.9683 25.2732 38.9683 41.6811C38.9683 67.2775 111.787 48.4084 111.787 96.6477C111.787 150.138 5.60002 151.45 0.0112542 94.5147C-0.153121 91.069 1.49063 89.5923 4.44939 89.5923H28.6126C31.2426 89.5923 32.722 91.069 33.3795 94.1865C37.4889 116.501 77.9252 115.517 77.9252 96.6477C77.9252 72.6921 6.25752 89.5923 6.25752 41.6811ZM208.111 10.1779C208.111 7.06037 209.426 5.2555 213.042 5.2555H236.054C239.506 5.2555 241.15 7.06037 241.15 10.1779V74.3329C241.15 106.164 221.261 135.535 181.811 135.535C142.36 135.535 122.307 106.164 122.307 74.3329L122.142 10.1779C122.142 7.06037 123.95 5.2555 127.238 5.2555H150.579C154.36 5.2555 155.675 7.06037 155.675 10.1779L155.839 74.3329C155.839 98.4526 168.167 106 181.811 106C195.454 106 207.946 98.4526 207.946 74.3329L208.111 10.1779ZM494.781 55.4638H432.319C432.319 42.5015 444.976 27.4062 465.194 27.4062C485.412 27.4062 494.781 42.5015 494.781 55.4638ZM527.657 74.6611V70.0668C527.657 33.149 506.452 1.31759 464.372 1.31759C433.141 1.31759 410.786 21.9916 402.567 49.0647C398.951 60.8784 398.457 73.6766 401.087 85.9825C407.662 116.173 431.168 139.144 464.372 139.144C469.632 139.144 513.027 139.144 526.342 96.8118C527.163 94.0224 526.013 93.0379 523.712 93.0379H497.411C495.768 93.0379 494.617 93.8583 493.795 95.4991C491.165 101.078 484.261 112.071 464.372 112.071C446.784 112.071 432.319 96.3195 432.319 79.9116H522.561C525.848 79.9116 527.657 77.9426 527.657 74.6611ZM1209.65 55.7919H1151.79C1151.79 43.1578 1162.47 28.3907 1182.36 28.3907C1202.25 28.3907 1209.65 43.1578 1209.65 55.7919ZM1244.99 74.6611V70.0668C1244.99 33.149 1223.62 1.31759 1181.54 1.31759C1150.31 1.31759 1127.96 21.8275 1119.74 49.0647C1115.96 60.8784 1115.46 73.6766 1118.26 85.9825C1124.67 116.173 1148.34 139.144 1181.54 139.144C1186.8 139.144 1230.2 139.144 1243.68 96.9759C1244.5 94.0224 1243.35 93.0379 1240.88 93.0379H1214.75C1212.94 93.0379 1211.79 93.8583 1210.97 95.4991C1208.34 101.078 1201.43 112.235 1181.54 112.235C1163.95 112.235 1151.13 96.4836 1151.13 79.9116H1239.73C1243.18 79.9116 1244.99 77.9426 1244.99 74.6611ZM1333.1 5.2555C1337.7 5.2555 1340 7.88077 1340 12.6391V31.8363C1340 36.7587 1337.37 38.8918 1332.44 38.8918C1303.67 38.8918 1289.87 52.3463 1289.87 86.967V130.448C1289.87 133.566 1287.89 135.206 1285.1 135.206H1260.61C1257.81 135.206 1256.17 133.566 1256.17 130.448V86.967C1256.17 57.1046 1264.55 5.2555 1333.1 5.2555ZM1029.33 5.2555H1002.87C1001.06 5.2555 1000.4 5.91181 999.743 7.88077L973.114 86.6389L952.403 7.88077C951.91 5.91181 951.088 5.2555 949.28 5.2555H918.213C915.583 5.2555 915.911 6.89629 916.404 8.70116L948.293 131.761C948.951 134.55 950.101 135.206 953.225 135.206H986.264C988.73 135.206 990.209 134.222 991.031 131.597L1016.18 54.8075L1041.17 131.597C1041.99 134.222 1043.63 135.206 1045.93 135.206H1079.14C1082.26 135.206 1083.41 134.55 1084.07 131.761L1115.96 8.70116C1116.45 6.89629 1116.78 5.2555 1113.98 5.2555H1083.08C1081.11 5.2555 1080.29 5.91181 1079.79 7.88077L1059.08 86.6389L1032.62 7.88077C1031.96 5.91181 1031.14 5.2555 1029.33 5.2555ZM814.82 70.0668C814.82 46.9316 827.313 32.0004 847.202 32.0004C867.092 32.0004 881.393 46.9316 881.393 70.0668C881.393 93.202 866.599 108.461 847.202 108.461C827.806 108.461 814.82 93.3661 814.82 70.0668ZM847.202 1.31759C808.41 1.31759 780.466 33.149 780.466 70.0668C780.466 106.985 808.41 139.144 847.202 139.144C885.995 139.144 915.747 107.969 915.747 70.0668C915.747 32.1645 884.516 1.31759 847.202 1.31759ZM616.748 5.2555C621.351 5.2555 623.652 7.88077 623.652 12.6391V31.8363C623.652 36.7587 621.022 38.8918 616.091 38.8918C587.325 38.8918 573.517 52.3463 573.517 86.967V130.448C573.517 133.566 571.545 135.206 568.75 135.206H544.258C541.464 135.206 539.82 133.566 539.82 130.448V86.967C539.82 57.1046 548.203 5.2555 616.748 5.2555ZM668.691 67.4416C668.691 90.2486 681.019 105.18 700.579 105.18C720.14 105.18 733.948 90.4127 733.948 67.4416C733.948 44.4705 719.647 30.0315 700.579 30.0315C681.512 30.0315 668.691 44.7986 668.691 67.4416ZM670.499 121.916V175.242C670.499 178.359 668.691 180 665.896 180H641.24C638.446 180 636.802 178.359 636.802 175.242V12.475C636.802 7.71669 639.432 5.2555 644.199 5.2555H664.581C669.513 5.2555 670.499 7.71669 670.499 12.475V24.2887H672.307C697.456 -22.9662 769.124 2.63023 769.124 67.4416C769.124 137.011 696.306 149.481 670.499 121.916ZM287.34 67.4416C287.34 90.2486 299.832 105.18 319.228 105.18C338.625 105.18 352.597 90.4127 352.597 67.4416C352.597 44.4705 338.46 30.0315 319.228 30.0315C299.997 30.0315 287.34 44.7986 287.34 67.4416ZM288.819 121.916V175.242C288.819 178.359 286.846 180 284.052 180H259.56C256.601 180 255.122 178.359 255.122 175.242V12.475C255.122 7.71669 257.588 5.2555 262.355 5.2555H282.901C287.833 5.2555 288.819 7.71669 288.819 12.475V24.2887H290.463C315.612 -22.9662 387.28 2.63023 387.28 67.4416C387.28 137.011 314.462 149.481 288.819 121.916Z" fill="black"/>
</g>
<defs>
<clipPath id="clip0_111_39227">
<rect width="1340" height="180" fill="white"/>
</clipPath>
</defs>
</svg>
