<svg width="76" height="34" viewBox="0 0 76 34" fill="none" xmlns="http://www.w3.org/2000/svg">
<path d="M39.5244 16.0024L31.9314 16.0024C31.443 16.0024 31.0466 16.4241 31.0466 16.9438C31.0466 17.4634 31.443 17.8851 31.9314 17.8851L39.5244 17.8851C43.1838 17.8851 46.1612 21.0528 46.1612 24.946C46.1612 28.8391 43.1838 32.0068 39.5244 32.0068L31.9314 32.0068C31.443 32.0068 31.0466 32.4285 31.0466 32.9482C31.0466 33.4678 31.443 33.8895 31.9314 33.8895L39.5244 33.8895C44.1606 33.8895 47.9308 29.8784 47.9308 24.946C47.9308 20.0135 44.1606 16.0024 39.5244 16.0024Z" fill="#1F1E21"/>
<path d="M29.1868 0C28.6984 0 28.302 0.421696 28.302 0.941319V32.9421C28.302 33.4617 28.6984 33.8834 29.1868 33.8834C29.6752 33.8834 30.0716 33.4617 30.0716 32.9421V0.941319C30.0716 0.421696 29.6752 0 29.1868 0Z" fill="#1F1E21"/>
<path d="M59.4951 0.0119629L55.9202 0.0119629C55.4318 0.0119629 55.0354 0.433655 55.0354 0.953278C55.0354 1.4729 55.4318 1.8946 55.9202 1.8946L59.4951 1.8946C67.1764 1.8946 73.4263 8.65169 73.4263 16.9557C73.4263 25.2616 67.1764 32.0187 59.4951 32.0187L55.9202 32.0187C55.4318 32.0187 55.0354 32.4404 55.0354 32.9601C55.0354 33.4797 55.4318 33.9014 55.9202 33.9014L59.4951 33.9014C68.1514 33.9014 75.1959 26.2989 75.1959 16.9557C75.1959 7.61445 68.1514 0.0119629 59.4951 0.0119629Z" fill="#1F1E21"/>
<path d="M53.1455 0.0119629C52.6571 0.0119629 52.2607 0.433655 52.2607 0.953279V32.9421C52.2607 33.4617 52.6571 33.8834 53.1455 33.8834C53.634 33.8834 54.0303 33.4617 54.0303 32.9421V0.953279C54.0303 0.433655 53.634 0.0119629 53.1455 0.0119629Z" fill="#1F1E21"/>
<path d="M11.9664 2.90381C11.478 2.90381 11.0816 3.3255 11.0816 3.84512V32.942C11.0816 33.4617 11.478 33.8834 11.9664 33.8834C12.4548 33.8834 12.8511 33.4617 12.8511 32.942V3.84512C12.8511 3.3255 12.4548 2.90381 11.9664 2.90381Z" fill="#1F1E21"/>
<path d="M23.0478 0.0114746L0.884791 0.0114746C0.396371 0.0114746 0 0.433168 0 0.952792C0 1.47242 0.396371 1.89411 0.884791 1.89411L23.0497 1.89411C23.5381 1.89411 23.9344 1.47242 23.9344 0.952792C23.9344 0.433168 23.5381 0.0114746 23.0478 0.0114746Z" fill="#1F1E21"/>
<path d="M31.9332 1.89464L38.7804 1.89464C42.0321 1.89464 44.679 4.7086 44.679 8.16809C44.679 9.84687 44.0403 11.4357 42.9526 12.5989C42.7854 12.7748 42.6089 12.9406 42.4191 13.0945C42.4135 13.0985 42.4116 13.1045 42.4079 13.1085C42.1806 13.2964 41.9439 13.4742 41.6884 13.6281C41.2638 13.8859 41.1136 14.4595 41.3559 14.9112C41.5193 15.217 41.818 15.3889 42.1261 15.3889C42.2745 15.3889 42.4248 15.3489 42.5619 15.2649C43.009 14.9951 43.411 14.6694 43.7923 14.3176C43.922 14.1997 44.0572 14.0858 44.1793 13.9579C44.1831 13.9539 44.1868 13.9499 44.1906 13.9459C45.6521 12.423 46.4767 10.3565 46.4767 8.14411C46.4767 3.65936 43.0466 0.0100098 38.8311 0.0100098L38.7804 0.0100098L31.9332 0.0100098C31.4448 0.0100098 31.0484 0.431705 31.0484 0.951328C31.0465 1.47295 31.4429 1.89464 31.9332 1.89464Z" fill="#1F1E21"/>
</svg>
