<svg width="152" height="32" viewBox="0 0 152 32" fill="none" xmlns="http://www.w3.org/2000/svg">
<g clip-path="url(#clip0_24_1315)">
<path d="M148.119 24.2241C149.709 24.2241 150.779 23.2737 151.168 22.8849L151.114 22.7769C150.693 23.0037 149.773 23.3601 148.768 23.3601C147.34 23.3601 146.724 22.6365 146.724 21.2109V11.0374H150.866V10.5298H146.724V8.48866H146.67L143.815 10.9726V11.0266H145.329V21.1461C145.329 23.5437 146.811 24.2241 148.13 24.2241M131.824 23.8029H134.451V23.7489C133.867 22.7661 133.835 21.9345 133.835 20.4765V13.0462C135.154 11.707 136.798 11.1994 138.257 11.1994C140.604 11.1994 141.393 12.625 141.393 14.4934V20.4765C141.393 21.9021 141.307 22.7661 140.777 23.7489V23.8029H143.404V23.7489C142.821 22.8309 142.788 21.9885 142.788 20.4549V14.2018C142.788 11.6638 141.469 10.1194 138.874 10.1194C137.079 10.1194 135.262 10.8754 133.835 12.5494V2.04114L131.207 3.21832V3.27232C131.856 3.69352 132.44 4.27671 132.44 5.3675V20.4873C132.44 21.9669 132.353 22.7769 131.824 23.7597V23.8137V23.8029ZM125 29.5916C122.005 29.5916 120.048 28.5332 120.048 26.3732C120.048 25.0017 120.827 23.9109 121.702 23.6949C121.984 23.7489 122.319 23.7813 122.686 23.7813L125.79 23.8353C128.536 23.9217 129.899 24.7857 129.899 26.492C129.899 28.5008 128.028 29.5916 125 29.5916ZM131.099 25.9844C131.099 24.1701 129.726 22.7121 126.233 22.5717L123.011 22.4637C121 22.3773 120.578 21.7941 120.578 21.1245C120.578 20.1417 121.389 19.5045 122.708 19.0833C123.27 19.3101 123.854 19.4181 124.503 19.4181C127.185 19.4181 129.423 17.2905 129.423 14.785C129.423 13.5322 128.915 12.4414 128.05 11.5774L131.045 11.6314H131.153V9.83864L131.099 9.80624L127.769 11.3182C126.904 10.5622 125.725 10.1194 124.471 10.1194C121.756 10.1194 119.572 12.3226 119.572 14.785C119.572 16.5778 120.686 18.1653 122.34 18.9213C120.913 19.2237 119.259 20.0121 119.259 21.6645C119.259 22.6473 119.843 23.3385 121.27 23.6517C119.929 24.0189 118.642 25.1853 118.642 26.7512C118.642 28.814 120.967 30.0992 124.514 30.0992C128.547 30.0992 131.088 28.4468 131.088 25.9952M124.481 18.9213C122.243 18.9213 121.129 16.8802 121.129 14.785C121.129 12.6898 122.113 10.627 124.46 10.627C126.806 10.627 127.844 12.6358 127.844 14.785C127.844 16.9342 126.731 18.9213 124.492 18.9213M114.285 23.7597V23.8137H116.75V23.7597C116.447 22.7229 116.523 21.8049 116.836 20.3793L118.88 9.98984L116.199 10.9078V10.9618C116.62 11.5234 117.064 12.4738 116.707 14.2882L115.723 19.2561C115.301 21.2649 115.074 22.6041 114.295 23.7597M120.145 5.3999C120.145 4.7519 119.637 4.25511 118.999 4.25511C118.361 4.25511 117.853 4.7627 117.853 5.3999C117.853 6.03709 118.361 6.54468 118.999 6.54468C119.637 6.54468 120.145 6.03709 120.145 5.3999ZM114.241 20.7141L114.101 20.6601C113.117 22.2477 111.246 22.9497 109.484 22.9497C106.153 22.9497 104.509 20.3469 104.509 16.7722C104.509 16.297 104.542 15.8758 104.596 15.487H114.166C114.393 12.7222 112.403 10.1194 109.213 10.1194C105.861 10.1194 102.974 12.9922 102.974 17.3877C102.974 21.4917 105.375 24.2349 108.986 24.2349C111.592 24.2349 113.549 22.8417 114.241 20.7141ZM109.127 10.627C111.257 10.627 112.403 11.9122 112.403 14.731V14.9038L104.65 15.0766C105.126 12.2578 106.78 10.6378 109.127 10.6378M92.842 28.5764L92.8961 30.11C94.8317 29.8832 96.2266 28.8572 97.3187 26.0816L102.163 13.5106C102.833 11.7826 103.06 11.275 103.958 10.6054V10.5514H101.19V10.6054C102.055 11.1346 102.174 12.0634 101.525 13.7374L98.5081 21.6753L95.4264 13.5214C94.8425 11.9338 94.983 11.1454 95.5669 10.6162V10.5622H92.2906V10.6162C92.961 11.1454 93.3502 11.9014 93.945 13.4674L97.8053 23.5005L97.1024 25.3148C96.1509 27.8528 93.8044 28.5872 92.8528 28.5872M89.9441 24.2565C91.5336 24.2565 92.6041 23.3061 92.9934 22.9173L92.9393 22.8093C92.5176 23.0361 91.5985 23.3925 90.5929 23.3925C89.1655 23.3925 88.5492 22.6689 88.5492 21.2433V11.0698H92.6906V10.5622H88.5492V8.52106H88.4951L85.6404 11.005V11.059H87.1543V21.1785C87.1543 23.5761 88.6357 24.2565 89.9549 24.2565M76.2762 23.8353V23.7813C75.6923 22.7985 75.6599 21.9669 75.6599 20.4873V13.0786C76.8601 11.761 78.6011 11.2318 80.0825 11.2318C82.4289 11.2318 83.2183 12.6574 83.2183 14.5258V20.5089C83.2183 21.9345 83.1318 22.7985 82.6019 23.7813V23.8353H85.2295V23.7813C84.6456 22.8633 84.6132 22.0209 84.6132 20.4873V14.2342C84.6132 11.6962 83.294 10.1518 80.6988 10.1518C78.9038 10.1518 77.0872 10.9078 75.6599 12.5818L75.5517 12.5494V10.0114L73.0323 11.4694V11.5234C73.6702 11.9446 74.265 12.5278 74.265 13.6186V20.5197C74.265 21.9993 74.1785 22.8093 73.6486 23.7921V23.8461H76.2762V23.8353ZM72.2753 20.7357L72.1348 20.6817C71.1508 22.2693 69.2801 22.9713 67.5175 22.9713C64.1871 22.9713 62.5435 20.3685 62.5435 16.7938C62.5435 16.3186 62.5759 15.8974 62.63 15.5086H72.1996C72.4267 12.7438 70.4371 10.141 67.2472 10.141C63.8951 10.141 61.008 13.0138 61.008 17.4093C61.008 21.5133 63.4085 24.2565 67.0201 24.2565C69.6261 24.2565 71.5833 22.8633 72.2753 20.7357ZM67.1607 10.6486C69.2909 10.6486 70.4371 11.9338 70.4371 14.7526V14.9254L62.684 15.0982C63.1598 12.2794 64.8142 10.6594 67.1607 10.6594M49.7623 24.0189H49.9353L53.5469 14.245L56.9639 24.0189H57.1369L60.5755 13.543C61.1053 11.815 61.4189 11.275 62.284 10.6378V10.5838H59.5158V10.6378C60.3808 11.167 60.4349 12.1174 59.9051 13.7914L57.4397 21.5025L54.8661 13.651C54.3038 11.9446 54.4985 10.9402 54.758 10.6378V10.5838H51.7627V10.6378C52.4007 11.059 52.8008 12.0958 53.2766 13.4566V13.489L50.3138 21.5349L47.9349 13.3162C47.5132 11.977 47.7943 10.9402 48.043 10.6378V10.5838H44.9072V10.6378C45.437 11.059 45.9128 11.815 46.4426 13.4566L49.7731 24.0189H49.7623ZM42.5499 24.2673C44.1394 24.2673 45.2099 23.3169 45.5992 22.9281L45.5451 22.8201C45.1234 23.0469 44.2043 23.4033 43.1987 23.4033C41.7713 23.4033 41.155 22.6797 41.155 21.2541V11.0806H45.2964V10.573H41.155V8.53186H41.1009L38.2462 11.0158V11.0698H39.7601V21.1893C39.7601 23.5869 41.2415 24.2673 42.5607 24.2673" fill="#222222"/>
<path d="M94.929 10.8431H92.961C93.426 11.4047 93.7612 12.1715 94.2045 13.327L98.0324 23.2845L98.4 22.3341L95.102 13.597C94.637 12.3443 94.583 11.4803 94.929 10.8323V10.8431Z" fill="#222222"/>
<path d="M93.134 28.8464L93.1664 29.732C94.7668 29.4512 95.8481 28.5116 96.7131 26.6108C95.6967 28.0688 94.172 28.7276 93.134 28.8356V28.8464Z" fill="#222222"/>
<path d="M118.967 6.23154C119.432 6.23154 119.799 5.86434 119.799 5.39995C119.799 4.93555 119.432 4.56836 118.967 4.56836C118.502 4.56836 118.134 4.93555 118.134 5.39995C118.134 5.86434 118.502 6.23154 118.967 6.23154Z" fill="#222222"/>
<path d="M102.141 12.625C102.487 11.7718 102.747 11.275 103.158 10.843H101.882C102.239 11.3506 102.26 11.9878 102.141 12.625Z" fill="#222222"/>
<path d="M88.1924 21.2002V9.11511L86.3541 10.7135H87.4138V21.1354C87.4138 23.5437 88.9709 23.9001 89.9008 23.9001C90.4739 23.9001 90.9714 23.7705 91.4039 23.5761C91.1335 23.6193 90.8416 23.6517 90.5388 23.6517C88.9817 23.6517 88.1816 22.8201 88.1816 21.1894L88.1924 21.2002Z" fill="#222222"/>
<path d="M112.673 14.7203V15.1631H113.83C113.863 13.9319 113.42 12.7439 112.609 11.8583C112.176 11.3831 111.646 11.0159 111.051 10.7783C112.133 11.4263 112.673 12.7439 112.673 14.7203Z" fill="#222222"/>
<path d="M104.163 16.7613C104.163 16.2754 104.196 15.8434 104.25 15.433V15.379L104.315 15.0118C104.596 13.327 105.31 12.031 106.326 11.2318C104.466 12.3766 103.255 14.6446 103.255 17.3877C103.255 21.2973 105.548 23.9217 108.964 23.9217C110.651 23.9217 112.1 23.2845 113.041 22.2045C112.079 22.8849 110.835 23.2629 109.473 23.2629C106.207 23.2629 104.185 20.7789 104.185 16.7829L104.163 16.7613Z" fill="#222222"/>
<path d="M84.2455 14.191C84.2455 11.0807 82.2884 10.4219 80.6339 10.4219C79.3904 10.4219 78.1902 10.8107 77.1629 11.5343C78.028 11.1239 79.0228 10.8971 80.0284 10.8971C82.2775 10.8971 83.467 12.1391 83.467 14.5042V20.4873C83.467 21.7941 83.3913 22.6365 83.0128 23.5005H84.6781C84.2672 22.6581 84.2455 21.7833 84.2455 20.455V14.2018V14.191Z" fill="#222222"/>
<path d="M47.5024 10.843H45.5452V10.8754C45.9561 11.4154 46.3129 12.193 46.6806 13.3162L49.8164 23.2629L50.1624 22.3233L47.5672 13.3702C47.232 12.301 47.3185 11.4046 47.5024 10.8538V10.843Z" fill="#222222"/>
<path d="M70.6858 14.7203V15.1631H71.8428C71.8753 13.9319 71.4319 12.7439 70.6209 11.8583C70.1884 11.3831 69.6586 11.0159 69.0638 10.7783C70.1452 11.4263 70.6858 12.7439 70.6858 14.7203Z" fill="#222222"/>
<path d="M61.4405 10.843H60.1646C60.5322 11.3722 60.543 12.0526 60.4025 12.7762C60.7269 11.815 61.008 11.2858 61.4405 10.843Z" fill="#222222"/>
<path d="M75.2922 12.9274L75.3787 12.841C75.3787 12.841 75.3895 12.8194 75.4004 12.8194L75.1841 12.7654V10.519L73.5081 11.491C74.0163 11.9014 74.5245 12.5278 74.5245 13.5862V20.4873C74.5245 21.8157 74.4488 22.6365 74.0703 23.5005H75.7464C75.3355 22.6149 75.303 21.7617 75.303 20.4549V12.9274H75.2922Z" fill="#222222"/>
<path d="M40.7765 21.2002V9.11511L38.9383 10.7135H39.998V21.1354C39.998 23.5437 41.5551 23.9001 42.485 23.9001C43.0581 23.9001 43.5555 23.7705 43.9881 23.5761C43.7177 23.6193 43.4258 23.6517 43.123 23.6517C41.5659 23.6517 40.7657 22.8201 40.7657 21.1894L40.7765 21.2002Z" fill="#222222"/>
<path d="M62.1758 16.7613C62.1758 16.2754 62.2083 15.8434 62.2623 15.433V15.379L62.3272 15.0118C62.6084 13.327 63.322 12.031 64.3385 11.2318C62.4786 12.3766 61.2675 14.6446 61.2675 17.3877C61.2675 21.2973 63.5599 23.9217 66.9769 23.9217C68.6637 23.9217 70.1127 23.2845 71.0535 22.2045C70.0911 22.8849 68.8476 23.2629 67.4851 23.2629C64.2195 23.2629 62.1975 20.7789 62.1975 16.7829L62.1758 16.7613Z" fill="#222222"/>
<path d="M142.464 14.191C142.464 11.0807 140.507 10.4219 138.863 10.4219C137.598 10.4219 136.387 10.8215 135.338 11.5667C136.225 11.1239 137.219 10.8863 138.247 10.8863C140.496 10.8863 141.685 12.1283 141.685 14.4934V20.4765C141.685 21.7833 141.61 22.6257 141.231 23.4897H142.896C142.485 22.6473 142.464 21.7725 142.464 20.4441V14.191Z" fill="#222222"/>
<path d="M133.51 2.51636L131.759 3.29395C132.256 3.70434 132.732 4.33073 132.732 5.35672V20.4765C132.732 21.8049 132.656 22.6257 132.278 23.4897H133.954C133.543 22.6041 133.51 21.7617 133.51 20.4765V2.51636Z" fill="#222222"/>
<path d="M130.829 11.3075V10.2599L128.601 11.2643L130.829 11.3075Z" fill="#222222"/>
<path d="M127.704 11.6747L127.552 11.5451C127.163 11.2103 126.72 10.9403 126.244 10.7567C126.644 10.9835 127.001 11.3075 127.282 11.7071C127.844 12.4955 128.147 13.5755 128.147 14.7743C128.147 16.8694 127.293 18.1654 126.168 18.7918C127.866 18.1438 129.088 16.567 129.088 14.7743C129.088 13.6511 128.644 12.6143 127.812 11.7827L127.704 11.6747Z" fill="#222222"/>
<path d="M146.411 21.2002V9.11511L144.572 10.7135H145.632V21.1354C145.632 23.5437 147.189 23.9001 148.119 23.9001C148.692 23.9001 149.19 23.7705 149.622 23.5761C149.352 23.6193 149.06 23.6517 148.757 23.6517C147.2 23.6517 146.4 22.8201 146.4 21.1894L146.411 21.2002Z" fill="#222222"/>
<path d="M121.713 17.809C121.129 17.0098 120.816 15.9298 120.816 14.7742C120.816 13.165 121.4 11.545 122.676 10.7675C121.043 11.437 119.864 13.003 119.864 14.7742C119.864 16.3942 120.881 17.9062 122.449 18.6298L122.697 18.7486C122.319 18.5218 121.984 18.2086 121.702 17.809H121.713Z" fill="#222222"/>
<path d="M120.253 21.1245C120.253 20.6169 120.437 20.1741 120.794 19.7961C120.113 20.1741 119.561 20.7681 119.561 21.6537C119.561 22.2153 119.745 22.9929 121.335 23.3385L121.605 23.3925L121.67 23.3709H121.735C121.994 23.4357 122.308 23.4573 122.654 23.4573L125.768 23.5113C128.699 23.5977 130.18 24.6021 130.18 26.4705C130.18 27.302 129.877 28.004 129.326 28.5548C130.245 27.9068 130.764 27.0213 130.764 25.9629C130.764 24.0837 129.142 22.9821 126.19 22.8633L122.978 22.7553C121.8 22.7013 120.243 22.4853 120.243 21.1029L120.253 21.1245Z" fill="#222222"/>
<path d="M54.2281 10.843H52.3899C52.8116 11.4046 53.1252 12.247 53.482 13.2838L56.9639 23.2521L57.2991 22.2477L54.4985 13.705C54.0659 12.3766 54.0551 11.4154 54.2173 10.843H54.2281Z" fill="#222222"/>
<path d="M116.62 11.0699C117.128 11.9231 117.247 13.003 116.977 14.3422L115.993 19.3102L115.885 19.8286C115.571 21.3513 115.333 22.4961 114.782 23.5005H116.339C116.123 22.5177 116.231 21.5889 116.501 20.3038L118.437 10.4435L116.609 11.0699H116.62Z" fill="#222222"/>
<path d="M119.724 26.3733C119.724 25.6497 119.929 24.9693 120.275 24.4293C119.518 24.9477 118.945 25.7577 118.945 26.7297C118.945 28.2309 120.383 29.3001 122.73 29.6457C120.794 29.1813 119.724 28.0365 119.724 26.3625V26.3733Z" fill="#222222"/>
<path d="M62.3921 10.8323L62.5219 10.7351V10.2167H59.1373V10.7567L59.2887 10.8431C59.8618 11.1995 60.1322 11.8043 59.5482 13.6403L57.3748 20.4334L55.104 13.4891C54.5417 11.7827 54.8013 10.9295 54.9418 10.7675L55.0067 10.6811V10.2059H51.3951V10.7351L51.5357 10.8215C52.0763 11.1779 52.444 12.1067 52.8873 13.3919L50.2813 20.4658L48.162 13.1543C47.7619 11.8691 48.0646 10.9511 48.216 10.7567L48.2809 10.6703V10.1951H41.4037V8.15393H40.9171L37.8678 10.8107V11.3183H39.3816V21.1246C39.3816 23.2413 40.5387 24.5049 42.485 24.5049C43.9989 24.5049 45.1018 23.7273 45.7506 23.0685L45.9128 22.9065L45.61 22.3126L45.3289 22.4637C44.8531 22.7229 43.9881 23.0145 43.123 23.0145C41.9119 23.0145 41.3929 22.4637 41.3929 21.1678V11.3075H45.1126C45.4478 11.7827 45.7614 12.4847 46.075 13.4675L49.4703 24.2457H50.0867L53.4712 15.0766L56.6719 24.2457H57.2883L60.8026 13.5539C61.3108 11.8907 61.5919 11.3939 62.3921 10.8107V10.8323ZM43.1338 23.6625C43.4366 23.6625 43.7285 23.6301 43.9989 23.5869C43.5663 23.7813 43.0581 23.9109 42.4958 23.9109C41.5659 23.9109 40.0088 23.5545 40.0088 21.1462V10.7243H38.9491L40.7874 9.12592V21.211C40.7874 22.8417 41.5767 23.6733 43.1446 23.6733L43.1338 23.6625ZM49.8056 23.2521L46.6697 13.3055C46.3021 12.1715 45.9452 11.3939 45.5343 10.8647V10.8323H47.4915C47.2969 11.3831 47.2212 12.2795 47.5564 13.3487L50.1516 22.3018L49.8056 23.2413V23.2521ZM56.9747 23.2521L53.4929 13.2731C53.136 12.2363 52.8116 11.4047 52.4007 10.8431H54.239C54.0768 11.4155 54.0768 12.3767 54.5201 13.7051L57.3207 22.2478L56.9855 23.2521H56.9747ZM60.1646 10.8431H61.4405C61.008 11.2859 60.7269 11.8259 60.4025 12.7763C60.5431 12.0419 60.5322 11.3615 60.1646 10.8431Z" fill="#222222"/>
<path d="M118.967 6.84712C119.788 6.84712 120.426 6.20992 120.426 5.38913C120.426 4.56834 119.788 3.93115 118.967 3.93115C118.145 3.93115 117.507 4.56834 117.507 5.38913C117.507 6.20992 118.145 6.84712 118.967 6.84712ZM118.967 4.55754C119.432 4.55754 119.799 4.92474 119.799 5.38913C119.799 5.85353 119.432 6.22072 118.967 6.22072C118.502 6.22072 118.134 5.85353 118.134 5.38913C118.134 4.92474 118.502 4.55754 118.967 4.55754Z" fill="#222222"/>
<path d="M71.8212 20.4873C70.9994 21.8265 69.3666 22.6257 67.4743 22.6257C64.5547 22.6257 62.803 20.4333 62.803 16.7614C62.803 16.4158 62.8138 16.0918 62.8462 15.7894H72.4267L72.4484 15.5086C72.5673 14.0074 72.0699 12.5278 71.0751 11.4479C70.1019 10.3895 68.7178 9.80627 67.1823 9.80627C63.4518 9.80627 60.6295 13.057 60.6295 17.377C60.6295 21.6969 63.1706 24.5373 66.9553 24.5373C69.6261 24.5373 71.7455 23.1117 72.5132 20.8005L72.5997 20.5197L71.951 20.2605L71.8104 20.4873H71.8212ZM70.6209 11.869C71.4319 12.7438 71.8753 13.9426 71.8428 15.1738H70.6858V14.731C70.6858 12.7546 70.1451 11.4371 69.0638 10.7891C69.6586 11.0375 70.1884 11.3939 70.6209 11.869ZM67.1066 10.9295C69.0963 10.9295 70.037 12.0958 70.0695 14.5906L63.0084 14.7418C63.5275 12.3118 65.0089 10.9295 67.1066 10.9295ZM66.9661 23.9217C63.5491 23.9217 61.2567 21.2973 61.2567 17.3878C61.2567 14.6554 62.4678 12.3874 64.3277 11.2319C63.3112 12.031 62.5975 13.327 62.3164 15.0118L62.2515 15.379H62.2623V15.433C62.2083 15.8434 62.1758 16.2754 62.1758 16.7614C62.1758 20.7573 64.1979 23.2413 67.4635 23.2413C68.8259 23.2413 70.0695 22.8633 71.0318 22.1829C70.0911 23.2737 68.6529 23.9001 66.9553 23.9001L66.9661 23.9217Z" fill="#222222"/>
<path d="M119.259 9.50391L115.852 10.6703V11.0483L115.917 11.1347C116.123 11.4155 116.761 12.2579 116.361 14.2126L115.388 19.1806L115.279 19.699C114.923 21.427 114.685 22.5825 114.003 23.5761L113.949 23.6517V24.1161H117.031V23.6625C116.718 22.6689 116.826 21.7618 117.107 20.4334L119.248 9.51471L119.259 9.50391ZM116.501 20.3038C116.22 21.589 116.112 22.5069 116.339 23.5005H114.782C115.333 22.5069 115.571 21.3514 115.885 19.8286L115.993 19.3102L116.977 14.3422C117.247 13.0031 117.128 11.9339 116.62 11.0699L118.448 10.4435L116.512 20.3038H116.501Z" fill="#222222"/>
<path d="M127.801 10.9511C126.871 10.2059 125.693 9.80629 124.449 9.80629C121.627 9.80629 119.248 12.0851 119.248 14.785C119.248 16.3942 120.113 17.9062 121.508 18.8242C119.864 19.3642 118.945 20.3686 118.945 21.6645C118.945 22.6041 119.41 23.2737 120.329 23.6733C118.956 24.3753 118.329 25.6821 118.329 26.7405C118.329 28.9652 120.762 30.4016 124.514 30.4016C128.699 30.4016 131.402 28.6629 131.402 25.9845C131.402 24.6777 130.731 22.4421 126.233 22.2693L123.022 22.1613C120.881 22.0749 120.881 21.4161 120.881 21.1245C120.881 20.3794 121.475 19.8178 122.686 19.4182C123.26 19.6342 123.843 19.7314 124.481 19.7314C127.314 19.7314 129.715 17.4634 129.715 14.785C129.715 13.7266 129.38 12.7439 128.731 11.8907L131.034 11.9339H131.456V9.64429L131.099 9.46069L127.812 10.9511H127.801ZM118.945 26.7405C118.945 25.7577 119.518 24.9477 120.275 24.4401C119.929 24.9801 119.724 25.6605 119.724 26.3841C119.724 28.0581 120.794 29.192 122.73 29.6672C120.383 29.3216 118.945 28.2525 118.945 26.7513V26.7405ZM124.99 29.2784C120.956 29.2784 120.351 27.4641 120.351 26.3733C120.351 25.1529 121.032 24.2241 121.702 24.0081C121.984 24.0621 122.308 24.0837 122.665 24.0837L125.768 24.1377C129.574 24.2565 129.574 25.9305 129.574 26.4813C129.574 28.2525 127.898 29.2676 124.99 29.2676V29.2784ZM122.989 22.7769L126.201 22.8849C129.153 23.0037 130.775 24.1053 130.775 25.9845C130.775 27.0429 130.256 27.9285 129.337 28.5765C129.899 28.0257 130.191 27.3237 130.191 26.4921C130.191 24.6129 128.709 23.6193 125.779 23.5329L122.665 23.4789C122.319 23.4789 122.005 23.4573 121.746 23.4033H121.681H121.616L121.346 23.3493C119.756 23.0037 119.572 22.2261 119.572 21.6645C119.572 20.7682 120.135 20.185 120.805 19.807C120.448 20.185 120.264 20.6278 120.264 21.1353C120.264 22.5177 121.821 22.7337 123 22.7877L122.989 22.7769ZM122.459 18.6406C120.891 17.917 119.875 16.405 119.875 14.785C119.875 13.0138 121.054 11.4587 122.686 10.7783C121.41 11.5559 120.827 13.1758 120.827 14.785C120.827 15.9406 121.14 17.0206 121.724 17.8198C122.005 18.2086 122.34 18.5218 122.719 18.7594L122.47 18.6406H122.459ZM121.443 14.785C121.443 13.003 122.232 10.9295 124.46 10.9295C125.941 10.9295 127.531 11.9447 127.531 14.785C127.531 16.6858 126.59 18.6082 124.481 18.6082C122.373 18.6082 121.432 16.621 121.432 14.785H121.443ZM129.099 14.785C129.099 16.5778 127.866 18.1546 126.179 18.8026C127.304 18.187 128.158 16.8802 128.158 14.785C128.158 13.5862 127.844 12.4955 127.293 11.7179C127.001 11.3183 126.655 10.9943 126.255 10.7675C126.731 10.9511 127.185 11.2211 127.563 11.5559L127.715 11.6855L127.823 11.7935C128.655 12.6251 129.099 13.6618 129.099 14.785ZM130.829 11.3183L128.612 11.2751L130.829 10.2707V11.3183Z" fill="#222222"/>
<path d="M151.168 22.4205L150.887 22.5717C150.411 22.8309 149.546 23.1225 148.681 23.1225C147.47 23.1225 146.951 22.5717 146.951 21.2757V11.4155H151.093V10.2923H146.951V8.2511H146.465L143.415 10.9079V11.4155H144.929V21.2217C144.929 23.3385 146.086 24.6021 148.033 24.6021C149.546 24.6021 150.649 23.8245 151.298 23.1657L151.374 23.0901L151.158 22.4097L151.168 22.4205ZM148.119 23.9109C147.189 23.9109 145.632 23.5545 145.632 21.1461V10.7243H144.572L146.411 9.12589V21.2109C146.411 22.8417 147.2 23.6733 148.768 23.6733C149.071 23.6733 149.363 23.6409 149.633 23.5977C149.2 23.7921 148.692 23.9217 148.13 23.9217L148.119 23.9109Z" fill="#222222"/>
<path d="M143.08 20.4549V14.2018C143.08 11.4155 141.545 9.81707 138.852 9.81707C137.1 9.81707 135.446 10.5083 134.127 11.7718V1.55518L130.872 3.00236V3.42355L131.013 3.50995C131.553 3.86635 132.105 4.35234 132.105 5.34593V20.4657C132.105 21.9129 132.029 22.6689 131.532 23.5869L131.499 23.6517V24.0945H134.754V23.6409L134.711 23.5653C134.17 22.6581 134.138 21.8697 134.138 20.4549V13.1542C135.608 11.707 137.338 11.4911 138.247 11.4911C140.15 11.4911 141.069 12.463 141.069 14.4826V20.4657C141.069 21.8913 140.982 22.6797 140.496 23.5869L140.463 23.6517V24.0945H143.718V23.6409L143.675 23.5653C143.134 22.7121 143.113 21.9453 143.113 20.4333L143.08 20.4549ZM132.278 23.5005C132.656 22.6365 132.732 21.8157 132.732 20.4873V5.36753C132.732 4.34154 132.245 3.71515 131.759 3.30475L133.51 2.52716V20.4873C133.51 21.7725 133.532 22.6149 133.954 23.5005H132.278ZM141.231 23.5005C141.61 22.6365 141.685 21.7833 141.685 20.4873V14.5042C141.685 12.1498 140.496 10.8971 138.247 10.8971C137.219 10.8971 136.225 11.1347 135.338 11.5775C136.387 10.8323 137.598 10.4327 138.863 10.4327C140.507 10.4327 142.464 11.0915 142.464 14.2018V20.4549C142.464 21.7833 142.485 22.6473 142.896 23.5005H141.231Z" fill="#222222"/>
<path d="M84.8727 20.455V14.2018C84.8727 11.4155 83.3373 9.81709 80.6448 9.81709C78.839 9.81709 77.1413 10.5515 75.8113 11.8907V9.46069L72.6754 11.2751V11.6747L72.816 11.7611C73.3567 12.1175 73.9081 12.6035 73.9081 13.597V20.4982C73.9081 21.9453 73.8325 22.7013 73.3351 23.6193L73.3026 23.6841V24.1269H76.5574V23.6733L76.5141 23.5977C75.9735 22.6905 75.941 21.9021 75.941 20.4658V13.1866C76.9467 12.1499 78.4713 11.5343 80.05 11.5343C81.9532 11.5343 82.8723 12.5063 82.8723 14.5258V20.509C82.8723 21.9345 82.7858 22.7229 82.2992 23.6301L82.2668 23.6949V24.1377H85.5215V23.6841L85.4783 23.6085C84.9376 22.7553 84.916 21.9885 84.916 20.4766L84.8727 20.455ZM74.0703 23.5005C74.4488 22.6365 74.5245 21.8157 74.5245 20.4874V13.5862C74.5245 12.5279 74.0163 11.8907 73.5081 11.4911L75.1841 10.5191V12.7655L75.4004 12.8195C75.4004 12.8195 75.3896 12.8411 75.3787 12.8411L75.2922 12.9275V20.455C75.2922 21.7617 75.3139 22.6149 75.7356 23.5005H74.0595H74.0703ZM83.0237 23.5005C83.4021 22.6365 83.4778 21.7833 83.4778 20.4874V14.5042C83.4778 12.1499 82.2884 10.8971 80.0392 10.8971C79.0336 10.8971 78.0496 11.1239 77.1737 11.5343C78.2118 10.8107 79.4013 10.4219 80.6448 10.4219C82.2884 10.4219 84.2564 11.0807 84.2564 14.191V20.4442C84.2564 21.7725 84.278 22.6365 84.6889 23.4897H83.0237V23.5005Z" fill="#222222"/>
<path d="M104.099 10.8322L104.217 10.735V10.2166H100.833V10.7566L100.984 10.843C101.514 11.167 101.914 11.7286 101.19 13.597L98.4649 20.7681L95.6751 13.381C95.0587 11.7178 95.3399 11.167 95.7291 10.8106L95.8265 10.7134V10.2058H88.8087V8.16467H88.3221L85.2728 10.8214V11.329H86.7866V21.1353C86.7866 23.2521 87.9437 24.5157 89.89 24.5157C91.4039 24.5157 92.5068 23.7381 93.1556 23.0793L93.3178 22.9173L93.015 22.3233L92.7339 22.4745C92.2581 22.7337 91.3931 23.0253 90.528 23.0253C89.3169 23.0253 88.7979 22.4745 88.7979 21.1785V11.3182H92.5393C92.8745 11.761 93.1772 12.409 93.5881 13.5214L97.4052 23.4357L96.7456 25.1421C95.8048 27.6476 93.5124 28.2092 92.788 28.2092H92.4636L92.5393 30.4016L92.8745 30.3584C95.0804 30.0992 96.4861 28.8464 97.5458 26.1357L102.39 13.5646C103.039 11.8798 103.244 11.4154 104.077 10.7998L104.099 10.8322ZM90.5388 23.6625C90.8416 23.6625 91.1335 23.6301 91.4039 23.5869C90.9713 23.7813 90.4631 23.9109 89.9008 23.9109C88.9709 23.9109 87.4138 23.5545 87.4138 21.1461V10.7242H86.3541L88.1924 9.12586V21.2109C88.1924 22.8417 88.9817 23.6733 90.5496 23.6733L90.5388 23.6625ZM93.1556 29.732L93.1232 28.8464C94.1721 28.7276 95.6967 28.0796 96.7023 26.6216C95.8265 28.5224 94.756 29.462 93.1556 29.7428V29.732ZM98.0107 23.2845L94.1829 13.327C93.7503 12.1714 93.4043 11.4046 92.9393 10.843H94.9073C94.5505 11.4802 94.6154 12.3442 95.0804 13.597L98.3784 22.3341L98.0107 23.2845ZM102.12 12.625C102.239 11.9878 102.217 11.3506 101.86 10.843H103.136C102.725 11.275 102.466 11.7718 102.12 12.625Z" fill="#222222"/>
<path d="M114.598 20.5197L113.949 20.2605L113.809 20.4873C112.987 21.8265 111.354 22.6257 109.462 22.6257C106.542 22.6257 104.791 20.4333 104.791 16.7614C104.791 16.4158 104.801 16.0918 104.834 15.7894H114.414L114.436 15.5086C114.555 14.0074 114.058 12.5278 113.063 11.4479C112.09 10.3895 110.705 9.80627 109.17 9.80627C105.439 9.80627 102.617 13.057 102.617 17.377C102.617 21.6969 105.158 24.5373 108.943 24.5373C111.614 24.5373 113.733 23.1117 114.501 20.8005L114.587 20.5197H114.598ZM112.609 11.8582C113.42 12.733 113.863 13.9318 113.83 15.163H112.673V14.7202C112.673 12.7438 112.133 11.4263 111.051 10.7783C111.646 11.0267 112.176 11.3831 112.609 11.8582ZM109.094 10.9187C111.084 10.9187 112.025 12.085 112.057 14.5798L104.996 14.731C105.515 12.301 106.996 10.9187 109.094 10.9187ZM108.954 23.9109C105.537 23.9109 103.244 21.2865 103.244 17.377C103.244 14.6446 104.455 12.3766 106.315 11.2211C105.299 12.0202 104.585 13.3162 104.304 15.001L104.239 15.3682H104.25V15.4222C104.196 15.8326 104.163 16.2646 104.163 16.7506C104.163 20.7465 106.186 23.2305 109.451 23.2305C110.814 23.2305 112.057 22.8525 113.019 22.1721C112.079 23.2629 110.641 23.8893 108.943 23.8893L108.954 23.9109Z" fill="#222222"/>
<path d="M118.956 6.84712C119.762 6.84712 120.416 6.19435 120.416 5.38913C120.416 4.58391 119.762 3.93115 118.956 3.93115C118.15 3.93115 117.496 4.58391 117.496 5.38913C117.496 6.19435 118.15 6.84712 118.956 6.84712Z" fill="#F48273"/>
<path d="M15.8305 10.0331C16.356 10.0331 16.7821 9.60275 16.7821 9.07191C16.7821 8.54106 16.356 8.11072 15.8305 8.11072C15.305 8.11072 14.8789 8.54106 14.8789 9.07191C14.8789 9.60275 15.305 10.0331 15.8305 10.0331Z" fill="#F48273"/>
<path d="M15.8305 1.92238C16.356 1.92238 16.7821 1.49204 16.7821 0.961188C16.7821 0.430339 16.356 0 15.8305 0C15.305 0 14.8789 0.430339 14.8789 0.961188C14.8789 1.49204 15.305 1.92238 15.8305 1.92238Z" fill="#F48273"/>
<path d="M15.8305 5.98317C16.356 5.98317 16.7821 5.55283 16.7821 5.02198C16.7821 4.49113 16.356 4.06079 15.8305 4.06079C15.305 4.06079 14.8789 4.49113 14.8789 5.02198C14.8789 5.55283 15.305 5.98317 15.8305 5.98317Z" fill="#F48273"/>
<path d="M12.4027 10.9619C12.9283 10.9619 13.3543 10.5316 13.3543 10.0007C13.3543 9.46989 12.9283 9.03955 12.4027 9.03955C11.8772 9.03955 11.4512 9.46989 11.4512 10.0007C11.4512 10.5316 11.8772 10.9619 12.4027 10.9619Z" fill="#F48273"/>
<path d="M8.39104 3.93117C8.91658 3.93117 9.34261 3.50083 9.34261 2.96998C9.34261 2.43913 8.91658 2.00879 8.39104 2.00879C7.86551 2.00879 7.43948 2.43913 7.43948 2.96998C7.43948 3.50083 7.86551 3.93117 8.39104 3.93117Z" fill="#F48273"/>
<path d="M10.3915 7.45192C10.917 7.45192 11.343 7.02158 11.343 6.49073C11.343 5.95988 10.917 5.52954 10.3915 5.52954C9.86594 5.52954 9.43991 5.95988 9.43991 6.49073C9.43991 7.02158 9.86594 7.45192 10.3915 7.45192Z" fill="#F48273"/>
<path d="M9.89406 13.4999C10.4196 13.4999 10.8456 13.0696 10.8456 12.5387C10.8456 12.0079 10.4196 11.5775 9.89406 11.5775C9.36853 11.5775 8.9425 12.0079 8.9425 12.5387C8.9425 13.0696 9.36853 13.4999 9.89406 13.4999Z" fill="#F48273"/>
<path d="M2.94118 9.4391C3.46672 9.4391 3.89274 9.00876 3.89274 8.47791C3.89274 7.94706 3.46672 7.51672 2.94118 7.51672C2.41565 7.51672 1.98962 7.94706 1.98962 8.47791C1.98962 9.00876 2.41565 9.4391 2.94118 9.4391Z" fill="#F48273"/>
<path d="M6.42303 11.4695C6.94856 11.4695 7.37459 11.0392 7.37459 10.5083C7.37459 9.97746 6.94856 9.54712 6.42303 9.54712C5.89749 9.54712 5.47147 9.97746 5.47147 10.5083C5.47147 11.0392 5.89749 11.4695 6.42303 11.4695Z" fill="#F48273"/>
<path d="M8.97494 16.9558C9.50047 16.9558 9.9265 16.5255 9.9265 15.9946C9.9265 15.4638 9.50047 15.0334 8.97494 15.0334C8.4494 15.0334 8.02338 15.4638 8.02338 15.9946C8.02338 16.5255 8.4494 16.9558 8.97494 16.9558Z" fill="#F48273"/>
<path d="M0.95156 16.9558C1.47709 16.9558 1.90312 16.5255 1.90312 15.9946C1.90312 15.4638 1.47709 15.0334 0.95156 15.0334C0.426028 15.0334 0 15.4638 0 15.9946C0 16.5255 0.426028 16.9558 0.95156 16.9558Z" fill="#F48273"/>
<path d="M4.96325 16.9558C5.48878 16.9558 5.91481 16.5255 5.91481 15.9946C5.91481 15.4638 5.48878 15.0334 4.96325 15.0334C4.43772 15.0334 4.01169 15.4638 4.01169 15.9946C4.01169 16.5255 4.43772 16.9558 4.96325 16.9558Z" fill="#F48273"/>
<path d="M9.89406 20.4225C10.4196 20.4225 10.8456 19.9922 10.8456 19.4613C10.8456 18.9305 10.4196 18.5001 9.89406 18.5001C9.36853 18.5001 8.9425 18.9305 8.9425 19.4613C8.9425 19.9922 9.36853 20.4225 9.89406 20.4225Z" fill="#F48273"/>
<path d="M2.94118 24.4833C3.46672 24.4833 3.89274 24.053 3.89274 23.5221C3.89274 22.9913 3.46672 22.5609 2.94118 22.5609C2.41565 22.5609 1.98962 22.9913 1.98962 23.5221C1.98962 24.053 2.41565 24.4833 2.94118 24.4833Z" fill="#F48273"/>
<path d="M6.42303 22.4529C6.94856 22.4529 7.37459 22.0226 7.37459 21.4917C7.37459 20.9609 6.94856 20.5305 6.42303 20.5305C5.89749 20.5305 5.47147 20.9609 5.47147 21.4917C5.47147 22.0226 5.89749 22.4529 6.42303 22.4529Z" fill="#F48273"/>
<path d="M12.4027 22.9497C12.9283 22.9497 13.3543 22.5194 13.3543 21.9885C13.3543 21.4577 12.9283 21.0273 12.4027 21.0273C11.8772 21.0273 11.4512 21.4577 11.4512 21.9885C11.4512 22.5194 11.8772 22.9497 12.4027 22.9497Z" fill="#F48273"/>
<path d="M8.39104 29.9805C8.91658 29.9805 9.34261 29.5501 9.34261 29.0193C9.34261 28.4884 8.91658 28.0581 8.39104 28.0581C7.86551 28.0581 7.43948 28.4884 7.43948 29.0193C7.43948 29.5501 7.86551 29.9805 8.39104 29.9805Z" fill="#F48273"/>
<path d="M10.3915 26.4705C10.917 26.4705 11.343 26.0401 11.343 25.5093C11.343 24.9784 10.917 24.5481 10.3915 24.5481C9.86594 24.5481 9.43991 24.9784 9.43991 25.5093C9.43991 26.0401 9.86594 26.4705 10.3915 26.4705Z" fill="#F48273"/>
<path d="M15.8305 23.8786C16.356 23.8786 16.7821 23.4482 16.7821 22.9174C16.7821 22.3865 16.356 21.9562 15.8305 21.9562C15.305 21.9562 14.8789 22.3865 14.8789 22.9174C14.8789 23.4482 15.305 23.8786 15.8305 23.8786Z" fill="#F48273"/>
<path d="M15.8305 32C16.356 32 16.7821 31.5697 16.7821 31.0388C16.7821 30.508 16.356 30.0776 15.8305 30.0776C15.305 30.0776 14.8789 30.508 14.8789 31.0388C14.8789 31.5697 15.305 32 15.8305 32Z" fill="#F48273"/>
<path d="M15.8305 27.9393C16.356 27.9393 16.7821 27.509 16.7821 26.9782C16.7821 26.4473 16.356 26.017 15.8305 26.017C15.305 26.017 14.8789 26.4473 14.8789 26.9782C14.8789 27.509 15.305 27.9393 15.8305 27.9393Z" fill="#F48273"/>
<path d="M19.2475 22.9497C19.773 22.9497 20.199 22.5194 20.199 21.9885C20.199 21.4577 19.773 21.0273 19.2475 21.0273C18.7219 21.0273 18.2959 21.4577 18.2959 21.9885C18.2959 22.5194 18.7219 22.9497 19.2475 22.9497Z" fill="#F48273"/>
<path d="M23.27 29.9805C23.7955 29.9805 24.2215 29.5501 24.2215 29.0193C24.2215 28.4884 23.7955 28.0581 23.27 28.0581C22.7444 28.0581 22.3184 28.4884 22.3184 29.0193C22.3184 29.5501 22.7444 29.9805 23.27 29.9805Z" fill="#F48273"/>
<path d="M21.2587 26.4705C21.7843 26.4705 22.2103 26.0401 22.2103 25.5093C22.2103 24.9784 21.7843 24.5481 21.2587 24.5481C20.7332 24.5481 20.3072 24.9784 20.3072 25.5093C20.3072 26.0401 20.7332 26.4705 21.2587 26.4705Z" fill="#F48273"/>
<path d="M21.7561 20.4225C22.2817 20.4225 22.7077 19.9922 22.7077 19.4613C22.7077 18.9305 22.2817 18.5001 21.7561 18.5001C21.2306 18.5001 20.8046 18.9305 20.8046 19.4613C20.8046 19.9922 21.2306 20.4225 21.7561 20.4225Z" fill="#F48273"/>
<path d="M28.709 24.4833C29.2345 24.4833 29.6606 24.053 29.6606 23.5221C29.6606 22.9913 29.2345 22.5609 28.709 22.5609C28.1835 22.5609 27.7574 22.9913 27.7574 23.5221C27.7574 24.053 28.1835 24.4833 28.709 24.4833Z" fill="#F48273"/>
<path d="M25.238 22.4529C25.7635 22.4529 26.1895 22.0226 26.1895 21.4917C26.1895 20.9609 25.7635 20.5305 25.238 20.5305C24.7124 20.5305 24.2864 20.9609 24.2864 21.4917C24.2864 22.0226 24.7124 22.4529 25.238 22.4529Z" fill="#F48273"/>
<path d="M22.6753 16.9558C23.2008 16.9558 23.6268 16.5255 23.6268 15.9946C23.6268 15.4638 23.2008 15.0334 22.6753 15.0334C22.1497 15.0334 21.7237 15.4638 21.7237 15.9946C21.7237 16.5255 22.1497 16.9558 22.6753 16.9558Z" fill="#F48273"/>
<path d="M30.7095 16.9558C31.235 16.9558 31.661 16.5255 31.661 15.9946C31.661 15.4638 31.235 15.0334 30.7095 15.0334C30.1839 15.0334 29.7579 15.4638 29.7579 15.9946C29.7579 16.5255 30.1839 16.9558 30.7095 16.9558Z" fill="#F48273"/>
<path d="M26.6869 16.9558C27.2125 16.9558 27.6385 16.5255 27.6385 15.9946C27.6385 15.4638 27.2125 15.0334 26.6869 15.0334C26.1614 15.0334 25.7354 15.4638 25.7354 15.9946C25.7354 16.5255 26.1614 16.9558 26.6869 16.9558Z" fill="#F48273"/>
<path d="M21.7561 13.4999C22.2817 13.4999 22.7077 13.0696 22.7077 12.5387C22.7077 12.0079 22.2817 11.5775 21.7561 11.5775C21.2306 11.5775 20.8046 12.0079 20.8046 12.5387C20.8046 13.0696 21.2306 13.4999 21.7561 13.4999Z" fill="#F48273"/>
<path d="M28.709 9.4391C29.2345 9.4391 29.6606 9.00876 29.6606 8.47791C29.6606 7.94706 29.2345 7.51672 28.709 7.51672C28.1835 7.51672 27.7574 7.94706 27.7574 8.47791C27.7574 9.00876 28.1835 9.4391 28.709 9.4391Z" fill="#F48273"/>
<path d="M25.238 11.4695C25.7635 11.4695 26.1895 11.0392 26.1895 10.5083C26.1895 9.97746 25.7635 9.54712 25.238 9.54712C24.7124 9.54712 24.2864 9.97746 24.2864 10.5083C24.2864 11.0392 24.7124 11.4695 25.238 11.4695Z" fill="#F48273"/>
<path d="M19.2475 10.9619C19.773 10.9619 20.199 10.5316 20.199 10.0007C20.199 9.46989 19.773 9.03955 19.2475 9.03955C18.7219 9.03955 18.2959 9.46989 18.2959 10.0007C18.2959 10.5316 18.7219 10.9619 19.2475 10.9619Z" fill="#F48273"/>
<path d="M23.27 3.93117C23.7955 3.93117 24.2215 3.50083 24.2215 2.96998C24.2215 2.43913 23.7955 2.00879 23.27 2.00879C22.7444 2.00879 22.3184 2.43913 22.3184 2.96998C22.3184 3.50083 22.7444 3.93117 23.27 3.93117Z" fill="#F48273"/>
<path d="M21.2587 7.45192C21.7843 7.45192 22.2103 7.02158 22.2103 6.49073C22.2103 5.95988 21.7843 5.52954 21.2587 5.52954C20.7332 5.52954 20.3072 5.95988 20.3072 6.49073C20.3072 7.02158 20.7332 7.45192 21.2587 7.45192Z" fill="#F48273"/>
</g>
<defs>
<clipPath id="clip0_24_1315">
<rect width="151.385" height="32" fill="white"/>
</clipPath>
</defs>
</svg>
