<svg xmlns="http://www.w3.org/2000/svg" width="1360.332" height="443.341" viewBox="0 0 1360.332 443.341">
  <g id="Group_2" data-name="Group 2" transform="translate(-360.668 -236.641)">
    <g id="f_XYON_Logo_Knockout-RGB_4_" data-name="f_XYON_Logo_Knockout-RGB (4)" transform="translate(337.45 429.015)">
      <g id="Group_1" data-name="Group 1" transform="translate(23.218 2.985)">
        <path id="Path_1" data-name="Path 1" d="M46.246,241.717c33.38-57.467,74.695-95.81,77.7-98.529,1.96-1.77,5.026-2.181,6.891-.095l88.034,98.623h53.326L158.366,114.171a4.549,4.549,0,0,1,.158-6.227L258.475,8.751c2.529-3.193,6.322-1.359,7.4.158L371.7,157.034v84.652h44.57l.126-92.744L535.79,1.07H494.824C468.3,56.388,414.6,123.085,410.109,127.226c-2.339,2.149-5.6,2.655-7.428.126L310.537,1.07H217.6c-32.874,54.685-62.3,85.758-70.459,92.649-1.96,1.644-5.058,2.244-6.923.158L57.372,1.07H4.046l108.8,121.794a4.559,4.559,0,0,1-.19,6.259L0,241.717Z" transform="translate(0 2.312)" fill="#141416"/>
        <path id="Path_2" data-name="Path 2" d="M394.319,15.521Q362.693.063,318.455,0c-1.991,0-3.888.063-5.816.126C310.932.095,309.257,0,307.486,0q-44.238-.047-75.927,15.3-31.673,15.362-48.205,43.337-16.548,27.975-16.564,65.148,0,37.173,16.406,65.212,16.453,28.022,48.11,43.464,31.626,15.457,75.864,15.521c1.991,0,3.888-.063,5.816-.126,1.707.032,3.382.126,5.121.126q44.238.047,75.9-15.3,31.673-15.362,48.205-43.306,16.5-27.975,16.564-65.148.047-37.173-16.406-65.18-16.453-28.022-48.111-43.464Zm-154.1,191.4q-25.083-32.1-25-83.1.047-51.351,25.983-83.2,24.419-30.014,72.766-31.673Q361.524,10.51,385.374,41q25.035,32.1,25,83.1-.047,51.351-25.952,83.2-24.419,30.014-72.766,31.673-47.557-1.565-71.407-32.053Z" transform="translate(360.434 0)" fill="#141416"/>
        <path id="Path_3" data-name="Path 3" d="M515.908,1.07H487.933c8.5,98.623,4.583,186.752,3.92,192.6-.474,4.236-5.374,6.2-8.061,2.877L323.181,1.07h-49.5V241.717h30.156c-12.138-80.448-6.48-187.8-5.816-192.663a4.717,4.717,0,0,1,8.061-2.877c2.75,2.718,160.611,195.54,160.611,195.54h49.217Z" transform="translate(591.424 2.312)" fill="#141416"/>
      </g>
    </g>
    <path id="f_XYON_Logo_Monogram_Icon_PMS2131-RGB_4_" data-name="f_XYON_Logo_Monogram_Icon_PMS2131-RGB (4)" d="M194.994,103.557a3.311,3.311,0,0,0-3.52,3,92.966,92.966,0,0,1-22.124,52.8,1.576,1.576,0,0,1-2.778-1.018v-96.6a1.628,1.628,0,0,1,.33-.963l8.47-10.849a1.59,1.59,0,0,1,2.585.124,92.856,92.856,0,0,1,13.517,41.4,3.277,3.277,0,0,0,3.259,3.011,2.177,2.177,0,0,0,.509-.041,3.364,3.364,0,0,0,2.75-3.6A98.849,98.849,0,0,0,107.074,0a3.269,3.269,0,0,0-.523,6.518,92.881,92.881,0,0,1,39.917,12.623,1.582,1.582,0,0,1,.426,2.324L99,82.766,51.109,21.481a1.6,1.6,0,0,1,.426-2.338,92.733,92.733,0,0,1,39.7-12.609,3.417,3.417,0,0,0,3.218-3.011A3.292,3.292,0,0,0,90.931,0,98.847,98.847,0,0,0,.013,90.81a3.364,3.364,0,0,0,2.75,3.6,3.306,3.306,0,0,0,.509.041,3.267,3.267,0,0,0,3.259-3.011,92.857,92.857,0,0,1,13.517-41.4,1.583,1.583,0,0,1,2.585-.124L31.1,60.766a1.541,1.541,0,0,1,.33.963v96.6a1.576,1.576,0,0,1-2.778,1.018,92.834,92.834,0,0,1-22.124-52.8,3.3,3.3,0,0,0-3.52-3,3.276,3.276,0,0,0-3,3.52,99.866,99.866,0,0,0,54.6,80.811,3.262,3.262,0,0,0,4.5-1.733,3.425,3.425,0,0,0-1.8-4.221A91.835,91.835,0,0,1,40.4,170.865a1.577,1.577,0,0,1-.234-2.186L76.548,122.12a1.579,1.579,0,0,1,2.475,0L95.4,143.076a1.541,1.541,0,0,1,.33.963v46.036a1.589,1.589,0,0,1-1.65,1.581,93.052,93.052,0,0,1-22.551-3.974,3.272,3.272,0,0,0-4.208,2.681,3.419,3.419,0,0,0,2.448,3.616,99.861,99.861,0,0,0,58.453,0,3.4,3.4,0,0,0,2.448-3.6,3.264,3.264,0,0,0-4.208-2.681,92.826,92.826,0,0,1-22.537,3.974,1.589,1.589,0,0,1-1.65-1.581V144.052a1.628,1.628,0,0,1,.33-.963l16.363-20.956a1.579,1.579,0,0,1,2.475,0l36.37,46.559a1.577,1.577,0,0,1-.234,2.186,91.729,91.729,0,0,1-16.9,11.055,3.431,3.431,0,0,0-1.8,4.221,3.281,3.281,0,0,0,3.039,2.076,3.24,3.24,0,0,0,1.458-.344,99.837,99.837,0,0,0,54.6-80.811,3.267,3.267,0,0,0-3-3.52ZM172.072,43.55,169.377,47a1.57,1.57,0,0,1-2.805-.963V39.315a1.583,1.583,0,0,1,2.778-1.031c.935,1.086,1.843,2.186,2.736,3.314a1.589,1.589,0,0,1,0,1.953ZM154.678,24.63c1.65,1.224,3.245,2.516,4.8,3.85a1.57,1.57,0,0,1,.55,1.21V58.428a1.628,1.628,0,0,1-.33.963l-38.254,48.965a1.579,1.579,0,0,1-2.475,0L103.9,89.064a1.569,1.569,0,0,1,0-1.925L152.5,24.918a1.584,1.584,0,0,1,2.186-.3ZM94.093,89.064l-15.07,19.292a1.579,1.579,0,0,1-2.475,0L38.294,59.377a1.541,1.541,0,0,1-.33-.963V29.676a1.616,1.616,0,0,1,.55-1.21c1.554-1.334,3.163-2.613,4.8-3.85a1.586,1.586,0,0,1,2.186.3L94.093,87.111a1.569,1.569,0,0,1,0,1.925ZM25.932,41.6c.88-1.128,1.8-2.228,2.736-3.314a1.585,1.585,0,0,1,2.778,1.031v6.724A1.568,1.568,0,0,1,28.641,47l-2.7-3.451a1.589,1.589,0,0,1,0-1.953ZM37.978,156.345V74.117a1.568,1.568,0,0,1,2.805-.963L72.9,114.269a1.569,1.569,0,0,1,0,1.925L40.783,157.307a1.57,1.57,0,0,1-2.805-.963Zm59.8-20.859-15.07-19.292a1.569,1.569,0,0,1,0-1.925l15.07-19.292a1.579,1.579,0,0,1,2.475,0l15.07,19.292a1.569,1.569,0,0,1,0,1.925l-15.07,19.292A1.579,1.579,0,0,1,97.778,135.485ZM160.04,74.117v82.227a1.568,1.568,0,0,1-2.805.963l-32.121-41.114a1.569,1.569,0,0,1,0-1.925l32.121-41.114a1.57,1.57,0,0,1,2.805.963Z" transform="translate(1522.998 236.648)" fill="#365abd"/>
  </g>
</svg>
